G04 DipTrace 2.4.0.2*
%INBottomMask.gbr*%
%MOIN*%
%ADD32R,0.0669X0.0669*%
%ADD33C,0.0669*%
%ADD46C,0.116*%
%ADD68C,0.0748*%
%ADD70R,0.0748X0.0748*%
%ADD76R,0.0579X0.0579*%
%ADD78C,0.0579*%
%ADD84R,0.0472X0.0512*%
%ADD86R,0.0512X0.0472*%
%FSLAX44Y44*%
G04*
G70*
G90*
G75*
G01*
%LNBotMask*%
%LPD*%
D86*
X16479Y12516D3*
X15810D3*
X16450Y13087D3*
X15781D3*
X17849Y11367D3*
X17180D3*
X17373Y11922D3*
X16704D3*
D84*
X5986Y12762D3*
Y12093D3*
D86*
X6231Y7598D3*
X6900D3*
X9348Y11545D3*
X10017D3*
X10356Y7697D3*
X11025D3*
D84*
X13562Y12437D3*
Y13106D3*
X17872Y13901D3*
Y14570D3*
X14187Y12437D3*
Y13106D3*
X12062Y12437D3*
Y13106D3*
X8812Y12437D3*
Y13106D3*
X16655Y13953D3*
Y14622D3*
D78*
X18437Y14687D3*
D76*
Y13687D3*
D46*
X5187Y14687D3*
X21187D3*
X21437Y5437D3*
X5187Y5187D3*
D32*
X15937Y14687D3*
D33*
X15150D3*
X14362D3*
X13575D3*
X12787D3*
X12000D3*
X11213D3*
X10425D3*
X9638D3*
X8850D3*
X8063D3*
X7276D3*
Y13900D3*
X8063D3*
X8850D3*
X9638D3*
X10425D3*
X11213D3*
X12000D3*
X12787D3*
X13575D3*
X14362D3*
X15150D3*
X15937D3*
D70*
X7437Y5187D3*
D68*
X8437D3*
X9437D3*
X10437D3*
X11437D3*
D84*
X19296Y14275D3*
Y13605D3*
X10437Y12437D3*
Y13106D3*
X7525Y12789D3*
Y12119D3*
D86*
X9743Y10917D3*
X9074D3*
X11660Y10889D3*
X12329D3*
X8177Y7678D3*
X7508D3*
X7464Y10780D3*
X8133D3*
X7217Y11463D3*
X6547D3*
X4880Y11475D3*
X5549D3*
X5551Y10668D3*
X4882D3*
X4886Y7658D3*
X5556D3*
X5551Y8707D3*
X4882D3*
X5847Y9513D3*
X6516D3*
X7398Y8733D3*
X8067D3*
X9736Y9229D3*
X9067D3*
X11598Y8630D3*
X12267D3*
X12299Y11558D3*
X11630D3*
D84*
X9525Y13115D3*
Y12446D3*
D86*
X8929Y7678D3*
X9599D3*
X12370Y7687D3*
X11700D3*
X11189Y9919D3*
X10520D3*
X9847Y8628D3*
X10516D3*
D84*
X15141Y12430D3*
Y13099D3*
X15133Y11132D3*
Y11801D3*
M02*
