M48
INCH
T01C0.015
T02C0.028
T03C0.0354
T04C0.0433
T05C0.116
%
T01
X+020312Y+009187
X+021281Y+009175
X+018223Y+009645
X+017903Y+011671
X+017109Y+012500
X+017945Y+013289
X+017114Y+013902
X+017479Y+014239
X+015874Y+012038
X+014041Y+012080
X+013171Y+012751
X+011630Y+011193
X+012176Y+010044
X+012176Y+009189
X+011676Y+009189
X+011025Y+008062
X+010767Y+007222
X+009663Y+007988
X+009176Y+008280
X+007928Y+008230
X+006973Y+007963
X+006412Y+008034
X+005436Y+009211
X+004527Y+009024
X+004984Y+010160
X+005984Y+011337
X+005476Y+011847
X+006214Y+013174
X+006912Y+013109
X+007927Y+012213
X+009525Y+012117
X+009944Y+011910
X+009676Y+010137
X+010066Y+010106
X+009176Y+010137
X+007484Y+010160
X+006819Y+010160
X+007484Y+009211
X+012906Y+006163
X+013749Y+007931
X+014508Y+008830
X+015617Y+007643
X+016122Y+007545
X+016105Y+007873
X+016404Y+008001
X+017749Y+007410
X+018015Y+006908
X+018707Y+006549
X+019780Y+006258
X+019555Y+005626
X+019191Y+004691
X+017098Y+005000
X+015599Y+004748
X+015191Y+005935
X+014826Y+006818
X+016118Y+010128
T02
X+018437Y+014687
X+018437Y+013687
T03
X+015937Y+014687
X+015150Y+014687
X+014362Y+014687
X+013575Y+014687
X+012787Y+014687
X+012000Y+014687
X+011213Y+014687
X+010425Y+014687
X+009638Y+014687
X+008850Y+014687
X+008063Y+014687
X+007276Y+014687
X+007276Y+013900
X+008063Y+013900
X+008850Y+013900
X+009638Y+013900
X+010425Y+013900
X+011213Y+013900
X+012000Y+013900
X+012787Y+013900
X+013575Y+013900
X+014362Y+013900
X+015150Y+013900
X+015937Y+013900
T04
X+007437Y+005187
X+008437Y+005187
X+009437Y+005187
X+010437Y+005187
X+011437Y+005187
T05
X+005187Y+014687
X+005187Y+005187
X+021437Y+005437
X+021187Y+014687
T00
M30
