G04 DipTrace 2.4.0.2*
%INTopSilk.gbr*%
%MOIN*%
%ADD10C,0.0098*%
%ADD27C,0.0039*%
%ADD28C,0.0079*%
%ADD34C,0.0154*%
%ADD37C,0.0237*%
%ADD40O,0.0154X0.0162*%
%ADD88C,0.0046*%
%FSLAX44Y44*%
G04*
G70*
G90*
G75*
G01*
%LNTopSilk*%
%LPD*%
X20179Y8002D2*
D10*
Y7372D1*
X20254Y8002D2*
Y7372D1*
Y8002D2*
X20018D1*
X20254Y7372D2*
X20018D1*
X22002Y7445D2*
X21372D1*
X22002Y7370D2*
X21372D1*
X22002D2*
Y7606D1*
X21372Y7370D2*
Y7606D1*
X19186Y13187D2*
X17688D1*
X19189Y13189D2*
G03X17685Y13189I-752J998D01*
G01*
X19115Y12541D2*
D27*
X18643D1*
X19115Y12935D2*
X18643D1*
D28*
X19352Y12738D3*
X16409Y13427D2*
D10*
X6803D1*
Y15159D1*
X16409D1*
Y13427D1*
X6937Y5687D2*
X11937D1*
Y4687D1*
X6937D1*
Y5687D1*
D34*
X14334Y4879D3*
X13833Y4971D2*
D10*
Y6152D1*
X13636D1*
Y4971D1*
X13833D1*
X13466Y9660D2*
X15887Y12082D1*
X18309Y9660D1*
X15887Y7238D1*
X13466Y9660D1*
D37*
X12881Y9326D3*
G36*
X13482Y9655D2*
X13752Y9913D1*
X13482Y9655D1*
G37*
G36*
X13493Y9716D2*
X13827Y10050D1*
Y9271D1*
X13493Y9716D1*
G37*
X19484Y9890D2*
D10*
X22083D1*
X19484Y12646D2*
Y9890D1*
Y12646D2*
X19563D1*
X22083D2*
Y9890D1*
Y12646D2*
X22004D1*
D34*
X19494Y8741D3*
X19114Y6227D2*
D10*
X19232Y6109D1*
X17657Y6227D2*
Y6109D1*
Y6227D2*
X17776D1*
X17657Y4652D2*
X17776D1*
X17657D2*
Y4770D1*
X19232Y4652D2*
X19114D1*
X19232D2*
Y4770D1*
D40*
X18935Y6501D3*
X8177Y10197D2*
D10*
X4791D1*
X8177Y9174D2*
X4791D1*
Y10197D2*
Y9174D1*
X8177Y10197D2*
Y9882D1*
Y9489D2*
Y9174D1*
Y9882D2*
G03X8177Y9489I0J-197D01*
G01*
X12369Y10175D2*
X8983D1*
X12369Y9151D2*
X8983D1*
Y10175D2*
Y9151D1*
X12369Y10175D2*
Y9860D1*
Y9466D2*
Y9151D1*
Y9860D2*
G03X12369Y9466I0J-197D01*
G01*
X15873Y13470D2*
D88*
X15859Y13498D1*
X15830Y13527D1*
X15802Y13541D1*
X15744D1*
X15715Y13527D1*
X15687Y13498D1*
X15672Y13470D1*
X15658Y13426D1*
Y13355D1*
X15672Y13312D1*
X15687Y13283D1*
X15715Y13254D1*
X15744Y13240D1*
X15802D1*
X15830Y13254D1*
X15859Y13283D1*
X15873Y13312D1*
X16138Y13541D2*
X15995D1*
X15980Y13412D1*
X15995Y13426D1*
X16038Y13441D1*
X16081D1*
X16124Y13426D1*
X16153Y13398D1*
X16167Y13355D1*
Y13326D1*
X16153Y13283D1*
X16124Y13254D1*
X16081Y13240D1*
X16038D1*
X15995Y13254D1*
X15980Y13269D1*
X15966Y13297D1*
X17914Y7567D2*
X17886Y7553D1*
X17857Y7524D1*
X17843Y7495D1*
Y7438D1*
X17857Y7409D1*
X17886Y7381D1*
X17914Y7366D1*
X17957Y7352D1*
X18029D1*
X18072Y7366D1*
X18101Y7381D1*
X18129Y7409D1*
X18144Y7438D1*
Y7495D1*
X18129Y7524D1*
X18101Y7553D1*
X18072Y7567D1*
X17886Y7832D2*
X17857Y7817D1*
X17843Y7774D1*
Y7746D1*
X17857Y7703D1*
X17900Y7674D1*
X17972Y7660D1*
X18044D1*
X18101Y7674D1*
X18130Y7703D1*
X18144Y7746D1*
Y7760D1*
X18130Y7803D1*
X18101Y7832D1*
X18058Y7846D1*
X18044D1*
X18000Y7832D1*
X17972Y7803D1*
X17958Y7760D1*
Y7746D1*
X17972Y7703D1*
X18000Y7674D1*
X18044Y7660D1*
X19397Y5520D2*
X19369Y5506D1*
X19340Y5477D1*
X19325Y5449D1*
Y5391D1*
X19340Y5362D1*
X19369Y5334D1*
X19397Y5319D1*
X19440Y5305D1*
X19512D1*
X19555Y5319D1*
X19584Y5334D1*
X19612Y5362D1*
X19627Y5391D1*
Y5449D1*
X19612Y5477D1*
X19584Y5506D1*
X19555Y5520D1*
X19627Y5670D2*
X19326Y5814D1*
Y5613D1*
X15895Y5312D2*
X15880Y5341D1*
X15852Y5369D1*
X15823Y5384D1*
X15766D1*
X15737Y5369D1*
X15708Y5341D1*
X15694Y5312D1*
X15680Y5269D1*
Y5197D1*
X15694Y5154D1*
X15708Y5125D1*
X15737Y5097D1*
X15766Y5082D1*
X15823D1*
X15852Y5097D1*
X15880Y5125D1*
X15895Y5154D1*
X16059Y5383D2*
X16016Y5369D1*
X16002Y5341D1*
Y5312D1*
X16016Y5283D1*
X16045Y5269D1*
X16102Y5254D1*
X16145Y5240D1*
X16174Y5211D1*
X16188Y5183D1*
Y5140D1*
X16174Y5111D1*
X16159Y5097D1*
X16116Y5082D1*
X16059D1*
X16016Y5097D1*
X16002Y5111D1*
X15987Y5140D1*
Y5183D1*
X16002Y5211D1*
X16030Y5240D1*
X16073Y5254D1*
X16131Y5269D1*
X16159Y5283D1*
X16174Y5312D1*
Y5341D1*
X16159Y5369D1*
X16116Y5383D1*
X16059D1*
X16533Y5302D2*
X16505Y5288D1*
X16476Y5259D1*
X16462Y5231D1*
Y5173D1*
X16476Y5145D1*
X16505Y5116D1*
X16533Y5101D1*
X16577Y5087D1*
X16649D1*
X16691Y5101D1*
X16720Y5116D1*
X16749Y5145D1*
X16763Y5173D1*
Y5231D1*
X16749Y5259D1*
X16720Y5288D1*
X16691Y5302D1*
X16562Y5582D2*
X16605Y5567D1*
X16634Y5539D1*
X16649Y5495D1*
Y5481D1*
X16634Y5438D1*
X16605Y5410D1*
X16562Y5395D1*
X16548D1*
X16505Y5410D1*
X16476Y5438D1*
X16462Y5481D1*
Y5495D1*
X16476Y5539D1*
X16505Y5567D1*
X16562Y5582D1*
X16634D1*
X16706Y5567D1*
X16749Y5539D1*
X16763Y5495D1*
Y5467D1*
X16749Y5424D1*
X16720Y5410D1*
X15741Y5769D2*
X15713Y5754D1*
X15684Y5726D1*
X15670Y5697D1*
Y5640D1*
X15684Y5611D1*
X15713Y5582D1*
X15741Y5568D1*
X15785Y5553D1*
X15856D1*
X15899Y5568D1*
X15928Y5582D1*
X15957Y5611D1*
X15971Y5640D1*
Y5697D1*
X15957Y5726D1*
X15928Y5754D1*
X15899Y5769D1*
X15727Y5861D2*
X15713Y5890D1*
X15670Y5933D1*
X15971D1*
X15670Y6112D2*
X15684Y6069D1*
X15727Y6040D1*
X15799Y6026D1*
X15842D1*
X15914Y6040D1*
X15957Y6069D1*
X15971Y6112D1*
Y6141D1*
X15957Y6184D1*
X15914Y6212D1*
X15842Y6227D1*
X15799D1*
X15727Y6212D1*
X15684Y6184D1*
X15670Y6141D1*
Y6112D1*
X15727Y6212D2*
X15914Y6040D1*
X20079Y8409D2*
X20065Y8438D1*
X20036Y8466D1*
X20007Y8481D1*
X19950D1*
X19921Y8466D1*
X19892Y8438D1*
X19878Y8409D1*
X19864Y8366D1*
Y8294D1*
X19878Y8251D1*
X19892Y8222D1*
X19921Y8194D1*
X19950Y8179D1*
X20007D1*
X20036Y8194D1*
X20065Y8222D1*
X20079Y8251D1*
X20171Y8423D2*
X20200Y8438D1*
X20243Y8480D1*
Y8179D1*
X20336Y8423D2*
X20365Y8438D1*
X20408Y8480D1*
Y8179D1*
X20965Y7367D2*
X20936Y7352D1*
X20908Y7324D1*
X20893Y7295D1*
Y7238D1*
X20908Y7209D1*
X20936Y7180D1*
X20965Y7166D1*
X21008Y7151D1*
X21080D1*
X21123Y7166D1*
X21152Y7180D1*
X21180Y7209D1*
X21195Y7238D1*
Y7295D1*
X21180Y7324D1*
X21152Y7352D1*
X21123Y7367D1*
X20951Y7459D2*
X20936Y7488D1*
X20894Y7531D1*
X21195D1*
X20965Y7639D2*
X20951D1*
X20922Y7653D1*
X20908Y7667D1*
X20894Y7696D1*
Y7753D1*
X20908Y7782D1*
X20922Y7796D1*
X20951Y7811D1*
X20980D1*
X21008Y7796D1*
X21051Y7768D1*
X21195Y7624D1*
Y7825D1*
X18254Y15876D2*
Y15575D1*
X18355D1*
X18398Y15590D1*
X18427Y15618D1*
X18441Y15647D1*
X18455Y15690D1*
Y15762D1*
X18441Y15805D1*
X18427Y15833D1*
X18398Y15862D1*
X18355Y15876D1*
X18254D1*
X18548Y15819D2*
X18577Y15833D1*
X18620Y15876D1*
Y15575D1*
X18701Y13374D2*
Y13073D1*
X18801D1*
X18844Y13087D1*
X18873Y13116D1*
X18888Y13145D1*
X18902Y13188D1*
Y13260D1*
X18888Y13303D1*
X18873Y13331D1*
X18844Y13360D1*
X18801Y13374D1*
X18701D1*
X19009Y13302D2*
Y13317D1*
X19023Y13345D1*
X19038Y13360D1*
X19066Y13374D1*
X19124D1*
X19152Y13360D1*
X19167Y13345D1*
X19181Y13317D1*
Y13288D1*
X19167Y13259D1*
X19138Y13216D1*
X18994Y13073D1*
X19195D1*
X11596Y15599D2*
Y15369D1*
X11582Y15326D1*
X11567Y15312D1*
X11538Y15297D1*
X11510D1*
X11481Y15312D1*
X11467Y15326D1*
X11452Y15369D1*
Y15398D1*
X11688Y15541D2*
X11717Y15556D1*
X11760Y15598D1*
Y15297D1*
X9362Y6676D2*
Y6446D1*
X9348Y6403D1*
X9333Y6389D1*
X9305Y6374D1*
X9276D1*
X9247Y6389D1*
X9233Y6403D1*
X9218Y6446D1*
Y6475D1*
X9469Y6604D2*
Y6618D1*
X9483Y6647D1*
X9498Y6661D1*
X9527Y6675D1*
X9584D1*
X9612Y6661D1*
X9627Y6647D1*
X9641Y6618D1*
Y6589D1*
X9627Y6560D1*
X9598Y6518D1*
X9455Y6374D1*
X9656D1*
X13632Y6591D2*
X13604Y6577D1*
X13575Y6548D1*
X13560Y6519D1*
X13546Y6476D1*
Y6405D1*
X13560Y6361D1*
X13575Y6333D1*
X13604Y6304D1*
X13632Y6290D1*
X13689D1*
X13718Y6304D1*
X13747Y6333D1*
X13761Y6361D1*
X13776Y6405D1*
Y6476D1*
X13761Y6519D1*
X13747Y6548D1*
X13718Y6577D1*
X13689Y6591D1*
X13632D1*
X13675Y6347D2*
X13761Y6261D1*
X13868Y6533D2*
X13897Y6548D1*
X13940Y6591D1*
Y6289D1*
X17929Y12533D2*
X18058D1*
X18101Y12548D1*
X18116Y12562D1*
X18130Y12591D1*
Y12620D1*
X18116Y12648D1*
X18101Y12663D1*
X18058Y12677D1*
X17929D1*
Y12376D1*
X18029Y12533D2*
X18130Y12376D1*
X18237Y12605D2*
Y12619D1*
X18251Y12648D1*
X18266Y12662D1*
X18295Y12677D1*
X18352D1*
X18380Y12662D1*
X18395Y12648D1*
X18409Y12619D1*
Y12591D1*
X18395Y12562D1*
X18366Y12519D1*
X18223Y12376D1*
X18424D1*
X8301Y6747D2*
X8430D1*
X8474Y6762D1*
X8488Y6776D1*
X8502Y6805D1*
Y6833D1*
X8488Y6862D1*
X8474Y6877D1*
X8430Y6891D1*
X8301D1*
Y6589D1*
X8402Y6747D2*
X8502Y6589D1*
X8624Y6891D2*
X8781D1*
X8696Y6776D1*
X8739D1*
X8767Y6762D1*
X8781Y6747D1*
X8796Y6704D1*
Y6676D1*
X8781Y6633D1*
X8753Y6604D1*
X8710Y6589D1*
X8667D1*
X8624Y6604D1*
X8610Y6618D1*
X8595Y6647D1*
X14980Y5805D2*
X15109D1*
X15152Y5819D1*
X15167Y5833D1*
X15181Y5862D1*
Y5891D1*
X15167Y5919D1*
X15152Y5934D1*
X15109Y5948D1*
X14980D1*
Y5647D1*
X15081Y5805D2*
X15181Y5647D1*
X15446Y5948D2*
X15303D1*
X15288Y5819D1*
X15303Y5833D1*
X15346Y5848D1*
X15388D1*
X15432Y5833D1*
X15460Y5805D1*
X15475Y5761D1*
Y5733D1*
X15460Y5690D1*
X15432Y5661D1*
X15388Y5647D1*
X15346D1*
X15303Y5661D1*
X15288Y5676D1*
X15274Y5704D1*
X17168Y7523D2*
X17297D1*
X17340Y7538D1*
X17354Y7552D1*
X17369Y7581D1*
Y7610D1*
X17354Y7638D1*
X17340Y7653D1*
X17297Y7667D1*
X17168D1*
Y7366D1*
X17268Y7523D2*
X17369Y7366D1*
X17633Y7624D2*
X17619Y7652D1*
X17576Y7667D1*
X17548D1*
X17504Y7652D1*
X17476Y7609D1*
X17461Y7538D1*
Y7466D1*
X17476Y7409D1*
X17504Y7380D1*
X17548Y7366D1*
X17562D1*
X17605Y7380D1*
X17633Y7409D1*
X17648Y7452D1*
Y7466D1*
X17633Y7509D1*
X17605Y7538D1*
X17562Y7552D1*
X17548D1*
X17504Y7538D1*
X17476Y7509D1*
X17461Y7466D1*
X19543Y7135D2*
X19672D1*
X19715Y7150D1*
X19729Y7164D1*
X19744Y7192D1*
Y7221D1*
X19729Y7250D1*
X19715Y7264D1*
X19672Y7279D1*
X19543D1*
Y6977D1*
X19643Y7135D2*
X19744Y6977D1*
X19894D2*
X20037Y7278D1*
X19836D1*
X18333Y12050D2*
Y11749D1*
X18232Y12050D2*
X18433D1*
X18526Y11892D2*
X18655D1*
X18698Y11906D1*
X18713Y11921D1*
X18727Y11950D1*
Y11993D1*
X18713Y12021D1*
X18698Y12036D1*
X18655Y12050D1*
X18526D1*
Y11749D1*
X18820Y11992D2*
X18848Y12007D1*
X18892Y12050D1*
Y11749D1*
X18643Y11613D2*
Y11311D1*
X18543Y11613D2*
X18744D1*
X18837Y11455D2*
X18966D1*
X19009Y11469D1*
X19023Y11484D1*
X19037Y11512D1*
Y11555D1*
X19023Y11584D1*
X19009Y11598D1*
X18966Y11613D1*
X18837D1*
Y11311D1*
X19145Y11541D2*
Y11555D1*
X19159Y11584D1*
X19173Y11598D1*
X19202Y11612D1*
X19259D1*
X19288Y11598D1*
X19302Y11584D1*
X19317Y11555D1*
Y11526D1*
X19302Y11497D1*
X19274Y11455D1*
X19130Y11311D1*
X19331D1*
X12612Y6838D2*
Y6537D1*
X12512Y6838D2*
X12713D1*
X12805Y6680D2*
X12935D1*
X12977Y6695D1*
X12992Y6709D1*
X13006Y6738D1*
Y6781D1*
X12992Y6809D1*
X12977Y6824D1*
X12935Y6838D1*
X12805D1*
Y6537D1*
X13128Y6838D2*
X13285D1*
X13199Y6723D1*
X13242D1*
X13271Y6709D1*
X13285Y6695D1*
X13300Y6652D1*
Y6623D1*
X13285Y6580D1*
X13257Y6551D1*
X13214Y6537D1*
X13170D1*
X13128Y6551D1*
X13113Y6566D1*
X13099Y6594D1*
X4686Y12469D2*
Y12168D1*
X4586Y12469D2*
X4787D1*
X4880Y12311D2*
X5009D1*
X5052Y12326D1*
X5066Y12340D1*
X5081Y12369D1*
Y12412D1*
X5066Y12440D1*
X5052Y12455D1*
X5009Y12469D1*
X4880D1*
Y12168D1*
X5317D2*
Y12469D1*
X5173Y12268D1*
X5388D1*
X7635Y8420D2*
Y8119D1*
X7534Y8420D2*
X7735D1*
X7828Y8263D2*
X7957D1*
X8000Y8277D1*
X8015Y8291D1*
X8029Y8320D1*
Y8363D1*
X8015Y8392D1*
X8000Y8406D1*
X7957Y8420D1*
X7828D1*
Y8119D1*
X8294Y8420D2*
X8150D1*
X8136Y8291D1*
X8150Y8305D1*
X8193Y8320D1*
X8236D1*
X8279Y8305D1*
X8308Y8277D1*
X8322Y8234D1*
Y8205D1*
X8308Y8162D1*
X8279Y8133D1*
X8236Y8119D1*
X8193D1*
X8150Y8133D1*
X8136Y8148D1*
X8121Y8176D1*
X8832Y12311D2*
Y12009D1*
X8732Y12311D2*
X8933D1*
X9026Y12153D2*
X9155D1*
X9198Y12167D1*
X9212Y12182D1*
X9227Y12210D1*
Y12254D1*
X9212Y12282D1*
X9198Y12297D1*
X9155Y12311D1*
X9026D1*
Y12009D1*
X9491Y12268D2*
X9477Y12296D1*
X9434Y12311D1*
X9405D1*
X9362Y12296D1*
X9333Y12253D1*
X9319Y12182D1*
Y12110D1*
X9333Y12053D1*
X9362Y12024D1*
X9405Y12009D1*
X9420D1*
X9462Y12024D1*
X9491Y12053D1*
X9506Y12096D1*
Y12110D1*
X9491Y12153D1*
X9462Y12182D1*
X9420Y12196D1*
X9405D1*
X9362Y12182D1*
X9333Y12153D1*
X9319Y12110D1*
X11812Y8178D2*
Y7876D1*
X11711Y8178D2*
X11912D1*
X12005Y8020D2*
X12134D1*
X12177Y8034D1*
X12192Y8049D1*
X12206Y8077D1*
Y8120D1*
X12192Y8149D1*
X12177Y8163D1*
X12134Y8178D1*
X12005D1*
Y7876D1*
X12356D2*
X12500Y8177D1*
X12299D1*
X18644Y10363D2*
Y10061D1*
X18543Y10363D2*
X18744D1*
X18837Y10205D2*
X18966D1*
X19009Y10219D1*
X19023Y10234D1*
X19038Y10262D1*
Y10305D1*
X19023Y10334D1*
X19009Y10348D1*
X18966Y10363D1*
X18837D1*
Y10061D1*
X19202Y10362D2*
X19159Y10348D1*
X19145Y10319D1*
Y10291D1*
X19159Y10262D1*
X19188Y10247D1*
X19245Y10233D1*
X19288Y10219D1*
X19317Y10190D1*
X19331Y10162D1*
Y10118D1*
X19317Y10090D1*
X19302Y10075D1*
X19259Y10061D1*
X19202D1*
X19159Y10075D1*
X19145Y10090D1*
X19130Y10118D1*
Y10162D1*
X19145Y10190D1*
X19173Y10219D1*
X19216Y10233D1*
X19274Y10247D1*
X19302Y10262D1*
X19317Y10291D1*
Y10319D1*
X19302Y10348D1*
X19259Y10362D1*
X19202D1*
X9897Y8259D2*
Y7958D1*
X9797Y8259D2*
X9998D1*
X10090Y8102D2*
X10219D1*
X10262Y8116D1*
X10277Y8130D1*
X10291Y8159D1*
Y8202D1*
X10277Y8231D1*
X10262Y8245D1*
X10219Y8259D1*
X10090D1*
Y7958D1*
X10570Y8159D2*
X10556Y8116D1*
X10527Y8087D1*
X10484Y8073D1*
X10470D1*
X10427Y8087D1*
X10398Y8116D1*
X10384Y8159D1*
Y8173D1*
X10398Y8216D1*
X10427Y8245D1*
X10470Y8259D1*
X10484D1*
X10527Y8245D1*
X10556Y8216D1*
X10570Y8159D1*
Y8087D1*
X10556Y8015D1*
X10527Y7972D1*
X10484Y7958D1*
X10456D1*
X10413Y7972D1*
X10398Y8001D1*
X10775Y12384D2*
Y12083D1*
X10674Y12384D2*
X10875D1*
X10968Y12227D2*
X11097D1*
X11140Y12241D1*
X11154Y12255D1*
X11169Y12284D1*
Y12327D1*
X11154Y12356D1*
X11140Y12370D1*
X11097Y12384D1*
X10968D1*
Y12083D1*
X11261Y12327D2*
X11290Y12341D1*
X11333Y12384D1*
Y12083D1*
X11512Y12384D2*
X11469Y12370D1*
X11440Y12327D1*
X11426Y12255D1*
Y12212D1*
X11440Y12140D1*
X11469Y12097D1*
X11512Y12083D1*
X11541D1*
X11584Y12097D1*
X11612Y12140D1*
X11627Y12212D1*
Y12255D1*
X11612Y12327D1*
X11584Y12370D1*
X11541Y12384D1*
X11512D1*
X11612Y12327D2*
X11440Y12140D1*
X5556Y8292D2*
Y7991D1*
X5456Y8292D2*
X5657D1*
X5749Y8134D2*
X5879D1*
X5922Y8148D1*
X5936Y8163D1*
X5950Y8192D1*
Y8235D1*
X5936Y8263D1*
X5922Y8278D1*
X5879Y8292D1*
X5749D1*
Y7991D1*
X6043Y8234D2*
X6072Y8249D1*
X6115Y8292D1*
Y7991D1*
X6208Y8234D2*
X6236Y8249D1*
X6280Y8292D1*
Y7991D1*
X6598Y12554D2*
Y12252D1*
X6497Y12554D2*
X6698D1*
X6791Y12396D2*
X6920D1*
X6963Y12410D1*
X6977Y12425D1*
X6992Y12453D1*
Y12496D1*
X6977Y12525D1*
X6963Y12540D1*
X6920Y12554D1*
X6791D1*
Y12252D1*
X7084Y12496D2*
X7113Y12511D1*
X7156Y12554D1*
Y12252D1*
X7263Y12482D2*
Y12496D1*
X7278Y12525D1*
X7292Y12539D1*
X7321Y12554D1*
X7378D1*
X7407Y12539D1*
X7421Y12525D1*
X7436Y12496D1*
Y12468D1*
X7421Y12439D1*
X7392Y12396D1*
X7249Y12252D1*
X7450D1*
X7552Y12544D2*
Y12242D1*
X7451Y12544D2*
X7652D1*
X7745Y12386D2*
X7874D1*
X7917Y12400D1*
X7931Y12415D1*
X7946Y12443D1*
Y12486D1*
X7931Y12515D1*
X7917Y12529D1*
X7874Y12544D1*
X7745D1*
Y12242D1*
X8038Y12486D2*
X8067Y12500D1*
X8110Y12543D1*
Y12242D1*
X8232Y12543D2*
X8389D1*
X8303Y12429D1*
X8346D1*
X8375Y12414D1*
X8389Y12400D1*
X8404Y12357D1*
Y12328D1*
X8389Y12285D1*
X8361Y12256D1*
X8318Y12242D1*
X8274D1*
X8232Y12256D1*
X8217Y12271D1*
X8203Y12300D1*
X4599Y8351D2*
Y8049D1*
X4498Y8351D2*
X4699D1*
X4792Y8193D2*
X4921D1*
X4964Y8207D1*
X4978Y8222D1*
X4993Y8250D1*
Y8293D1*
X4978Y8322D1*
X4964Y8336D1*
X4921Y8351D1*
X4792D1*
Y8049D1*
X5085Y8293D2*
X5114Y8308D1*
X5157Y8350D1*
Y8049D1*
X5394D2*
Y8350D1*
X5250Y8150D1*
X5465D1*
X11801Y12383D2*
Y12081D1*
X11700Y12383D2*
X11901D1*
X11994Y12225D2*
X12123D1*
X12166Y12239D1*
X12180Y12254D1*
X12195Y12282D1*
Y12325D1*
X12180Y12354D1*
X12166Y12369D1*
X12123Y12383D1*
X11994D1*
Y12081D1*
X12287Y12325D2*
X12316Y12340D1*
X12359Y12383D1*
Y12081D1*
X12624Y12383D2*
X12481D1*
X12466Y12254D1*
X12481Y12268D1*
X12524Y12282D1*
X12567D1*
X12610Y12268D1*
X12639Y12239D1*
X12653Y12196D1*
Y12168D1*
X12639Y12125D1*
X12610Y12096D1*
X12567Y12081D1*
X12524D1*
X12481Y12096D1*
X12466Y12110D1*
X12452Y12139D1*
X8837Y8269D2*
Y7967D1*
X8736Y8269D2*
X8937D1*
X9030Y8111D2*
X9159D1*
X9202Y8125D1*
X9217Y8140D1*
X9231Y8168D1*
Y8211D1*
X9217Y8240D1*
X9202Y8254D1*
X9159Y8269D1*
X9030D1*
Y7967D1*
X9323Y8211D2*
X9352Y8226D1*
X9395Y8268D1*
Y7967D1*
X9660Y8226D2*
X9646Y8254D1*
X9603Y8268D1*
X9574D1*
X9531Y8254D1*
X9502Y8211D1*
X9488Y8139D1*
Y8068D1*
X9502Y8010D1*
X9531Y7982D1*
X9574Y7967D1*
X9589D1*
X9631Y7982D1*
X9660Y8010D1*
X9674Y8054D1*
Y8068D1*
X9660Y8111D1*
X9631Y8139D1*
X9589Y8154D1*
X9574D1*
X9531Y8139D1*
X9502Y8111D1*
X9488Y8068D1*
X15652Y13120D2*
Y12905D1*
X15667Y12862D1*
X15696Y12833D1*
X15739Y12819D1*
X15767D1*
X15810Y12833D1*
X15839Y12862D1*
X15853Y12905D1*
Y13120D1*
X15946Y13062D2*
X15975Y13077D1*
X16018Y13120D1*
Y12819D1*
X20502Y13469D2*
Y13254D1*
X20517Y13211D1*
X20545Y13182D1*
X20588Y13167D1*
X20617D1*
X20660Y13182D1*
X20689Y13211D1*
X20703Y13254D1*
Y13469D1*
X20810Y13397D2*
Y13411D1*
X20825Y13440D1*
X20839Y13454D1*
X20868Y13469D1*
X20925D1*
X20954Y13454D1*
X20968Y13440D1*
X20983Y13411D1*
Y13383D1*
X20968Y13354D1*
X20939Y13311D1*
X20796Y13167D1*
X20997D1*
X18198Y7021D2*
Y6805D1*
X18212Y6762D1*
X18241Y6734D1*
X18284Y6719D1*
X18312D1*
X18355Y6734D1*
X18384Y6762D1*
X18399Y6805D1*
Y7021D1*
X18520Y7020D2*
X18678D1*
X18592Y6906D1*
X18635D1*
X18663Y6891D1*
X18678Y6877D1*
X18692Y6834D1*
Y6805D1*
X18678Y6762D1*
X18649Y6734D1*
X18606Y6719D1*
X18563D1*
X18520Y6734D1*
X18506Y6748D1*
X18491Y6777D1*
X6229Y11582D2*
Y11366D1*
X6244Y11323D1*
X6273Y11295D1*
X6316Y11280D1*
X6344D1*
X6387Y11295D1*
X6416Y11323D1*
X6430Y11366D1*
Y11582D1*
X6667Y11280D2*
Y11581D1*
X6523Y11381D1*
X6738D1*
X10429Y11559D2*
Y11344D1*
X10443Y11301D1*
X10472Y11272D1*
X10515Y11258D1*
X10543D1*
X10586Y11272D1*
X10615Y11301D1*
X10630Y11344D1*
Y11559D1*
X10894D2*
X10751D1*
X10737Y11430D1*
X10751Y11444D1*
X10794Y11459D1*
X10837D1*
X10880Y11444D1*
X10909Y11416D1*
X10923Y11372D1*
Y11344D1*
X10909Y11301D1*
X10880Y11272D1*
X10837Y11258D1*
X10794D1*
X10751Y11272D1*
X10737Y11287D1*
X10722Y11315D1*
M02*
