G04 DipTrace 2.4.0.2*
%INBottomSilk.gbr*%
%MOIN*%
%ADD12C,0.003*%
%ADD81C,0.0046*%
%FSLAX44Y44*%
G04*
G70*
G90*
G75*
G01*
%LNBotSilk*%
%LPD*%
X13207Y12282D2*
D12*
X13927D1*
X13177Y12252D2*
X13897D1*
X13147Y12222D2*
X13867D1*
X13117Y12192D2*
X13837D1*
X13087Y12162D2*
X13807D1*
X13057Y12132D2*
X13777D1*
X13027Y12102D2*
X13747D1*
X12997Y12072D2*
X13717D1*
X12967Y12042D2*
X13687D1*
X12937Y12012D2*
X13657D1*
X15247D2*
X15307D1*
X12907Y11982D2*
X13627D1*
X15099D2*
X15342D1*
X12877Y11952D2*
X13597D1*
X14961D2*
X15402D1*
X12847Y11922D2*
X13567D1*
X14827D2*
X15499D1*
X12817Y11892D2*
X13537D1*
X14227D2*
X14647D1*
X14693D2*
X15168D1*
X15260D2*
X15626D1*
X12787Y11862D2*
X13507D1*
X14168D2*
X15039D1*
X15317D2*
X15763D1*
X12757Y11832D2*
X13477D1*
X14112D2*
X14923D1*
X15407D2*
X15885D1*
X12727Y11802D2*
X13447D1*
X14060D2*
X14819D1*
X15517D2*
X15984D1*
X12697Y11772D2*
X13417D1*
X14013D2*
X14727D1*
X15517D2*
X16026D1*
X12667Y11742D2*
X13387D1*
X13971D2*
X14641D1*
X15330D2*
X16047D1*
X12637Y11712D2*
X13357D1*
X13933D2*
X14560D1*
X15174D2*
X15979D1*
X5827Y11682D2*
X6307D1*
X6367D2*
X6937D1*
X7027D2*
X7567D1*
X8107D2*
X8827D1*
X8887D2*
X9397D1*
X9517D2*
X9997D1*
X10147D2*
X10237D1*
X10627D2*
X10687D1*
X10777D2*
X11347D1*
X11497D2*
X11977D1*
X12607D2*
X13327D1*
X13901D2*
X14484D1*
X15047D2*
X15907D1*
X5798Y11652D2*
X7581D1*
X8107D2*
X9430D1*
X9511D2*
X10046D1*
X10141D2*
X10242D1*
X10582D2*
X10731D1*
X10763D2*
X11366D1*
X11464D2*
X11991D1*
X12577D2*
X13297D1*
X13873D2*
X14415D1*
X14941D2*
X15397D1*
X15577D2*
X15824D1*
X5773Y11622D2*
X7589D1*
X8107D2*
X9460D1*
X9501D2*
X10096D1*
X10131D2*
X10249D1*
X10540D2*
X11386D1*
X11435D2*
X11999D1*
X12547D2*
X13267D1*
X13851D2*
X14350D1*
X14852D2*
X15577D1*
X15697D2*
X15723D1*
X5756Y11592D2*
X7594D1*
X8107D2*
X10256D1*
X10498D2*
X12004D1*
X12517D2*
X13237D1*
X13832D2*
X14288D1*
X14775D2*
X15067D1*
X15157D2*
X15646D1*
X5744Y11562D2*
X6337D1*
X6397D2*
X7596D1*
X8107D2*
X10257D1*
X10457D2*
X12006D1*
X12487D2*
X13207D1*
X13816D2*
X14229D1*
X14704D2*
X15004D1*
X15067D2*
X15710D1*
X5743Y11532D2*
X6337D1*
X6607D2*
X7597D1*
X8107D2*
X8227D1*
X8497D2*
X8857D1*
X8953D2*
X9492D1*
X9582D2*
X10253D1*
X10417D2*
X10747D1*
X11017D2*
X12007D1*
X12456D2*
X13177D1*
X13801D2*
X14172D1*
X14641D2*
X14972D1*
X15036D2*
X15763D1*
X5754Y11502D2*
X6337D1*
X6607D2*
X7597D1*
X8107D2*
X8227D1*
X8497D2*
X8858D1*
X8934D2*
X9469D1*
X9560D2*
X10248D1*
X10376D2*
X10562D1*
X10627D2*
X10747D1*
X11017D2*
X11377D1*
X11441D2*
X12007D1*
X12423D2*
X13147D1*
X13790D2*
X14121D1*
X14584D2*
X14946D1*
X15001D2*
X15806D1*
X5786Y11472D2*
X6337D1*
X6607D2*
X7597D1*
X8107D2*
X8227D1*
X8497D2*
X8863D1*
X8919D2*
X9448D1*
X9543D2*
X10087D1*
X10147D2*
X10245D1*
X10332D2*
X10525D1*
X10627D2*
X10747D1*
X11017D2*
X11377D1*
X11457D2*
X12007D1*
X12390D2*
X13117D1*
X13783D2*
X14073D1*
X14529D2*
X14941D1*
X14961D2*
X15843D1*
X5832Y11442D2*
X6337D1*
X6607D2*
X7597D1*
X8107D2*
X8227D1*
X8497D2*
X8873D1*
X8904D2*
X9427D1*
X9530D2*
X10057D1*
X10147D2*
X10254D1*
X10286D2*
X10487D1*
X10627D2*
X10747D1*
X11017D2*
X11377D1*
X11490D2*
X12007D1*
X12358D2*
X13087D1*
X13777D2*
X14029D1*
X14478D2*
X15875D1*
X5887Y11412D2*
X6000D1*
X6217D2*
X6337D1*
X6847D2*
X7117D1*
X7477D2*
X7597D1*
X8107D2*
X8227D1*
X8737D2*
X9007D1*
X9523D2*
X9637D1*
X10147D2*
X10451D1*
X10627D2*
X10747D1*
X11257D2*
X11377D1*
X11527D2*
X11707D1*
X11887D2*
X12007D1*
X12328D2*
X13057D1*
X13770D2*
X13988D1*
X14429D2*
X14862D1*
X14922D2*
X15512D1*
X15847D2*
X15906D1*
X5847Y11382D2*
X5988D1*
X6217D2*
X7117D1*
X7477D2*
X10414D1*
X10627D2*
X11377D1*
X11498D2*
X11677D1*
X11887D2*
X12007D1*
X12297D2*
X13027D1*
X13748D2*
X13946D1*
X14382D2*
X14839D1*
X14899D2*
X15475D1*
X15907D2*
X15937D1*
X5811Y11352D2*
X5963D1*
X6217D2*
X7117D1*
X7477D2*
X8857D1*
X8923D2*
X10375D1*
X10627D2*
X11377D1*
X11473D2*
X11647D1*
X11887D2*
X12007D1*
X12267D2*
X12997D1*
X13719D2*
X13903D1*
X14340D2*
X14818D1*
X14878D2*
X15437D1*
X5775Y11322D2*
X5939D1*
X6217D2*
X7117D1*
X7477D2*
X8857D1*
X8933D2*
X9487D1*
X9547D2*
X10336D1*
X10627D2*
X11377D1*
X11453D2*
X11617D1*
X11887D2*
X12007D1*
X12237D2*
X12967D1*
X13689D2*
X13860D1*
X14302D2*
X14797D1*
X14857D2*
X15402D1*
X5737Y11292D2*
X5917D1*
X6217D2*
X7117D1*
X7477D2*
X8857D1*
X8947D2*
X9487D1*
X9547D2*
X10117D1*
X10177D2*
X10297D1*
X10627D2*
X11377D1*
X11437D2*
X11587D1*
X11887D2*
X12007D1*
X12207D2*
X12937D1*
X13659D2*
X13819D1*
X14264D2*
X15370D1*
X12178Y11262D2*
X12907D1*
X13631D2*
X13783D1*
X14226D2*
X14762D1*
X14822D2*
X15343D1*
X12153Y11232D2*
X12878D1*
X13606D2*
X13749D1*
X14187D2*
X14755D1*
X14815D2*
X15321D1*
X12132Y11202D2*
X12855D1*
X13580D2*
X13718D1*
X14148D2*
X14747D1*
X14807D2*
X15302D1*
X12116Y11172D2*
X12837D1*
X13556D2*
X13687D1*
X14112D2*
X14742D1*
X14802D2*
X15286D1*
X12119Y11142D2*
X12842D1*
X13535D2*
X13658D1*
X14078D2*
X14738D1*
X14799D2*
X15271D1*
X12137Y11112D2*
X12865D1*
X13516D2*
X13632D1*
X14043D2*
X14733D1*
X14798D2*
X15260D1*
X11467Y11082D2*
X11497D1*
X11917D2*
X11947D1*
X12161D2*
X12890D1*
X13497D2*
X13609D1*
X14005D2*
X14725D1*
X14796D2*
X15252D1*
X5737Y11052D2*
X6337D1*
X6457D2*
X6937D1*
X7027D2*
X7567D1*
X7717D2*
X8197D1*
X8257D2*
X8767D1*
X8977D2*
X9457D1*
X9547D2*
X10087D1*
X10147D2*
X11347D1*
X11409D2*
X11531D1*
X11882D2*
X11971D1*
X12189D2*
X12918D1*
X13478D2*
X13588D1*
X13967D2*
X14717D1*
X14792D2*
X15245D1*
X5737Y11022D2*
X6337D1*
X6428D2*
X7611D1*
X7643D2*
X8806D1*
X8938D2*
X11566D1*
X11845D2*
X11989D1*
X12218D2*
X12948D1*
X13462D2*
X13567D1*
X13931D2*
X14712D1*
X14785D2*
X15236D1*
X5737Y10992D2*
X6337D1*
X6407D2*
X8846D1*
X8898D2*
X11602D1*
X11806D2*
X11999D1*
X12247D2*
X12977D1*
X13449D2*
X13548D1*
X13894D2*
X14709D1*
X14778D2*
X15228D1*
X5737Y10962D2*
X6337D1*
X6392D2*
X11646D1*
X11766D2*
X12004D1*
X12277D2*
X13007D1*
X13438D2*
X13532D1*
X13856D2*
X14709D1*
X14777D2*
X15223D1*
X5977Y10932D2*
X6097D1*
X6382D2*
X6487D1*
X6847D2*
X7117D1*
X7477D2*
X7747D1*
X8107D2*
X8228D1*
X8737D2*
X9007D1*
X9367D2*
X9637D1*
X9997D2*
X10117D1*
X10387D2*
X10507D1*
X10777D2*
X10897D1*
X11257D2*
X11703D1*
X11723D2*
X12006D1*
X12307D2*
X13037D1*
X13428D2*
X13519D1*
X13816D2*
X14712D1*
X14781D2*
X15224D1*
X5977Y10902D2*
X6097D1*
X6386D2*
X7117D1*
X7477D2*
X8233D1*
X8317D2*
X9637D1*
X9997D2*
X10117D1*
X10387D2*
X10507D1*
X10777D2*
X10897D1*
X11257D2*
X12007D1*
X12337D2*
X13067D1*
X13422D2*
X13508D1*
X13777D2*
X14719D1*
X14788D2*
X15230D1*
X5977Y10872D2*
X6097D1*
X6397D2*
X7117D1*
X7477D2*
X7597D1*
X7663D2*
X8243D1*
X8273D2*
X8821D1*
X8921D2*
X9637D1*
X9997D2*
X10117D1*
X10387D2*
X10507D1*
X10777D2*
X10897D1*
X11257D2*
X12007D1*
X12367D2*
X13097D1*
X13419D2*
X13497D1*
X13737D2*
X14727D1*
X14793D2*
X15237D1*
X5977Y10842D2*
X6097D1*
X6413D2*
X7117D1*
X7477D2*
X7597D1*
X7673D2*
X8811D1*
X8937D2*
X9637D1*
X9997D2*
X10117D1*
X10387D2*
X10507D1*
X10777D2*
X10897D1*
X11257D2*
X11527D1*
X11590D2*
X11826D1*
X11887D2*
X12007D1*
X12397D2*
X13128D1*
X13418D2*
X13488D1*
X13695D2*
X14733D1*
X14796D2*
X15243D1*
X5977Y10812D2*
X6097D1*
X6448D2*
X7117D1*
X7477D2*
X7597D1*
X7687D2*
X8797D1*
X8970D2*
X9637D1*
X9997D2*
X10117D1*
X10387D2*
X10507D1*
X10777D2*
X10897D1*
X11257D2*
X11527D1*
X11623D2*
X11791D1*
X11887D2*
X12007D1*
X12427D2*
X13161D1*
X13417D2*
X13484D1*
X13648D2*
X14741D1*
X14802D2*
X15250D1*
X5977Y10782D2*
X6097D1*
X6487D2*
X6667D1*
X6847D2*
X7117D1*
X7477D2*
X7597D1*
X8107D2*
X8377D1*
X9007D2*
X9157D1*
X9367D2*
X9637D1*
X9997D2*
X10117D1*
X10387D2*
X10507D1*
X10777D2*
X10897D1*
X11257D2*
X11527D1*
X11652D2*
X11751D1*
X11887D2*
X12007D1*
X12457D2*
X13194D1*
X13417D2*
X13483D1*
X13587D2*
X14752D1*
X14813D2*
X15258D1*
X5977Y10752D2*
X6097D1*
X6458D2*
X6637D1*
X6847D2*
X7596D1*
X8107D2*
X8857D1*
X8978D2*
X9127D1*
X9367D2*
X10117D1*
X10387D2*
X10507D1*
X10777D2*
X11527D1*
X11677D2*
X11707D1*
X11887D2*
X12007D1*
X12487D2*
X13226D1*
X13417D2*
X13493D1*
X13507D2*
X14767D1*
X14827D2*
X15268D1*
X5977Y10722D2*
X6097D1*
X6433D2*
X6607D1*
X6847D2*
X7591D1*
X8107D2*
X8857D1*
X8953D2*
X9097D1*
X9367D2*
X10117D1*
X10387D2*
X10507D1*
X10777D2*
X11527D1*
X11887D2*
X12007D1*
X12517D2*
X13256D1*
X13420D2*
X15278D1*
X5977Y10692D2*
X6097D1*
X6413D2*
X6577D1*
X6847D2*
X7581D1*
X8107D2*
X8227D1*
X8287D2*
X8857D1*
X8933D2*
X9067D1*
X9367D2*
X10117D1*
X10387D2*
X10507D1*
X10777D2*
X11527D1*
X11887D2*
X12007D1*
X12547D2*
X13287D1*
X13425D2*
X14791D1*
X14852D2*
X15293D1*
X5977Y10662D2*
X6097D1*
X6397D2*
X6547D1*
X6847D2*
X6967D1*
X7027D2*
X7567D1*
X8107D2*
X8227D1*
X8317D2*
X8857D1*
X8917D2*
X9037D1*
X9367D2*
X10117D1*
X10387D2*
X10507D1*
X10777D2*
X11347D1*
X11407D2*
X11527D1*
X11887D2*
X12007D1*
X12577D2*
X13317D1*
X13452D2*
X14811D1*
X14875D2*
X15315D1*
X12607Y10632D2*
X13347D1*
X13491D2*
X14827D1*
X14898D2*
X15341D1*
X12638Y10602D2*
X13377D1*
X13543D2*
X14622D1*
X14928D2*
X15374D1*
X12671Y10572D2*
X13407D1*
X13610D2*
X14400D1*
X14967D2*
X15418D1*
X12705Y10542D2*
X13437D1*
X13687D2*
X14167D1*
X15012D2*
X15488D1*
X12740Y10512D2*
X13467D1*
X15065D2*
X15596D1*
X12773Y10482D2*
X13497D1*
X15128D2*
X15727D1*
X12806Y10452D2*
X13527D1*
X15207D2*
X15681D1*
X12836Y10422D2*
X13557D1*
X15298D2*
X15630D1*
X12867Y10392D2*
X13587D1*
X15397D2*
X15577D1*
X12897Y10362D2*
X13617D1*
X12927Y10332D2*
X13647D1*
X12957Y10302D2*
X13677D1*
X12987Y10272D2*
X13707D1*
X13017Y10242D2*
X13737D1*
X13047Y10212D2*
X13767D1*
X13077Y10182D2*
X13797D1*
X13107Y10152D2*
X13828D1*
X13138Y10122D2*
X13861D1*
X13172Y10092D2*
X13894D1*
X13207Y10062D2*
X13927D1*
X10257Y5472D2*
X10437D1*
X10257Y5442D2*
X10438D1*
X10256Y5412D2*
X10442D1*
X10250Y5382D2*
X10451D1*
X10240Y5352D2*
X10464D1*
X9957Y5322D2*
X10017D1*
X10202D2*
X10495D1*
X10677D2*
X10737D1*
X9928Y5292D2*
X10119D1*
X10146D2*
X10565D1*
X10591D2*
X10766D1*
X9904Y5262D2*
X10791D1*
X9886Y5232D2*
X10811D1*
X9888Y5202D2*
X10817D1*
X9896Y5172D2*
X10809D1*
X9912Y5142D2*
X10788D1*
X9933Y5112D2*
X10764D1*
X9957Y5082D2*
X10737D1*
X9935Y5052D2*
X10759D1*
X9905Y5022D2*
X10789D1*
X9864Y4992D2*
X10294D1*
X10400D2*
X10830D1*
X9819Y4962D2*
X10252D1*
X10444D2*
X10875D1*
X9779Y4932D2*
X10218D1*
X10475D2*
X10915D1*
X9763Y4902D2*
X10202D1*
X10499D2*
X10931D1*
X9754Y4872D2*
X10185D1*
X10511D2*
X10940D1*
X9750Y4842D2*
X10167D1*
X10508D2*
X10944D1*
X9748Y4812D2*
X10187D1*
X10498D2*
X10946D1*
X9747Y4782D2*
X10208D1*
X10483D2*
X10947D1*
X9747Y4752D2*
X10231D1*
X10462D2*
X10947D1*
X9827Y4722D2*
X10252D1*
X10442D2*
X10797D1*
X9888Y4692D2*
X10268D1*
X10426D2*
X10787D1*
X9912Y4662D2*
X10267D1*
X10427D2*
X10779D1*
X9919Y4632D2*
X10259D1*
X10435D2*
X10775D1*
X9921Y4602D2*
X10248D1*
X10447D2*
X10782D1*
X9910Y4572D2*
X10238D1*
X10460D2*
X10793D1*
X9895Y4542D2*
X10227D1*
X10474D2*
X10804D1*
X9883Y4512D2*
X10216D1*
X10486D2*
X10814D1*
X9877Y4482D2*
X10202D1*
X10497D2*
X10818D1*
X9887Y4452D2*
X10186D1*
X10511D2*
X10807D1*
X9906Y4422D2*
X10071D1*
X10137D2*
X10167D1*
X10527D2*
X10557D1*
X10623D2*
X10788D1*
X9931Y4392D2*
X10031D1*
X10663D2*
X10764D1*
X9957Y4362D2*
X9987D1*
X10707D2*
X10737D1*
X13207Y12282D2*
X13177Y12252D1*
X13147Y12222D1*
X13117Y12192D1*
X13087Y12162D1*
X13057Y12132D1*
X13027Y12102D1*
X12997Y12072D1*
X12967Y12042D1*
X12937Y12012D1*
X12907Y11982D1*
X12877Y11952D1*
X12847Y11922D1*
X12817Y11892D1*
X12787Y11862D1*
X12757Y11832D1*
X12727Y11802D1*
X12697Y11772D1*
X12667Y11742D1*
X12637Y11712D1*
X12607Y11682D1*
X12577Y11652D1*
X12547Y11622D1*
X12517Y11592D1*
X12487Y11562D1*
X12456Y11532D1*
X12423Y11502D1*
X12390Y11472D1*
X12358Y11442D1*
X12328Y11412D1*
X12297Y11382D1*
X12267Y11352D1*
X12237Y11322D1*
X12207Y11292D1*
X12178Y11262D1*
X12153Y11232D1*
X12132Y11202D1*
X12116Y11172D1*
X12119Y11142D1*
X12137Y11112D1*
X12161Y11082D1*
X12189Y11052D1*
X12218Y11022D1*
X12247Y10992D1*
X12277Y10962D1*
X12307Y10932D1*
X12337Y10902D1*
X12367Y10872D1*
X12397Y10842D1*
X12427Y10812D1*
X12457Y10782D1*
X12487Y10752D1*
X12517Y10722D1*
X12547Y10692D1*
X12577Y10662D1*
X12607Y10632D1*
X12638Y10602D1*
X12671Y10572D1*
X12705Y10542D1*
X12740Y10512D1*
X12773Y10482D1*
X12806Y10452D1*
X12836Y10422D1*
X12867Y10392D1*
X12897Y10362D1*
X12927Y10332D1*
X12957Y10302D1*
X12987Y10272D1*
X13017Y10242D1*
X13047Y10212D1*
X13077Y10182D1*
X13107Y10152D1*
X13138Y10122D1*
X13172Y10092D1*
X13207Y10062D1*
X13927Y12282D2*
X13897Y12252D1*
X13867Y12222D1*
X13837Y12192D1*
X13807Y12162D1*
X13777Y12132D1*
X13747Y12102D1*
X13717Y12072D1*
X13687Y12042D1*
X13657Y12012D1*
X13627Y11982D1*
X13597Y11952D1*
X13567Y11922D1*
X13537Y11892D1*
X13507Y11862D1*
X13477Y11832D1*
X13447Y11802D1*
X13417Y11772D1*
X13387Y11742D1*
X13357Y11712D1*
X13327Y11682D1*
X13297Y11652D1*
X13267Y11622D1*
X13237Y11592D1*
X13207Y11562D1*
X13177Y11532D1*
X13147Y11502D1*
X13117Y11472D1*
X13087Y11442D1*
X13057Y11412D1*
X13027Y11382D1*
X12997Y11352D1*
X12967Y11322D1*
X12937Y11292D1*
X12907Y11262D1*
X12878Y11232D1*
X12855Y11202D1*
X12837Y11172D1*
X12842Y11142D1*
X12865Y11112D1*
X12890Y11082D1*
X12918Y11052D1*
X12948Y11022D1*
X12977Y10992D1*
X13007Y10962D1*
X13037Y10932D1*
X13067Y10902D1*
X13097Y10872D1*
X13128Y10842D1*
X13161Y10812D1*
X13194Y10782D1*
X13226Y10752D1*
X13256Y10722D1*
X13287Y10692D1*
X13317Y10662D1*
X13347Y10632D1*
X13377Y10602D1*
X13407Y10572D1*
X13437Y10542D1*
X13467Y10512D1*
X13497Y10482D1*
X13527Y10452D1*
X13557Y10422D1*
X13587Y10392D1*
X13617Y10362D1*
X13647Y10332D1*
X13677Y10302D1*
X13707Y10272D1*
X13737Y10242D1*
X13767Y10212D1*
X13797Y10182D1*
X13828Y10152D1*
X13861Y10122D1*
X13894Y10092D1*
X13927Y10062D1*
X15247Y12012D2*
X15099Y11982D1*
X14961Y11952D1*
X14827Y11922D1*
X14693Y11892D1*
X14557Y11862D1*
X15307Y12012D2*
X15342Y11982D1*
X15402Y11952D1*
X15499Y11922D1*
X15626Y11892D1*
X15763Y11862D1*
X15885Y11832D1*
X15984Y11802D1*
X16026Y11772D1*
X16047Y11742D1*
X15979Y11712D1*
X15907Y11682D1*
X15824Y11652D1*
X15723Y11622D1*
X15607Y11592D1*
X14227Y11892D2*
X14168Y11862D1*
X14112Y11832D1*
X14060Y11802D1*
X14013Y11772D1*
X13971Y11742D1*
X13933Y11712D1*
X13901Y11682D1*
X13873Y11652D1*
X13851Y11622D1*
X13832Y11592D1*
X13816Y11562D1*
X13801Y11532D1*
X13790Y11502D1*
X13783Y11472D1*
X13777Y11442D1*
X13770Y11412D1*
X13748Y11382D1*
X13719Y11352D1*
X13689Y11322D1*
X13659Y11292D1*
X13631Y11262D1*
X13606Y11232D1*
X13580Y11202D1*
X13556Y11172D1*
X13535Y11142D1*
X13516Y11112D1*
X13497Y11082D1*
X13478Y11052D1*
X13462Y11022D1*
X13449Y10992D1*
X13438Y10962D1*
X13428Y10932D1*
X13422Y10902D1*
X13419Y10872D1*
X13418Y10842D1*
X13417Y10812D1*
Y10782D1*
Y10752D1*
X13420Y10722D1*
X13425Y10692D1*
X13452Y10662D1*
X13491Y10632D1*
X13543Y10602D1*
X13610Y10572D1*
X13687Y10542D1*
X14647Y11892D2*
X14677Y11862D1*
X15307Y11922D2*
X15168Y11892D1*
X15039Y11862D1*
X14923Y11832D1*
X14819Y11802D1*
X14727Y11772D1*
X14641Y11742D1*
X14560Y11712D1*
X14484Y11682D1*
X14415Y11652D1*
X14350Y11622D1*
X14288Y11592D1*
X14229Y11562D1*
X14172Y11532D1*
X14121Y11502D1*
X14073Y11472D1*
X14029Y11442D1*
X13988Y11412D1*
X13946Y11382D1*
X13903Y11352D1*
X13860Y11322D1*
X13819Y11292D1*
X13783Y11262D1*
X13749Y11232D1*
X13718Y11202D1*
X13687Y11172D1*
X13658Y11142D1*
X13632Y11112D1*
X13609Y11082D1*
X13588Y11052D1*
X13567Y11022D1*
X13548Y10992D1*
X13532Y10962D1*
X13519Y10932D1*
X13508Y10902D1*
X13497Y10872D1*
X13488Y10842D1*
X13484Y10812D1*
X13483Y10782D1*
X13493Y10752D1*
X13507Y10722D1*
X15247Y11922D2*
X15260Y11892D1*
X15317Y11862D1*
X15407Y11832D1*
X15517Y11802D1*
Y11772D1*
X15330Y11742D1*
X15174Y11712D1*
X15047Y11682D1*
X14941Y11652D1*
X14852Y11622D1*
X14775Y11592D1*
X14704Y11562D1*
X14641Y11532D1*
X14584Y11502D1*
X14529Y11472D1*
X14478Y11442D1*
X14429Y11412D1*
X14382Y11382D1*
X14340Y11352D1*
X14302Y11322D1*
X14264Y11292D1*
X14226Y11262D1*
X14187Y11232D1*
X14148Y11202D1*
X14112Y11172D1*
X14078Y11142D1*
X14043Y11112D1*
X14005Y11082D1*
X13967Y11052D1*
X13931Y11022D1*
X13894Y10992D1*
X13856Y10962D1*
X13816Y10932D1*
X13777Y10902D1*
X13737Y10872D1*
X13695Y10842D1*
X13648Y10812D1*
X13587Y10782D1*
X13507Y10752D1*
X13417Y10722D1*
X5827Y11682D2*
X5798Y11652D1*
X5773Y11622D1*
X5756Y11592D1*
X5744Y11562D1*
X5743Y11532D1*
X5754Y11502D1*
X5786Y11472D1*
X5832Y11442D1*
X5887Y11412D1*
X5847Y11382D1*
X5811Y11352D1*
X5775Y11322D1*
X5737Y11292D1*
X6307Y11682D2*
X6337Y11652D1*
X6367Y11682D2*
X6337Y11652D1*
X6937Y11682D2*
X6967Y11652D1*
X7027Y11682D2*
X6997Y11652D1*
X7567Y11682D2*
X7581Y11652D1*
X7589Y11622D1*
X7594Y11592D1*
X7596Y11562D1*
X7597Y11532D1*
Y11502D1*
Y11472D1*
Y11442D1*
Y11412D1*
Y11382D1*
X8107Y11682D2*
Y11652D1*
Y11622D1*
Y11592D1*
Y11562D1*
Y11532D1*
Y11502D1*
Y11472D1*
Y11442D1*
Y11412D1*
Y11382D1*
X8827Y11682D2*
X8857Y11652D1*
X8887Y11682D2*
X8857Y11652D1*
X9397Y11682D2*
X9430Y11652D1*
X9460Y11622D1*
X9487Y11592D1*
X9517Y11682D2*
X9511Y11652D1*
X9501Y11622D1*
X9487Y11592D1*
X9997Y11682D2*
X10046Y11652D1*
X10096Y11622D1*
X10147Y11592D1*
Y11682D2*
X10141Y11652D1*
X10131Y11622D1*
X10117Y11592D1*
X10237Y11682D2*
X10242Y11652D1*
X10249Y11622D1*
X10256Y11592D1*
X10257Y11562D1*
X10253Y11532D1*
X10248Y11502D1*
X10245Y11472D1*
X10254Y11442D1*
X10267Y11412D1*
X10627Y11682D2*
X10582Y11652D1*
X10540Y11622D1*
X10498Y11592D1*
X10457Y11562D1*
X10417Y11532D1*
X10376Y11502D1*
X10332Y11472D1*
X10286Y11442D1*
X10237Y11412D1*
X10687Y11682D2*
X10731Y11652D1*
X10777Y11622D1*
Y11682D2*
X10763Y11652D1*
X10747Y11622D1*
X11347Y11682D2*
X11366Y11652D1*
X11386Y11622D1*
X11407Y11592D1*
X11497Y11682D2*
X11464Y11652D1*
X11435Y11622D1*
X11407Y11592D1*
X11977Y11682D2*
X11991Y11652D1*
X11999Y11622D1*
X12004Y11592D1*
X12006Y11562D1*
X12007Y11532D1*
Y11502D1*
Y11472D1*
Y11442D1*
Y11412D1*
Y11382D1*
Y11352D1*
Y11322D1*
Y11292D1*
X15427Y11682D2*
X15397Y11652D1*
X15517Y11622D1*
X15547Y11682D2*
X15577Y11652D1*
X15457Y11622D1*
X15577D2*
X15646Y11592D1*
X15710Y11562D1*
X15763Y11532D1*
X15806Y11502D1*
X15843Y11472D1*
X15875Y11442D1*
X15906Y11412D1*
X15937Y11382D1*
X15667Y11652D2*
X15697Y11622D1*
X15097D2*
X15067Y11592D1*
X15097Y11562D1*
X15127Y11622D2*
X15157Y11592D1*
X15127Y11562D1*
X6337Y11592D2*
Y11562D1*
Y11532D1*
Y11502D1*
Y11472D1*
Y11442D1*
Y11412D1*
Y11382D1*
X6187Y11592D2*
X6397Y11562D1*
X6607Y11532D1*
Y11502D1*
Y11472D1*
Y11442D1*
X6847Y11412D1*
X7087Y11382D1*
X15037Y11592D2*
X15004Y11562D1*
X14972Y11532D1*
X14946Y11502D1*
X14941Y11472D1*
X14947Y11442D1*
X15067Y11562D2*
X15036Y11532D1*
X15001Y11502D1*
X14961Y11472D1*
X14917Y11442D1*
X8227Y11562D2*
Y11532D1*
Y11502D1*
Y11472D1*
Y11442D1*
Y11412D1*
Y11382D1*
X8497Y11562D2*
Y11532D1*
Y11502D1*
Y11472D1*
Y11442D1*
X8737Y11412D1*
X8977Y11382D1*
X8857Y11562D2*
Y11532D1*
X8858Y11502D1*
X8863Y11472D1*
X8873Y11442D1*
X8887Y11412D1*
X8977Y11562D2*
X8953Y11532D1*
X8934Y11502D1*
X8919Y11472D1*
X8904Y11442D1*
X8887Y11412D1*
X9517Y11562D2*
X9492Y11532D1*
X9469Y11502D1*
X9448Y11472D1*
X9427Y11442D1*
X9607Y11562D2*
X9582Y11532D1*
X9560Y11502D1*
X9543Y11472D1*
X9530Y11442D1*
X9523Y11412D1*
X9517Y11382D1*
X10747Y11562D2*
Y11532D1*
Y11502D1*
Y11472D1*
Y11442D1*
Y11412D1*
Y11382D1*
X11017Y11562D2*
Y11532D1*
Y11502D1*
Y11472D1*
Y11442D1*
X11257Y11412D1*
X11497Y11382D1*
X10597Y11532D2*
X10562Y11502D1*
X10525Y11472D1*
X10487Y11442D1*
X10451Y11412D1*
X10414Y11382D1*
X10375Y11352D1*
X10336Y11322D1*
X10297Y11292D1*
X10627Y11532D2*
Y11502D1*
Y11472D1*
Y11442D1*
Y11412D1*
Y11382D1*
Y11352D1*
Y11322D1*
Y11292D1*
X11377Y11532D2*
Y11502D1*
Y11472D1*
Y11442D1*
Y11412D1*
Y11382D1*
Y11352D1*
Y11322D1*
Y11292D1*
X11437Y11532D2*
X11441Y11502D1*
X11457Y11472D1*
X11490Y11442D1*
X11527Y11412D1*
X11498Y11382D1*
X11473Y11352D1*
X11453Y11322D1*
X11437Y11292D1*
X10117Y11502D2*
X10087Y11472D1*
X10057Y11442D1*
X10147Y11502D2*
Y11472D1*
Y11442D1*
Y11412D1*
Y11382D1*
X6007Y11442D2*
X6000Y11412D1*
X5988Y11382D1*
X5963Y11352D1*
X5939Y11322D1*
X5917Y11292D1*
X6217Y11442D2*
Y11412D1*
Y11382D1*
Y11352D1*
Y11322D1*
Y11292D1*
X7117Y11442D2*
Y11412D1*
Y11382D1*
Y11352D1*
Y11322D1*
Y11292D1*
X7477Y11442D2*
Y11412D1*
Y11382D1*
Y11352D1*
Y11322D1*
Y11292D1*
X9007Y11442D2*
Y11412D1*
Y11382D1*
X9637Y11442D2*
Y11412D1*
Y11382D1*
X11737Y11442D2*
X11707Y11412D1*
X11677Y11382D1*
X11647Y11352D1*
X11617Y11322D1*
X11587Y11292D1*
X11887Y11442D2*
Y11412D1*
Y11382D1*
Y11352D1*
Y11322D1*
Y11292D1*
X14887Y11442D2*
X14862Y11412D1*
X14839Y11382D1*
X14818Y11352D1*
X14797Y11322D1*
X14947Y11442D2*
X14922Y11412D1*
X14899Y11382D1*
X14878Y11352D1*
X14857Y11322D1*
X15547Y11442D2*
X15512Y11412D1*
X15475Y11382D1*
X15437Y11352D1*
X15402Y11322D1*
X15370Y11292D1*
X15343Y11262D1*
X15321Y11232D1*
X15302Y11202D1*
X15286Y11172D1*
X15271Y11142D1*
X15260Y11112D1*
X15252Y11082D1*
X15245Y11052D1*
X15236Y11022D1*
X15228Y10992D1*
X15223Y10962D1*
X15224Y10932D1*
X15230Y10902D1*
X15237Y10872D1*
X15243Y10842D1*
X15250Y10812D1*
X15258Y10782D1*
X15268Y10752D1*
X15278Y10722D1*
X15293Y10692D1*
X15315Y10662D1*
X15341Y10632D1*
X15374Y10602D1*
X15418Y10572D1*
X15488Y10542D1*
X15596Y10512D1*
X15727Y10482D1*
X15681Y10452D1*
X15630Y10422D1*
X15577Y10392D1*
X15787Y11442D2*
X15847Y11412D1*
X15907Y11382D1*
X8857D2*
Y11352D1*
Y11322D1*
Y11292D1*
X8917Y11382D2*
X8923Y11352D1*
X8933Y11322D1*
X8947Y11292D1*
X9487Y11352D2*
Y11322D1*
Y11292D1*
X9547Y11352D2*
Y11322D1*
Y11292D1*
X10147Y11322D2*
X10117Y11292D1*
X10147Y11322D2*
X10177Y11292D1*
X14767D2*
X14762Y11262D1*
X14755Y11232D1*
X14747Y11202D1*
X14742Y11172D1*
X14738Y11142D1*
X14733Y11112D1*
X14725Y11082D1*
X14717Y11052D1*
X14712Y11022D1*
X14709Y10992D1*
Y10962D1*
X14712Y10932D1*
X14719Y10902D1*
X14727Y10872D1*
X14733Y10842D1*
X14741Y10812D1*
X14752Y10782D1*
X14767Y10752D1*
X14827Y11292D2*
X14822Y11262D1*
X14815Y11232D1*
X14807Y11202D1*
X14802Y11172D1*
X14799Y11142D1*
X14798Y11112D1*
X14796Y11082D1*
X14792Y11052D1*
X14785Y11022D1*
X14778Y10992D1*
X14777Y10962D1*
X14781Y10932D1*
X14788Y10902D1*
X14793Y10872D1*
X14796Y10842D1*
X14802Y10812D1*
X14813Y10782D1*
X14827Y10752D1*
X11467Y11082D2*
X11409Y11052D1*
X11347Y11022D1*
X11497Y11082D2*
X11531Y11052D1*
X11566Y11022D1*
X11602Y10992D1*
X11646Y10962D1*
X11703Y10932D1*
X11767Y10902D1*
X11917Y11082D2*
X11882Y11052D1*
X11845Y11022D1*
X11806Y10992D1*
X11766Y10962D1*
X11723Y10932D1*
X11677Y10902D1*
X11947Y11082D2*
X11971Y11052D1*
X11989Y11022D1*
X11999Y10992D1*
X12004Y10962D1*
X12006Y10932D1*
X12007Y10902D1*
Y10872D1*
Y10842D1*
Y10812D1*
Y10782D1*
Y10752D1*
Y10722D1*
Y10692D1*
Y10662D1*
X5737Y11052D2*
Y11022D1*
Y10992D1*
Y10962D1*
Y10932D1*
X5977D1*
Y10902D1*
Y10872D1*
Y10842D1*
Y10812D1*
Y10782D1*
Y10752D1*
Y10722D1*
Y10692D1*
Y10662D1*
X6337Y11052D2*
Y11022D1*
Y10992D1*
Y10962D1*
Y10932D1*
X6097D1*
Y10902D1*
Y10872D1*
Y10842D1*
Y10812D1*
Y10782D1*
Y10752D1*
Y10722D1*
Y10692D1*
Y10662D1*
X6457Y11052D2*
X6428Y11022D1*
X6407Y10992D1*
X6392Y10962D1*
X6382Y10932D1*
X6386Y10902D1*
X6397Y10872D1*
X6413Y10842D1*
X6448Y10812D1*
X6487Y10782D1*
X6458Y10752D1*
X6433Y10722D1*
X6413Y10692D1*
X6397Y10662D1*
X6937Y11052D2*
X6967Y11022D1*
X7027Y11052D2*
X6997Y11022D1*
X7567Y11052D2*
X7611Y11022D1*
X7657Y10992D1*
X7717Y11052D2*
X7643Y11022D1*
X7567Y10992D1*
X8197Y11052D2*
X8227Y11022D1*
X8257Y11052D2*
X8227Y11022D1*
X8767Y11052D2*
X8806Y11022D1*
X8846Y10992D1*
X8887Y10962D1*
X8977Y11052D2*
X8938Y11022D1*
X8898Y10992D1*
X8857Y10962D1*
X9457Y11052D2*
X9487Y11022D1*
X9547Y11052D2*
X9517Y11022D1*
X10087Y11052D2*
X10117Y11022D1*
X10147Y11052D2*
X10117Y11022D1*
X11347Y11052D2*
X11377Y11022D1*
X6517Y10962D2*
X6487Y10932D1*
X6787Y10902D1*
X6817Y10962D2*
X6847Y10932D1*
X6547Y10902D1*
X7117Y10962D2*
Y10932D1*
Y10902D1*
Y10872D1*
Y10842D1*
Y10812D1*
Y10782D1*
X7447Y10752D1*
X7477Y10962D2*
Y10932D1*
Y10902D1*
Y10872D1*
Y10842D1*
Y10812D1*
Y10782D1*
X7147Y10752D1*
X7777Y10962D2*
X7747Y10932D1*
X8047Y10902D1*
X8077Y10962D2*
X8107Y10932D1*
X7807Y10902D1*
X8227Y10962D2*
X8228Y10932D1*
X8233Y10902D1*
X8243Y10872D1*
X8257Y10842D1*
X8737Y10962D2*
Y10932D1*
Y10902D1*
X9037Y10962D2*
X9007Y10932D1*
X9307Y10902D1*
X9337Y10962D2*
X9367Y10932D1*
X9067Y10902D1*
X9637Y10962D2*
Y10932D1*
Y10902D1*
Y10872D1*
Y10842D1*
Y10812D1*
Y10782D1*
X9967Y10752D1*
X9997Y10962D2*
Y10932D1*
Y10902D1*
Y10872D1*
Y10842D1*
Y10812D1*
Y10782D1*
X9667Y10752D1*
X10117Y10962D2*
Y10932D1*
Y10902D1*
Y10872D1*
Y10842D1*
Y10812D1*
Y10782D1*
Y10752D1*
Y10722D1*
Y10692D1*
Y10662D1*
X10387Y10962D2*
Y10932D1*
Y10902D1*
Y10872D1*
Y10842D1*
Y10812D1*
Y10782D1*
Y10752D1*
Y10722D1*
Y10692D1*
Y10662D1*
X10507Y10962D2*
Y10932D1*
Y10902D1*
Y10872D1*
Y10842D1*
Y10812D1*
Y10782D1*
Y10752D1*
Y10722D1*
Y10692D1*
Y10662D1*
X10777Y10962D2*
Y10932D1*
Y10902D1*
Y10872D1*
Y10842D1*
Y10812D1*
Y10782D1*
Y10752D1*
Y10722D1*
Y10692D1*
Y10662D1*
X10897Y10962D2*
Y10932D1*
Y10902D1*
Y10872D1*
Y10842D1*
Y10812D1*
Y10782D1*
X11227Y10752D1*
X11257Y10962D2*
Y10932D1*
Y10902D1*
Y10872D1*
Y10842D1*
Y10812D1*
Y10782D1*
X10927Y10752D1*
X8317Y10902D2*
X8273Y10872D1*
X8227Y10842D1*
X7597Y10902D2*
Y10872D1*
Y10842D1*
Y10812D1*
Y10782D1*
X7596Y10752D1*
X7591Y10722D1*
X7581Y10692D1*
X7567Y10662D1*
X7657Y10902D2*
X7663Y10872D1*
X7673Y10842D1*
X7687Y10812D1*
X8827Y10902D2*
X8821Y10872D1*
X8811Y10842D1*
X8797Y10812D1*
X8917Y10902D2*
X8921Y10872D1*
X8937Y10842D1*
X8970Y10812D1*
X9007Y10782D1*
X8978Y10752D1*
X8953Y10722D1*
X8933Y10692D1*
X8917Y10662D1*
X11527Y10872D2*
Y10842D1*
Y10812D1*
Y10782D1*
Y10752D1*
Y10722D1*
Y10692D1*
Y10662D1*
X11557Y10872D2*
X11590Y10842D1*
X11623Y10812D1*
X11652Y10782D1*
X11677Y10752D1*
X11857Y10872D2*
X11826Y10842D1*
X11791Y10812D1*
X11751Y10782D1*
X11707Y10752D1*
X11887Y10872D2*
Y10842D1*
Y10812D1*
Y10782D1*
Y10752D1*
Y10722D1*
Y10692D1*
Y10662D1*
X6697Y10812D2*
X6667Y10782D1*
X6637Y10752D1*
X6607Y10722D1*
X6577Y10692D1*
X6547Y10662D1*
X6847Y10812D2*
Y10782D1*
Y10752D1*
Y10722D1*
Y10692D1*
Y10662D1*
X8107Y10812D2*
Y10782D1*
Y10752D1*
Y10722D1*
Y10692D1*
Y10662D1*
X8377Y10812D2*
Y10782D1*
Y10752D1*
X9187Y10812D2*
X9157Y10782D1*
X9127Y10752D1*
X9097Y10722D1*
X9067Y10692D1*
X9037Y10662D1*
X9367Y10812D2*
Y10782D1*
Y10752D1*
Y10722D1*
Y10692D1*
Y10662D1*
X8857Y10752D2*
Y10722D1*
Y10692D1*
Y10662D1*
X8227Y10722D2*
Y10692D1*
Y10662D1*
X8257Y10722D2*
X8287Y10692D1*
X8317Y10662D1*
X14767Y10722D2*
X14791Y10692D1*
X14811Y10662D1*
X14827Y10632D1*
X14622Y10602D1*
X14400Y10572D1*
X14167Y10542D1*
X14827Y10722D2*
X14852Y10692D1*
X14875Y10662D1*
X14898Y10632D1*
X14928Y10602D1*
X14967Y10572D1*
X15012Y10542D1*
X15065Y10512D1*
X15128Y10482D1*
X15207Y10452D1*
X15298Y10422D1*
X15397Y10392D1*
X6997Y10692D2*
X6967Y10662D1*
X6997Y10692D2*
X7027Y10662D1*
X11377Y10692D2*
X11347Y10662D1*
X11377Y10692D2*
X11407Y10662D1*
X10257Y5472D2*
Y5442D1*
X10256Y5412D1*
X10250Y5382D1*
X10240Y5352D1*
X10202Y5322D1*
X10146Y5292D1*
X10077Y5262D1*
X10437Y5472D2*
X10438Y5442D1*
X10442Y5412D1*
X10451Y5382D1*
X10464Y5352D1*
X10495Y5322D1*
X10565Y5292D1*
X10647Y5262D1*
X9957Y5322D2*
X9928Y5292D1*
X9904Y5262D1*
X9886Y5232D1*
X9888Y5202D1*
X9896Y5172D1*
X9912Y5142D1*
X9933Y5112D1*
X9957Y5082D1*
X9935Y5052D1*
X9905Y5022D1*
X9864Y4992D1*
X9819Y4962D1*
X9779Y4932D1*
X9763Y4902D1*
X9754Y4872D1*
X9750Y4842D1*
X9748Y4812D1*
X9747Y4782D1*
Y4752D1*
X9827Y4722D1*
X9888Y4692D1*
X9912Y4662D1*
X9919Y4632D1*
X9921Y4602D1*
X9910Y4572D1*
X9895Y4542D1*
X9883Y4512D1*
X9877Y4482D1*
X9887Y4452D1*
X9906Y4422D1*
X9931Y4392D1*
X9957Y4362D1*
X10017Y5322D2*
X10119Y5292D1*
X10227Y5262D1*
X10677Y5322D2*
X10591Y5292D1*
X10497Y5262D1*
X10737Y5322D2*
X10766Y5292D1*
X10791Y5262D1*
X10811Y5232D1*
X10817Y5202D1*
X10809Y5172D1*
X10788Y5142D1*
X10764Y5112D1*
X10737Y5082D1*
X10759Y5052D1*
X10789Y5022D1*
X10830Y4992D1*
X10875Y4962D1*
X10915Y4932D1*
X10931Y4902D1*
X10940Y4872D1*
X10944Y4842D1*
X10946Y4812D1*
X10947Y4782D1*
Y4752D1*
Y4722D1*
X10797D1*
X10787Y4692D1*
X10779Y4662D1*
X10775Y4632D1*
X10782Y4602D1*
X10793Y4572D1*
X10804Y4542D1*
X10814Y4512D1*
X10818Y4482D1*
X10807Y4452D1*
X10788Y4422D1*
X10764Y4392D1*
X10737Y4362D1*
X10347Y5022D2*
X10294Y4992D1*
X10252Y4962D1*
X10218Y4932D1*
X10202Y4902D1*
X10185Y4872D1*
X10167Y4842D1*
X10187Y4812D1*
X10208Y4782D1*
X10231Y4752D1*
X10252Y4722D1*
X10268Y4692D1*
X10267Y4662D1*
X10259Y4632D1*
X10248Y4602D1*
X10238Y4572D1*
X10227Y4542D1*
X10216Y4512D1*
X10202Y4482D1*
X10186Y4452D1*
X10167Y4422D1*
X10347Y5022D2*
X10400Y4992D1*
X10444Y4962D1*
X10475Y4932D1*
X10499Y4902D1*
X10511Y4872D1*
X10508Y4842D1*
X10498Y4812D1*
X10483Y4782D1*
X10462Y4752D1*
X10442Y4722D1*
X10426Y4692D1*
X10427Y4662D1*
X10435Y4632D1*
X10447Y4602D1*
X10460Y4572D1*
X10474Y4542D1*
X10486Y4512D1*
X10497Y4482D1*
X10511Y4452D1*
X10527Y4422D1*
X10107Y4452D2*
X10071Y4422D1*
X10031Y4392D1*
X9987Y4362D1*
X10107Y4452D2*
X10137Y4422D1*
X10587Y4452D2*
X10557Y4422D1*
X10587Y4452D2*
X10623Y4422D1*
X10663Y4392D1*
X10707Y4362D1*
X16301Y5892D2*
D81*
X16330Y5920D1*
X16373Y5935D1*
X16430D1*
X16473Y5920D1*
X16502Y5892D1*
Y5863D1*
X16487Y5834D1*
X16473Y5820D1*
X16445Y5806D1*
X16358Y5777D1*
X16330Y5763D1*
X16315Y5748D1*
X16301Y5719D1*
Y5676D1*
X16330Y5648D1*
X16373Y5633D1*
X16430D1*
X16473Y5648D1*
X16502Y5676D1*
X16208Y5935D2*
Y5633D1*
Y5777D2*
X16165Y5820D1*
X16137Y5834D1*
X16093D1*
X16065Y5820D1*
X16051Y5777D1*
Y5633D1*
X15958Y5935D2*
X15944Y5920D1*
X15929Y5935D1*
X15944Y5949D1*
X15958Y5935D1*
X15944Y5834D2*
Y5633D1*
X15722Y5935D2*
X15750D1*
X15779Y5920D1*
X15793Y5877D1*
Y5633D1*
X15837Y5834D2*
X15736D1*
X15586Y5935D2*
Y5691D1*
X15572Y5648D1*
X15543Y5633D1*
X15514D1*
X15629Y5834D2*
X15529D1*
X15422Y5935D2*
X15408Y5920D1*
X15393Y5935D1*
X15408Y5949D1*
X15422Y5935D1*
X15408Y5834D2*
Y5633D1*
X15300Y5834D2*
Y5633D1*
Y5777D2*
X15257Y5820D1*
X15228Y5834D1*
X15186D1*
X15157Y5820D1*
X15142Y5777D1*
Y5633D1*
X14878Y5820D2*
Y5590D1*
X14892Y5547D1*
X14906Y5533D1*
X14935Y5518D1*
X14978D1*
X15007Y5533D1*
X14878Y5777D2*
X14906Y5805D1*
X14935Y5820D1*
X14978D1*
X15007Y5805D1*
X15036Y5777D1*
X15050Y5734D1*
Y5705D1*
X15036Y5662D1*
X15007Y5633D1*
X14978Y5619D1*
X14935D1*
X14906Y5633D1*
X14878Y5662D1*
X14493Y5935D2*
Y5633D1*
X14364D1*
X14321Y5648D1*
X14307Y5662D1*
X14292Y5691D1*
Y5734D1*
X14307Y5763D1*
X14321Y5777D1*
X14364Y5791D1*
X14321Y5806D1*
X14307Y5820D1*
X14292Y5848D1*
Y5877D1*
X14307Y5906D1*
X14321Y5920D1*
X14364Y5935D1*
X14493D1*
Y5791D2*
X14364D1*
X14128Y5834D2*
X14157Y5820D1*
X14186Y5791D1*
X14200Y5748D1*
Y5719D1*
X14186Y5676D1*
X14157Y5648D1*
X14128Y5633D1*
X14085D1*
X14056Y5648D1*
X14028Y5676D1*
X14013Y5719D1*
Y5748D1*
X14028Y5791D1*
X14056Y5820D1*
X14085Y5834D1*
X14128D1*
X13748D2*
Y5633D1*
Y5791D2*
X13777Y5820D1*
X13806Y5834D1*
X13849D1*
X13877Y5820D1*
X13906Y5791D1*
X13921Y5748D1*
Y5719D1*
X13906Y5676D1*
X13877Y5648D1*
X13849Y5633D1*
X13806D1*
X13777Y5648D1*
X13748Y5676D1*
X13656Y5834D2*
Y5633D1*
Y5748D2*
X13641Y5791D1*
X13613Y5820D1*
X13584Y5834D1*
X13541D1*
X13276Y5935D2*
Y5633D1*
Y5791D2*
X13304Y5820D1*
X13333Y5834D1*
X13376D1*
X13405Y5820D1*
X13434Y5791D1*
X13448Y5748D1*
Y5719D1*
X13434Y5676D1*
X13405Y5648D1*
X13376Y5633D1*
X13333D1*
X13304Y5648D1*
X13276Y5676D1*
X12892Y5834D2*
X12805Y5633D1*
X12720Y5834D1*
X12612Y5863D2*
Y5877D1*
X12598Y5906D1*
X12584Y5920D1*
X12555Y5934D1*
X12498D1*
X12469Y5920D1*
X12455Y5906D1*
X12440Y5877D1*
Y5848D1*
X12455Y5820D1*
X12483Y5777D1*
X12627Y5633D1*
X12426D1*
X12319Y5662D2*
X12333Y5647D1*
X12319Y5633D1*
X12305Y5647D1*
X12319Y5662D1*
X12126Y5934D2*
X12169Y5920D1*
X12198Y5877D1*
X12212Y5805D1*
Y5762D1*
X12198Y5691D1*
X12169Y5647D1*
X12126Y5633D1*
X12097D1*
X12054Y5647D1*
X12026Y5691D1*
X12011Y5762D1*
Y5805D1*
X12026Y5877D1*
X12054Y5920D1*
X12097Y5934D1*
X12126D1*
X12026Y5877D2*
X12198Y5691D1*
X16492Y5394D2*
X16363D1*
X16320Y5408D1*
X16305Y5423D1*
X16291Y5451D1*
Y5480D1*
X16305Y5509D1*
X16320Y5523D1*
X16363Y5537D1*
X16492D1*
Y5236D1*
X16392Y5394D2*
X16291Y5236D1*
X16199Y5351D2*
X16026D1*
Y5380D1*
X16041Y5408D1*
X16055Y5423D1*
X16084Y5437D1*
X16127D1*
X16155Y5423D1*
X16184Y5394D1*
X16199Y5351D1*
Y5322D1*
X16184Y5279D1*
X16155Y5251D1*
X16127Y5236D1*
X16084D1*
X16055Y5251D1*
X16026Y5279D1*
X15934Y5437D2*
Y5236D1*
Y5380D2*
X15891Y5423D1*
X15862Y5437D1*
X15819D1*
X15790Y5423D1*
X15776Y5380D1*
Y5236D1*
X15525Y5394D2*
X15540Y5423D1*
X15583Y5437D1*
X15626D1*
X15669Y5423D1*
X15683Y5394D1*
X15669Y5365D1*
X15640Y5351D1*
X15569Y5336D1*
X15540Y5322D1*
X15525Y5293D1*
Y5279D1*
X15540Y5251D1*
X15583Y5236D1*
X15626D1*
X15669Y5251D1*
X15683Y5279D1*
X15275Y5394D2*
X15289Y5423D1*
X15332Y5437D1*
X15375D1*
X15419Y5423D1*
X15433Y5394D1*
X15419Y5365D1*
X15390Y5351D1*
X15318Y5336D1*
X15289Y5322D1*
X15275Y5293D1*
Y5279D1*
X15289Y5251D1*
X15332Y5236D1*
X15375D1*
X15419Y5251D1*
X15433Y5279D1*
X15182Y5351D2*
X15010D1*
Y5380D1*
X15025Y5408D1*
X15039Y5423D1*
X15068Y5437D1*
X15111D1*
X15139Y5423D1*
X15168Y5394D1*
X15182Y5351D1*
Y5322D1*
X15168Y5279D1*
X15139Y5251D1*
X15111Y5236D1*
X15068D1*
X15039Y5251D1*
X15010Y5279D1*
X14918Y5537D2*
Y5236D1*
X14653Y5437D2*
Y5236D1*
Y5394D2*
X14681Y5423D1*
X14710Y5437D1*
X14753D1*
X14782Y5423D1*
X14810Y5394D1*
X14825Y5351D1*
Y5322D1*
X14810Y5279D1*
X14782Y5251D1*
X14753Y5236D1*
X14710D1*
X14681Y5251D1*
X14653Y5279D1*
X14560Y5351D2*
X14388D1*
Y5380D1*
X14402Y5408D1*
X14417Y5423D1*
X14446Y5437D1*
X14489D1*
X14517Y5423D1*
X14546Y5394D1*
X14560Y5351D1*
Y5322D1*
X14546Y5279D1*
X14517Y5251D1*
X14489Y5236D1*
X14446D1*
X14417Y5251D1*
X14388Y5279D1*
X14296Y5437D2*
Y5236D1*
Y5351D2*
X14281Y5394D1*
X14252Y5423D1*
X14224Y5437D1*
X14180D1*
X13567Y5236D2*
Y5537D1*
X13681Y5236D1*
X13796Y5537D1*
Y5236D1*
X13402Y5437D2*
X13431Y5423D1*
X13460Y5394D1*
X13474Y5351D1*
Y5322D1*
X13460Y5279D1*
X13431Y5251D1*
X13402Y5236D1*
X13359D1*
X13330Y5251D1*
X13302Y5279D1*
X13287Y5322D1*
Y5351D1*
X13302Y5394D1*
X13330Y5423D1*
X13359Y5437D1*
X13402D1*
X13152Y5537D2*
Y5293D1*
X13137Y5251D1*
X13109Y5236D1*
X13080D1*
X13195Y5437D2*
X13094D1*
X12916D2*
X12944Y5423D1*
X12973Y5394D1*
X12987Y5351D1*
Y5322D1*
X12973Y5279D1*
X12944Y5251D1*
X12916Y5236D1*
X12873D1*
X12844Y5251D1*
X12815Y5279D1*
X12801Y5322D1*
Y5351D1*
X12815Y5394D1*
X12844Y5423D1*
X12873Y5437D1*
X12916D1*
X12708D2*
Y5236D1*
Y5351D2*
X12693Y5394D1*
X12665Y5423D1*
X12636Y5437D1*
X12593D1*
X12342Y5394D2*
X12357Y5423D1*
X12400Y5437D1*
X12443D1*
X12486Y5423D1*
X12500Y5394D1*
X12486Y5365D1*
X12457Y5351D1*
X12386Y5336D1*
X12357Y5322D1*
X12342Y5293D1*
Y5279D1*
X12357Y5251D1*
X12400Y5236D1*
X12443D1*
X12486Y5251D1*
X12500Y5279D1*
X12250Y5437D2*
Y5136D1*
Y5394D2*
X12221Y5422D1*
X12192Y5437D1*
X12149D1*
X12121Y5422D1*
X12092Y5394D1*
X12077Y5351D1*
Y5322D1*
X12092Y5279D1*
X12121Y5250D1*
X12149Y5236D1*
X12192D1*
X12221Y5250D1*
X12250Y5279D1*
X11913Y5437D2*
X11942Y5423D1*
X11970Y5394D1*
X11985Y5351D1*
Y5322D1*
X11970Y5279D1*
X11942Y5251D1*
X11913Y5236D1*
X11870D1*
X11841Y5251D1*
X11813Y5279D1*
X11798Y5322D1*
Y5351D1*
X11813Y5394D1*
X11841Y5423D1*
X11870Y5437D1*
X11913D1*
X11705D2*
Y5236D1*
Y5351D2*
X11691Y5394D1*
X11662Y5423D1*
X11633Y5437D1*
X11590D1*
X11455Y5537D2*
Y5293D1*
X11440Y5251D1*
X11411Y5236D1*
X11383D1*
X11498Y5437D2*
X11397D1*
X16286Y5037D2*
X16472D1*
Y4736D1*
X16286D1*
X16472Y4894D2*
X16357D1*
X16193Y4937D2*
Y4736D1*
Y4851D2*
X16178Y4894D1*
X16150Y4923D1*
X16121Y4937D1*
X16078D1*
X15985Y5037D2*
X15971Y5023D1*
X15956Y5037D1*
X15971Y5052D1*
X15985Y5037D1*
X15971Y4937D2*
Y4736D1*
X15691Y4894D2*
X15720Y4923D1*
X15749Y4937D1*
X15792D1*
X15821Y4923D1*
X15849Y4894D1*
X15864Y4851D1*
Y4822D1*
X15849Y4779D1*
X15821Y4751D1*
X15792Y4736D1*
X15749D1*
X15720Y4751D1*
X15691Y4779D1*
X15221Y5037D2*
X15250Y5023D1*
X15278Y4994D1*
X15293Y4966D1*
X15307Y4923D1*
Y4851D1*
X15293Y4808D1*
X15278Y4779D1*
X15250Y4751D1*
X15221Y4736D1*
X15164D1*
X15135Y4751D1*
X15106Y4779D1*
X15092Y4808D1*
X15078Y4851D1*
Y4923D1*
X15092Y4966D1*
X15106Y4994D1*
X15135Y5023D1*
X15164Y5037D1*
X15221D1*
X14827Y4894D2*
X14841Y4923D1*
X14885Y4937D1*
X14928D1*
X14971Y4923D1*
X14985Y4894D1*
X14971Y4865D1*
X14942Y4851D1*
X14870Y4836D1*
X14841Y4822D1*
X14827Y4793D1*
Y4779D1*
X14841Y4751D1*
X14885Y4736D1*
X14928D1*
X14971Y4751D1*
X14985Y4779D1*
X14735Y4937D2*
X14677Y4736D1*
X14620Y4937D1*
X14562Y4736D1*
X14505Y4937D1*
X14240D2*
Y4736D1*
Y4894D2*
X14269Y4923D1*
X14298Y4937D1*
X14341D1*
X14369Y4923D1*
X14398Y4894D1*
X14412Y4851D1*
Y4822D1*
X14398Y4779D1*
X14369Y4751D1*
X14341Y4736D1*
X14298D1*
X14269Y4751D1*
X14240Y4779D1*
X14148Y5037D2*
Y4736D1*
X13883Y5037D2*
Y4736D1*
Y4894D2*
X13911Y4923D1*
X13940Y4937D1*
X13983D1*
X14012Y4923D1*
X14041Y4894D1*
X14055Y4851D1*
Y4822D1*
X14041Y4779D1*
X14012Y4751D1*
X13983Y4736D1*
X13940D1*
X13911Y4751D1*
X13883Y4779D1*
X16401Y4351D2*
X16229D1*
Y4380D1*
X16243Y4408D1*
X16257Y4423D1*
X16286Y4437D1*
X16329D1*
X16358Y4423D1*
X16387Y4394D1*
X16401Y4351D1*
Y4322D1*
X16387Y4279D1*
X16358Y4251D1*
X16329Y4236D1*
X16286D1*
X16257Y4251D1*
X16229Y4279D1*
X16065Y4437D2*
X16093Y4423D1*
X16122Y4394D1*
X16136Y4351D1*
Y4322D1*
X16122Y4279D1*
X16093Y4251D1*
X16065Y4236D1*
X16022D1*
X15993Y4251D1*
X15964Y4279D1*
X15950Y4322D1*
Y4351D1*
X15964Y4394D1*
X15993Y4423D1*
X16022Y4437D1*
X16065D1*
X15699Y4394D2*
X15713Y4423D1*
X15756Y4437D1*
X15800D1*
X15843Y4423D1*
X15857Y4394D1*
X15843Y4365D1*
X15814Y4351D1*
X15742Y4336D1*
X15713Y4322D1*
X15699Y4293D1*
Y4279D1*
X15713Y4251D1*
X15756Y4236D1*
X15800D1*
X15843Y4251D1*
X15857Y4279D1*
X15606Y4437D2*
X15549Y4236D1*
X15492Y4437D1*
X15434Y4236D1*
X15377Y4437D1*
X15112D2*
Y4236D1*
Y4394D2*
X15141Y4423D1*
X15170Y4437D1*
X15212D1*
X15241Y4423D1*
X15270Y4394D1*
X15284Y4351D1*
Y4322D1*
X15270Y4279D1*
X15241Y4251D1*
X15212Y4236D1*
X15170D1*
X15141Y4251D1*
X15112Y4279D1*
X15020Y4537D2*
Y4236D1*
X14755Y4537D2*
Y4236D1*
Y4394D2*
X14783Y4423D1*
X14812Y4437D1*
X14855D1*
X14884Y4423D1*
X14913Y4394D1*
X14927Y4351D1*
Y4322D1*
X14913Y4279D1*
X14884Y4251D1*
X14855Y4236D1*
X14812D1*
X14783Y4251D1*
X14755Y4279D1*
X14633Y4537D2*
X14476D1*
X14562Y4422D1*
X14519D1*
X14490Y4408D1*
X14476Y4394D1*
X14461Y4351D1*
Y4322D1*
X14476Y4279D1*
X14504Y4250D1*
X14547Y4236D1*
X14591D1*
X14633Y4250D1*
X14648Y4265D1*
X14662Y4293D1*
X14182Y4437D2*
X14197Y4394D1*
X14225Y4365D1*
X14268Y4351D1*
X14282D1*
X14326Y4365D1*
X14354Y4394D1*
X14369Y4437D1*
Y4451D1*
X14354Y4494D1*
X14326Y4523D1*
X14282Y4537D1*
X14268D1*
X14225Y4523D1*
X14197Y4494D1*
X14182Y4437D1*
Y4365D1*
X14197Y4293D1*
X14225Y4250D1*
X14268Y4236D1*
X14297D1*
X14340Y4250D1*
X14354Y4279D1*
X13931Y4465D2*
X13975D1*
X14003Y4451D1*
X14018Y4437D1*
X14032Y4408D1*
Y4351D1*
X14018Y4336D1*
X13989D1*
X13931Y4351D1*
X13917Y4322D1*
X13903D1*
X13874Y4351D1*
X13860Y4422D1*
X13874Y4465D1*
X13888Y4494D1*
X13917Y4523D1*
X13946Y4537D1*
X14003D1*
X14032Y4523D1*
X14060Y4494D1*
X14075Y4465D1*
X14089Y4422D1*
Y4351D1*
X14075Y4308D1*
X14060Y4279D1*
X14032Y4250D1*
X14003Y4236D1*
X13946D1*
X13917Y4250D1*
X13888Y4279D1*
X13931Y4480D2*
Y4351D1*
X13595Y4423D2*
Y4193D1*
X13609Y4150D1*
X13624Y4136D1*
X13652Y4121D1*
X13696D1*
X13724Y4136D1*
X13595Y4380D2*
X13624Y4408D1*
X13652Y4423D1*
X13696D1*
X13724Y4408D1*
X13753Y4380D1*
X13767Y4336D1*
Y4308D1*
X13753Y4265D1*
X13724Y4236D1*
X13696Y4222D1*
X13652D1*
X13624Y4236D1*
X13595Y4265D1*
X13502Y4437D2*
Y4236D1*
Y4380D2*
X13459Y4423D1*
X13430Y4437D1*
X13388D1*
X13359Y4423D1*
X13345Y4380D1*
Y4236D1*
Y4380D2*
X13301Y4423D1*
X13273Y4437D1*
X13230D1*
X13201Y4423D1*
X13186Y4380D1*
Y4236D1*
X12922Y4437D2*
Y4236D1*
Y4394D2*
X12950Y4423D1*
X12979Y4437D1*
X13022D1*
X13051Y4423D1*
X13079Y4394D1*
X13094Y4351D1*
Y4322D1*
X13079Y4279D1*
X13051Y4251D1*
X13022Y4236D1*
X12979D1*
X12950Y4251D1*
X12922Y4279D1*
X12829Y4537D2*
X12815Y4523D1*
X12800Y4537D1*
X12815Y4552D1*
X12829Y4537D1*
X12815Y4437D2*
Y4236D1*
X12708Y4537D2*
Y4236D1*
X12601Y4265D2*
X12615Y4250D1*
X12601Y4236D1*
X12586Y4250D1*
X12601Y4265D1*
X12321Y4394D2*
X12350Y4423D1*
X12379Y4437D1*
X12421D1*
X12450Y4423D1*
X12479Y4394D1*
X12493Y4351D1*
Y4322D1*
X12479Y4279D1*
X12450Y4251D1*
X12421Y4236D1*
X12379D1*
X12350Y4251D1*
X12321Y4279D1*
X12157Y4437D2*
X12185Y4423D1*
X12214Y4394D1*
X12228Y4351D1*
Y4322D1*
X12214Y4279D1*
X12185Y4251D1*
X12157Y4236D1*
X12114D1*
X12085Y4251D1*
X12056Y4279D1*
X12042Y4322D1*
Y4351D1*
X12056Y4394D1*
X12085Y4423D1*
X12114Y4437D1*
X12157D1*
X11949D2*
Y4236D1*
Y4380D2*
X11906Y4423D1*
X11877Y4437D1*
X11834D1*
X11805Y4423D1*
X11791Y4380D1*
Y4236D1*
Y4380D2*
X11748Y4423D1*
X11719Y4437D1*
X11676D1*
X11648Y4423D1*
X11633Y4380D1*
Y4236D1*
M02*
