G04 DipTrace 2.4.0.2*
%INBottom.gbr*%
%MOIN*%
%ADD14C,0.007*%
%ADD15C,0.025*%
%ADD20C,0.05*%
%ADD21R,0.05X0.05*%
%ADD27R,0.0591X0.0591*%
%ADD28C,0.0591*%
%ADD29R,0.0669X0.0669*%
%ADD30C,0.0669*%
%ADD31R,0.0748X0.0748*%
%ADD32C,0.0748*%
%FSLAX44Y44*%
G04*
G70*
G90*
G75*
G01*
%LNBottom*%
%LPD*%
X17073Y13530D2*
D14*
X16438D1*
X16399Y13569D1*
X13743D1*
X13603Y13429D1*
Y12185D1*
X17860Y13530D2*
X18490Y12900D1*
Y9286D1*
X18350Y9146D1*
X12132D1*
X9119Y8201D2*
X8356Y7438D1*
X6623D1*
X5206Y8855D1*
X4467D1*
X4327Y8995D1*
Y12696D1*
X4467Y12837D1*
X9526D1*
X9666Y12977D1*
Y16181D1*
X9806Y16321D1*
X13776D1*
X13916Y16181D1*
Y14457D1*
X14056Y14317D1*
X17073D1*
X9030Y9775D2*
X15680D1*
X17073Y11168D1*
Y12742D2*
X14020D1*
X13880Y12882D1*
Y13339D1*
X16562Y15562D2*
X17087Y15037D1*
X18630D1*
X18260Y12355D2*
Y11955D1*
X17860D1*
X12437Y15562D2*
Y12095D1*
X12764Y11768D1*
X17073D1*
Y11955D1*
X8577Y6492D2*
X11622D1*
X11762Y6632D1*
Y9495D1*
X11902Y9635D1*
X18120D1*
X18260Y9775D1*
Y10767D1*
X17860Y11168D1*
X10541Y10154D2*
Y10415D1*
X4766D1*
X11785Y10210D2*
X10580Y11415D1*
X4766D1*
X12132Y8516D2*
X18490D1*
X18630Y8656D1*
Y13547D1*
X17860Y14317D1*
X17280Y14897D1*
X16145D1*
X4766Y7415D2*
X5925Y6257D1*
X8093D1*
X17143D1*
X4766Y9415D2*
X5469D1*
X5504Y9450D1*
X9349D1*
X9489Y9310D1*
Y7256D1*
D15*
X9187Y16062D3*
Y13812D3*
X11812Y12125D3*
X10312Y15625D3*
X13187Y15125D3*
X12937Y13812D3*
X13003Y12937D3*
X14467Y13185D3*
X15142Y13113D3*
X6062Y14978D3*
X5227Y13469D3*
X6461Y8779D3*
X7705Y8354D3*
X14735Y4301D3*
X12252Y6976D3*
X15148Y7997D3*
X15958Y10984D3*
X13142Y10667D3*
X5956Y6941D3*
X9124Y7680D3*
X9169Y8615D3*
X7480Y4618D3*
X10331Y4935D3*
X12920Y12135D3*
X13603Y12185D3*
X12132Y9146D3*
X9119Y8201D3*
X9030Y9775D3*
X13880Y13339D3*
X18630Y15037D3*
X18260Y12355D3*
X8577Y6492D3*
X10541Y10154D3*
X11785Y10210D3*
X16145Y14897D3*
X12132Y8516D3*
X8093Y6257D3*
X17143D3*
X9489Y7256D3*
X6070Y16238D2*
X6454D1*
X8426D2*
X9274D1*
X14305D2*
X14829D1*
X16801D2*
X18649D1*
X6172Y15990D2*
X6454D1*
X8777D2*
X9270D1*
X14312D2*
X14829D1*
X17152D2*
X18649D1*
X6211Y15741D2*
X6454D1*
X8898D2*
X9270D1*
X10062D2*
X10704D1*
X13148D2*
X13520D1*
X14312D2*
X14829D1*
X17273D2*
X18649D1*
X6195Y15492D2*
X6454D1*
X8918D2*
X9270D1*
X10062D2*
X10704D1*
X13168D2*
X13520D1*
X14312D2*
X14829D1*
X17293D2*
X18536D1*
X6121Y15244D2*
X6454D1*
X8844D2*
X9270D1*
X10062D2*
X10704D1*
X13094D2*
X13520D1*
X14312D2*
X14829D1*
X5976Y14995D2*
X6454D1*
X8637D2*
X9270D1*
X10062D2*
X10704D1*
X12887D2*
X13520D1*
X14312D2*
X14829D1*
X4287Y14746D2*
X4419D1*
X5707D2*
X9270D1*
X10062D2*
X12044D1*
X12832D2*
X13520D1*
X14312D2*
X15684D1*
X4287Y14498D2*
X9270D1*
X10062D2*
X12044D1*
X12832D2*
X13520D1*
X18488D2*
X18649D1*
X4287Y14249D2*
X9270D1*
X10062D2*
X12044D1*
X12832D2*
X13587D1*
X18512D2*
X18649D1*
X4287Y14000D2*
X9270D1*
X10062D2*
X12044D1*
X12832D2*
X13841D1*
X4287Y13751D2*
X9270D1*
X10062D2*
X12044D1*
X12832D2*
X13376D1*
X4287Y13503D2*
X9270D1*
X10062D2*
X12044D1*
X12832D2*
X13216D1*
X4287Y13254D2*
X9270D1*
X10062D2*
X12044D1*
X12832D2*
X13208D1*
X10062Y13005D2*
X12044D1*
X12832D2*
X13208D1*
X9988Y12757D2*
X12044D1*
X12832D2*
X13208D1*
X9723Y12508D2*
X12044D1*
X12832D2*
X13208D1*
X4723Y12259D2*
X12044D1*
X12832D2*
X13122D1*
X14082D2*
X16497D1*
X5098Y12011D2*
X12051D1*
X10734Y11762D2*
X12223D1*
X11031Y11513D2*
X12469D1*
X11277Y11265D2*
X16426D1*
X5328Y11016D2*
X10430D1*
X11527D2*
X16372D1*
X11777Y10767D2*
X16126D1*
X12152Y10519D2*
X15876D1*
X16973D2*
X17204D1*
X11012Y10270D2*
X11176D1*
X12266D2*
X15626D1*
X16723D2*
X17204D1*
X5332Y10021D2*
X8618D1*
X16473D2*
X17204D1*
X9883Y9275D2*
X11368D1*
X5582Y9026D2*
X9094D1*
X9883D2*
X11368D1*
X5832Y8778D2*
X9094D1*
X9883D2*
X11368D1*
X6082Y8529D2*
X8770D1*
X9883D2*
X11368D1*
X4287Y8280D2*
X5231D1*
X6328D2*
X8641D1*
X9883D2*
X11368D1*
X6578Y8032D2*
X8403D1*
X9883D2*
X11368D1*
X12156D2*
X17376D1*
X18125D2*
X18649D1*
X5461Y7783D2*
X5731D1*
X9883D2*
X11368D1*
X12156D2*
X17184D1*
X18316D2*
X18649D1*
X5461Y7534D2*
X5977D1*
X9000D2*
X9094D1*
X9883D2*
X11368D1*
X12156D2*
X17141D1*
X18359D2*
X18649D1*
X5461Y7286D2*
X6227D1*
X8754D2*
X9005D1*
X9973D2*
X11368D1*
X12156D2*
X17208D1*
X18289D2*
X18649D1*
X5691Y7037D2*
X9059D1*
X9918D2*
X11368D1*
X12156D2*
X17466D1*
X18031D2*
X18649D1*
X5941Y6788D2*
X8200D1*
X12156D2*
X18649D1*
X4287Y6540D2*
X5094D1*
X17531D2*
X18649D1*
X4287Y6291D2*
X5344D1*
X17625D2*
X18649D1*
X4287Y6042D2*
X4481D1*
X18391D2*
X18649D1*
X5945Y5793D2*
X16930D1*
X6105Y5545D2*
X16770D1*
X6187Y5296D2*
X16684D1*
X6215Y5047D2*
X16661D1*
X6183Y4799D2*
X16692D1*
X6090Y4550D2*
X16786D1*
X5918Y4301D2*
X16958D1*
X18321Y7438D2*
X18282Y7320D1*
X18218Y7212D1*
X18134Y7121D1*
X18031Y7049D1*
X17916Y7001D1*
X17793Y6979D1*
X17669Y6983D1*
X17548Y7013D1*
X17436Y7068D1*
X17338Y7146D1*
X17259Y7243D1*
X17203Y7354D1*
X17171Y7475D1*
X17166Y7599D1*
X17187Y7722D1*
X17234Y7838D1*
X17304Y7941D1*
X17394Y8027D1*
X17501Y8092D1*
X17619Y8132D1*
X17731Y8146D1*
X12408D1*
X12346Y8108D1*
X12229Y8066D1*
X12132Y8059D1*
X12131Y6625D1*
X16869Y6627D1*
X16979Y6687D1*
X17100Y6715D1*
X17225Y6710D1*
X17343Y6671D1*
X17447Y6602D1*
X17528Y6508D1*
X17581Y6395D1*
X17603Y6257D1*
X17591Y6168D1*
X17754Y6187D1*
X17879Y6186D1*
X18003Y6172D1*
X18125Y6144D1*
X18243Y6103D1*
X18356Y6048D1*
X18462Y5982D1*
X18560Y5905D1*
X18675Y5783D1*
Y8196D1*
X18531Y8148D1*
X17791Y8146D1*
X17867Y8135D1*
X17986Y8097D1*
X18094Y8035D1*
X18186Y7951D1*
X18259Y7850D1*
X18308Y7735D1*
X18335Y7562D1*
X18321Y7438D1*
X17230Y10004D2*
Y10559D1*
X17063Y10537D1*
X16974Y10548D1*
X16431Y10003D1*
X17226Y10005D1*
X18401Y14640D2*
X18456Y14524D1*
X18485Y14402D1*
X18490Y14317D1*
X18481Y14220D1*
X18677Y14024D1*
X18675Y14578D1*
X18603D1*
X18481Y14602D1*
X18401Y14643D1*
X16473Y12139D2*
X16499Y12217D1*
X16580Y12345D1*
X16448Y12372D1*
X14021D1*
X14041Y12323D1*
X14063Y12185D1*
X14056Y12135D1*
X15014Y12138D1*
X16471D1*
X16451Y11067D2*
X16443Y11188D1*
X16459Y11311D1*
X16488Y11396D1*
X13198Y11398D1*
X12764D1*
X12641Y11419D1*
X12530Y11481D1*
X12175Y11833D1*
X12103Y11935D1*
X12069Y12058D1*
X12067Y14857D1*
X11646Y14853D1*
X10728D1*
Y15951D1*
X10038D1*
X10036Y12977D1*
X10015Y12854D1*
X9953Y12743D1*
X9788Y12575D1*
X9686Y12503D1*
X9563Y12468D1*
X6776Y12467D1*
X4694D1*
X4697Y12083D1*
X4861Y12078D1*
X4982Y12049D1*
X5096Y11998D1*
X5198Y11927D1*
X5286Y11838D1*
X5323Y11783D1*
X7141Y11785D1*
X10580D1*
X10703Y11764D1*
X10814Y11702D1*
X11856Y10663D1*
X11986Y10624D1*
X12089Y10556D1*
X12171Y10461D1*
X12224Y10348D1*
X12245Y10210D1*
X12236Y10145D1*
X15527D1*
X16449Y11067D1*
X4265Y8085D2*
X5436D1*
Y7268D1*
X6080Y6624D1*
X7820Y6627D1*
X7929Y6687D1*
X8051Y6715D1*
X8171Y6710D1*
X8214Y6775D1*
X8303Y6862D1*
X8413Y6922D1*
X8534Y6950D1*
X8659Y6945D1*
X8777Y6906D1*
X8845Y6861D1*
X9252Y6862D1*
X9136Y6961D1*
X9070Y7066D1*
X9034Y7186D1*
X9032Y7311D1*
X9064Y7431D1*
X9120Y7529D1*
X9115Y7674D1*
X8618Y7176D1*
X8516Y7104D1*
X8394Y7070D1*
X6623Y7068D1*
X6500Y7089D1*
X6389Y7151D1*
X5055Y8483D1*
X4467Y8485D1*
X4338Y8509D1*
X4262Y8487D1*
Y8085D1*
X4917Y6746D2*
X4260D1*
X4262Y5858D1*
X4420Y5988D1*
X4527Y6053D1*
X4640Y6106D1*
X4758Y6147D1*
X4880Y6174D1*
X5004Y6187D1*
X5129Y6186D1*
X5253Y6172D1*
X5375Y6144D1*
X5493Y6103D1*
X5616Y6042D1*
X4914Y6744D1*
X5212Y9913D2*
X5286Y9838D1*
X5323Y9783D1*
X5466Y9818D1*
X8254Y9820D1*
X8570D1*
X8605Y9951D1*
X8662Y10048D1*
X7416Y10045D1*
X5326D1*
X5258Y9960D1*
X5209Y9916D1*
X5212Y10913D2*
X5286Y10838D1*
X5323Y10783D1*
X7141Y10785D1*
X10541D1*
X10667Y10762D1*
X10728Y10744D1*
X10427Y11045D1*
X5326D1*
X5258Y10960D1*
X5209Y10916D1*
X14978Y16271D2*
X16271D1*
Y16205D1*
X16349Y16238D1*
X16471Y16265D1*
X16596Y16270D1*
X16720Y16253D1*
X16838Y16215D1*
X16949Y16156D1*
X17047Y16079D1*
X17130Y15986D1*
X17196Y15880D1*
X17242Y15764D1*
X17267Y15642D1*
X17271Y15562D1*
X17251Y15404D1*
X17962Y15407D1*
X18357D1*
X18466Y15467D1*
X18588Y15495D1*
X18677Y15492D1*
X18675Y16387D1*
Y16487D1*
X14132D1*
X14178Y16443D1*
X14250Y16341D1*
X14284Y16218D1*
X14286Y14685D1*
X15431Y14687D1*
X15732D1*
X15690Y14828D1*
Y14855D1*
X14853Y14853D1*
Y16271D1*
X14978D1*
X13135Y15438D2*
X13102Y15317D1*
X13049Y15204D1*
X12977Y15102D1*
X12888Y15015D1*
X12808Y14960D1*
X12807Y12246D1*
X12917Y12139D1*
X13143Y12138D1*
X13146Y12240D1*
X13177Y12360D1*
X13234Y12458D1*
X13233Y13429D1*
X13253Y13552D1*
X13316Y13663D1*
X13481Y13831D1*
X13582Y13903D1*
X13705Y13937D1*
X16399Y13939D1*
X16527Y13916D1*
X16448Y13947D1*
X14056D1*
X13933Y13968D1*
X13822Y14031D1*
X13654Y14196D1*
X13582Y14297D1*
X13548Y14420D1*
X13546Y15953D1*
X13030Y15951D1*
X13071Y15880D1*
X13117Y15764D1*
X13142Y15642D1*
X13146Y15562D1*
X13135Y15438D1*
X6603Y16271D2*
X7896D1*
Y16205D1*
X7974Y16238D1*
X8096Y16265D1*
X8221Y16270D1*
X8345Y16253D1*
X8463Y16215D1*
X8574Y16156D1*
X8672Y16079D1*
X8755Y15986D1*
X8821Y15880D1*
X8867Y15764D1*
X8892Y15642D1*
X8896Y15562D1*
X8885Y15438D1*
X8852Y15317D1*
X8799Y15204D1*
X8727Y15102D1*
X8638Y15015D1*
X8535Y14944D1*
X8421Y14893D1*
X8300Y14862D1*
X8176Y14853D1*
X8052Y14866D1*
X7893Y14920D1*
X7896Y14853D1*
X6478D1*
Y16271D1*
X6603D1*
X6181Y4937D2*
X6161Y4814D1*
X6126Y4694D1*
X6079Y4578D1*
X6019Y4469D1*
X5948Y4366D1*
X5851Y4259D1*
X6762Y4262D1*
X17016D1*
X16876Y4436D1*
X16812Y4544D1*
X16761Y4658D1*
X16722Y4777D1*
X16698Y4899D1*
X16686Y5024D1*
X16689Y5149D1*
X16706Y5272D1*
X16736Y5394D1*
X16779Y5511D1*
X16835Y5622D1*
X16903Y5727D1*
X16985Y5826D1*
X16873Y5886D1*
X8365Y5887D1*
X8307Y5850D1*
X8190Y5807D1*
X8066Y5798D1*
X7944Y5822D1*
X7824Y5886D1*
X5918Y5888D1*
X5898Y5817D1*
X5977Y5719D1*
X6044Y5614D1*
X6099Y5502D1*
X6141Y5384D1*
X6170Y5263D1*
X6188Y5062D1*
X6181Y4937D1*
Y15562D2*
X6161Y15439D1*
X6126Y15319D1*
X6079Y15203D1*
X6019Y15094D1*
X5948Y14991D1*
X5865Y14897D1*
X5773Y14813D1*
X5672Y14740D1*
X5563Y14678D1*
X5448Y14629D1*
X5329Y14593D1*
X5206Y14570D1*
X5081Y14561D1*
X4956Y14566D1*
X4833Y14584D1*
X4712Y14616D1*
X4596Y14662D1*
X4485Y14720D1*
X4381Y14790D1*
X4262Y14896D1*
Y13147D1*
X4307Y13170D1*
X4429Y13205D1*
X7217Y13207D1*
X9299D1*
X9296Y13852D1*
Y16181D1*
X9317Y16304D1*
X9379Y16415D1*
X9451Y16490D1*
X8550Y16487D1*
X5858D1*
X5977Y16344D1*
X6044Y16239D1*
X6099Y16127D1*
X6141Y16009D1*
X6170Y15888D1*
X6188Y15687D1*
X6181Y15562D1*
X8667Y8274D2*
X8694Y8376D1*
X8756Y8484D1*
X8846Y8571D1*
X8955Y8630D1*
X9076Y8659D1*
X9119Y8657D1*
Y9080D1*
X5622Y9079D1*
X5557Y9056D1*
X5556Y9028D1*
X6774Y7810D1*
X8205Y7808D1*
X8666Y8271D1*
X10909Y10425D2*
X10980Y10292D1*
X11000Y10142D1*
X11323Y10145D1*
X10841Y10631D1*
X10903Y10492D1*
X10910Y10449D1*
X9932Y7132D2*
X9883Y7018D1*
X9804Y6921D1*
X9725Y6864D1*
X11393Y6862D1*
X11392Y9407D1*
X9848Y9405D1*
X9859Y9310D1*
Y7525D1*
X9928Y7394D1*
X9949Y7256D1*
X9932Y7132D1*
X16270Y13199D2*
X14317D1*
X14395Y13112D1*
X16563D1*
X16438Y13160D1*
X16310Y13183D1*
X16273Y13199D1*
D20*
X17750Y7562D3*
D21*
X16750D3*
D27*
X17860Y10380D3*
D28*
Y11168D3*
Y11955D3*
Y12742D3*
Y13530D3*
Y14317D3*
X17073D3*
Y13530D3*
Y12742D3*
Y11955D3*
Y11168D3*
Y10380D3*
D29*
X4766Y7415D3*
D30*
Y8415D3*
Y9415D3*
Y10415D3*
Y11415D3*
D31*
X15562Y15562D3*
D32*
X16562D3*
X17562D3*
D31*
X7187D3*
D32*
X8187D3*
X9187D3*
D31*
X11437D3*
D32*
X12437D3*
X13437D3*
M02*
