M48
INCH
T01C0.015
T02C0.028
T03C0.0354
T04C0.0433
T05C0.116
%
T01
X+009187Y+016062
X+010312Y+015625
X+009187Y+013812
X+011812Y+012125
X+012920Y+012135
X+013603Y+012185
X+013003Y+012937
X+012937Y+013812
X+013880Y+013339
X+014467Y+013185
X+015142Y+013113
X+016145Y+014897
X+018630Y+015037
X+018260Y+012355
X+015958Y+010984
X+013142Y+010667
X+011785Y+010210
X+012132Y+009146
X+012132Y+008516
X+012252Y+006976
X+009489Y+007256
X+009124Y+007680
X+009119Y+008201
X+009169Y+008615
X+009030Y+009775
X+010541Y+010154
X+007705Y+008354
X+006461Y+008779
X+005956Y+006941
X+008093Y+006257
X+008577Y+006492
X+007480Y+004618
X+010331Y+004935
X+014735Y+004301
X+017143Y+006257
X+015148Y+007997
X+013187Y+015125
X+006062Y+014978
X+005227Y+013469
T02
X+017750Y+007562
X+016750Y+007562
T03
X+017860Y+010380
X+017860Y+011168
X+017860Y+011955
X+017860Y+012742
X+017860Y+013530
X+017860Y+014317
X+017073Y+014317
X+017073Y+013530
X+017073Y+012742
X+017073Y+011955
X+017073Y+011168
X+017073Y+010380
T04
X+004766Y+007415
X+004766Y+008415
X+004766Y+009415
X+004766Y+010415
X+004766Y+011415
X+007187Y+015562
X+008187Y+015562
X+009187Y+015562
X+011437Y+015562
X+012437Y+015562
X+013437Y+015562
X+015562Y+015562
X+016562Y+015562
X+017562Y+015562
T05
X+005062Y+005062
X+005062Y+015687
X+017812Y+005062
T00
M30
