G04 DipTrace 2.4.0.2*
%INTopAssy.gbr*%
%MOIN*%
%ADD10C,0.0098*%
%ADD12C,0.003*%
%FSLAX44Y44*%
G04*
G70*
G90*
G75*
G01*
%LNTopAssy*%
%LPD*%
X4168Y6423D2*
D10*
Y12407D1*
X3785Y8421D2*
D12*
X3986D1*
Y8507D1*
X3976Y8535D1*
X3967Y8545D1*
X3948Y8554D1*
X3919D1*
X3900Y8545D1*
X3890Y8535D1*
X3881Y8507D1*
X3871Y8535D1*
X3862Y8545D1*
X3843Y8554D1*
X3823D1*
X3804Y8545D1*
X3795Y8535D1*
X3785Y8507D1*
Y8421D1*
X3881D2*
Y8507D1*
X3785Y8674D2*
X3795Y8655D1*
X3814Y8635D1*
X3833Y8626D1*
X3862Y8616D1*
X3910D1*
X3938Y8626D1*
X3957Y8635D1*
X3976Y8654D1*
X3986Y8674D1*
Y8712D1*
X3976Y8731D1*
X3957Y8750D1*
X3938Y8760D1*
X3910Y8769D1*
X3862D1*
X3833Y8760D1*
X3814Y8750D1*
X3795Y8731D1*
X3785Y8712D1*
Y8674D1*
X3986Y8984D2*
X3785Y8907D1*
X3986Y8831D1*
X3919Y8860D2*
Y8955D1*
X3881Y9046D2*
Y9132D1*
X3871Y9161D1*
X3862Y9170D1*
X3843Y9180D1*
X3823D1*
X3804Y9170D1*
X3795Y9161D1*
X3785Y9132D1*
Y9046D1*
X3986D1*
X3881Y9113D2*
X3986Y9180D1*
X3785Y9242D2*
X3986D1*
Y9309D1*
X3976Y9337D1*
X3957Y9357D1*
X3938Y9366D1*
X3910Y9376D1*
X3862D1*
X3833Y9366D1*
X3814Y9357D1*
X3795Y9337D1*
X3785Y9309D1*
Y9242D1*
Y9756D2*
Y9632D1*
X3986D1*
Y9756D1*
X3881Y9632D2*
Y9708D1*
X3785Y9818D2*
X3986D1*
Y9885D1*
X3976Y9914D1*
X3957Y9933D1*
X3938Y9942D1*
X3910Y9952D1*
X3862D1*
X3833Y9942D1*
X3814Y9933D1*
X3795Y9914D1*
X3785Y9885D1*
Y9818D1*
X3833Y10157D2*
X3814Y10148D1*
X3795Y10128D1*
X3785Y10109D1*
Y10071D1*
X3795Y10052D1*
X3814Y10033D1*
X3833Y10023D1*
X3862Y10014D1*
X3910D1*
X3938Y10023D1*
X3957Y10033D1*
X3976Y10052D1*
X3986Y10071D1*
Y10109D1*
X3976Y10128D1*
X3957Y10148D1*
X3938Y10157D1*
X3910D1*
Y10109D1*
X3785Y10343D2*
Y10219D1*
X3986D1*
Y10343D1*
X3881Y10219D2*
Y10295D1*
M02*
