G04 DipTrace 2.4.0.2*
%INBottom.gbr*%
%MOIN*%
%ADD13C,0.007*%
%ADD14C,0.015*%
%ADD19R,0.0669X0.0669*%
%ADD20C,0.0669*%
%ADD23C,0.05*%
%ADD24R,0.05X0.05*%
%ADD34C,0.025*%
%FSLAX44Y44*%
G04*
G70*
G90*
G75*
G01*
%LNBottom*%
%LPD*%
X10922Y20398D2*
D13*
Y14837D1*
X10217Y13587D2*
X10361Y13731D1*
Y20837D1*
X10922Y21398D1*
X13730Y20307D2*
Y14771D1*
X12776Y13817D1*
X16120Y20428D2*
Y12207D1*
X16296Y12030D1*
X9947Y10862D2*
Y5362D1*
X10508Y4802D1*
X12177Y10108D2*
Y13579D1*
X10508Y5802D2*
Y7166D1*
X16391Y15105D2*
Y21977D1*
X16251Y22117D1*
X6641D1*
X5922Y21398D1*
X14933Y19519D2*
Y21837D1*
X14793Y21977D1*
X7501D1*
X6922Y21398D1*
X9746Y18896D2*
X9361Y19280D1*
Y20958D1*
X8922Y21398D1*
X8211Y14412D2*
X8361Y14562D1*
Y21697D1*
X8501Y21837D1*
X9482D1*
X9922Y21398D1*
X9131Y19545D2*
Y20188D1*
X8922Y20398D1*
X6535Y9811D2*
X9976Y13252D1*
Y19651D1*
X9922Y19705D1*
Y20398D1*
X8947Y8515D2*
Y6936D1*
Y5362D1*
X9508Y4802D1*
X9196Y7716D2*
Y6626D1*
X9508Y6314D1*
Y5802D1*
X11738Y9461D2*
X12368D1*
X12508Y9321D1*
Y5802D1*
X11508D2*
Y9091D1*
X10947Y9321D2*
Y5362D1*
X11508Y4802D1*
X11947Y8975D2*
Y5362D1*
X12508Y4802D1*
X10447Y13357D2*
X11922Y14831D1*
Y20398D1*
X7698Y7256D2*
D14*
X8508Y6447D1*
Y5802D1*
X14061Y6691D2*
Y7765D1*
X14154Y7858D1*
Y8750D1*
X8508Y5802D2*
X8025Y5319D1*
Y4413D1*
X8151Y4286D1*
X13978D1*
X14061Y4369D1*
Y6691D1*
X13052Y20916D2*
X13832D1*
X13962Y20786D1*
X6198Y11750D2*
D13*
Y13304D1*
X5843Y13659D1*
X5899Y19107D2*
Y19195D1*
X5361Y19733D1*
Y20958D1*
X4922Y21398D1*
X5379Y17182D2*
Y18587D1*
X5899Y19107D1*
X5843Y13659D2*
Y16911D1*
X5572Y17182D1*
X5379D1*
D34*
X10922Y14837D3*
X10217Y13587D3*
X12776Y13817D3*
X13730Y20307D3*
X16296Y12030D3*
X16120Y20428D3*
X9947Y10862D3*
X12186Y13587D3*
X12177Y10108D3*
X10508Y7166D3*
X16391Y15105D3*
X14933Y19519D3*
X9746Y18896D3*
X8211Y14412D3*
X9131Y19545D3*
X6535Y9811D3*
X8947Y6936D3*
Y8515D3*
X9196Y6626D3*
Y7716D3*
X11738Y9461D3*
X11508Y9091D3*
X10947Y9321D3*
X11947Y8975D3*
X10447Y13357D3*
X14154Y8750D3*
X7698Y7256D3*
X14061Y6691D3*
X5899Y19107D3*
X6198Y11750D3*
X5379Y17182D3*
X13052Y20916D3*
X13962Y20786D3*
D19*
X12508Y5802D3*
D20*
Y4802D3*
X11508Y5802D3*
Y4802D3*
X10508Y5802D3*
Y4802D3*
X9508Y5802D3*
Y4802D3*
X8508Y5802D3*
Y4802D3*
D23*
X5843Y12659D3*
D24*
Y13659D3*
D19*
X4922Y20398D3*
D20*
Y21398D3*
X5922Y20398D3*
Y21398D3*
X6922Y20398D3*
Y21398D3*
X7922Y20398D3*
Y21398D3*
X8922Y20398D3*
Y21398D3*
X9922Y20398D3*
Y21398D3*
X10922Y20398D3*
Y21398D3*
X11922Y20398D3*
Y21398D3*
M02*
