G04 DipTrace 2.4.0.2*
%INBottom.gbr*%
%MOIN*%
%ADD13C,0.007*%
%ADD14C,0.03*%
%ADD15C,0.015*%
%ADD20C,0.05*%
%ADD21R,0.05X0.05*%
%ADD26R,0.0669X0.0669*%
%ADD27C,0.0669*%
%ADD38C,0.025*%
%FSLAX44Y44*%
G04*
G70*
G90*
G75*
G01*
%LNBottom*%
%LPD*%
X21125Y8661D2*
D13*
Y7827D1*
X21265Y7687D1*
X22187D1*
X13276Y5633D2*
X22187D1*
Y5687D1*
X16081Y7805D2*
X14496D1*
X14356Y7945D1*
Y11844D1*
X14366Y11854D1*
X14941D1*
X16973D1*
X11466Y9752D2*
Y4387D1*
X11606Y4247D1*
X22487D1*
X22627Y4387D1*
Y5127D1*
X23187Y5687D1*
X10361Y15785D2*
X11056D1*
X11196Y15645D1*
Y13502D1*
X12466D1*
X12606Y13362D1*
Y4827D1*
X12746Y4687D1*
X22187D1*
X17187Y14187D2*
X16140D1*
X16000Y14327D1*
Y15625D1*
X10088Y16385D2*
X4442D1*
X4302Y16245D1*
Y9233D1*
X5064Y8472D1*
X13349Y9005D2*
Y16666D1*
X13505Y16822D1*
X22487D1*
X22627Y16682D1*
Y13247D1*
X23187Y12687D1*
X17519Y6863D2*
Y7692D1*
X17047Y8165D1*
X14636D1*
X14496Y8305D1*
Y9004D1*
X14819Y9327D1*
Y9613D1*
X14506Y9926D1*
Y11484D1*
X14646Y11624D1*
X19528D1*
X20151Y12247D1*
X22627D1*
X23187Y11687D1*
X17579Y8768D2*
Y11107D1*
X17719Y11247D1*
X22627D1*
X23187Y10687D1*
X18200Y10893D2*
X18845Y10247D1*
X22627D1*
X23187Y9687D1*
X14765Y10993D2*
X17019D1*
X17299Y10712D1*
Y8688D1*
X17449Y8538D1*
X20400D1*
X21109Y9247D1*
X22627D1*
X23187Y8687D1*
X14637Y6787D2*
X14076Y7348D1*
Y12004D1*
X14185Y12112D1*
X18065D1*
X18640Y12687D1*
X22187D1*
X19475Y10621D2*
X22187D1*
Y10687D1*
X18426Y9935D2*
X18674Y9687D1*
X22187D1*
X8866Y12065D2*
X7739D1*
Y12032D1*
X6064Y8472D2*
X9153D1*
X10433Y9752D1*
X9889Y13042D2*
X10732D1*
X10872Y13182D1*
Y14674D1*
X9991Y15555D1*
Y15875D1*
X10131Y16015D1*
X12906D1*
X13046Y15875D1*
Y6387D1*
X13186Y6247D1*
X22747D1*
X23187Y6687D1*
X10875Y10032D2*
X5624D1*
X5064Y9472D1*
X10119Y11812D2*
X9339Y11032D1*
X5624D1*
X5064Y10472D1*
X10481Y13272D2*
X9796Y13958D1*
X5643D1*
X5503Y13818D1*
Y11911D1*
X5064Y11472D1*
X10480Y14632D2*
X5204D1*
X5064Y14492D1*
Y12472D1*
X22187Y6687D2*
X19733D1*
X19553Y6507D1*
X14076D1*
X13936Y6647D1*
Y12237D1*
X14076Y12377D1*
X16134D1*
X12376Y9276D2*
Y12042D1*
X12236Y12182D1*
X9604D1*
X9187Y11765D1*
X8616D1*
X9694Y13588D2*
X9464Y13358D1*
Y12322D1*
X9604Y12182D1*
X14819Y8690D2*
X15114Y8395D1*
X15829D1*
X8616Y11765D2*
X7352D1*
X6645Y12472D1*
X6064D1*
X15829Y8395D2*
Y10420D1*
X16122Y10713D1*
X22187Y13687D2*
D14*
X17697D1*
X17557Y13547D1*
X15140D1*
X15000Y13687D1*
Y14547D1*
X14657Y14889D1*
Y15062D1*
X17557Y13547D2*
Y12657D1*
X17840Y12374D1*
X17953D1*
X12056Y11223D2*
D13*
X11305Y10472D1*
X6064D1*
D38*
X20871Y15632D3*
X18380Y14090D3*
X17366Y11861D3*
X19841Y11529D3*
X21469Y11728D3*
X19143Y12144D3*
X18047Y13223D3*
X16568Y12559D3*
X14226Y12891D3*
X21369Y13273D3*
X15821Y5964D3*
X19293Y5980D3*
X14807Y7226D3*
X15422Y6877D3*
X16701Y7608D3*
X16635Y9452D3*
X13645Y10632D3*
X13678Y16180D3*
X12864Y16346D3*
X11618Y16429D3*
X9309Y16728D3*
X12900Y5537D3*
X12022Y8608D3*
Y5900D3*
X10673Y6776D3*
X7251Y7879D3*
X7266Y9364D3*
X8810Y9569D3*
X7786Y11406D3*
X6741Y11438D3*
X7944Y12939D3*
X7277Y12215D3*
X19765Y8143D3*
X21125Y8661D3*
X13276Y5633D3*
X14941Y11854D3*
X16081Y7805D3*
X16973Y11854D3*
X11466Y9752D3*
X10361Y15785D3*
X11196Y13502D3*
X17187Y14187D3*
X10088Y16385D3*
X13349Y9005D3*
X17519Y6863D3*
X14819Y9613D3*
X17579Y8768D3*
X18200Y10893D3*
X14765Y10993D3*
X14637Y6787D3*
X19475Y10621D3*
X18426Y9935D3*
X7739Y12032D3*
X8866Y12065D3*
X10433Y9752D3*
X9889Y13042D3*
X10875Y10032D3*
X10119Y11812D3*
X10481Y13272D3*
X10480Y14632D3*
X16134Y12377D3*
X8616Y11765D3*
X16122Y10713D3*
X12376Y9276D3*
X15829Y8395D3*
X14819Y8690D3*
X9694Y13588D3*
X14657Y15062D3*
X17953Y12374D3*
X12056Y11223D3*
X4677Y16842D2*
D15*
X4476Y16641D1*
X5101Y16842D2*
X4900Y16641D1*
X5525Y16842D2*
X5324Y16641D1*
X4811Y16128D2*
X4559Y15876D1*
X5949Y16842D2*
X5748Y16641D1*
X5235Y16128D2*
X4559Y15451D1*
X6374Y16842D2*
X6173Y16641D1*
X5659Y16128D2*
X4559Y15027D1*
X6798Y16842D2*
X6597Y16641D1*
X6084Y16128D2*
X4559Y14603D1*
X7222Y16842D2*
X7021Y16641D1*
X6508Y16128D2*
X5833Y15453D1*
X5449Y15069D2*
X5270Y14890D1*
X4807Y14428D2*
X4559Y14179D1*
X7648Y16844D2*
X7446Y16641D1*
X6932Y16128D2*
X6140Y15335D1*
X4807Y14003D2*
X4559Y13754D1*
X8072Y16844D2*
X7870Y16641D1*
X7356Y16128D2*
X6249Y15021D1*
X5605Y14376D2*
X5319Y14091D1*
X4807Y13579D2*
X4559Y13330D1*
X8497Y16844D2*
X8294Y16641D1*
X7781Y16128D2*
X6542Y14890D1*
X6029Y14376D2*
X5866Y14214D1*
X4807Y13155D2*
X4559Y12906D1*
X8921Y16844D2*
X8718Y16641D1*
X8205Y16128D2*
X7525Y15448D1*
X7186Y15109D2*
X6967Y14890D1*
X6453Y14376D2*
X6290Y14214D1*
X9345Y16844D2*
X9143Y16641D1*
X8629Y16128D2*
X7855Y15354D1*
X6877Y14376D2*
X6715Y14214D1*
X6203Y13702D2*
X5760Y13259D1*
X4625Y12124D2*
X4559Y12057D1*
X9769Y16844D2*
X9567Y16641D1*
X9053Y16128D2*
X7982Y15057D1*
X7302Y14376D2*
X7139Y14214D1*
X6627Y13702D2*
X5936Y13010D1*
X10194Y16844D2*
X10081Y16731D1*
X9478Y16128D2*
X8239Y14890D1*
X7726Y14376D2*
X7563Y14214D1*
X7051Y13702D2*
X6319Y12969D1*
X10620Y16846D2*
X10369Y16595D1*
X9778Y16004D2*
X8664Y14890D1*
X8150Y14376D2*
X7987Y14214D1*
X7476Y13702D2*
X6541Y12767D1*
X4769Y10995D2*
X4559Y10785D1*
X11044Y16846D2*
X10470Y16272D1*
X9735Y15536D2*
X9088Y14890D1*
X8574Y14376D2*
X8412Y14214D1*
X7900Y13702D2*
X6842Y12644D1*
X6118Y11920D2*
X5616Y11418D1*
X11468Y16846D2*
X10894Y16272D1*
X9900Y15278D2*
X9512Y14890D1*
X8999Y14376D2*
X8836Y14214D1*
X8324Y13702D2*
X7054Y12432D1*
X6685Y12063D2*
X5911Y11288D1*
X4683Y10061D2*
X4559Y9936D1*
X11892Y16846D2*
X11319Y16272D1*
X10555Y15508D2*
X10482Y15435D1*
X10112Y15066D2*
X9936Y14890D1*
X9423Y14376D2*
X9260Y14214D1*
X8748Y13702D2*
X7267Y12220D1*
X6897Y11851D2*
X6335Y11288D1*
X12317Y16846D2*
X11743Y16272D1*
X10939Y15468D2*
X10694Y15223D1*
X9847Y14376D2*
X9685Y14214D1*
X9173Y13702D2*
X7838Y12367D1*
X7109Y11638D2*
X6759Y11288D1*
X4319Y8848D2*
X4283Y8812D1*
X12741Y16846D2*
X12167Y16272D1*
X11654Y15758D2*
X11453Y15558D1*
X10939Y15044D2*
X10905Y15010D1*
X10257Y14361D2*
X10009Y14114D1*
X9208Y13312D2*
X8216Y12321D1*
X7403Y11507D2*
X7184Y11288D1*
X6670Y10775D2*
X6624Y10729D1*
X4531Y8635D2*
X4283Y8387D1*
X13165Y16846D2*
X12591Y16272D1*
X12078Y15758D2*
X11453Y15133D1*
X10616Y14297D2*
X10221Y13902D1*
X9208Y12888D2*
X8640Y12321D1*
X7827Y11507D2*
X7608Y11288D1*
X7095Y10775D2*
X7049Y10729D1*
X4556Y8236D2*
X4283Y7963D1*
X13092Y16348D2*
X13001Y16257D1*
X12502Y15758D2*
X11453Y14709D1*
X10616Y13872D2*
X10434Y13690D1*
X9208Y12464D2*
X9085Y12341D1*
X8251Y11507D2*
X8032Y11288D1*
X7519Y10775D2*
X7473Y10729D1*
X4751Y8007D2*
X4283Y7539D1*
X13734Y16566D2*
X13606Y16438D1*
X12791Y15623D2*
X11453Y14285D1*
X9864Y12696D2*
X9721Y12553D1*
X8586Y11418D2*
X8456Y11288D1*
X7943Y10775D2*
X7897Y10729D1*
X6944Y9776D2*
X6619Y9450D1*
X5084Y7916D2*
X4283Y7115D1*
X14158Y16566D2*
X13606Y16013D1*
X12791Y15198D2*
X11453Y13861D1*
X10378Y12785D2*
X10031Y12439D1*
X9100Y11507D2*
X8881Y11288D1*
X8367Y10775D2*
X8321Y10729D1*
X7368Y9776D2*
X6620Y9028D1*
X5509Y7916D2*
X4283Y6690D1*
X14582Y16566D2*
X13606Y15589D1*
X12791Y14774D2*
X11774Y13758D1*
X11173Y13156D2*
X11105Y13088D1*
X10825Y12808D2*
X10455Y12439D1*
X8792Y10775D2*
X8746Y10729D1*
X7792Y9776D2*
X6745Y8728D1*
X5933Y7916D2*
X4283Y6266D1*
X15006Y16566D2*
X13606Y15165D1*
X12791Y14350D2*
X12199Y13758D1*
X11687Y13246D2*
X10879Y12439D1*
X9216Y10775D2*
X9170Y10729D1*
X8217Y9776D2*
X7169Y8728D1*
X6655Y8214D2*
X6619Y8178D1*
X6357Y7916D2*
X4283Y5842D1*
X15431Y16566D2*
X13606Y14741D1*
X12791Y13925D2*
X12593Y13728D1*
X12111Y13246D2*
X11304Y12439D1*
X10790Y11925D2*
X9593Y10728D1*
X8641Y9776D2*
X7593Y8728D1*
X7080Y8214D2*
X4283Y5417D1*
X15855Y16566D2*
X14719Y15430D1*
X14285Y14996D2*
X13606Y14316D1*
X12350Y13060D2*
X11728Y12439D1*
X11215Y11925D2*
X10018Y10728D1*
X9065Y9776D2*
X8017Y8728D1*
X7504Y8214D2*
X4283Y4993D1*
X16279Y16566D2*
X14975Y15261D1*
X14365Y14651D2*
X13606Y13892D1*
X12350Y12636D2*
X12152Y12439D1*
X11639Y11925D2*
X10442Y10728D1*
X9489Y9776D2*
X8442Y8728D1*
X7928Y8214D2*
X4283Y4569D1*
X16703Y16566D2*
X16194Y16056D1*
X15567Y15429D2*
X15107Y14969D1*
X14577Y14439D2*
X13606Y13468D1*
X12063Y11925D2*
X10866Y10728D1*
X9914Y9776D2*
X8866Y8728D1*
X8352Y8214D2*
X4421Y4283D1*
X17128Y16566D2*
X16416Y15854D1*
X15744Y15182D2*
X15314Y14752D1*
X14629Y14066D2*
X13606Y13043D1*
X8777Y8214D2*
X4845Y4283D1*
X17552Y16566D2*
X16428Y15442D1*
X15744Y14757D2*
X15371Y14384D1*
X14630Y13644D2*
X13606Y12619D1*
X9213Y8226D2*
X5268Y4281D1*
X17976Y16566D2*
X16256Y14845D1*
X15744Y14333D2*
X15371Y13960D1*
X14783Y13372D2*
X14040Y12629D1*
X13684Y12273D2*
X13606Y12195D1*
X12119Y10709D2*
X11508Y10097D1*
X11120Y9709D2*
X5692Y4281D1*
X18401Y16566D2*
X16279Y14444D1*
X15896Y14061D2*
X15753Y13919D1*
X15026Y13191D2*
X14467Y12632D1*
X13681Y11846D2*
X13606Y11771D1*
X12119Y10284D2*
X11766Y9931D1*
X11210Y9375D2*
X6116Y4281D1*
X18825Y16566D2*
X16703Y14444D1*
X15436Y13176D2*
X14892Y12632D1*
X13681Y11421D2*
X13606Y11346D1*
X12119Y9860D2*
X11721Y9462D1*
X11210Y8950D2*
X6541Y4281D1*
X19249Y16566D2*
X17217Y14533D1*
X15860Y13176D2*
X15316Y12632D1*
X13681Y10997D2*
X13606Y10922D1*
X12043Y9360D2*
X11721Y9038D1*
X11210Y8526D2*
X6965Y4281D1*
X19673Y16566D2*
X17482Y14374D1*
X16284Y13176D2*
X15740Y12632D1*
X13681Y10573D2*
X13606Y10498D1*
X12133Y9025D2*
X11721Y8614D1*
X11210Y8102D2*
X7389Y4281D1*
X20098Y16566D2*
X17558Y14026D1*
X16708Y13176D2*
X16241Y12709D1*
X14900Y11368D2*
X14862Y11329D1*
X13681Y10149D2*
X13606Y10074D1*
X12350Y8818D2*
X11721Y8189D1*
X11210Y7678D2*
X7813Y4281D1*
X20522Y16566D2*
X18014Y14058D1*
X17133Y13176D2*
X16459Y12503D1*
X15325Y11368D2*
X15205Y11249D1*
X13681Y9724D2*
X13606Y9649D1*
X12350Y8393D2*
X11721Y7765D1*
X11210Y7253D2*
X8236Y4280D1*
X20946Y16566D2*
X18438Y14058D1*
X17186Y12805D2*
X16750Y12369D1*
X15749Y11368D2*
X15629Y11249D1*
X15117Y10737D2*
X14762Y10382D1*
X13681Y9300D2*
X13614Y9233D1*
X12350Y7969D2*
X11721Y7341D1*
X11210Y6829D2*
X8660Y4280D1*
X21370Y16566D2*
X18863Y14058D1*
X18120Y13316D2*
X17928Y13123D1*
X17249Y12444D2*
X17174Y12370D1*
X16173Y11368D2*
X16053Y11249D1*
X15542Y10737D2*
X14802Y9997D1*
X13681Y8876D2*
X13647Y8842D1*
X13512Y8707D2*
X13302Y8498D1*
X12350Y7545D2*
X11721Y6916D1*
X11210Y6405D2*
X9085Y4280D1*
X21795Y16566D2*
X19287Y14058D1*
X18545Y13316D2*
X17988Y12758D1*
X16597Y11368D2*
X16478Y11249D1*
X15573Y10344D2*
X15079Y9850D1*
X13681Y8451D2*
X13302Y8073D1*
X12350Y7121D2*
X11721Y6492D1*
X11210Y5980D2*
X9509Y4280D1*
X22219Y16566D2*
X19711Y14058D1*
X18969Y13316D2*
X18589Y12936D1*
X17022Y11368D2*
X16902Y11249D1*
X15573Y9920D2*
X15132Y9479D1*
X13681Y8027D2*
X13302Y7649D1*
X12350Y6696D2*
X11721Y6068D1*
X11210Y5556D2*
X9933Y4280D1*
X22928Y16851D2*
X22866Y16788D1*
X22370Y16292D2*
X20135Y14058D1*
X19393Y13316D2*
X19022Y12944D1*
X17446Y11368D2*
X17228Y11151D1*
X16814Y10737D2*
X16085Y10007D1*
X15573Y9496D2*
X15039Y8962D1*
X13681Y7603D2*
X13302Y7225D1*
X12350Y6272D2*
X11721Y5644D1*
X11210Y5132D2*
X10357Y4280D1*
X23352Y16851D2*
X22883Y16381D1*
X22370Y15868D2*
X20560Y14058D1*
X19817Y13316D2*
X19446Y12944D1*
X18932Y12431D2*
X18382Y11880D1*
X17043Y10541D2*
X16085Y9583D1*
X15573Y9071D2*
X15190Y8688D1*
X13681Y7179D2*
X13302Y6800D1*
X12350Y5848D2*
X11721Y5219D1*
X11210Y4708D2*
X10782Y4280D1*
X23601Y16675D2*
X22883Y15956D1*
X22371Y15445D2*
X20985Y14059D1*
X20241Y13315D2*
X19870Y12944D1*
X19356Y12430D2*
X18806Y11880D1*
X17043Y10117D2*
X16084Y9158D1*
X14474Y7548D2*
X14359Y7433D1*
X13680Y6754D2*
X13430Y6503D1*
X12996Y6069D2*
X12863Y5937D1*
X12349Y5423D2*
X11723Y4796D1*
X23601Y16251D2*
X22883Y15532D1*
X22371Y15020D2*
X21409Y14059D1*
X20666Y13315D2*
X20294Y12944D1*
X19781Y12430D2*
X19230Y11880D1*
X17974Y10624D2*
X17835Y10484D1*
X17043Y9692D2*
X16084Y8734D1*
X14898Y7548D2*
X14571Y7221D1*
X12933Y5582D2*
X12861Y5511D1*
X12349Y4999D2*
X11853Y4503D1*
X23601Y15827D2*
X22883Y15108D1*
X22371Y14596D2*
X22018Y14243D1*
X21090Y13315D2*
X20718Y12944D1*
X18766Y10992D2*
X18618Y10844D1*
X18249Y10475D2*
X17835Y10060D1*
X17043Y9268D2*
X16196Y8421D1*
X15322Y7548D2*
X14845Y7070D1*
X13766Y5992D2*
X13663Y5889D1*
X13103Y5329D2*
X12863Y5088D1*
X12419Y4644D2*
X12278Y4503D1*
X23601Y15402D2*
X22883Y14684D1*
X21514Y13315D2*
X21142Y12944D1*
X19191Y10992D2*
X18831Y10632D1*
X18082Y9883D2*
X17835Y9636D1*
X17043Y8844D2*
X16620Y8421D1*
X15747Y7548D2*
X14984Y6785D1*
X14191Y5992D2*
X14087Y5889D1*
X13576Y5377D2*
X13143Y4944D1*
X23601Y14978D2*
X22883Y14259D1*
X21754Y13131D2*
X21567Y12944D1*
X20614Y11991D2*
X20127Y11503D1*
X19615Y10992D2*
X19577Y10954D1*
X18254Y9631D2*
X17835Y9211D1*
X17121Y8497D2*
X17044Y8421D1*
X16531Y7907D2*
X16428Y7804D1*
X16081Y7458D2*
X15387Y6764D1*
X14615Y5992D2*
X14512Y5889D1*
X14000Y5377D2*
X13567Y4944D1*
X23601Y14554D2*
X22883Y13835D1*
X21038Y11991D2*
X20551Y11503D1*
X20039Y10992D2*
X19924Y10877D1*
X19038Y9991D2*
X18990Y9942D1*
X18523Y9475D2*
X17914Y8867D1*
X16945Y7897D2*
X15811Y6764D1*
X15039Y5992D2*
X14936Y5889D1*
X14424Y5377D2*
X13991Y4944D1*
X23601Y14130D2*
X22883Y13411D1*
X21463Y11991D2*
X20975Y11503D1*
X20463Y10992D2*
X20349Y10877D1*
X19462Y9991D2*
X19414Y9942D1*
X18902Y9430D2*
X18265Y8794D1*
X17754Y8282D2*
X17526Y8055D1*
X17157Y7685D2*
X16235Y6764D1*
X15463Y5992D2*
X15360Y5889D1*
X14848Y5377D2*
X14416Y4944D1*
X23601Y13705D2*
X23136Y13240D1*
X21635Y11739D2*
X21399Y11503D1*
X20888Y10992D2*
X20773Y10877D1*
X19887Y9991D2*
X19838Y9942D1*
X19326Y9430D2*
X18690Y8794D1*
X18178Y8282D2*
X17735Y7839D1*
X17263Y7367D2*
X16660Y6764D1*
X15888Y5992D2*
X15785Y5889D1*
X15273Y5377D2*
X14840Y4944D1*
X23601Y13281D2*
X23483Y13162D1*
X21312Y10992D2*
X21197Y10877D1*
X20311Y9991D2*
X20262Y9942D1*
X19751Y9430D2*
X19114Y8794D1*
X18602Y8282D2*
X17775Y7455D1*
X17174Y6853D2*
X17084Y6764D1*
X16312Y5992D2*
X16209Y5889D1*
X15697Y5377D2*
X15264Y4944D1*
X21721Y10977D2*
X21621Y10877D1*
X20735Y9991D2*
X20687Y9942D1*
X20175Y9430D2*
X19538Y8794D1*
X19026Y8282D2*
X17808Y7064D1*
X16736Y5992D2*
X16633Y5889D1*
X16121Y5377D2*
X15688Y4944D1*
X21159Y9991D2*
X21111Y9942D1*
X20599Y9430D2*
X19963Y8794D1*
X19451Y8282D2*
X17932Y6764D1*
X17160Y5992D2*
X17057Y5889D1*
X16546Y5377D2*
X16113Y4944D1*
X21584Y9991D2*
X21535Y9942D1*
X19875Y8282D2*
X18357Y6764D1*
X17585Y5992D2*
X17482Y5889D1*
X16970Y5377D2*
X16537Y4944D1*
X20299Y8282D2*
X18781Y6764D1*
X18009Y5992D2*
X17906Y5889D1*
X17394Y5377D2*
X16961Y4944D1*
X21433Y8991D2*
X21361Y8920D1*
X20866Y8424D2*
X19205Y6764D1*
X18433Y5992D2*
X18330Y5889D1*
X17818Y5377D2*
X17385Y4944D1*
X21640Y8774D2*
X21462Y8597D1*
X20868Y8002D2*
X19810Y6944D1*
X18857Y5992D2*
X18754Y5889D1*
X18243Y5377D2*
X17810Y4944D1*
X21700Y8410D2*
X21381Y8091D1*
X20936Y7646D2*
X20234Y6944D1*
X19282Y5992D2*
X19179Y5889D1*
X18667Y5377D2*
X18234Y4944D1*
X21913Y8199D2*
X21658Y7944D1*
X21163Y7448D2*
X20659Y6944D1*
X19706Y5992D2*
X19603Y5889D1*
X19091Y5377D2*
X18658Y4944D1*
X21569Y7430D2*
X21083Y6944D1*
X20130Y5992D2*
X20027Y5889D1*
X19515Y5377D2*
X19082Y4944D1*
X22823Y8260D2*
X22614Y8051D1*
X21824Y7261D2*
X21507Y6944D1*
X20554Y5992D2*
X20451Y5889D1*
X19940Y5377D2*
X19507Y4944D1*
X20979Y5992D2*
X20876Y5889D1*
X20364Y5377D2*
X19931Y4944D1*
X22749Y7337D2*
X22536Y7125D1*
X21403Y5992D2*
X21300Y5889D1*
X20788Y5377D2*
X20355Y4944D1*
X21212Y5377D2*
X20780Y4944D1*
X21637Y5377D2*
X21204Y4944D1*
X21894Y5209D2*
X21628Y4944D1*
X23199Y16851D2*
X23601Y16448D1*
X22868Y16758D2*
X23601Y16024D1*
X22883Y16319D2*
X23601Y15600D1*
X22211Y16566D2*
X22371Y16406D1*
X22883Y15894D2*
X23602Y15175D1*
X21787Y16566D2*
X22371Y15982D1*
X22883Y15470D2*
X23602Y14750D1*
X21363Y16566D2*
X22371Y15558D1*
X22883Y15046D2*
X23601Y14327D1*
X20939Y16566D2*
X22371Y15133D1*
X22883Y14622D2*
X23601Y13903D1*
X20514Y16566D2*
X22371Y14709D1*
X22883Y14197D2*
X23601Y13479D1*
X20090Y16566D2*
X22371Y14285D1*
X22883Y13773D2*
X23601Y13054D1*
X19666Y16566D2*
X21988Y14243D1*
X22883Y13349D2*
X23014Y13217D1*
X19242Y16566D2*
X21632Y14175D1*
X18817Y16566D2*
X21325Y14058D1*
X18393Y16566D2*
X20901Y14058D1*
X17969Y16566D2*
X20477Y14058D1*
X21219Y13316D2*
X21590Y12944D1*
X17545Y16566D2*
X20052Y14058D1*
X20794Y13316D2*
X21166Y12944D1*
X17120Y16566D2*
X19628Y14058D1*
X20370Y13316D2*
X20742Y12944D1*
X16696Y16566D2*
X19204Y14058D1*
X19946Y13316D2*
X20317Y12944D1*
X21270Y11991D2*
X21635Y11626D1*
X16272Y16566D2*
X18780Y14058D1*
X19522Y13316D2*
X19893Y12944D1*
X20846Y11991D2*
X21333Y11504D1*
X15847Y16566D2*
X18355Y14058D1*
X19097Y13316D2*
X19469Y12944D1*
X20422Y11991D2*
X20909Y11504D1*
X21423Y10990D2*
X21536Y10877D1*
X15423Y16566D2*
X15901Y16088D1*
X16462Y15526D2*
X17931Y14058D1*
X18673Y13316D2*
X19045Y12944D1*
X19558Y12431D2*
X19762Y12226D1*
X20132Y11857D2*
X20485Y11504D1*
X20998Y10990D2*
X21111Y10877D1*
X14999Y16566D2*
X15634Y15930D1*
X16305Y15260D2*
X17054Y14510D1*
X18249Y13316D2*
X18620Y12944D1*
X19134Y12431D2*
X19550Y12014D1*
X19919Y11645D2*
X20061Y11504D1*
X20574Y10990D2*
X20687Y10877D1*
X21573Y9991D2*
X21622Y9943D1*
X14575Y16566D2*
X15528Y15612D1*
X16255Y14885D2*
X16696Y14444D1*
X17929Y13211D2*
X18362Y12778D1*
X18731Y12409D2*
X19260Y11880D1*
X20150Y10990D2*
X20263Y10877D1*
X21149Y9991D2*
X21197Y9943D1*
X14150Y16566D2*
X15743Y14973D1*
X18519Y12197D2*
X18836Y11880D1*
X19726Y10990D2*
X19839Y10877D1*
X20725Y9991D2*
X20773Y9943D1*
X22496Y8219D2*
X22721Y7995D1*
X13726Y16566D2*
X15743Y14548D1*
X17115Y13176D2*
X17185Y13106D1*
X18307Y11985D2*
X18412Y11880D1*
X19301Y10990D2*
X19345Y10946D1*
X20301Y9991D2*
X20349Y9943D1*
X21300Y8992D2*
X21632Y8660D1*
X13022Y16846D2*
X13107Y16761D1*
X13605Y16262D2*
X14477Y15390D1*
X15370Y14497D2*
X15949Y13919D1*
X16691Y13176D2*
X17185Y12682D1*
X18877Y10990D2*
X19142Y10725D1*
X19876Y9991D2*
X19924Y9943D1*
X20436Y9431D2*
X20680Y9187D1*
X21409Y8458D2*
X21788Y8080D1*
X22579Y7288D2*
X22787Y7081D1*
X12598Y16846D2*
X13092Y16351D1*
X13605Y15838D2*
X14295Y15148D1*
X15370Y14073D2*
X15525Y13919D1*
X16267Y13176D2*
X17074Y12369D1*
X18546Y10898D2*
X18939Y10505D1*
X19452Y9991D2*
X19500Y9943D1*
X20012Y9431D2*
X20468Y8975D1*
X21381Y8062D2*
X21499Y7944D1*
X12173Y16846D2*
X12747Y16272D1*
X13605Y15414D2*
X14628Y14391D1*
X15843Y13176D2*
X16650Y12369D1*
X19028Y9991D2*
X19076Y9943D1*
X19588Y9431D2*
X20225Y8794D1*
X20625Y8393D2*
X20868Y8151D1*
X21588Y7431D2*
X21870Y7149D1*
X11749Y16846D2*
X12323Y16272D1*
X13605Y14989D2*
X14628Y13967D1*
X15418Y13176D2*
X15932Y12662D1*
X17226Y11368D2*
X17354Y11240D1*
X17835Y10760D2*
X18325Y10269D1*
X19164Y9431D2*
X19800Y8794D1*
X20314Y8281D2*
X21652Y6943D1*
X11325Y16846D2*
X11899Y16272D1*
X12412Y15758D2*
X12790Y15380D1*
X13605Y14565D2*
X15538Y12632D1*
X16802Y11368D2*
X16922Y11249D1*
X17835Y10336D2*
X18102Y10069D1*
X18739Y9431D2*
X19376Y8794D1*
X19890Y8281D2*
X21227Y6943D1*
X10901Y16846D2*
X11474Y16272D1*
X11988Y15758D2*
X12790Y14956D1*
X13605Y14141D2*
X15114Y12632D1*
X16378Y11368D2*
X16497Y11249D1*
X17835Y9912D2*
X18952Y8794D1*
X19465Y8281D2*
X20803Y6943D1*
X10478Y16844D2*
X11050Y16272D1*
X11563Y15758D2*
X12790Y14532D1*
X13605Y13717D2*
X14689Y12632D1*
X15954Y11368D2*
X16073Y11249D1*
X16585Y10737D2*
X17043Y10279D1*
X17835Y9487D2*
X18528Y8794D1*
X19041Y8281D2*
X20379Y6943D1*
X21331Y5990D2*
X21433Y5889D1*
X10054Y16844D2*
X10183Y16714D1*
X10417Y16481D2*
X10626Y16272D1*
X11452Y15445D2*
X12790Y14107D1*
X13605Y13292D2*
X14265Y12632D1*
X15529Y11368D2*
X15649Y11249D1*
X16399Y10498D2*
X17043Y9855D1*
X17835Y9063D2*
X18103Y8794D1*
X18617Y8281D2*
X19955Y6943D1*
X20907Y5990D2*
X21009Y5889D1*
X21520Y5377D2*
X21802Y5095D1*
X9629Y16844D2*
X9832Y16641D1*
X11452Y15021D2*
X12790Y13683D1*
X13605Y12868D2*
X13902Y12571D1*
X15105Y11368D2*
X15225Y11249D1*
X16126Y10347D2*
X17043Y9431D1*
X18193Y8281D2*
X19577Y6897D1*
X20483Y5990D2*
X20584Y5889D1*
X21096Y5377D2*
X21531Y4943D1*
X9205Y16844D2*
X9408Y16641D1*
X10556Y15493D2*
X10941Y15108D1*
X11452Y14597D2*
X12291Y13758D1*
X13605Y12444D2*
X13702Y12347D1*
X15312Y10737D2*
X15576Y10473D1*
X16084Y9965D2*
X17043Y9006D1*
X17768Y8281D2*
X19285Y6764D1*
X20059Y5990D2*
X20160Y5889D1*
X20672Y5377D2*
X21106Y4943D1*
X8781Y16844D2*
X8983Y16641D1*
X9497Y16128D2*
X9734Y15891D1*
X11452Y14172D2*
X11867Y13758D1*
X13605Y12020D2*
X13680Y11945D1*
X14938Y10687D2*
X15573Y10052D1*
X16084Y9540D2*
X18861Y6764D1*
X19634Y5990D2*
X19736Y5889D1*
X20248Y5377D2*
X20682Y4943D1*
X8357Y16844D2*
X8559Y16641D1*
X9073Y16128D2*
X9789Y15412D1*
X11955Y13246D2*
X12349Y12851D1*
X13605Y11595D2*
X13680Y11521D1*
X14762Y10439D2*
X15573Y9628D1*
X16084Y9116D2*
X16779Y8421D1*
X17775Y7426D2*
X18436Y6764D1*
X19210Y5990D2*
X19312Y5889D1*
X19823Y5377D2*
X20258Y4943D1*
X7932Y16844D2*
X8135Y16641D1*
X8648Y16128D2*
X9887Y14890D1*
X10489Y14287D2*
X10616Y14160D1*
X11530Y13246D2*
X12349Y12427D1*
X13605Y11171D2*
X13680Y11097D1*
X15165Y9612D2*
X15573Y9204D1*
X16084Y8692D2*
X16355Y8421D1*
X16868Y7908D2*
X17263Y7513D1*
X17859Y6917D2*
X18012Y6764D1*
X18786Y5990D2*
X18887Y5889D1*
X19399Y5377D2*
X19834Y4943D1*
X7508Y16844D2*
X7711Y16641D1*
X8224Y16128D2*
X9462Y14890D1*
X9976Y14376D2*
X10616Y13736D1*
X11195Y13156D2*
X11913Y12439D1*
X13605Y10747D2*
X13680Y10672D1*
X15072Y9280D2*
X15573Y8779D1*
X16444Y7908D2*
X17256Y7095D1*
X18362Y5990D2*
X18463Y5889D1*
X18975Y5377D2*
X19409Y4943D1*
X7085Y16842D2*
X7286Y16641D1*
X7800Y16128D2*
X9038Y14890D1*
X9551Y14376D2*
X9714Y14214D1*
X10993Y12934D2*
X11489Y12439D1*
X12003Y11925D2*
X12119Y11809D1*
X13605Y10323D2*
X13680Y10248D1*
X15150Y8778D2*
X15276Y8652D1*
X16350Y7578D2*
X17164Y6764D1*
X17937Y5990D2*
X18039Y5889D1*
X18551Y5377D2*
X18985Y4943D1*
X6661Y16842D2*
X6862Y16641D1*
X7375Y16128D2*
X8614Y14890D1*
X9127Y14376D2*
X9290Y14214D1*
X10718Y12785D2*
X11065Y12439D1*
X11578Y11925D2*
X11948Y11555D1*
X13605Y9898D2*
X13680Y9824D1*
X16041Y7462D2*
X16739Y6764D1*
X17513Y5990D2*
X17614Y5889D1*
X18126Y5377D2*
X18561Y4943D1*
X6237Y16842D2*
X6438Y16641D1*
X6951Y16128D2*
X7629Y15450D1*
X7979Y15100D2*
X8190Y14890D1*
X8703Y14376D2*
X8866Y14214D1*
X10294Y12785D2*
X10641Y12439D1*
X11154Y11925D2*
X11729Y11350D1*
X13605Y9474D2*
X13680Y9400D1*
X15531Y7548D2*
X16315Y6764D1*
X17089Y5990D2*
X17190Y5889D1*
X17702Y5377D2*
X18137Y4943D1*
X5813Y16842D2*
X6014Y16641D1*
X6527Y16128D2*
X7305Y15350D1*
X8279Y14376D2*
X8441Y14214D1*
X8953Y13702D2*
X9217Y13438D1*
X9954Y12701D2*
X10216Y12439D1*
X10730Y11925D2*
X11560Y11095D1*
X11928Y10727D2*
X12119Y10536D1*
X15107Y7548D2*
X15891Y6764D1*
X16665Y5990D2*
X16766Y5889D1*
X17278Y5377D2*
X17712Y4943D1*
X5388Y16842D2*
X5589Y16641D1*
X6103Y16128D2*
X7180Y15050D1*
X7854Y14376D2*
X8017Y14214D1*
X8529Y13702D2*
X9207Y13024D1*
X9721Y12510D2*
X9792Y12439D1*
X10463Y11768D2*
X11348Y10882D1*
X11716Y10515D2*
X12119Y10112D1*
X13527Y8703D2*
X13680Y8551D1*
X14682Y7548D2*
X15467Y6764D1*
X16240Y5990D2*
X16342Y5889D1*
X16853Y5377D2*
X17288Y4943D1*
X4964Y16842D2*
X5165Y16641D1*
X5678Y16128D2*
X6917Y14890D1*
X7430Y14376D2*
X7593Y14214D1*
X8105Y13702D2*
X9207Y12599D1*
X10297Y11509D2*
X11078Y10728D1*
X11504Y10303D2*
X12119Y9687D1*
X13302Y8505D2*
X13680Y8126D1*
X14333Y7474D2*
X14676Y7130D1*
X14979Y6827D2*
X15042Y6765D1*
X15816Y5990D2*
X15917Y5889D1*
X16429Y5377D2*
X16864Y4943D1*
X4540Y16842D2*
X4741Y16641D1*
X5254Y16128D2*
X5942Y15440D1*
X6237Y15145D2*
X6492Y14890D1*
X7006Y14376D2*
X7169Y14214D1*
X7680Y13702D2*
X9007Y12376D1*
X9177Y12205D2*
X9217Y12165D1*
X9586Y11796D2*
X9660Y11723D1*
X10029Y11353D2*
X10654Y10728D1*
X11167Y10215D2*
X11315Y10067D1*
X11781Y9602D2*
X12034Y9348D1*
X13302Y8080D2*
X13680Y7702D1*
X15392Y5990D2*
X15493Y5889D1*
X16005Y5377D2*
X16439Y4943D1*
X4283Y16675D2*
X4335Y16623D1*
X4829Y16129D2*
X5591Y15366D1*
X6582Y14376D2*
X6743Y14215D1*
X7257Y13701D2*
X8632Y12325D1*
X9375Y11583D2*
X9447Y11511D1*
X9817Y11141D2*
X10230Y10728D1*
X11721Y9237D2*
X12350Y8608D1*
X13302Y7656D2*
X13681Y7277D1*
X14966Y5992D2*
X15069Y5889D1*
X15581Y5377D2*
X16014Y4944D1*
X4559Y15975D2*
X5447Y15086D1*
X6158Y14376D2*
X6319Y14215D1*
X6832Y13701D2*
X8212Y12322D1*
X9025Y11509D2*
X9236Y11298D1*
X9605Y10929D2*
X9806Y10728D1*
X10846Y9687D2*
X11210Y9324D1*
X11721Y8812D2*
X12350Y8184D1*
X13302Y7231D2*
X13681Y6853D1*
X14542Y5992D2*
X14645Y5889D1*
X15157Y5377D2*
X15590Y4944D1*
X4559Y15551D2*
X5220Y14889D1*
X5734Y14376D2*
X5895Y14215D1*
X6408Y13701D2*
X7731Y12378D1*
X8685Y11424D2*
X8821Y11288D1*
X9333Y10776D2*
X9381Y10729D1*
X10641Y9469D2*
X11210Y8900D1*
X11721Y8388D2*
X12350Y7760D1*
X13302Y6807D2*
X13606Y6503D1*
X14118Y5992D2*
X14221Y5889D1*
X14733Y5377D2*
X15165Y4944D1*
X4559Y15127D2*
X4943Y14742D1*
X5319Y14366D2*
X5507Y14178D1*
X5984Y13701D2*
X7452Y12233D1*
X8176Y11509D2*
X8397Y11288D1*
X8909Y10776D2*
X8956Y10729D1*
X9910Y9775D2*
X9998Y9687D1*
X10367Y9318D2*
X11210Y8476D1*
X11721Y7964D2*
X12350Y7335D1*
X13693Y5992D2*
X13797Y5889D1*
X14308Y5377D2*
X14741Y4944D1*
X4559Y14702D2*
X4807Y14453D1*
X5760Y13501D2*
X6284Y12977D1*
X7752Y11509D2*
X7973Y11288D1*
X8485Y10776D2*
X8532Y10729D1*
X9486Y9775D2*
X9786Y9475D1*
X10155Y9106D2*
X11210Y8051D1*
X11721Y7539D2*
X12350Y6911D1*
X13884Y5377D2*
X14317Y4944D1*
X4559Y14278D2*
X4807Y14029D1*
X5760Y13076D2*
X5848Y12988D1*
X7326Y11510D2*
X7549Y11288D1*
X8060Y10776D2*
X8108Y10729D1*
X9061Y9775D2*
X9574Y9263D1*
X9943Y8893D2*
X11210Y7627D1*
X11721Y7115D2*
X12350Y6487D1*
X12863Y5973D2*
X12994Y5842D1*
X13485Y5352D2*
X13893Y4944D1*
X4559Y13854D2*
X4807Y13605D1*
X6393Y12019D2*
X7124Y11288D1*
X7636Y10776D2*
X7684Y10729D1*
X8637Y9775D2*
X9362Y9051D1*
X9731Y8681D2*
X11210Y7203D1*
X11721Y6691D2*
X12350Y6063D1*
X12863Y5549D2*
X13468Y4944D1*
X4559Y13429D2*
X4807Y13181D1*
X6072Y11916D2*
X6700Y11288D1*
X7212Y10776D2*
X7259Y10729D1*
X8213Y9775D2*
X9150Y8838D1*
X9519Y8469D2*
X11210Y6778D1*
X11721Y6267D2*
X12350Y5638D1*
X12863Y5125D2*
X13044Y4944D1*
X4559Y13005D2*
X4682Y12882D1*
X5745Y11819D2*
X6276Y11288D1*
X6788Y10776D2*
X6835Y10729D1*
X7789Y9775D2*
X8836Y8727D1*
X9303Y8260D2*
X11210Y6354D1*
X11721Y5842D2*
X12350Y5214D1*
X5616Y11524D2*
X5852Y11288D1*
X7364Y9775D2*
X8412Y8727D1*
X8924Y8216D2*
X11210Y5930D1*
X11721Y5418D2*
X12356Y4783D1*
X4559Y12157D2*
X4768Y11948D1*
X6940Y9775D2*
X7988Y8727D1*
X8500Y8216D2*
X11210Y5506D1*
X11721Y4994D2*
X12212Y4503D1*
X6529Y9762D2*
X7564Y8727D1*
X8075Y8216D2*
X11210Y5081D1*
X11721Y4570D2*
X11788Y4503D1*
X6589Y9278D2*
X7139Y8727D1*
X7651Y8216D2*
X11210Y4657D1*
X4559Y10884D2*
X4625Y10817D1*
X6620Y8822D2*
X6715Y8727D1*
X7227Y8216D2*
X11163Y4279D1*
X6803Y8216D2*
X10739Y4279D1*
X4559Y10035D2*
X4698Y9896D1*
X5488Y9106D2*
X5567Y9027D1*
X6620Y7974D2*
X10315Y4279D1*
X6254Y7916D2*
X9890Y4279D1*
X5830Y7916D2*
X9466Y4279D1*
X5337Y7984D2*
X9040Y4281D1*
X4283Y8614D2*
X4517Y8379D1*
X4971Y7926D2*
X8616Y4281D1*
X4283Y8190D2*
X8192Y4281D1*
X4283Y7766D2*
X7767Y4281D1*
X4283Y7341D2*
X7343Y4281D1*
X4283Y6917D2*
X6919Y4281D1*
X4283Y6493D2*
X6495Y4281D1*
X4283Y6069D2*
X6070Y4281D1*
X4283Y5644D2*
X5644Y4283D1*
X4283Y5220D2*
X5220Y4283D1*
X4283Y4796D2*
X4796Y4283D1*
X4283Y4372D2*
X4372Y4283D1*
X16454Y15550D2*
X16436Y15477D1*
X16407Y15408D1*
X16366Y15345D1*
X16316Y15290D1*
X16243Y15235D1*
X16245Y14650D1*
Y14432D1*
X16957Y14433D1*
X17035Y14486D1*
X17105Y14513D1*
X17179Y14523D1*
X17254Y14516D1*
X17325Y14493D1*
X17389Y14455D1*
X17444Y14404D1*
X17485Y14342D1*
X17512Y14272D1*
X17523Y14187D1*
X17515Y14113D1*
X17490Y14042D1*
X17450Y13978D1*
X17398Y13925D1*
X17372Y13909D1*
X17408Y13908D1*
X17500Y13989D1*
X17567Y14024D1*
X17614Y14038D1*
X17697Y14048D1*
X21642D1*
X21641Y14233D1*
X22380D1*
X22381Y16578D1*
X21662Y16576D1*
X13606D1*
X13595Y16516D1*
Y9234D1*
X13647Y9160D1*
X13674Y9090D1*
X13685Y9005D1*
X13676Y8931D1*
X13652Y8860D1*
X13612Y8797D1*
X13560Y8743D1*
X13496Y8703D1*
X13426Y8678D1*
X13352Y8669D1*
X13293Y8675D1*
X13292Y6493D1*
X13746D1*
X13718Y6534D1*
X13691Y6625D1*
X13690Y8897D1*
Y12237D1*
X13702Y12311D1*
X13747Y12394D1*
X13902Y12551D1*
X13963Y12595D1*
X14054Y12622D1*
X15907Y12623D1*
X15982Y12676D1*
X16052Y12702D1*
X16126Y12713D1*
X16200Y12706D1*
X16272Y12683D1*
X16336Y12645D1*
X16390Y12594D1*
X16432Y12531D1*
X16459Y12461D1*
X16470Y12377D1*
X16467Y12356D1*
X16810Y12358D1*
X17346D1*
X17302Y12402D1*
X17255Y12460D1*
X17220Y12526D1*
X17206Y12574D1*
X17196Y12657D1*
Y13184D1*
X16882Y13186D1*
X15140D1*
X15065Y13194D1*
X14994Y13217D1*
X14950Y13240D1*
X14884Y13292D1*
X14744Y13432D1*
X14697Y13490D1*
X14663Y13557D1*
X14648Y13604D1*
X14639Y13687D1*
X14638Y14398D1*
X14402Y14634D1*
X14355Y14692D1*
X14321Y14759D1*
X14306Y14806D1*
X14297Y14889D1*
Y15062D1*
X14304Y15136D1*
X14327Y15208D1*
X14364Y15273D1*
X14414Y15329D1*
X14474Y15373D1*
X14543Y15404D1*
X14616Y15421D1*
X14690D1*
X14764Y15407D1*
X14833Y15377D1*
X14894Y15335D1*
X14945Y15280D1*
X14984Y15216D1*
X15009Y15145D1*
X15019Y15038D1*
X15255Y14802D1*
X15302Y14744D1*
X15336Y14677D1*
X15351Y14630D1*
X15360Y14547D1*
Y13907D1*
X16998Y13908D1*
X16962Y13940D1*
X16140Y13941D1*
X16066Y13952D1*
X15982Y13998D1*
X15826Y14153D1*
X15781Y14213D1*
X15755Y14304D1*
X15754Y15234D1*
X15700Y15274D1*
X15647Y15327D1*
X15604Y15388D1*
X15571Y15456D1*
X15549Y15527D1*
X15539Y15601D1*
X15542Y15676D1*
X15556Y15750D1*
X15582Y15820D1*
X15619Y15885D1*
X15667Y15943D1*
X15723Y15993D1*
X15786Y16033D1*
X15855Y16062D1*
X15928Y16080D1*
X16002Y16085D1*
X16077Y16079D1*
X16150Y16060D1*
X16218Y16030D1*
X16281Y15989D1*
X16337Y15939D1*
X16383Y15880D1*
X16419Y15815D1*
X16445Y15744D1*
X16460Y15625D1*
X16454Y15550D1*
X21886Y13141D2*
X21641D1*
Y13327D1*
X17919Y13326D1*
X17918Y12806D1*
X17993Y12731D1*
X18027Y12727D1*
X18099Y12704D1*
X18164Y12667D1*
X18221Y12615D1*
X18466Y12861D1*
X18526Y12905D1*
X18617Y12932D1*
X20890Y12933D1*
X21698D1*
X21772Y13042D1*
X21825Y13095D1*
X21886Y13142D1*
X23017Y13205D2*
X23092Y13224D1*
X23166Y13232D1*
X23241Y13230D1*
X23315Y13217D1*
X23386Y13195D1*
X23454Y13163D1*
X23517Y13122D1*
X23573Y13072D1*
X23612Y13028D1*
Y16862D1*
X22794D1*
X22845Y16796D1*
X22872Y16705D1*
X22873Y14432D1*
Y13347D1*
X23018Y13204D1*
X21678Y11494D2*
X21659Y11550D1*
X21645Y11623D1*
X21642Y11698D1*
X21648Y11773D1*
X21665Y11846D1*
X21692Y11916D1*
X21743Y12002D1*
X20252Y12001D1*
X19744Y11492D1*
X21019Y11493D1*
X21677D1*
X21673Y10865D2*
X21692Y10916D1*
X21743Y11002D1*
X18518Y11001D1*
X18535Y10906D1*
X18949Y10492D1*
X19166Y10493D1*
X19149Y10542D1*
X19139Y10616D1*
X19147Y10690D1*
X19170Y10761D1*
X19209Y10826D1*
X19261Y10880D1*
X19323Y10921D1*
X19393Y10947D1*
X19467Y10957D1*
X19542Y10951D1*
X19613Y10928D1*
X19678Y10889D1*
X19700Y10869D1*
X21275Y10867D1*
X21671D1*
X21702Y9934D2*
X21743Y10002D1*
X18845Y10001D1*
X18752Y10020D1*
X18761Y9948D1*
X18824Y9933D1*
X21700D1*
X22688Y8471D2*
X22652Y8402D1*
X22609Y8341D1*
X22557Y8286D1*
X22499Y8239D1*
X22402Y8187D1*
X22454Y8163D1*
X22517Y8122D1*
X22573Y8072D1*
X22622Y8016D1*
X22663Y7953D1*
X22686Y7904D1*
X22728Y7981D1*
X22772Y8042D1*
X22825Y8095D1*
X22884Y8141D1*
X22969Y8186D1*
X22866Y8246D1*
X22809Y8294D1*
X22758Y8349D1*
X22716Y8411D1*
X22688Y8468D1*
X21970Y8188D2*
X21930Y8206D1*
X21866Y8246D1*
X21809Y8294D1*
X21758Y8349D1*
X21716Y8411D1*
X21683Y8479D1*
X21659Y8550D1*
X21645Y8623D1*
X21642Y8698D1*
X21648Y8773D1*
X21665Y8846D1*
X21692Y8916D1*
X21743Y9002D1*
X21209Y9001D1*
X21327Y8929D1*
X21381Y8878D1*
X21423Y8816D1*
X21450Y8746D1*
X21460Y8661D1*
X21452Y8587D1*
X21428Y8516D1*
X21388Y8453D1*
X21370Y8434D1*
Y7932D1*
X21698Y7933D1*
X21772Y8042D1*
X21825Y8095D1*
X21884Y8141D1*
X21969Y8186D1*
X22688Y7471D2*
X22652Y7402D1*
X22609Y7341D1*
X22557Y7286D1*
X22499Y7239D1*
X22402Y7187D1*
X22454Y7163D1*
X22517Y7122D1*
X22573Y7072D1*
X22622Y7016D1*
X22663Y6953D1*
X22686Y6904D1*
X22728Y6981D1*
X22772Y7042D1*
X22825Y7095D1*
X22884Y7141D1*
X22969Y7186D1*
X22866Y7246D1*
X22809Y7294D1*
X22758Y7349D1*
X22716Y7411D1*
X22688Y7468D1*
X21970Y7188D2*
X21930Y7206D1*
X21866Y7246D1*
X21809Y7294D1*
X21758Y7349D1*
X21701Y7443D1*
X21265Y7441D1*
X21191Y7452D1*
X21107Y7498D1*
X20951Y7653D1*
X20906Y7713D1*
X20880Y7804D1*
X20879Y8434D1*
X20824Y8511D1*
X20797Y8588D1*
X20574Y8364D1*
X20513Y8320D1*
X20422Y8293D1*
X18150Y8292D1*
X17449D1*
X17375Y8303D1*
X17292Y8349D1*
X17126Y8514D1*
X17081Y8574D1*
X17055Y8665D1*
X17054Y10612D1*
X16918Y10746D1*
X16454Y10747D1*
X16458Y10713D1*
X16449Y10639D1*
X16425Y10568D1*
X16385Y10504D1*
X16332Y10451D1*
X16269Y10411D1*
X16199Y10386D1*
X16136Y10378D1*
X16075Y10319D1*
Y8622D1*
X16127Y8549D1*
X16154Y8479D1*
X16164Y8412D1*
X16886Y8410D1*
X17047D1*
X17121Y8399D1*
X17204Y8354D1*
X17693Y7866D1*
X17737Y7806D1*
X17764Y7715D1*
X17765Y7090D1*
X17818Y7018D1*
X17844Y6948D1*
X17855Y6863D1*
X17847Y6789D1*
X17834Y6752D1*
X18651Y6753D1*
X19451D1*
X19559Y6861D1*
X19619Y6905D1*
X19710Y6932D1*
X21699Y6933D1*
X21772Y7042D1*
X21825Y7095D1*
X21884Y7141D1*
X21969Y7186D1*
X21970Y5188D2*
X21930Y5206D1*
X21866Y5246D1*
X21809Y5294D1*
X21758Y5349D1*
X21733Y5386D1*
X13503Y5387D1*
X13424Y5331D1*
X13353Y5306D1*
X13279Y5297D1*
X13204Y5305D1*
X13134Y5329D1*
X13070Y5368D1*
X13016Y5420D1*
X12976Y5483D1*
X12950Y5553D1*
X12940Y5627D1*
X12947Y5702D1*
X12971Y5773D1*
X13010Y5837D1*
X13061Y5891D1*
X13124Y5932D1*
X13194Y5959D1*
X13268Y5969D1*
X13343Y5962D1*
X13414Y5939D1*
X13478Y5901D1*
X13501Y5880D1*
X15076Y5879D1*
X21679D1*
X21692Y5916D1*
X21743Y6002D1*
X13186Y6001D1*
X13112Y6013D1*
X13029Y6058D1*
X12857Y6231D1*
X12852Y6087D1*
Y4932D1*
X14096Y4933D1*
X21702D1*
X21728Y4981D1*
X21772Y5042D1*
X21825Y5095D1*
X21884Y5141D1*
X21969Y5186D1*
X7965Y14978D2*
X7944Y14906D1*
X7930Y14879D1*
X10250Y14878D1*
X10290Y14908D1*
X9817Y15381D1*
X9773Y15441D1*
X9746Y15533D1*
X9745Y15875D1*
X9756Y15949D1*
X9802Y16032D1*
X9885Y16117D1*
X9863Y16138D1*
X6413Y16139D1*
X4549D1*
X4548Y15045D1*
Y12647D1*
X4568Y12700D1*
X4604Y12766D1*
X4649Y12826D1*
X4702Y12880D1*
X4761Y12926D1*
X4820Y12959D1*
X4818Y13297D1*
Y14492D1*
X4829Y14566D1*
X4875Y14650D1*
X5030Y14806D1*
X5090Y14851D1*
X5181Y14877D1*
X5498Y14879D1*
X5471Y14949D1*
X5459Y15023D1*
X5460Y15098D1*
X5476Y15171D1*
X5506Y15240D1*
X5548Y15302D1*
X5601Y15355D1*
X5663Y15397D1*
X5732Y15426D1*
X5805Y15441D1*
X5880Y15442D1*
X5954Y15429D1*
X6024Y15403D1*
X6087Y15363D1*
X6142Y15312D1*
X6186Y15251D1*
X6218Y15183D1*
X6236Y15111D1*
X6240Y15052D1*
X6233Y14978D1*
X6212Y14906D1*
X6198Y14879D1*
X7230D1*
X7204Y14949D1*
X7191Y15023D1*
X7193Y15098D1*
X7208Y15171D1*
X7238Y15240D1*
X7280Y15302D1*
X7333Y15355D1*
X7395Y15397D1*
X7464Y15426D1*
X7537Y15441D1*
X7612Y15442D1*
X7686Y15429D1*
X7756Y15403D1*
X7819Y15363D1*
X7874Y15312D1*
X7918Y15251D1*
X7950Y15183D1*
X7968Y15111D1*
X7972Y15052D1*
X7965Y14978D1*
X5593Y9017D2*
X5764D1*
X5685Y9079D1*
X5635Y9134D1*
X5593Y9196D1*
X5563Y9253D1*
X5529Y9187D1*
X5485Y9125D1*
X5434Y9071D1*
X5375Y9024D1*
X5279Y8972D1*
X5331Y8947D1*
X5393Y8906D1*
X5450Y8857D1*
X5518Y8771D1*
Y9017D1*
X5593D1*
X6364D2*
X6609D1*
Y8720D1*
X7189Y8718D1*
X9052D1*
X10098Y9764D1*
X10050Y9786D1*
X6509D1*
X6540Y9738D1*
X6572Y9670D1*
X6594Y9598D1*
X6609Y9472D1*
X6604Y9397D1*
X6589Y9324D1*
X6563Y9253D1*
X6529Y9187D1*
X6485Y9125D1*
X6434Y9071D1*
X6365Y9018D1*
X6609Y8227D2*
Y7926D1*
X5518D1*
Y8172D1*
X5485Y8125D1*
X5434Y8071D1*
X5375Y8024D1*
X5311Y7985D1*
X5242Y7956D1*
X5170Y7937D1*
X5096Y7927D1*
X5021Y7928D1*
X4946Y7939D1*
X4875Y7960D1*
X4806Y7991D1*
X4743Y8030D1*
X4685Y8079D1*
X4635Y8134D1*
X4593Y8196D1*
X4559Y8263D1*
X4536Y8334D1*
X4522Y8408D1*
X4518Y8483D1*
X4525Y8557D1*
X4546Y8641D1*
X4272Y8916D1*
Y4272D1*
X11249Y4268D1*
X11221Y4365D1*
X11220Y6637D1*
Y9523D1*
X11165Y9602D1*
X11139Y9672D1*
X11130Y9747D1*
X11138Y9823D1*
X11086Y9770D1*
X11022Y9730D1*
X10952Y9705D1*
X10878Y9696D1*
X10803Y9704D1*
X10766Y9717D1*
X10761Y9678D1*
X10736Y9607D1*
X10696Y9543D1*
X10644Y9490D1*
X10581Y9450D1*
X10510Y9425D1*
X10447Y9417D1*
X9327Y8298D1*
X9266Y8254D1*
X9175Y8227D1*
X6903Y8226D1*
X6610D1*
X4547Y9646D2*
X4568Y9700D1*
X4604Y9766D1*
X4649Y9826D1*
X4702Y9880D1*
X4761Y9926D1*
X4845Y9971D1*
X4743Y10030D1*
X4685Y10079D1*
X4635Y10134D1*
X4593Y10196D1*
X4548Y10296D1*
Y9647D1*
X6508Y10787D2*
X6549Y10719D1*
X9289Y10718D1*
X11203D1*
X11719Y11234D1*
X11727Y11292D1*
X11751Y11363D1*
X11789Y11427D1*
X11841Y11481D1*
X11904Y11522D1*
X11974Y11548D1*
X12048Y11559D1*
X12129Y11550D1*
X12130Y11936D1*
X10429D1*
X10444Y11896D1*
X10455Y11812D1*
X10446Y11737D1*
X10422Y11667D1*
X10382Y11603D1*
X10330Y11550D1*
X10266Y11510D1*
X10196Y11485D1*
X10133Y11477D1*
X9513Y10858D1*
X9453Y10814D1*
X9362Y10787D1*
X7089Y10786D1*
X6510D1*
X4547Y10646D2*
X4568Y10700D1*
X4604Y10766D1*
X4649Y10826D1*
X4702Y10880D1*
X4761Y10926D1*
X4845Y10971D1*
X4743Y11030D1*
X4685Y11079D1*
X4635Y11134D1*
X4593Y11196D1*
X4548Y11296D1*
Y10651D1*
X5604Y11397D2*
X5589Y11324D1*
X5571Y11273D1*
X5624Y11278D1*
X9236D1*
X9783Y11824D1*
X9790Y11881D1*
X9809Y11936D1*
X9707D1*
X9361Y11591D1*
X9300Y11546D1*
X9209Y11520D1*
X8842Y11519D1*
X8763Y11463D1*
X8693Y11438D1*
X8618Y11429D1*
X8544Y11436D1*
X8473Y11460D1*
X8409Y11500D1*
X8391Y11518D1*
X7352Y11519D1*
X7278Y11530D1*
X7195Y11575D1*
X6547Y12222D1*
X6529Y12187D1*
X6485Y12125D1*
X6434Y12071D1*
X6375Y12024D1*
X6311Y11985D1*
X6242Y11956D1*
X6170Y11937D1*
X6096Y11927D1*
X6021Y11928D1*
X5946Y11939D1*
X5875Y11960D1*
X5806Y11991D1*
X5749Y12027D1*
Y11911D1*
X5738Y11837D1*
X5692Y11754D1*
X5583Y11643D1*
X5607Y11524D1*
X5604Y11397D1*
X4547Y11646D2*
X4568Y11700D1*
X4604Y11766D1*
X4649Y11826D1*
X4702Y11880D1*
X4761Y11926D1*
X4845Y11971D1*
X4743Y12030D1*
X4685Y12079D1*
X4635Y12134D1*
X4593Y12196D1*
X4548Y12296D1*
Y11649D1*
X5748Y12916D2*
X5826Y12963D1*
X5895Y12991D1*
X5968Y13009D1*
X6043Y13017D1*
X6118Y13015D1*
X6191Y13002D1*
X6263Y12979D1*
X6331Y12947D1*
X6393Y12906D1*
X6450Y12857D1*
X6499Y12800D1*
X6549Y12719D1*
X6645Y12718D1*
X6719Y12706D1*
X6802Y12661D1*
X7404Y12061D1*
X7410Y12101D1*
X7433Y12172D1*
X7472Y12236D1*
X7524Y12290D1*
X7586Y12331D1*
X7656Y12358D1*
X7731Y12368D1*
X7805Y12361D1*
X7876Y12338D1*
X7923Y12311D1*
X8636D1*
X8714Y12365D1*
X8784Y12391D1*
X8858Y12401D1*
X8933Y12394D1*
X9004Y12372D1*
X9068Y12333D1*
X9123Y12282D1*
X9164Y12220D1*
X9191Y12150D1*
X9196Y12120D1*
X9260Y12185D1*
X9246Y12208D1*
X9219Y12299D1*
X9218Y13358D1*
X9229Y13432D1*
X9275Y13515D1*
X9358Y13600D1*
X9365Y13657D1*
X9384Y13712D1*
X5748D1*
X5749Y12915D1*
X16408Y7730D2*
X16384Y7659D1*
X16344Y7596D1*
X16291Y7543D1*
X16228Y7503D1*
X16158Y7478D1*
X16083Y7469D1*
X16009Y7476D1*
X15938Y7500D1*
X15874Y7540D1*
X15856Y7558D1*
X14496Y7559D1*
X14423Y7570D1*
X14339Y7615D1*
X14321Y7632D1*
X14322Y7450D1*
X14650Y7122D1*
X14704Y7116D1*
X14775Y7094D1*
X14839Y7055D1*
X14894Y7004D1*
X14935Y6942D1*
X14962Y6872D1*
X14973Y6787D1*
X14969Y6752D1*
X17201Y6753D1*
X17183Y6858D1*
X17191Y6933D1*
X17214Y7004D1*
X17253Y7068D1*
X17274Y7090D1*
X17273Y7592D1*
X16946Y7918D1*
X16398Y7919D1*
X16416Y7815D1*
X16408Y7730D1*
X10587Y15538D2*
X10509Y15483D1*
X10436Y15458D1*
X10949Y14945D1*
X10950Y15539D1*
X10590D1*
X11422Y13255D2*
X11344Y13200D1*
X11273Y13175D1*
X11199Y13166D1*
X11118Y13176D1*
X11099Y13089D1*
X11046Y13008D1*
X10906Y12868D1*
X10846Y12824D1*
X10754Y12797D1*
X10115Y12796D1*
X10036Y12740D1*
X9966Y12715D1*
X9892Y12706D1*
X9817Y12714D1*
X9746Y12738D1*
X9710Y12758D1*
Y12427D1*
X12236Y12428D1*
X12329Y12409D1*
X12360Y12402D1*
Y13257D1*
X11423Y13256D1*
X10415Y16311D2*
X10398Y16260D1*
X12531Y16261D1*
X12906D1*
X12980Y16250D1*
X13063Y16204D1*
X13102Y16167D1*
X13103Y16666D1*
X13114Y16740D1*
X13160Y16824D1*
X13187Y16857D1*
X4272Y16852D1*
Y16564D1*
X4347Y16612D1*
X4442Y16631D1*
X9858D1*
X9935Y16685D1*
X10005Y16711D1*
X10080Y16721D1*
X10154Y16714D1*
X10225Y16691D1*
X10290Y16653D1*
X10344Y16602D1*
X10386Y16540D1*
X10413Y16470D1*
X10424Y16385D1*
X10415Y16311D1*
X15146Y9539D2*
X15122Y9468D1*
X15082Y9405D1*
X15064Y9386D1*
Y9327D1*
X15053Y9253D1*
X15008Y9169D1*
X14862Y9022D1*
X14885Y9019D1*
X14956Y8997D1*
X15021Y8958D1*
X15075Y8907D1*
X15117Y8845D1*
X15144Y8775D1*
X15154Y8703D1*
X15216Y8640D1*
X15585D1*
X15583Y9070D1*
Y10420D1*
X15594Y10494D1*
X15640Y10577D1*
X15786Y10725D1*
X15744Y10747D1*
X14992D1*
X14976Y10731D1*
X14913Y10691D1*
X14842Y10666D1*
X14752Y10659D1*
Y10028D1*
X14831Y9949D1*
X14885Y9942D1*
X14956Y9920D1*
X15021Y9881D1*
X15075Y9830D1*
X15117Y9768D1*
X15144Y9698D1*
X15154Y9613D1*
X15146Y9539D1*
X17824Y8996D2*
X17877Y8922D1*
X17904Y8852D1*
X17914Y8785D1*
X18799Y8784D1*
X20297D1*
X20953Y9436D1*
X20837Y9441D1*
X18674D1*
X18600Y9452D1*
X18517Y9498D1*
X18412Y9601D1*
X18354Y9607D1*
X18283Y9631D1*
X18219Y9670D1*
X18166Y9722D1*
X18125Y9785D1*
X18099Y9856D1*
X18090Y9930D1*
X18097Y10004D1*
X18121Y10075D1*
X18159Y10140D1*
X18211Y10194D1*
X18274Y10235D1*
X18344Y10261D1*
X18418Y10271D1*
X18481Y10265D1*
X18189Y10556D1*
X18128Y10565D1*
X18057Y10589D1*
X17993Y10628D1*
X17940Y10680D1*
X17899Y10743D1*
X17874Y10813D1*
X17864Y10887D1*
X17871Y10962D1*
X17884Y11000D1*
X17824Y11001D1*
X17825Y8996D1*
X14750Y11328D2*
X14832Y11322D1*
X14903Y11299D1*
X14968Y11261D1*
X14990Y11240D1*
X16565Y11239D1*
X17019D1*
X17093Y11227D1*
X17176Y11182D1*
X17334Y11026D1*
X17333Y11107D1*
X17344Y11181D1*
X17390Y11265D1*
X17503Y11379D1*
X14754Y11378D1*
X14752Y11327D1*
X11146Y10227D2*
X11173Y10187D1*
X11200Y10117D1*
X11211Y10032D1*
X11204Y9961D1*
X11251Y10010D1*
X11313Y10051D1*
X11383Y10078D1*
X11458Y10088D1*
X11532Y10081D1*
X11603Y10058D1*
X11668Y10020D1*
X11722Y9969D1*
X11764Y9907D1*
X11791Y9837D1*
X11801Y9752D1*
X11793Y9678D1*
X11769Y9607D1*
X11729Y9543D1*
X11711Y9525D1*
Y4495D1*
X12431Y4493D1*
X12597D1*
X12572Y4513D1*
X12432Y4653D1*
X12388Y4713D1*
X12361Y4804D1*
X12360Y7077D1*
Y8940D1*
X12304Y8948D1*
X12233Y8972D1*
X12170Y9011D1*
X12116Y9064D1*
X12075Y9126D1*
X12050Y9197D1*
X12040Y9271D1*
X12047Y9346D1*
X12071Y9417D1*
X12109Y9481D1*
X12131Y9503D1*
X12130Y10896D1*
X12069Y10888D1*
X11479Y10298D1*
X11419Y10254D1*
X11328Y10227D1*
X11148Y10226D1*
X10494Y13606D2*
X10548Y13601D1*
X10625Y13575D1*
X10626Y14328D1*
X10557Y14306D1*
X10482Y14297D1*
X10408Y14304D1*
X10337Y14328D1*
X10273Y14367D1*
X10255Y14385D1*
X6805Y14387D1*
X5307D1*
X5310Y14042D1*
Y13970D1*
X5469Y14132D1*
X5530Y14176D1*
X5621Y14203D1*
X7893Y14204D1*
X9796D1*
X9869Y14192D1*
X9953Y14147D1*
X10495Y13606D1*
X11442Y15570D2*
Y13749D1*
X12466Y13748D1*
X12540Y13737D1*
X12623Y13691D1*
X12795Y13519D1*
X12800Y13662D1*
Y15769D1*
X11409D1*
X11438Y15686D1*
X11442Y15570D1*
X18108Y11870D2*
X19425D1*
X19995Y12436D1*
X19862Y12441D1*
X18739D1*
X18239Y11938D1*
X18179Y11894D1*
X18106Y11870D1*
X18158Y11885D1*
D20*
X16000Y15625D3*
D21*
X17000D3*
D26*
X22187Y13687D3*
D27*
X23187D3*
X22187Y12687D3*
X23187D3*
X22187Y11687D3*
X23187D3*
X22187Y10687D3*
X23187D3*
X22187Y9687D3*
X23187D3*
X22187Y8687D3*
X23187D3*
X22187Y7687D3*
X23187D3*
X22187Y6687D3*
X23187D3*
X22187Y5687D3*
X23187D3*
X22187Y4687D3*
X23187D3*
D26*
X6064Y8472D3*
D27*
X5064D3*
X6064Y9472D3*
X5064D3*
X6064Y10472D3*
X5064D3*
X6064Y11472D3*
X5064D3*
X6064Y12472D3*
X5064D3*
M02*
