M48
INCH
T01C0.015
T02C0.028
T03C0.0354
T04C0.0433
%
T01
X+010922Y+014837
X+010217Y+013587
X+010447Y+013357
X+012186Y+013587
X+012776Y+013817
X+012177Y+010108
X+011738Y+009461
X+011508Y+009091
X+011947Y+008975
X+010947Y+009321
X+009947Y+010862
X+008947Y+008515
X+009196Y+007716
X+008947Y+006936
X+009196Y+006626
X+010508Y+007166
X+007698Y+007256
X+006535Y+009811
X+006198Y+011750
X+008211Y+014412
X+005379Y+017182
X+005899Y+019107
X+009131Y+019545
X+009746Y+018896
X+013052Y+020916
X+013730Y+020307
X+013962Y+020786
X+014933Y+019519
X+016120Y+020428
X+016391Y+015105
X+016296Y+012030
X+014154Y+008750
X+014061Y+006691
T02
X+005843Y+012659
X+005843Y+013659
T03
X+006019Y+007492
X+006019Y+005760
T04
X+012508Y+005802
X+012508Y+004802
X+011508Y+004802
X+011508Y+005802
X+010508Y+005802
X+010508Y+004802
X+009508Y+004802
X+009508Y+005802
X+008508Y+005802
X+008508Y+004802
X+008922Y+020398
X+009922Y+020398
X+010922Y+020398
X+010922Y+021398
X+009922Y+021398
X+008922Y+021398
X+007922Y+021398
X+006922Y+021398
X+005922Y+021398
X+004922Y+021398
X+004922Y+020398
X+005922Y+020398
X+006922Y+020398
X+007922Y+020398
X+011922Y+020398
X+011922Y+021398
T00
M30
