G04 DipTrace 2.4.0.2*
%INTop.gbr*%
%MOIN*%
%ADD13C,0.007*%
%ADD14C,0.015*%
%ADD15C,0.013*%
%ADD17R,0.063X0.0079*%
%ADD18R,0.0079X0.063*%
%ADD19R,0.0669X0.0669*%
%ADD20C,0.0669*%
%ADD21R,0.0433X0.0394*%
%ADD22R,0.0394X0.0433*%
%ADD23C,0.05*%
%ADD24R,0.05X0.05*%
%ADD26R,0.1083X0.0394*%
%ADD27R,0.2421X0.2185*%
%ADD28R,0.063X0.0709*%
%ADD29R,0.0413X0.0256*%
%ADD30R,0.0256X0.0413*%
%ADD32R,0.0906X0.0197*%
%ADD33R,0.0984X0.0787*%
%ADD34C,0.025*%
%FSLAX44Y44*%
G04*
G70*
G90*
G75*
G01*
%LNTop*%
%LPD*%
X10922Y14837D2*
D13*
X10098D1*
X10021Y14759D1*
Y14327D1*
X10217Y13587D2*
Y14327D1*
X14933Y18315D2*
Y17222D1*
X14868D1*
Y15390D1*
X14728Y15250D1*
X13310D1*
X13170Y15110D1*
Y14327D1*
X7914Y11403D2*
X7554D1*
X7414Y11262D1*
Y10129D1*
X7554Y9989D1*
X7914D1*
Y10041D1*
X8061D1*
X8223Y10203D1*
Y10361D1*
X8332Y10469D1*
X8721D1*
X11561Y17974D2*
Y17034D1*
X11567D2*
X12098D1*
X12238Y16894D1*
Y14891D1*
X12383Y14747D1*
Y14327D1*
X13730Y20307D2*
Y21175D1*
X13572Y21334D1*
X13417D1*
X12776Y13817D2*
Y14327D1*
X13401Y20389D2*
Y20307D1*
X13730D1*
X7003Y8378D2*
X4837D1*
Y4874D2*
X7003D1*
X4837Y8378D2*
Y4874D1*
X14863Y12441D2*
X15627D1*
X16161Y20758D2*
Y20428D1*
X16120D1*
X16296Y12441D2*
Y12030D1*
X13367Y14327D2*
Y14970D1*
X13507Y15110D1*
X15573D1*
X15713Y15250D1*
Y15884D1*
X12973Y14327D2*
Y15613D1*
X13113Y15753D1*
X13762D1*
X12580Y14327D2*
Y14747D1*
X12605Y14772D1*
Y15733D1*
X6531Y10706D2*
X7093D1*
X8721Y10666D2*
X8124D1*
X8083Y10706D1*
X7762D1*
X15651Y17350D2*
X15713D1*
Y16553D1*
X13447Y17917D2*
X13624D1*
X13762Y17778D1*
Y16423D1*
X12392Y18764D2*
Y17779D1*
X12605Y17566D1*
Y16402D1*
X14863Y12634D2*
X15283D1*
Y12911D1*
X15341Y12969D1*
X15610D1*
Y13270D1*
X16066D1*
X16206Y13410D1*
Y14024D1*
X5843Y12659D2*
X6218Y13034D1*
X7909D1*
X9947Y10862D2*
X8721D1*
X11989Y8185D2*
Y8605D1*
X11849Y8745D1*
X8717D1*
Y7536D1*
X8857Y7396D1*
X11048D1*
Y7379D1*
X12186Y13587D2*
Y14327D1*
X11989Y8605D2*
X12177Y8793D1*
Y10108D1*
X14863Y11256D2*
X15182D1*
X15546Y10892D1*
X15639D1*
X11595Y8185D2*
Y7681D1*
X11444D1*
X11370Y7607D1*
Y6914D1*
X11237Y6781D1*
X11030D1*
X10508Y7166D2*
X8438D1*
X8298Y7306D1*
Y8818D1*
X8374Y8894D1*
X8721D1*
X16391Y15105D2*
X16331D1*
X16206Y14980D1*
Y14693D1*
X14933Y18984D2*
Y19519D1*
X7922Y21398D2*
X8361Y21837D1*
X12608D1*
X12748Y21697D1*
Y21334D1*
X9746Y18896D2*
Y18114D1*
X9886Y17974D1*
X10891D1*
X8211Y14412D2*
Y12072D1*
X7914D1*
X15255Y21132D2*
X15404D1*
X15416Y21143D1*
X14912D1*
X14754Y21301D1*
Y21156D1*
Y21837D1*
X14614Y21977D1*
X6501D1*
X6361Y21837D1*
Y20837D1*
X5922Y20398D1*
X15973Y18931D2*
X15567D1*
Y21977D1*
X15427Y22117D1*
X5501D1*
X5361Y21977D1*
Y19958D1*
X5501Y19818D1*
X6342D1*
X6922Y20398D1*
X16025Y18255D2*
X15973Y18337D1*
Y18931D1*
X16025Y18255D2*
Y18284D1*
X15973Y18337D1*
X14346Y19821D2*
Y19754D1*
X13961D1*
X13821Y19894D1*
X13214D1*
X13074Y20034D1*
Y20608D1*
X12991Y20691D1*
X12412D1*
X12361Y20640D1*
Y20098D1*
X12221Y19958D1*
X8361D1*
X7922Y20398D1*
X13961Y19754D2*
X13821Y19614D1*
Y18822D1*
X9131Y19545D2*
X10863D1*
X11346D1*
X11486Y19405D1*
Y19138D1*
X10863Y19545D2*
Y19103D1*
X6535Y9811D2*
X6157D1*
X5891D1*
X5674Y9594D1*
X5574D1*
X8947Y8515D2*
X9037Y8605D1*
X11399D1*
Y8185D1*
X8942Y6941D2*
X7042D1*
X9196Y7716D2*
X11202D1*
Y8185D1*
X9196Y6626D2*
X7042D1*
X11738Y9461D2*
X11517Y9681D1*
X8721D1*
X11508Y9091D2*
X8721D1*
X10947Y9321D2*
X10914Y9288D1*
X8721D1*
X11947Y8975D2*
X11968Y8996D1*
Y9738D1*
X11828Y9878D1*
X8721D1*
X10447Y13357D2*
Y13801D1*
X10414Y13834D1*
Y14327D1*
X16310Y10892D2*
D14*
Y8890D1*
X15958Y8538D1*
X14154D1*
Y8750D1*
X10916Y15392D2*
X10960D1*
X10586Y15017D1*
X9657D1*
X9562Y15112D1*
Y15369D1*
X5792Y16711D2*
X6324D1*
X6449Y16586D1*
Y15940D1*
X6287D1*
X9562Y15369D2*
X9430Y15306D1*
Y14782D1*
X7893D1*
X7989D1*
X7668Y15104D1*
Y15393D1*
X7484Y15577D1*
X6287D1*
Y15533D1*
X6110D1*
X6005Y15429D1*
Y15074D1*
X14154Y8750D2*
Y11361D1*
X14354Y11560D1*
Y11650D1*
Y13263D1*
X12026D1*
X11792Y13497D1*
Y14327D1*
X9430Y14782D2*
D13*
Y14327D1*
X14354Y11650D2*
X14863D1*
X14154Y8750D2*
Y8185D1*
X7698Y7256D2*
X7042D1*
X10916Y15392D2*
X10881D1*
Y16387D1*
X11792Y14327D2*
D14*
Y14820D1*
X11666Y14946D1*
X11232D1*
X10916Y15263D1*
Y15392D1*
X14354Y13263D2*
X14303Y13314D1*
Y13478D1*
X14443Y13618D1*
X14863D1*
X7893Y14782D2*
X7528Y14417D1*
Y13703D1*
X7909D1*
X9562Y15369D2*
D13*
X9493D1*
X9430Y15306D1*
X9562Y15369D1*
X6287Y15940D2*
D14*
Y15577D1*
X14863Y13618D2*
X15402D1*
X15603Y13819D1*
Y13980D1*
X14061Y7102D2*
D13*
Y6691D1*
X15973Y19600D2*
D14*
X16150D1*
X16327Y19424D1*
Y17853D1*
X15791D1*
X15628Y18015D1*
Y18552D1*
X15375Y18805D1*
Y20350D1*
X15235Y20490D1*
X14346D1*
X4818Y19107D2*
Y17594D1*
X4852D1*
X4818Y19107D2*
Y19626D1*
X4922Y19730D1*
Y20398D1*
X5792Y18506D2*
X5132D1*
X4818Y18820D1*
Y19107D1*
X14346Y20490D2*
Y20748D1*
X14085Y21010D1*
Y21156D1*
X4852Y17594D2*
Y14826D1*
X4904Y14774D1*
Y9594D1*
X13052Y20916D2*
X7580D1*
X7433Y20769D1*
Y19340D1*
X6599Y18506D1*
X5792D1*
X13962Y20786D2*
Y21033D1*
X14085Y21156D1*
X7433Y19340D2*
D13*
X7645Y19128D1*
X10194D1*
Y19103D1*
X13392Y7102D2*
Y6947D1*
X13226Y6781D1*
X11699D1*
X14863Y11847D2*
X15174D1*
X15283Y11738D1*
Y11702D1*
Y11551D1*
X15185Y11453D1*
X14863D1*
X16161Y21506D2*
X16313D1*
X16571Y21248D1*
Y17833D1*
X16399Y17661D1*
Y17350D1*
X5843Y13659D2*
X6968D1*
X7108Y13799D1*
Y15074D1*
X11989Y14327D2*
Y15247D1*
X11845Y15392D1*
X11585D1*
X16310Y11562D2*
Y11574D1*
X15639D1*
Y11562D1*
X8721Y11847D2*
X9069D1*
X9141Y11775D1*
Y11525D1*
X9069Y11453D1*
X8721D1*
X11699Y6781D2*
Y6382D1*
X11559Y6242D1*
X8173D1*
X7928Y5996D1*
X7042D1*
X12392Y19512D2*
X12732D1*
Y20389D1*
X11699Y6781D2*
Y7379D1*
X11717D1*
X16279Y12969D2*
Y13109D1*
X16621D1*
Y15253D1*
X16399Y15475D1*
X15993D1*
X15853Y15335D1*
Y15110D1*
X15713Y14970D1*
X15603D1*
Y14649D1*
X8430Y17609D2*
X6956D1*
X6816Y17469D1*
Y17134D1*
X5379D1*
Y17182D1*
X8721Y11256D2*
X9281D1*
Y11059D1*
X8721D1*
X6198Y11750D2*
X8158D1*
X8216Y11692D1*
Y11453D1*
Y11361D1*
X8321Y11256D1*
X8721D1*
X5783Y10717D2*
Y11335D1*
X6198Y11750D1*
X7914Y9319D2*
X7569D1*
X6765Y10123D1*
X5923D1*
X5783Y10263D1*
Y10717D1*
X7042Y5996D2*
X6584D1*
X6439Y6141D1*
Y7400D1*
X6525Y7486D1*
X7774D1*
X7914Y7626D1*
Y9319D1*
X7928Y5996D2*
Y5382D1*
X8508Y4802D1*
X6816Y17134D2*
X6956Y16994D1*
Y15940D1*
X10898Y17034D2*
Y17469D1*
X10758Y17609D1*
X8430D1*
X12392Y19512D2*
X11938D1*
X11798Y19372D1*
Y18820D1*
X11219Y18242D1*
Y17188D1*
X11064Y17034D1*
X10898D1*
X14195Y17917D2*
Y18070D1*
X14037Y18228D1*
X13598D1*
X12830Y18997D1*
X12532D1*
X12392Y19137D1*
Y19512D1*
X14199Y17222D2*
X14195Y17917D1*
X16399Y17350D2*
X16155D1*
X16015Y17490D1*
Y17521D1*
X15875Y17661D1*
X15375D1*
X15235Y17801D1*
Y18589D1*
X15188Y18636D1*
X14660D1*
X14520Y18496D1*
Y17222D1*
X14199D1*
X10898Y17034D2*
X10371D1*
X10231Y16894D1*
Y15369D1*
X11551Y16387D2*
Y16689D1*
X10898D1*
Y17034D1*
X11585Y15392D2*
X11551D1*
Y16387D1*
X16399Y17350D2*
Y15475D1*
X15639Y11562D2*
X15829D1*
X15949Y11682D1*
Y12969D1*
X16279D1*
X8721Y11453D2*
X8216D1*
X15639Y11562D2*
X15568Y11702D1*
X15283D1*
X15639Y11562D2*
Y11631D1*
X15568Y11702D1*
X11717Y7379D2*
X11792D1*
Y8185D1*
X5955Y17594D2*
X5483D1*
X5379Y17490D1*
Y17182D1*
X5488Y19107D2*
X5899D1*
D34*
X10922Y14837D3*
X10217Y13587D3*
X12776Y13817D3*
X13730Y20307D3*
X16296Y12030D3*
X16120Y20428D3*
X9947Y10862D3*
X12186Y13587D3*
X12177Y10108D3*
X10508Y7166D3*
X16391Y15105D3*
X14933Y19519D3*
X9746Y18896D3*
X8211Y14412D3*
X9131Y19545D3*
X6535Y9811D3*
X8947Y6936D3*
Y8515D3*
X9196Y6626D3*
Y7716D3*
X11738Y9461D3*
X11508Y9091D3*
X10947Y9321D3*
X11947Y8975D3*
X10447Y13357D3*
X14154Y8750D3*
X7698Y7256D3*
X14061Y6691D3*
X5899Y19107D3*
X6198Y11750D3*
X5379Y17182D3*
X13052Y20916D3*
X13962Y20786D3*
X4685Y22078D2*
D14*
X4283Y21677D1*
X5109Y22078D2*
X4283Y21252D1*
X5104Y21649D2*
X4409Y20954D1*
X4366Y20911D2*
X4284Y20829D1*
X5104Y21224D2*
X4834Y20954D1*
X4365Y20485D2*
X4284Y20405D1*
X4365Y20061D2*
X4284Y19980D1*
X4571Y19842D2*
X4283Y19555D1*
X4380Y19227D2*
X4283Y19131D1*
X5263Y19687D2*
X5186Y19609D1*
X4380Y18803D2*
X4283Y18707D1*
X5563Y19562D2*
X5527Y19526D1*
X4522Y18521D2*
X4283Y18282D1*
X5987Y19562D2*
X5926Y19501D1*
X6433Y19584D2*
X5926Y19076D1*
X7136Y19862D2*
X6198Y18924D1*
X4556Y16858D2*
X4283Y16585D1*
X7966Y19844D2*
X7729Y19607D1*
X4556Y16433D2*
X4283Y16161D1*
X8265Y19718D2*
X7931Y19385D1*
X6998Y18452D2*
X6491Y17944D1*
X4556Y16009D2*
X4283Y15737D1*
X8672Y19701D2*
X8355Y19385D1*
X6998Y18028D2*
X6491Y17520D1*
X5263Y16292D2*
X5149Y16178D1*
X4556Y15585D2*
X4283Y15313D1*
X6998Y17603D2*
X6524Y17129D1*
X5688Y16292D2*
X5149Y15753D1*
X4556Y15161D2*
X4283Y14888D1*
X6998Y17179D2*
X6640Y16821D1*
X5850Y16031D2*
X5149Y15329D1*
X4566Y14746D2*
X4283Y14464D1*
X6998Y16755D2*
X6745Y16501D1*
X5469Y15225D2*
X5165Y14922D1*
X4609Y14365D2*
X4283Y14040D1*
X5469Y14801D2*
X5202Y14534D1*
X4609Y13941D2*
X4283Y13616D1*
X5590Y14498D2*
X5202Y14109D1*
X4609Y13516D2*
X4283Y13191D1*
X10200Y18684D2*
X10003Y18486D1*
X7810Y16294D2*
X7394Y15878D1*
X6014Y14498D2*
X5202Y13685D1*
X4609Y13092D2*
X4283Y12767D1*
X11642Y19701D2*
X11600Y19660D1*
X10625Y18684D2*
X10172Y18231D1*
X8235Y16294D2*
X7714Y15773D1*
X6440Y14499D2*
X5202Y13261D1*
X4609Y12668D2*
X4283Y12343D1*
X14085Y21720D2*
X13939Y21574D1*
X11964Y19599D2*
X11852Y19487D1*
X11049Y18684D2*
X10758Y18394D1*
X10083Y17718D2*
X9862Y17497D1*
X8659Y16294D2*
X7920Y15555D1*
X6863Y14498D2*
X5202Y12837D1*
X4609Y12244D2*
X4283Y11919D1*
X14498Y21708D2*
X14363Y21574D1*
X12761Y19972D2*
X12651Y19862D1*
X11964Y19174D2*
X11914Y19124D1*
X11577Y18788D2*
X11183Y18394D1*
X10454Y17665D2*
X9862Y17073D1*
X9083Y16294D2*
X7992Y15203D1*
X7234Y14445D2*
X5916Y13127D1*
X5376Y12587D2*
X5202Y12412D1*
X4609Y11819D2*
X4283Y11494D1*
X15074Y21861D2*
X15009Y21796D1*
X12976Y19763D2*
X12820Y19607D1*
X12376Y19163D2*
X12326Y19113D1*
X11964Y18750D2*
X11607Y18394D1*
X10770Y17557D2*
X10666Y17452D1*
X10459Y17245D2*
X9862Y16648D1*
X9508Y16294D2*
X8292Y15079D1*
X7230Y14017D2*
X6504Y13291D1*
X5522Y12308D2*
X5202Y11988D1*
X4609Y11395D2*
X4283Y11070D1*
X15311Y21674D2*
X15192Y21554D1*
X13276Y19638D2*
X12751Y19113D1*
X12051Y18414D2*
X11999Y18361D1*
X11195Y17557D2*
X11090Y17452D1*
X10459Y16821D2*
X9424Y15787D1*
X9125Y15487D2*
X8717Y15079D1*
X7244Y13606D2*
X6928Y13291D1*
X6415Y12777D2*
X6314Y12676D1*
X5825Y12187D2*
X5202Y11564D1*
X4609Y10971D2*
X4283Y10646D1*
X16137Y22075D2*
X15918Y21856D1*
X13565Y19503D2*
X12820Y18758D1*
X12136Y18074D2*
X11998Y17936D1*
X10444Y16382D2*
X9849Y15787D1*
X7472Y13410D2*
X7353Y13291D1*
X6839Y12777D2*
X5202Y11140D1*
X4609Y10547D2*
X4283Y10221D1*
X16561Y22075D2*
X16342Y21856D1*
X13472Y18986D2*
X12648Y18161D1*
X12156Y17670D2*
X11938Y17452D1*
X10456Y15969D2*
X10273Y15787D1*
X8972Y14486D2*
X8468Y13982D1*
X7264Y12777D2*
X5631Y11145D1*
X5434Y10948D2*
X5202Y10715D1*
X4609Y10122D2*
X4499Y10013D1*
X4466Y9980D2*
X4283Y9797D1*
X16067Y21156D2*
X16017Y21107D1*
X15079Y20168D2*
X14764Y19853D1*
X14293Y19383D2*
X14160Y19250D1*
X13471Y18561D2*
X13256Y18345D1*
X13098Y18188D2*
X12725Y17815D1*
X12348Y17437D2*
X12188Y17278D1*
X9169Y14258D2*
X8789Y13879D1*
X7507Y12596D2*
X6056Y11146D1*
X5433Y10523D2*
X5201Y10291D1*
X4467Y9557D2*
X4283Y9372D1*
X16490Y21155D2*
X16441Y21107D1*
X14515Y19181D2*
X14170Y18836D1*
X13728Y18393D2*
X13681Y18346D1*
X13098Y17764D2*
X12861Y17526D1*
X11304Y15969D2*
X11144Y15809D1*
X7931Y12596D2*
X7844Y12510D1*
X7497Y12162D2*
X6481Y11146D1*
X6183Y10848D2*
X6133Y10798D1*
X5624Y10289D2*
X5347Y10012D1*
X4510Y9176D2*
X4328Y8993D1*
X15907Y20148D2*
X15824Y20065D1*
X14515Y18756D2*
X14104Y18345D1*
X13248Y17488D2*
X12861Y17102D1*
X11728Y15969D2*
X11568Y15809D1*
X9550Y13791D2*
X9258Y13499D1*
X7497Y11738D2*
X6883Y11124D1*
X6183Y10424D2*
X6133Y10373D1*
X6049Y10290D2*
X5998Y10239D1*
X4935Y9176D2*
X4752Y8993D1*
X16610Y20427D2*
X16222Y20039D1*
X13506Y17323D2*
X13023Y16840D1*
X9903Y13720D2*
X9258Y13075D1*
X6473Y10289D2*
X6422Y10238D1*
X5359Y9176D2*
X5176Y8993D1*
X16610Y20003D2*
X16391Y19784D1*
X13506Y16899D2*
X13468Y16860D1*
X13344Y16736D2*
X13023Y16416D1*
X9958Y13350D2*
X9258Y12651D1*
X6895Y10288D2*
X6718Y10110D1*
X5783Y9176D2*
X5551Y8943D1*
X4371Y7764D2*
X4283Y7675D1*
X13344Y16312D2*
X13023Y15992D1*
X10823Y13791D2*
X10703Y13671D1*
X10172Y13140D2*
X9258Y12226D1*
X7157Y10125D2*
X6880Y9848D1*
X6415Y9383D2*
X5667Y8635D1*
X4582Y7550D2*
X4283Y7251D1*
X15352Y17896D2*
X15190Y17733D1*
X14260Y16804D2*
X14180Y16724D1*
X11247Y13791D2*
X10793Y13337D1*
X10468Y13012D2*
X9258Y11802D1*
X7314Y9858D2*
X6449Y8993D1*
X6289Y8833D2*
X6091Y8635D1*
X5220Y7764D2*
X5093Y7637D1*
X4582Y7126D2*
X4283Y6827D1*
X14611Y16731D2*
X14180Y16300D1*
X11496Y13615D2*
X9258Y11378D1*
X7497Y9616D2*
X6873Y8993D1*
X6002Y8122D2*
X5093Y7213D1*
X4582Y6701D2*
X4283Y6403D1*
X14611Y16307D2*
X14180Y15876D1*
X11584Y13279D2*
X9424Y11119D1*
X7497Y9192D2*
X7298Y8993D1*
X6289Y7984D2*
X6172Y7868D1*
X5644Y7339D2*
X5093Y6789D1*
X4582Y6277D2*
X4283Y5978D1*
X16050Y17321D2*
X16000Y17271D1*
X15294Y16565D2*
X15125Y16396D1*
X14611Y15883D2*
X14235Y15506D1*
X11796Y13067D2*
X9938Y11209D1*
X9335Y10606D2*
X9258Y10529D1*
X6492Y7764D2*
X6388Y7659D1*
X5851Y7122D2*
X5093Y6364D1*
X4582Y5853D2*
X4283Y5554D1*
X15294Y16141D2*
X15125Y15972D1*
X12121Y12967D2*
X10228Y11074D1*
X9736Y10583D2*
X9288Y10135D1*
X8035Y8882D2*
X7717Y8564D1*
X6917Y7764D2*
X6729Y7576D1*
X6368Y7215D2*
X5093Y5940D1*
X16499Y16922D2*
X16131Y16553D1*
X15294Y15717D2*
X15125Y15547D1*
X13369Y13791D2*
X13138Y13560D1*
X12545Y12967D2*
X9712Y10135D1*
X8042Y8465D2*
X7717Y8139D1*
X7341Y7764D2*
X7153Y7576D1*
X6368Y6791D2*
X5093Y5516D1*
X16613Y16612D2*
X16131Y16129D1*
X15447Y15445D2*
X15369Y15367D1*
X14855Y14853D2*
X14416Y14414D1*
X13793Y13791D2*
X13562Y13560D1*
X12969Y12967D2*
X10136Y10135D1*
X8042Y8040D2*
X7578Y7576D1*
X6368Y6366D2*
X6146Y6144D1*
X5634Y5632D2*
X5491Y5489D1*
X16613Y16188D2*
X16131Y15705D1*
X15185Y14759D2*
X14416Y13990D1*
X14060Y13634D2*
X13986Y13560D1*
X13393Y12967D2*
X10561Y10135D1*
X8042Y7616D2*
X7937Y7511D1*
X5828Y5402D2*
X5557Y5131D1*
X16613Y15763D2*
X16277Y15427D1*
X16068Y15218D2*
X15982Y15132D1*
X15185Y14335D2*
X14765Y13915D1*
X13818Y12967D2*
X10985Y10135D1*
X9033Y8183D2*
X8973Y8123D1*
X6527Y5677D2*
X5982Y5131D1*
X14056Y12782D2*
X11409Y10135D1*
X6952Y5677D2*
X6764Y5489D1*
X5893Y4618D2*
X5557Y4283D1*
X14056Y12358D2*
X12152Y10453D1*
X8069Y6370D2*
X7717Y6018D1*
X7376Y5677D2*
X7188Y5489D1*
X6289Y4590D2*
X5982Y4283D1*
X14056Y11933D2*
X12450Y10327D1*
X7953Y5830D2*
X7612Y5489D1*
X13857Y11310D2*
X12433Y9886D1*
X8917Y6370D2*
X8817Y6270D1*
X8040Y5493D2*
X7717Y5170D1*
X16557Y13586D2*
X16462Y13491D1*
X13857Y10886D2*
X12433Y9462D1*
X9882Y6910D2*
X9533Y6562D1*
X8267Y5296D2*
X7717Y4745D1*
X13857Y10462D2*
X12433Y9038D1*
X10288Y6892D2*
X9717Y6321D1*
X8670Y5274D2*
X7717Y4321D1*
X13857Y10037D2*
X12541Y8721D1*
X10593Y6773D2*
X9958Y6137D1*
X9172Y5352D2*
X8103Y4283D1*
X13857Y9613D2*
X12965Y8721D1*
X8957Y4713D2*
X8527Y4283D1*
X13857Y9189D2*
X13390Y8721D1*
X12318Y7649D2*
X12155Y7486D1*
X11032Y6363D2*
X10886Y6217D1*
X10094Y5425D2*
X9885Y5216D1*
X9093Y4424D2*
X8952Y4283D1*
X15548Y10455D2*
X15400Y10307D1*
X12742Y7649D2*
X12155Y7062D1*
X15972Y10455D2*
X15400Y9883D1*
X13166Y7649D2*
X13038Y7521D1*
X12954Y7437D2*
X12137Y6620D1*
X11880Y6363D2*
X11799Y6282D1*
X11028Y5511D2*
X10798Y5281D1*
X10029Y4512D2*
X9800Y4283D1*
X16014Y10072D2*
X15400Y9459D1*
X13591Y7649D2*
X13463Y7521D1*
X12954Y7013D2*
X12299Y6358D1*
X11247Y5306D2*
X11189Y5248D1*
X11062Y5120D2*
X11003Y5062D1*
X16014Y9648D2*
X15400Y9034D1*
X14608Y8243D2*
X14416Y8050D1*
X14015Y7649D2*
X13887Y7521D1*
X13050Y6685D2*
X12724Y6358D1*
X16014Y9224D2*
X15625Y8836D1*
X15032Y8243D2*
X14311Y7521D1*
X13475Y6685D2*
X13063Y6273D1*
X12036Y5246D2*
X11943Y5153D1*
X11156Y4366D2*
X11073Y4283D1*
X15457Y8243D2*
X14500Y7286D1*
X13748Y6534D2*
X13063Y5849D1*
X15881Y8243D2*
X14500Y6862D1*
X13988Y6350D2*
X13063Y5425D1*
X12079Y4441D2*
X11921Y4283D1*
X16618Y8556D2*
X13038Y4976D1*
X16618Y8131D2*
X12770Y4283D1*
X16618Y7707D2*
X13194Y4283D1*
X16618Y7283D2*
X13618Y4283D1*
X16620Y6860D2*
X14043Y4283D1*
X16620Y6436D2*
X14467Y4283D1*
X16620Y6012D2*
X14891Y4283D1*
X16620Y5588D2*
X15316Y4283D1*
X16620Y5163D2*
X15740Y4283D1*
X16620Y4739D2*
X16164Y4283D1*
X16620Y4315D2*
X16587Y4282D1*
X16222Y22075D2*
X16441Y21856D1*
X15799Y22073D2*
X16017Y21856D1*
X16292Y21157D2*
X16341Y21107D1*
X15163Y21861D2*
X15311Y21713D1*
X15867Y21157D2*
X15917Y21107D1*
X16393Y20207D2*
X16610Y19989D1*
X14455Y21720D2*
X14499Y21677D1*
X16091Y20084D2*
X16138Y20038D1*
X16391Y19784D2*
X16610Y19565D1*
X14031Y21720D2*
X14177Y21574D1*
X14764Y20139D2*
X15074Y19829D1*
X14247Y19383D2*
X14515Y19114D1*
X14170Y19035D2*
X14515Y18690D1*
X15329Y17877D2*
X15429Y17777D1*
X16000Y17206D2*
X16050Y17156D1*
X16283Y16922D2*
X16613Y16592D1*
X12810Y19972D2*
X12842Y19939D1*
X13120Y19662D2*
X13531Y19250D1*
X14170Y18611D2*
X14436Y18345D1*
X16131Y16650D2*
X16613Y16168D1*
X12820Y19537D2*
X13471Y18886D1*
X13963Y18394D2*
X14011Y18346D1*
X14545Y17812D2*
X14676Y17681D1*
X16131Y16226D2*
X16613Y15744D1*
X12770Y19163D2*
X13471Y18461D1*
X13540Y18393D2*
X13587Y18346D1*
X13796Y18137D2*
X13845Y18088D1*
X15128Y16805D2*
X15294Y16638D1*
X16131Y15802D2*
X16506Y15427D1*
X11807Y19701D2*
X11963Y19545D1*
X12346Y19163D2*
X12396Y19113D1*
X12820Y18689D2*
X13163Y18345D1*
X15125Y16384D2*
X15294Y16214D1*
X16063Y15446D2*
X16149Y15359D1*
X11915Y19169D2*
X11971Y19113D1*
X12670Y18414D2*
X13098Y17986D1*
X14280Y16805D2*
X14611Y16473D1*
X15125Y15959D2*
X15294Y15790D1*
X11872Y18788D2*
X11963Y18697D1*
X12647Y18013D2*
X13098Y17562D1*
X13170Y17490D2*
X13506Y17154D1*
X14180Y16480D2*
X14611Y16048D1*
X15125Y15535D2*
X15293Y15367D1*
X11447Y18788D2*
X11842Y18394D1*
X11999Y18236D2*
X12136Y18100D1*
X12861Y17375D2*
X13375Y16861D1*
X14180Y16055D2*
X14611Y15624D1*
X11128Y18684D2*
X11418Y18394D1*
X11999Y17812D2*
X12348Y17464D1*
X12861Y16950D2*
X13344Y16468D1*
X14180Y15631D2*
X14305Y15507D1*
X14958Y14854D2*
X15185Y14627D1*
X10703Y18684D2*
X10994Y18394D1*
X11830Y17557D2*
X11935Y17452D1*
X12005Y17383D2*
X12097Y17290D1*
X13023Y16364D2*
X13344Y16043D1*
X14533Y14854D2*
X15185Y14202D1*
X10279Y18684D2*
X10569Y18394D1*
X14416Y14547D2*
X15047Y13916D1*
X10002Y18536D2*
X10308Y18231D1*
X10982Y17557D2*
X11086Y17452D1*
X14416Y14123D2*
X14623Y13916D1*
X8413Y19701D2*
X8730Y19385D1*
X10397Y17718D2*
X10453Y17661D1*
X10557Y17557D2*
X10662Y17452D1*
X7841Y19849D2*
X8306Y19385D1*
X9972Y17718D2*
X10460Y17230D1*
X11721Y15969D2*
X11880Y15810D1*
X13900Y13790D2*
X14050Y13640D1*
X7730Y19536D2*
X7881Y19385D1*
X9861Y17404D2*
X10460Y16806D1*
X11297Y15969D2*
X11456Y15810D1*
X13476Y13790D2*
X13707Y13559D1*
X4764Y22078D2*
X5105Y21736D1*
X6996Y19846D2*
X7137Y19704D1*
X9861Y16980D2*
X10443Y16398D1*
X13113Y13729D2*
X13282Y13559D1*
X13875Y12966D2*
X14056Y12785D1*
X4339Y22078D2*
X5105Y21312D1*
X6655Y19763D2*
X7043Y19375D1*
X9861Y16556D2*
X10607Y15810D1*
X13451Y12966D2*
X14056Y12361D1*
X15964Y10454D2*
X16012Y10405D1*
X4283Y21710D2*
X5040Y20954D1*
X6421Y19572D2*
X6831Y19162D1*
X9698Y16295D2*
X10205Y15788D1*
X13026Y12967D2*
X14057Y11936D1*
X15538Y10455D2*
X16014Y9979D1*
X4283Y21285D2*
X4615Y20954D1*
X6007Y19562D2*
X6619Y18950D1*
X9274Y16295D2*
X9781Y15788D1*
X12601Y12967D2*
X13969Y11600D1*
X15399Y10170D2*
X16014Y9555D1*
X4283Y20861D2*
X4366Y20779D1*
X5583Y19562D2*
X5619Y19525D1*
X5926Y19219D2*
X6219Y18925D1*
X6832Y18312D2*
X6998Y18146D1*
X8849Y16295D2*
X9357Y15788D1*
X11353Y13791D2*
X11496Y13648D1*
X12177Y12967D2*
X13858Y11287D1*
X15399Y9746D2*
X16014Y9131D1*
X16494Y8650D2*
X16617Y8527D1*
X4283Y20437D2*
X4366Y20354D1*
X6556Y18165D2*
X6998Y17722D1*
X8425Y16295D2*
X9125Y15596D1*
X10929Y13791D2*
X13858Y10862D1*
X15399Y9321D2*
X15858Y8862D1*
X16282Y8438D2*
X16619Y8101D1*
X4283Y20013D2*
X4366Y19930D1*
X4454Y19842D2*
X4546Y19750D1*
X6491Y17805D2*
X6998Y17298D1*
X8001Y16295D2*
X9125Y15171D1*
X10704Y13592D2*
X13858Y10438D1*
X15399Y8897D2*
X15461Y8836D1*
X16044Y8252D2*
X16619Y7677D1*
X4283Y19588D2*
X4380Y19492D1*
X6491Y17381D2*
X6998Y16873D1*
X7576Y16295D2*
X8793Y15078D1*
X10727Y13145D2*
X13858Y10014D1*
X15629Y8243D2*
X16619Y7253D1*
X4283Y19164D2*
X4380Y19068D1*
X6556Y16892D2*
X6998Y16449D1*
X7394Y16053D2*
X7608Y15839D1*
X7929Y15518D2*
X8369Y15078D1*
X8962Y14486D2*
X9169Y14278D1*
X9656Y13791D2*
X9872Y13575D1*
X10435Y13012D2*
X13858Y9590D1*
X15205Y8243D2*
X16619Y6829D1*
X4283Y18740D2*
X4522Y18501D1*
X8549Y14474D2*
X9145Y13879D1*
X9257Y13767D2*
X13858Y9165D1*
X14781Y8243D2*
X16619Y6404D1*
X4283Y18315D2*
X4430Y18169D1*
X8468Y14131D2*
X8720Y13879D1*
X9257Y13342D2*
X12144Y10455D1*
X12523Y10075D2*
X13810Y8789D1*
X14414Y8185D2*
X16619Y5980D1*
X4283Y17891D2*
X4317Y17858D1*
X9257Y12918D2*
X11881Y10294D1*
X12434Y9741D2*
X13454Y8721D1*
X14414Y7760D2*
X16621Y5554D1*
X4283Y17467D2*
X4317Y17434D1*
X5458Y16292D2*
X5850Y15900D1*
X9257Y12493D2*
X11616Y10135D1*
X12434Y9316D2*
X13029Y8721D1*
X14101Y7649D2*
X14229Y7521D1*
X14499Y7251D2*
X16621Y5130D1*
X4283Y17043D2*
X4556Y16771D1*
X5149Y16178D2*
X5676Y15650D1*
X6827Y14499D2*
X7230Y14096D1*
X9257Y12069D2*
X11191Y10135D1*
X12434Y8892D2*
X12605Y8721D1*
X13677Y7649D2*
X13805Y7521D1*
X14499Y6827D2*
X16621Y4706D1*
X4283Y16618D2*
X4556Y16346D1*
X5149Y15753D2*
X5469Y15433D1*
X6403Y14499D2*
X7235Y13666D1*
X9257Y11645D2*
X9750Y11152D1*
X10236Y10665D2*
X10767Y10135D1*
X13253Y7649D2*
X13381Y7521D1*
X14373Y6529D2*
X16619Y4283D1*
X4283Y16194D2*
X4556Y15922D1*
X5149Y15329D2*
X5469Y15009D1*
X5979Y14499D2*
X7187Y13290D1*
X7881Y12596D2*
X7955Y12523D1*
X9257Y11221D2*
X9358Y11119D1*
X9961Y10516D2*
X10343Y10135D1*
X12828Y7649D2*
X12956Y7521D1*
X14128Y6350D2*
X16195Y4283D1*
X4283Y15770D2*
X4556Y15498D1*
X5178Y14875D2*
X5469Y14585D1*
X5554Y14499D2*
X6763Y13290D1*
X7277Y12777D2*
X7544Y12510D1*
X9448Y10606D2*
X9919Y10135D1*
X12404Y7649D2*
X12955Y7099D1*
X13369Y6685D2*
X15770Y4283D1*
X4283Y15346D2*
X4556Y15074D1*
X5202Y14427D2*
X6339Y13290D1*
X6852Y12777D2*
X7496Y12133D1*
X9257Y10372D2*
X9494Y10135D1*
X12156Y7474D2*
X15346Y4283D1*
X4283Y14921D2*
X4609Y14596D1*
X5202Y14003D2*
X6011Y13194D1*
X6428Y12777D2*
X7496Y11709D1*
X12156Y7049D2*
X12847Y6358D1*
X13064Y6141D2*
X14922Y4283D1*
X4283Y14497D2*
X4609Y14172D1*
X5202Y13579D2*
X5678Y13103D1*
X6287Y12493D2*
X7282Y11499D1*
X12137Y6643D2*
X12423Y6358D1*
X13064Y5717D2*
X14498Y4283D1*
X4283Y14073D2*
X4609Y13748D1*
X5202Y13155D2*
X5442Y12914D1*
X6098Y12258D2*
X7158Y11199D1*
X13064Y5293D2*
X14073Y4283D1*
X4283Y13649D2*
X4609Y13323D1*
X5202Y12730D2*
X5389Y12543D1*
X5727Y12205D2*
X6786Y11146D1*
X13057Y4875D2*
X13649Y4283D1*
X4283Y13224D2*
X4609Y12899D1*
X5202Y12306D2*
X6362Y11146D1*
X11145Y6363D2*
X11223Y6285D1*
X12991Y4517D2*
X13225Y4283D1*
X4283Y12800D2*
X4609Y12475D1*
X5202Y11882D2*
X5938Y11146D1*
X6133Y10951D2*
X6181Y10902D1*
X6796Y10288D2*
X7496Y9588D1*
X8974Y8110D2*
X9050Y8033D1*
X10173Y6910D2*
X10591Y6492D1*
X10720Y6363D2*
X11016Y6068D1*
X11774Y5309D2*
X12015Y5069D1*
X4283Y12376D2*
X4609Y12051D1*
X5202Y11458D2*
X5513Y11146D1*
X6133Y10526D2*
X6181Y10478D1*
X6370Y10289D2*
X6421Y10238D1*
X6880Y9779D2*
X7496Y9164D1*
X7777Y8882D2*
X8041Y8618D1*
X9749Y6910D2*
X10328Y6331D1*
X4283Y11952D2*
X4609Y11626D1*
X5202Y11033D2*
X5434Y10801D1*
X5946Y10289D2*
X5997Y10238D1*
X6721Y9514D2*
X7242Y8993D1*
X7716Y8519D2*
X8041Y8194D1*
X9530Y6705D2*
X10076Y6159D1*
X10865Y5370D2*
X11075Y5160D1*
X11866Y4369D2*
X11952Y4283D1*
X4283Y11527D2*
X4609Y11202D1*
X5202Y10609D2*
X5434Y10377D1*
X5523Y10288D2*
X5769Y10042D1*
X6428Y9383D2*
X6818Y8993D1*
X7716Y8095D2*
X8041Y7770D1*
X4283Y11103D2*
X4609Y10778D1*
X5202Y10185D2*
X5374Y10012D1*
X6012Y9374D2*
X6394Y8993D1*
X7623Y7764D2*
X7806Y7581D1*
X9083Y6304D2*
X9151Y6235D1*
X9940Y5447D2*
X10152Y5234D1*
X10941Y4446D2*
X11104Y4283D1*
X4283Y10679D2*
X4609Y10354D1*
X5787Y9176D2*
X6289Y8673D1*
X7199Y7764D2*
X7386Y7576D1*
X4283Y10254D2*
X4526Y10012D1*
X5362Y9176D2*
X5903Y8635D1*
X6774Y7764D2*
X6962Y7576D1*
X8168Y6370D2*
X8243Y6295D1*
X9000Y5538D2*
X9242Y5296D1*
X10001Y4537D2*
X10255Y4283D1*
X4283Y9830D2*
X4466Y9648D1*
X4938Y9176D2*
X5121Y8993D1*
X5992Y8122D2*
X6538Y7576D1*
X7744Y6370D2*
X8026Y6088D1*
X8793Y5321D2*
X9025Y5088D1*
X9794Y4320D2*
X9831Y4283D1*
X4283Y9406D2*
X4466Y9223D1*
X4515Y9175D2*
X4696Y8993D1*
X5568Y8122D2*
X5835Y7854D1*
X7716Y5974D2*
X7958Y5731D1*
X8437Y5253D2*
X8957Y4732D1*
X5502Y7764D2*
X5638Y7627D1*
X6155Y7111D2*
X6369Y6896D1*
X7588Y5677D2*
X8982Y4283D1*
X5094Y7747D2*
X6369Y6472D1*
X7164Y5677D2*
X7351Y5489D1*
X7716Y5125D2*
X8558Y4283D1*
X5094Y7323D2*
X6369Y6048D1*
X6740Y5677D2*
X6927Y5489D1*
X7716Y4701D2*
X8134Y4283D1*
X4283Y7709D2*
X4580Y7412D1*
X5094Y6898D2*
X5860Y6132D1*
X6392Y5601D2*
X6503Y5489D1*
X4283Y7285D2*
X4580Y6988D1*
X5094Y6474D2*
X5648Y5920D1*
X6179Y5389D2*
X6289Y5279D1*
X4283Y6860D2*
X4580Y6563D1*
X5094Y6050D2*
X6012Y5131D1*
X4283Y6436D2*
X4580Y6139D1*
X5094Y5626D2*
X5230Y5489D1*
X5551Y5168D2*
X5588Y5131D1*
X6101Y4618D2*
X6289Y4430D1*
X4283Y6012D2*
X4580Y5715D1*
X5677Y4618D2*
X6012Y4283D1*
X4283Y5588D2*
X4382Y5489D1*
X5551Y4320D2*
X5588Y4283D1*
X8456Y13869D2*
X9182D1*
X9180Y14026D1*
Y14497D1*
X8537Y14496D1*
X8547Y14412D1*
X8539Y14338D1*
X8514Y14267D1*
X8475Y14204D1*
X8457Y14185D1*
Y13871D1*
X9180Y8051D2*
Y8271D1*
X9095Y8213D1*
X9024Y8188D1*
X8962Y8181D1*
X8963Y7960D1*
X9043Y8016D1*
X9113Y8042D1*
X9181Y8051D1*
X14208Y7660D2*
X12436D1*
X12143Y7659D1*
X12145Y7532D1*
Y6971D1*
X12127D1*
Y6373D1*
X10602D1*
Y6844D1*
X10510Y6830D1*
X10436Y6838D1*
X10365Y6862D1*
X10301Y6901D1*
X10283Y6919D1*
X9357Y6920D1*
X9398Y6895D1*
X9452Y6843D1*
X9494Y6781D1*
X9521Y6711D1*
X9532Y6626D1*
X9523Y6552D1*
X9499Y6481D1*
X9459Y6418D1*
X9406Y6365D1*
X9343Y6324D1*
X9273Y6299D1*
X9198Y6290D1*
X9124Y6298D1*
X9053Y6322D1*
X8989Y6361D1*
X8971Y6379D1*
X7707Y6380D1*
X7704Y6317D1*
X7706Y6171D1*
X7704Y6002D1*
X7706Y5991D1*
Y5687D1*
X6403Y5685D1*
X6381Y5614D1*
X6347Y5547D1*
X6300Y5488D1*
X6243Y5440D1*
X6178Y5403D1*
X6107Y5379D1*
X6033Y5369D1*
X5958Y5373D1*
X5886Y5392D1*
X5818Y5424D1*
X5758Y5468D1*
X5707Y5523D1*
X5668Y5587D1*
X5641Y5657D1*
X5628Y5731D1*
X5630Y5806D1*
X5646Y5879D1*
X5675Y5948D1*
X5717Y6010D1*
X5770Y6062D1*
X5833Y6104D1*
X5902Y6133D1*
X5975Y6149D1*
X6050Y6150D1*
X6123Y6137D1*
X6193Y6110D1*
X6257Y6070D1*
X6312Y6019D1*
X6356Y5959D1*
X6378Y5910D1*
X6381Y6621D1*
X6379Y6767D1*
X6381Y6936D1*
X6379Y7082D1*
X6381Y7251D1*
X6379Y7338D1*
X6347Y7279D1*
X6300Y7221D1*
X6243Y7172D1*
X6178Y7135D1*
X6107Y7111D1*
X6033Y7101D1*
X5958Y7106D1*
X5886Y7124D1*
X5818Y7156D1*
X5758Y7201D1*
X5707Y7256D1*
X5668Y7319D1*
X5641Y7389D1*
X5628Y7463D1*
X5630Y7538D1*
X5646Y7611D1*
X5675Y7680D1*
X5717Y7742D1*
X5770Y7795D1*
X5833Y7836D1*
X5902Y7866D1*
X5975Y7881D1*
X6050Y7882D1*
X6123Y7869D1*
X6193Y7842D1*
X6257Y7803D1*
X6312Y7752D1*
X6356Y7691D1*
X6387Y7623D1*
X6402Y7566D1*
X7567D1*
X7616Y7582D1*
X7690Y7592D1*
X7764Y7585D1*
X7836Y7563D1*
X7900Y7524D1*
X7955Y7473D1*
X7996Y7411D1*
X8023Y7341D1*
X8034Y7256D1*
X8026Y7189D1*
X8071Y7211D1*
X8052Y7306D1*
Y8821D1*
X8061Y8882D1*
X8052Y8892D1*
X7706D1*
Y7774D1*
X6300D1*
Y8132D1*
X5543D1*
X5541Y7774D1*
X5083D1*
Y5479D1*
X5541D1*
Y5120D1*
X6298D1*
X6300Y5479D1*
X7706D1*
Y4272D1*
X9379D1*
X9319Y4290D1*
X9250Y4321D1*
X9187Y4361D1*
X9129Y4409D1*
X9079Y4464D1*
X9037Y4526D1*
X9003Y4593D1*
X8980Y4665D1*
X8966Y4738D1*
X8962Y4813D1*
X8969Y4888D1*
X8986Y4961D1*
X9012Y5031D1*
X9048Y5096D1*
X9093Y5157D1*
X9146Y5210D1*
X9205Y5256D1*
X9289Y5301D1*
X9187Y5361D1*
X9129Y5409D1*
X9079Y5464D1*
X9037Y5526D1*
X9007Y5583D1*
X8973Y5517D1*
X8929Y5456D1*
X8878Y5401D1*
X8819Y5354D1*
X8755Y5316D1*
X8686Y5286D1*
X8614Y5267D1*
X8540Y5257D1*
X8465Y5258D1*
X8390Y5269D1*
X8319Y5290D1*
X8250Y5321D1*
X8187Y5361D1*
X8129Y5409D1*
X8079Y5464D1*
X8037Y5526D1*
X8003Y5593D1*
X7980Y5665D1*
X7966Y5738D1*
X7962Y5813D1*
X7969Y5888D1*
X7986Y5961D1*
X8012Y6031D1*
X8048Y6096D1*
X8093Y6157D1*
X8146Y6210D1*
X8205Y6256D1*
X8270Y6293D1*
X8339Y6321D1*
X8412Y6339D1*
X8487Y6347D1*
X8562Y6345D1*
X8635Y6332D1*
X8707Y6310D1*
X8775Y6278D1*
X8837Y6237D1*
X8894Y6187D1*
X8943Y6131D1*
X8984Y6068D1*
X9007Y6019D1*
X9048Y6096D1*
X9093Y6157D1*
X9146Y6210D1*
X9205Y6256D1*
X9270Y6293D1*
X9339Y6321D1*
X9412Y6339D1*
X9487Y6347D1*
X9562Y6345D1*
X9635Y6332D1*
X9707Y6310D1*
X9775Y6278D1*
X9837Y6237D1*
X9894Y6187D1*
X9943Y6131D1*
X9984Y6068D1*
X10007Y6019D1*
X10048Y6096D1*
X10093Y6157D1*
X10146Y6210D1*
X10205Y6256D1*
X10270Y6293D1*
X10339Y6321D1*
X10412Y6339D1*
X10487Y6347D1*
X10562Y6345D1*
X10635Y6332D1*
X10707Y6310D1*
X10775Y6278D1*
X10837Y6237D1*
X10894Y6187D1*
X10943Y6131D1*
X10984Y6068D1*
X11007Y6019D1*
X11048Y6096D1*
X11093Y6157D1*
X11146Y6210D1*
X11205Y6256D1*
X11270Y6293D1*
X11339Y6321D1*
X11412Y6339D1*
X11487Y6347D1*
X11562Y6345D1*
X11635Y6332D1*
X11707Y6310D1*
X11775Y6278D1*
X11837Y6237D1*
X11894Y6187D1*
X11962Y6101D1*
Y6348D1*
X13053D1*
Y5256D1*
X12807D1*
X12894Y5187D1*
X12943Y5131D1*
X12984Y5068D1*
X13016Y5000D1*
X13038Y4929D1*
X13053Y4802D1*
X13048Y4727D1*
X13033Y4654D1*
X13007Y4583D1*
X12973Y4517D1*
X12929Y4456D1*
X12878Y4401D1*
X12819Y4354D1*
X12755Y4316D1*
X12686Y4286D1*
X12634Y4272D1*
X16631D1*
X16627Y10466D1*
X16596Y10442D1*
Y8890D1*
X16586Y8816D1*
X16557Y8746D1*
X16512Y8687D1*
X16161Y8336D1*
X16101Y8291D1*
X16032Y8262D1*
X15958Y8252D1*
X14405D1*
Y7659D1*
X13904Y7662D1*
X13758Y7659D1*
X13707Y7662D1*
X13561Y7659D1*
X13510Y7662D1*
X13364Y7659D1*
X13314Y7662D1*
X13167Y7659D1*
X13117Y7662D1*
X12970Y7659D1*
X12920Y7662D1*
X12774Y7659D1*
X12723Y7662D1*
X12577Y7659D1*
X12526Y7662D1*
X12380Y7659D1*
X12329Y7662D1*
X12183Y7659D1*
X12143D1*
X15389Y10464D2*
X15387Y10219D1*
X15389Y10325D1*
Y8841D1*
X15429Y8824D1*
X15840D1*
X16023Y9007D1*
X16024Y10467D1*
X15521Y10465D1*
X15388D1*
X15389Y10022D1*
Y9825D1*
Y9628D1*
Y9431D1*
Y9234D1*
Y9037D1*
Y8841D1*
X14220Y13801D2*
X13904Y13804D1*
X13758Y13801D1*
X13707Y13804D1*
X13561Y13801D1*
X13510Y13804D1*
X13364Y13801D1*
X13314Y13804D1*
X13167Y13801D1*
X13117Y13804D1*
X13120Y13801D1*
X13113D1*
X13104Y13743D1*
X13079Y13672D1*
X13040Y13609D1*
X12977Y13549D1*
X14027Y13553D1*
X14056Y13622D1*
X14101Y13681D1*
X14221Y13800D1*
X13149Y13801D1*
X13611Y14853D2*
X14405D1*
Y13904D1*
X15194D1*
X15195Y14407D1*
Y14865D1*
X13612D1*
X13614Y14853D1*
X13814Y14851D1*
X13960Y14853D1*
X14011Y14851D1*
X14157Y14853D1*
X14208Y14851D1*
X9959Y13801D2*
X9770Y13804D1*
X9802Y13801D1*
X9247D1*
X9245Y13368D1*
X9247Y13222D1*
X9245Y13171D1*
X9247Y13025D1*
X9245Y12974D1*
X9247Y12828D1*
X9245Y12778D1*
X9247Y12631D1*
X9245Y12581D1*
X9247Y12434D1*
X9245Y12384D1*
X9247Y12238D1*
X9245Y12187D1*
X9247Y12041D1*
X9245Y11990D1*
X9247Y11977D1*
Y11109D1*
X9717Y11108D1*
X9795Y11162D1*
X9865Y11188D1*
X9939Y11198D1*
X10014Y11192D1*
X10085Y11169D1*
X10149Y11131D1*
X10204Y11079D1*
X10245Y11017D1*
X10272Y10947D1*
X10283Y10862D1*
X10275Y10788D1*
X10250Y10717D1*
X10211Y10654D1*
X10158Y10601D1*
X10095Y10561D1*
X10024Y10536D1*
X9950Y10527D1*
X9875Y10534D1*
X9805Y10558D1*
X9741Y10598D1*
X9722Y10615D1*
X9247Y10616D1*
X9245Y10415D1*
X9247Y10269D1*
X9245Y10219D1*
X9247Y10126D1*
X9921Y10124D1*
X11830D1*
X11872Y10248D1*
X11911Y10313D1*
X11962Y10367D1*
X12025Y10408D1*
X12095Y10434D1*
X12169Y10444D1*
X12244Y10438D1*
X12315Y10415D1*
X12379Y10376D1*
X12434Y10325D1*
X12475Y10263D1*
X12502Y10193D1*
X12513Y10108D1*
X12505Y10034D1*
X12480Y9963D1*
X12441Y9900D1*
X12422Y9881D1*
X12423Y8793D1*
X12411Y8718D1*
X12432Y8711D1*
X12633Y8709D1*
X12779Y8711D1*
X12830Y8709D1*
X12976Y8711D1*
X13027Y8709D1*
X13173Y8711D1*
X13224Y8709D1*
X13370Y8711D1*
X13420Y8709D1*
X13567Y8711D1*
X13617Y8709D1*
X13764Y8711D1*
X13814Y8709D1*
X13822Y8711D1*
X13819Y8744D1*
X13826Y8819D1*
X13849Y8890D1*
X13870Y8924D1*
X13868Y10925D1*
Y11361D1*
X13878Y11435D1*
X13907Y11504D1*
X13952Y11563D1*
X14067Y11678D1*
X14068Y12979D1*
X13154Y12977D1*
X12026D1*
X11952Y12987D1*
X11883Y13016D1*
X11824Y13061D1*
X11590Y13295D1*
X11545Y13354D1*
X11516Y13423D1*
X11506Y13497D1*
Y13800D1*
X11148Y13801D1*
X10951D1*
X10755D1*
X10693D1*
Y13587D1*
X10746Y13512D1*
X10772Y13442D1*
X10783Y13357D1*
X10775Y13283D1*
X10750Y13212D1*
X10711Y13149D1*
X10658Y13095D1*
X10595Y13055D1*
X10524Y13030D1*
X10450Y13021D1*
X10376Y13029D1*
X10305Y13053D1*
X10241Y13092D1*
X10187Y13144D1*
X10147Y13207D1*
X10127Y13262D1*
X10075Y13283D1*
X10011Y13322D1*
X9957Y13374D1*
X9917Y13437D1*
X9891Y13508D1*
X9882Y13582D1*
X9889Y13656D1*
X9912Y13727D1*
X9959Y13800D1*
X9573Y13801D1*
X9377D1*
X9247D1*
Y11506D1*
Y11205D1*
X12207Y5256D2*
X11962D1*
Y5503D1*
X11929Y5456D1*
X11878Y5401D1*
X11819Y5354D1*
X11723Y5302D1*
X11775Y5278D1*
X11837Y5237D1*
X11894Y5187D1*
X11943Y5131D1*
X11984Y5068D1*
X12007Y5019D1*
X12048Y5096D1*
X12093Y5157D1*
X12146Y5210D1*
X12207Y5257D1*
X12379Y4272D2*
X12319Y4290D1*
X12250Y4321D1*
X12187Y4361D1*
X12129Y4409D1*
X12079Y4464D1*
X12037Y4526D1*
X12007Y4583D1*
X11973Y4517D1*
X11929Y4456D1*
X11878Y4401D1*
X11819Y4354D1*
X11755Y4316D1*
X11686Y4286D1*
X11634Y4272D1*
X12379D1*
X11291Y5303D2*
X11250Y5321D1*
X11187Y5361D1*
X11129Y5409D1*
X11079Y5464D1*
X11037Y5526D1*
X11007Y5583D1*
X10973Y5517D1*
X10929Y5456D1*
X10878Y5401D1*
X10819Y5354D1*
X10723Y5302D1*
X10775Y5278D1*
X10837Y5237D1*
X10894Y5187D1*
X10943Y5131D1*
X10984Y5068D1*
X11007Y5019D1*
X11048Y5096D1*
X11093Y5157D1*
X11146Y5210D1*
X11205Y5256D1*
X11289Y5301D1*
X11379Y4272D2*
X11319Y4290D1*
X11250Y4321D1*
X11187Y4361D1*
X11129Y4409D1*
X11079Y4464D1*
X11037Y4526D1*
X11007Y4583D1*
X10973Y4517D1*
X10929Y4456D1*
X10878Y4401D1*
X10819Y4354D1*
X10755Y4316D1*
X10686Y4286D1*
X10634Y4272D1*
X11381D1*
X10291Y5303D2*
X10250Y5321D1*
X10187Y5361D1*
X10129Y5409D1*
X10079Y5464D1*
X10037Y5526D1*
X10007Y5583D1*
X9973Y5517D1*
X9929Y5456D1*
X9878Y5401D1*
X9819Y5354D1*
X9723Y5302D1*
X9775Y5278D1*
X9837Y5237D1*
X9894Y5187D1*
X9943Y5131D1*
X9984Y5068D1*
X10007Y5019D1*
X10048Y5096D1*
X10093Y5157D1*
X10146Y5210D1*
X10205Y5256D1*
X10289Y5301D1*
X10379Y4272D2*
X10319Y4290D1*
X10250Y4321D1*
X10187Y4361D1*
X10129Y4409D1*
X10079Y4464D1*
X10037Y4526D1*
X10007Y4583D1*
X9973Y4517D1*
X9929Y4456D1*
X9878Y4401D1*
X9819Y4354D1*
X9755Y4316D1*
X9686Y4286D1*
X9634Y4272D1*
X10377D1*
X9210Y15777D2*
X9990Y15774D1*
X9999Y15777D1*
X10488D1*
Y15799D1*
X10636D1*
X10634Y15979D1*
X10454D1*
Y16795D1*
X10470D1*
Y17441D1*
X11315D1*
X11313Y17567D1*
X11133Y17569D1*
X11169Y17567D1*
X10464D1*
Y17728D1*
X9863Y17730D1*
X9852Y17727D1*
Y16305D1*
X7384Y16303D1*
Y15862D1*
X7484D1*
X7558Y15853D1*
X7627Y15824D1*
X7686Y15779D1*
X7870Y15595D1*
X7915Y15536D1*
X7944Y15467D1*
X7953Y15393D1*
Y15222D1*
X8107Y15069D1*
X9133Y15068D1*
X9135Y15486D1*
Y15777D1*
X9210D1*
X11309Y15981D2*
X11127Y15979D1*
Y15799D1*
X11992D1*
X11993Y16628D1*
X11978Y16615D1*
Y15979D1*
X11138D1*
X5860Y15685D2*
Y16305D1*
X5136Y16303D1*
X5138Y15944D1*
Y14938D1*
X5181Y14846D1*
X5190Y14774D1*
Y10000D1*
X5735Y10001D1*
X5799Y10039D1*
X5818Y10069D1*
Y10229D1*
X6496D1*
Y10147D1*
X6602Y10141D1*
X6673Y10118D1*
X6737Y10080D1*
X6792Y10028D1*
X6833Y9966D1*
X6860Y9896D1*
X6871Y9811D1*
X6863Y9737D1*
X6838Y9666D1*
X6799Y9603D1*
X6746Y9550D1*
X6683Y9510D1*
X6612Y9484D1*
X6538Y9476D1*
X6494Y9480D1*
X6496Y9394D1*
X6002D1*
X6001Y9186D1*
X5146Y9188D1*
X5182Y9186D1*
X4477D1*
Y10001D1*
X4620D1*
X4618Y11019D1*
Y14663D1*
X4604Y14684D1*
X4576Y14754D1*
X4566Y14826D1*
Y17027D1*
X4327Y17028D1*
Y18159D1*
X4530D1*
X4532Y18569D1*
Y18698D1*
X4391Y18699D1*
Y19515D1*
X4534D1*
X4532Y19626D1*
X4542Y19700D1*
X4571Y19769D1*
X4634Y19847D1*
X4492Y19852D1*
X4376D1*
Y20943D1*
X5114D1*
X5115Y21977D1*
X5134Y22070D1*
X5070Y22089D1*
X4273D1*
X4272Y8981D1*
X4509Y8983D1*
X5541D1*
Y8624D1*
X6298D1*
X6300Y8983D1*
X7507D1*
Y9747D1*
X7480Y9754D1*
X7397Y9800D1*
X7240Y9955D1*
X7196Y10015D1*
X7169Y10106D1*
X7168Y10300D1*
X6695Y10298D1*
X6665Y10300D1*
X6192Y10299D1*
Y11135D1*
X6870D1*
Y11114D1*
X7169D1*
X7168Y11262D1*
X7180Y11336D1*
X7225Y11420D1*
X7380Y11576D1*
X7459Y11629D1*
X7507Y11644D1*
Y12499D1*
X7964D1*
X7966Y12609D1*
X7642Y12606D1*
X7501D1*
Y12787D1*
X6318Y12788D1*
X6302Y12705D1*
X6298Y12584D1*
X6280Y12512D1*
X6250Y12443D1*
X6210Y12380D1*
X6160Y12324D1*
X6101Y12277D1*
X6036Y12240D1*
X5966Y12215D1*
X5892Y12201D1*
X5817Y12199D1*
X5743Y12209D1*
X5671Y12231D1*
X5604Y12265D1*
X5544Y12309D1*
X5491Y12362D1*
X5447Y12423D1*
X5414Y12490D1*
X5393Y12562D1*
X5383Y12636D1*
X5385Y12711D1*
X5400Y12784D1*
X5426Y12855D1*
X5463Y12920D1*
X5510Y12978D1*
X5566Y13028D1*
X5630Y13068D1*
X5699Y13097D1*
X5771Y13114D1*
X5846Y13120D1*
X5946Y13107D1*
X6044Y13208D1*
X6104Y13252D1*
X6195Y13279D1*
X7500Y13280D1*
X7501Y13420D1*
X7453Y13427D1*
X7384Y13456D1*
X7325Y13501D1*
X7280Y13561D1*
X7251Y13630D1*
X7242Y13703D1*
Y14417D1*
X7253Y14494D1*
X7243Y14509D1*
X6582D1*
Y15291D1*
X6531Y15264D1*
Y14509D1*
X5479D1*
Y15639D1*
X5810D1*
X5861Y15689D1*
X6735Y16348D2*
X7008Y16350D1*
Y18512D1*
X6802Y18304D1*
X6742Y18259D1*
X6673Y18230D1*
X6599Y18220D1*
X6546D1*
X6544Y18098D1*
X6481D1*
Y17119D1*
X6544D1*
Y16896D1*
X6651Y16788D1*
X6696Y16729D1*
X6725Y16660D1*
X6735Y16586D1*
Y16349D1*
X13709Y7510D2*
X14489D1*
Y6695D1*
X14397Y6691D1*
X14389Y6617D1*
X14364Y6546D1*
X14325Y6482D1*
X14272Y6429D1*
X14209Y6389D1*
X14138Y6364D1*
X14064Y6355D1*
X13990Y6363D1*
X13919Y6387D1*
X13855Y6426D1*
X13801Y6478D1*
X13761Y6541D1*
X13735Y6611D1*
X13726Y6693D1*
X13610Y6695D1*
X12965D1*
Y7510D1*
X13820D1*
X5914Y18914D2*
X6544D1*
Y18855D1*
X7148Y19459D1*
X7147Y19900D1*
X7028Y19862D1*
X6954Y19853D1*
X6879Y19854D1*
X6804Y19865D1*
X6753Y19880D1*
X6516Y19644D1*
X6456Y19600D1*
X6364Y19573D1*
X5501Y19572D1*
X5427Y19583D1*
X5344Y19629D1*
X5207Y19764D1*
X5198Y19655D1*
X5169Y19586D1*
X5112Y19516D1*
X5600Y19515D1*
X5915D1*
Y18914D1*
X5431Y18098D2*
X5380D1*
X5378Y17259D1*
Y17121D1*
X5427Y17119D1*
X5429Y17223D1*
Y18099D1*
X15811Y21096D2*
X16579D1*
Y20419D1*
X16454D1*
X16447Y20354D1*
X16423Y20283D1*
X16383Y20220D1*
X16330Y20167D1*
X16267Y20127D1*
X16197Y20101D1*
X16122Y20093D1*
X16048Y20100D1*
X15977Y20124D1*
X15913Y20163D1*
X15860Y20216D1*
X15813Y20294D1*
Y20030D1*
X16380Y20028D1*
Y19772D1*
X16529Y19626D1*
X16575Y19566D1*
X16603Y19497D1*
X16613Y19424D1*
Y17853D1*
X16600Y17767D1*
X16622D1*
X16620Y22085D1*
X15787Y22086D1*
X15812Y22000D1*
X15813Y21844D1*
X16579Y21845D1*
Y21167D1*
X15813D1*
Y21098D1*
X15182Y21471D2*
X15323D1*
X15321Y21856D1*
Y21872D1*
X14998Y21871D1*
X15000Y21563D1*
X15182D1*
Y21472D1*
X15387Y17767D2*
X15474D1*
X15426Y17813D1*
X15381Y17873D1*
X15352Y17942D1*
X15342Y18015D1*
X15341Y18142D1*
Y17887D1*
X15179D1*
Y17628D1*
X15295Y17630D1*
Y16814D1*
X15115D1*
X15113Y15388D1*
X15112Y15368D1*
X15157Y15356D1*
X15469D1*
X15467Y15454D1*
X15306Y15456D1*
X15308Y16311D1*
X15306Y16275D1*
Y16980D1*
X15313D1*
X15312Y17767D1*
X15387D1*
X15990Y17568D2*
Y16982D1*
X16062Y16980D1*
X16060Y17232D1*
Y17567D1*
X15992D1*
X16623Y16932D2*
X16121D1*
X16119Y16125D1*
X16121Y16161D1*
Y15456D1*
X15959D1*
Y15250D1*
X15941Y15157D1*
X15949Y15120D1*
X16006Y15122D1*
X16064Y15185D1*
X16086Y15245D1*
X16124Y15309D1*
X16176Y15363D1*
X16239Y15404D1*
X16309Y15430D1*
X16383Y15440D1*
X16457Y15434D1*
X16529Y15411D1*
X16593Y15373D1*
X16625Y15342D1*
X16623Y16497D1*
Y16931D1*
X13183Y18334D2*
X13786D1*
Y18102D1*
X13856Y18033D1*
Y18334D1*
X14525Y18337D1*
X14528Y18742D1*
X14525Y18706D1*
Y19394D1*
X14067Y19393D1*
Y19241D1*
X14160Y19240D1*
Y18405D1*
X13482D1*
Y19240D1*
X13574D1*
X13576Y19635D1*
X13521Y19648D1*
X13214D1*
X13140Y19660D1*
X13057Y19705D1*
X12900Y19860D1*
X12847Y19939D1*
X12829Y19982D1*
X12578D1*
X12535Y19924D1*
X12461Y19849D1*
X12784Y19851D1*
X12809D1*
Y19173D1*
X11974D1*
Y19712D1*
X11525D1*
X11660Y19579D1*
X11713Y19500D1*
X11743Y19477D1*
X11904D1*
Y18799D1*
X11292D1*
X11291Y18695D1*
X10436Y18697D1*
X10472Y18695D1*
X10015D1*
X9991Y18669D1*
X9992Y18219D1*
X10465Y18220D1*
X10464Y18382D1*
X11319Y18380D1*
X11283Y18382D1*
X11988D1*
Y17567D1*
X11808D1*
X11807Y17442D1*
X11994Y17441D1*
Y17280D1*
X12098Y17279D1*
X12172Y17268D1*
X12256Y17223D1*
X12360Y17120D1*
X12359Y17464D1*
X12218Y17605D1*
X12173Y17666D1*
X12147Y17757D1*
X12146Y18424D1*
X11974Y18425D1*
Y19103D1*
X12809D1*
Y18425D1*
X12638D1*
X12637Y17880D1*
X12779Y17740D1*
X12823Y17680D1*
X12850Y17589D1*
X12851Y16828D1*
X13012Y16830D1*
Y15978D1*
X13091Y15998D1*
X13355Y16001D1*
X13357Y16181D1*
X13355Y16145D1*
Y16850D1*
X13516D1*
X13517Y17498D1*
X13108Y17499D1*
Y18334D1*
X13183D1*
X14534Y17888D2*
X14536Y17630D1*
X14686D1*
X14687Y17885D1*
X14536Y17887D1*
X5459Y11135D2*
X6122D1*
Y10299D1*
X5444D1*
Y11135D1*
X5459D1*
X15959Y12034D2*
X15389D1*
X15387Y11990D1*
X15389Y11994D1*
Y11987D1*
X15456Y11989D1*
X15963D1*
X15961Y12032D1*
X15947Y11989D1*
X15962D1*
Y12034D1*
X15869Y12036D1*
X14168Y16181D2*
X14170Y16031D1*
Y15494D1*
X14510Y15496D1*
X14620D1*
X14622Y16365D1*
X14620Y16814D1*
X14440Y16817D1*
X14431Y16814D1*
X14170D1*
X14168Y15995D1*
X14754Y20203D2*
X14752Y20063D1*
X14754Y20098D1*
Y19801D1*
X14781Y19818D1*
X14851Y19844D1*
X14925Y19855D1*
X15000Y19848D1*
X15089Y19814D1*
Y20204D1*
X14754D1*
Y20098D1*
X13842Y21563D2*
X14507D1*
X14508Y21730D1*
X13843Y21731D1*
X13844Y21561D1*
X8093Y19880D2*
X8028Y19862D1*
X7954Y19853D1*
X7879Y19854D1*
X7804Y19865D1*
X7718Y19893D1*
X7719Y19403D1*
X7795Y19374D1*
X8843D1*
X8805Y19465D1*
X8795Y19539D1*
X8802Y19614D1*
X8826Y19685D1*
X8842Y19711D1*
X8361Y19712D1*
X8287Y19723D1*
X8204Y19769D1*
X8093Y19879D1*
X16450Y13376D2*
X16625D1*
X16624Y14863D1*
X16614Y14820D1*
X16612Y14266D1*
X16614Y14301D1*
Y13596D1*
X16452D1*
X16451Y13388D1*
X6300Y4272D2*
Y4628D1*
X5543D1*
X5541Y4272D1*
X6299D1*
X4591Y7774D2*
X4273D1*
X4272Y5479D1*
X4591D1*
X4592Y7774D1*
X8721Y11847D2*
D15*
X9247D1*
X8721Y11453D2*
X9247D1*
X8721Y11256D2*
X9247D1*
X8721Y11059D2*
X9247D1*
X10231Y15776D2*
Y15369D1*
X11551Y16387D2*
Y15980D1*
Y16387D2*
X11978D1*
X11585Y15799D2*
Y15392D1*
X15195Y14649D2*
X15603D1*
X6956Y16348D2*
Y15940D1*
X7384D1*
X15639Y11989D2*
Y11562D1*
X13392Y7510D2*
Y6695D1*
X12965Y7102D2*
X13392D1*
X11699Y6781D2*
Y6373D1*
Y6781D2*
X12126D1*
X11717Y7379D2*
X12145D1*
X8430Y17609D2*
Y16305D1*
X7009Y17609D2*
X9851D1*
X5429Y17594D2*
X6480D1*
X7108Y15074D2*
Y14509D1*
X6582Y15074D2*
X7108D1*
X16161Y21844D2*
Y21167D1*
Y21506D2*
X16578D1*
X16399Y17350D2*
Y16932D1*
X16061Y17350D2*
X16399D1*
X14195Y18334D2*
Y17917D1*
X14534D1*
X12392Y19512D2*
Y19173D1*
X11974Y19512D2*
X12809D1*
X5783Y11134D2*
Y10300D1*
X5445Y10717D2*
X6122D1*
X5488Y19514D2*
Y19107D1*
X5915D1*
X14199Y17222D2*
Y16815D1*
X7914Y9319D2*
Y8892D1*
X7507Y9319D2*
X7914D1*
X10898Y17441D2*
Y17034D1*
X10470D2*
X10898D1*
X12732Y20389D2*
Y19982D1*
X7042Y5996D2*
Y5687D1*
X6379Y5996D2*
X7706D1*
D17*
X8721Y13618D3*
Y13422D3*
Y13225D3*
Y13028D3*
Y12831D3*
Y12634D3*
Y12437D3*
Y12240D3*
Y12044D3*
Y11847D3*
Y11650D3*
Y11453D3*
Y11256D3*
Y11059D3*
Y10862D3*
Y10666D3*
Y10469D3*
Y10272D3*
Y10075D3*
Y9878D3*
Y9681D3*
Y9485D3*
Y9288D3*
Y9091D3*
Y8894D3*
D18*
X9430Y8185D3*
X9627D3*
X9824D3*
X10021D3*
X10217D3*
X10414D3*
X10611D3*
X10808D3*
X11005D3*
X11202D3*
X11399D3*
X11595D3*
X11792D3*
X11989D3*
X12186D3*
X12383D3*
X12580D3*
X12776D3*
X12973D3*
X13170D3*
X13367D3*
X13564D3*
X13761D3*
X13958D3*
X14154D3*
D17*
X14863Y8894D3*
Y9091D3*
Y9288D3*
Y9485D3*
Y9681D3*
Y9878D3*
Y10075D3*
Y10272D3*
Y10469D3*
Y10666D3*
Y10862D3*
Y11059D3*
Y11256D3*
Y11453D3*
Y11650D3*
Y11847D3*
Y12044D3*
Y12240D3*
Y12437D3*
Y12634D3*
Y12831D3*
Y13028D3*
Y13225D3*
Y13422D3*
Y13618D3*
D18*
X14154Y14327D3*
X13958D3*
X13761D3*
X13564D3*
X13367D3*
X13170D3*
X12973D3*
X12776D3*
X12580D3*
X12383D3*
X12186D3*
X11989D3*
X11792D3*
X11595D3*
X11399D3*
X11202D3*
X11005D3*
X10808D3*
X10611D3*
X10414D3*
X10217D3*
X10021D3*
X9824D3*
X9627D3*
X9430D3*
D19*
X12508Y5802D3*
D20*
Y4802D3*
X11508Y5802D3*
Y4802D3*
X10508Y5802D3*
Y4802D3*
X9508Y5802D3*
Y4802D3*
X8508Y5802D3*
Y4802D3*
D21*
X9562Y15369D3*
X10231D3*
X10881Y16387D3*
X11551D3*
X10916Y15392D3*
X11585D3*
D22*
X15603Y13980D3*
Y14649D3*
D21*
X6287Y15940D3*
X6956D3*
D22*
X16310Y10892D3*
Y11562D3*
X15639Y10892D3*
Y11562D3*
D21*
X14061Y7102D3*
X13392D3*
X11030Y6781D3*
X11699D3*
X11048Y7379D3*
X11717D3*
D22*
X7909Y13034D3*
Y13703D3*
D23*
X5843Y12659D3*
D24*
Y13659D3*
D26*
X5792Y18506D3*
Y16711D3*
D27*
X8430Y17609D3*
D28*
X5955Y17594D3*
X4852D3*
X7108Y15074D3*
X6005D3*
D29*
X16161Y20758D3*
Y21506D3*
X15255Y21132D3*
D30*
X15651Y17350D3*
X16399D3*
X16025Y18255D3*
X13447Y17917D3*
X14195D3*
X13821Y18822D3*
D29*
X12392Y18764D3*
Y19512D3*
X11486Y19138D3*
D30*
X6531Y10717D3*
X5783D3*
X6157Y9811D3*
D21*
X15627Y12441D3*
X16296D3*
D22*
X15713Y15884D3*
Y16553D3*
X13762Y15753D3*
Y16423D3*
X12605Y15733D3*
Y16402D3*
D21*
X7093Y10706D3*
X7762D3*
X4904Y9594D3*
X5574D3*
D22*
X15973Y19600D3*
Y18931D3*
X14346Y20490D3*
Y19821D3*
D21*
X10194Y19103D3*
X10863D3*
X14085Y21156D3*
X14754D3*
D19*
X4922Y20398D3*
D20*
Y21398D3*
X5922Y20398D3*
Y21398D3*
X6922Y20398D3*
Y21398D3*
X7922Y20398D3*
Y21398D3*
X8922Y20398D3*
Y21398D3*
X9922Y20398D3*
Y21398D3*
X10922Y20398D3*
Y21398D3*
X11922Y20398D3*
Y21398D3*
D21*
X5488Y19107D3*
X4818D3*
X16279Y12969D3*
X15610D3*
D22*
X16206Y14024D3*
Y14693D3*
D21*
X14199Y17222D3*
X14868D3*
D22*
X14933Y18315D3*
Y18984D3*
X7914Y9319D3*
Y9989D3*
Y11403D3*
Y12072D3*
D21*
X10898Y17034D3*
X11567D3*
X11561Y17974D3*
X10891D3*
X12732Y20389D3*
X13401D3*
X13417Y21334D3*
X12748D3*
D32*
X7042Y7256D3*
Y6941D3*
Y6626D3*
Y6311D3*
Y5996D3*
D33*
X7003Y8378D3*
Y4874D3*
X4837Y8378D3*
Y4874D3*
M02*
