G04 DipTrace 2.4.0.2*
%INTopMask.gbr*%
%MOIN*%
%ADD35C,0.0354*%
%ADD41R,0.1063X0.0866*%
%ADD43R,0.0984X0.0276*%
%ADD45R,0.0335X0.0492*%
%ADD47R,0.0492X0.0335*%
%ADD49R,0.0709X0.0787*%
%ADD51R,0.25X0.2264*%
%ADD53R,0.1161X0.0472*%
%ADD55R,0.0579X0.0579*%
%ADD57C,0.0579*%
%ADD59R,0.0472X0.0512*%
%ADD61R,0.0512X0.0472*%
%ADD63C,0.0748*%
%ADD65R,0.0748X0.0748*%
%ADD67R,0.0157X0.0709*%
%ADD69R,0.0709X0.0157*%
%FSLAX44Y44*%
G04*
G70*
G90*
G75*
G01*
%LNTopMask*%
%LPD*%
D69*
X8721Y13618D3*
Y13422D3*
Y13225D3*
Y13028D3*
Y12831D3*
Y12634D3*
Y12437D3*
Y12240D3*
Y12044D3*
Y11847D3*
Y11650D3*
Y11453D3*
Y11256D3*
Y11059D3*
Y10862D3*
Y10666D3*
Y10469D3*
Y10272D3*
Y10075D3*
Y9878D3*
Y9681D3*
Y9485D3*
Y9288D3*
Y9091D3*
Y8894D3*
D67*
X9430Y8185D3*
X9627D3*
X9824D3*
X10021D3*
X10217D3*
X10414D3*
X10611D3*
X10808D3*
X11005D3*
X11202D3*
X11399D3*
X11595D3*
X11792D3*
X11989D3*
X12186D3*
X12383D3*
X12580D3*
X12776D3*
X12973D3*
X13170D3*
X13367D3*
X13564D3*
X13761D3*
X13958D3*
X14154D3*
D69*
X14863Y8894D3*
Y9091D3*
Y9288D3*
Y9485D3*
Y9681D3*
Y9878D3*
Y10075D3*
Y10272D3*
Y10469D3*
Y10666D3*
Y10862D3*
Y11059D3*
Y11256D3*
Y11453D3*
Y11650D3*
Y11847D3*
Y12044D3*
Y12240D3*
Y12437D3*
Y12634D3*
Y12831D3*
Y13028D3*
Y13225D3*
Y13422D3*
Y13618D3*
D67*
X14154Y14327D3*
X13958D3*
X13761D3*
X13564D3*
X13367D3*
X13170D3*
X12973D3*
X12776D3*
X12580D3*
X12383D3*
X12186D3*
X11989D3*
X11792D3*
X11595D3*
X11399D3*
X11202D3*
X11005D3*
X10808D3*
X10611D3*
X10414D3*
X10217D3*
X10021D3*
X9824D3*
X9627D3*
X9430D3*
D65*
X12508Y5802D3*
D63*
Y4802D3*
X11508Y5802D3*
Y4802D3*
X10508Y5802D3*
Y4802D3*
X9508Y5802D3*
Y4802D3*
X8508Y5802D3*
Y4802D3*
D61*
X9562Y15369D3*
X10231D3*
X10881Y16387D3*
X11551D3*
X10916Y15392D3*
X11585D3*
D59*
X15603Y13980D3*
Y14649D3*
D61*
X6287Y15940D3*
X6956D3*
D59*
X16310Y10892D3*
Y11562D3*
X15639Y10892D3*
Y11562D3*
D61*
X14061Y7102D3*
X13392D3*
X11030Y6781D3*
X11699D3*
X11048Y7379D3*
X11717D3*
D59*
X7909Y13034D3*
Y13703D3*
D57*
X5843Y12659D3*
D55*
Y13659D3*
D53*
X5792Y18506D3*
Y16711D3*
D51*
X8430Y17609D3*
D49*
X5955Y17594D3*
X4852D3*
X7108Y15074D3*
X6005D3*
D47*
X16161Y20758D3*
Y21506D3*
X15255Y21132D3*
D45*
X15651Y17350D3*
X16399D3*
X16025Y18255D3*
X13447Y17917D3*
X14195D3*
X13821Y18822D3*
D47*
X12392Y18764D3*
Y19512D3*
X11486Y19138D3*
D45*
X6531Y10717D3*
X5783D3*
X6157Y9811D3*
D61*
X15627Y12441D3*
X16296D3*
D59*
X15713Y15884D3*
Y16553D3*
X13762Y15753D3*
Y16423D3*
X12605Y15733D3*
Y16402D3*
D61*
X7093Y10706D3*
X7762D3*
X4904Y9594D3*
X5574D3*
D59*
X15973Y19600D3*
Y18931D3*
X14346Y20490D3*
Y19821D3*
D61*
X10194Y19103D3*
X10863D3*
X14085Y21156D3*
X14754D3*
D65*
X4922Y20398D3*
D63*
Y21398D3*
X5922Y20398D3*
Y21398D3*
X6922Y20398D3*
Y21398D3*
X7922Y20398D3*
Y21398D3*
X8922Y20398D3*
Y21398D3*
X9922Y20398D3*
Y21398D3*
X10922Y20398D3*
Y21398D3*
X11922Y20398D3*
Y21398D3*
D61*
X5488Y19107D3*
X4818D3*
X16279Y12969D3*
X15610D3*
D59*
X16206Y14024D3*
Y14693D3*
D61*
X14199Y17222D3*
X14868D3*
D59*
X14933Y18315D3*
Y18984D3*
X7914Y9319D3*
Y9989D3*
Y11403D3*
Y12072D3*
D61*
X10898Y17034D3*
X11567D3*
X11561Y17974D3*
X10891D3*
X12732Y20389D3*
X13401D3*
X13417Y21334D3*
X12748D3*
D43*
X7042Y7256D3*
Y6941D3*
Y6626D3*
Y6311D3*
Y5996D3*
D41*
X7003Y8378D3*
Y4874D3*
X4837Y8378D3*
Y4874D3*
D35*
X6019Y7492D3*
Y5760D3*
M02*
