G04 DipTrace 2.4.0.2*
%INTopSilk.gbr*%
%MOIN*%
%ADD10C,0.0098*%
%ADD16O,0.0179X0.0184*%
%ADD25C,0.0154*%
%ADD31C,0.0197*%
%ADD71C,0.0046*%
%FSLAX44Y44*%
G04*
G70*
G90*
G75*
G01*
%LNTopSilk*%
%LPD*%
X9292Y13756D2*
D10*
X14292D1*
Y8756D1*
X9292D1*
Y13756D1*
G36*
X9253Y13796D2*
Y13320D1*
X9729Y13796D1*
X9253D1*
G37*
D16*
X8703Y13852D3*
X13008Y4302D2*
D10*
X8008D1*
Y6302D1*
X13008D1*
Y4302D1*
X5094Y14159D2*
X6592D1*
X5091Y14157D2*
G03X6595Y14157I752J-998D01*
G01*
X6501Y18908D2*
Y16309D1*
X9257Y18908D2*
X6501D1*
X9257D2*
Y18829D1*
Y16309D2*
X6501D1*
X9257D2*
Y16388D1*
D25*
X5352Y18898D3*
X5447Y17908D2*
D10*
Y17279D1*
X5521Y17908D2*
Y17279D1*
Y17908D2*
X5286D1*
X5521Y17279D2*
X5286D1*
X6600Y15388D2*
Y14759D1*
X6674Y15388D2*
Y14759D1*
Y15388D2*
X6439D1*
X6674Y14759D2*
X6439D1*
D25*
X16308Y20449D3*
X15807Y20541D2*
D10*
Y21722D1*
X15610D1*
Y20541D1*
X15807D1*
D25*
X15343Y17202D3*
X15435Y17704D2*
D10*
X16616D1*
Y17901D1*
X15435D1*
Y17704D1*
D25*
X13139Y17770D3*
X13231Y18271D2*
D10*
X14412D1*
Y18468D1*
X13231D1*
Y18271D1*
D25*
X12539Y18455D3*
X12037Y18547D2*
D10*
Y19728D1*
X11840D1*
Y18547D1*
X12037D1*
D25*
X6840Y10864D3*
X6748Y10363D2*
D10*
X5567D1*
Y10166D1*
X6748D1*
Y10363D1*
X4422Y21898D2*
X12422D1*
Y19898D1*
X4422D1*
Y21898D1*
X3676Y8162D2*
Y5091D1*
Y8162D2*
X4168D1*
X5499D2*
X6342D1*
X7377Y7807D2*
Y7532D1*
Y5721D2*
Y5445D1*
X6342Y5091D2*
X5499D1*
X4168D2*
X3676D1*
D31*
X7712Y7256D3*
X11609Y15081D2*
D71*
Y14866D1*
X11624Y14823D1*
X11653Y14795D1*
X11696Y14780D1*
X11724D1*
X11767Y14795D1*
X11796Y14823D1*
X11810Y14866D1*
Y15081D1*
X11903Y15024D2*
X11932Y15038D1*
X11975Y15081D1*
Y14780D1*
X10350Y6741D2*
Y6512D1*
X10336Y6469D1*
X10321Y6454D1*
X10293Y6440D1*
X10264D1*
X10236Y6454D1*
X10221Y6469D1*
X10207Y6512D1*
Y6540D1*
X10443Y6684D2*
X10472Y6698D1*
X10515Y6741D1*
Y6440D1*
X10694Y6741D2*
X10651Y6727D1*
X10622Y6684D1*
X10608Y6612D1*
Y6569D1*
X10622Y6497D1*
X10651Y6454D1*
X10694Y6440D1*
X10722D1*
X10765Y6454D1*
X10794Y6497D1*
X10808Y6569D1*
Y6612D1*
X10794Y6684D1*
X10765Y6727D1*
X10722Y6741D1*
X10694D1*
X10794Y6684D2*
X10622Y6497D1*
X9922Y15933D2*
X9908Y15962D1*
X9879Y15991D1*
X9850Y16005D1*
X9793D1*
X9764Y15991D1*
X9736Y15962D1*
X9721Y15933D1*
X9707Y15890D1*
Y15818D1*
X9721Y15775D1*
X9736Y15747D1*
X9764Y15718D1*
X9793Y15703D1*
X9850D1*
X9879Y15718D1*
X9908Y15747D1*
X9922Y15775D1*
X10015Y15947D2*
X10044Y15962D1*
X10087Y16005D1*
Y15703D1*
X11177Y16952D2*
X11163Y16980D1*
X11134Y17009D1*
X11105Y17023D1*
X11048D1*
X11019Y17009D1*
X10990Y16980D1*
X10976Y16952D1*
X10962Y16908D1*
Y16836D1*
X10976Y16794D1*
X10990Y16765D1*
X11019Y16736D1*
X11048Y16722D1*
X11105D1*
X11134Y16736D1*
X11163Y16765D1*
X11177Y16794D1*
X11284Y16951D2*
Y16965D1*
X11298Y16994D1*
X11313Y17009D1*
X11341Y17023D1*
X11399D1*
X11427Y17009D1*
X11442Y16994D1*
X11456Y16965D1*
Y16937D1*
X11442Y16908D1*
X11413Y16865D1*
X11269Y16722D1*
X11470D1*
X11211Y15956D2*
X11197Y15985D1*
X11168Y16013D1*
X11139Y16028D1*
X11082D1*
X11053Y16013D1*
X11025Y15985D1*
X11010Y15956D1*
X10996Y15913D1*
Y15841D1*
X11010Y15798D1*
X11025Y15769D1*
X11053Y15741D1*
X11082Y15726D1*
X11139D1*
X11168Y15741D1*
X11197Y15769D1*
X11211Y15798D1*
X11333Y16027D2*
X11490D1*
X11404Y15913D1*
X11447D1*
X11476Y15898D1*
X11490Y15884D1*
X11505Y15841D1*
Y15813D1*
X11490Y15769D1*
X11462Y15741D1*
X11418Y15726D1*
X11375D1*
X11333Y15741D1*
X11318Y15755D1*
X11304Y15784D1*
X15038Y14268D2*
X15010Y14254D1*
X14981Y14225D1*
X14967Y14196D1*
Y14139D1*
X14981Y14110D1*
X15010Y14082D1*
X15038Y14067D1*
X15081Y14053D1*
X15153D1*
X15196Y14067D1*
X15225Y14082D1*
X15254Y14110D1*
X15268Y14139D1*
Y14196D1*
X15254Y14225D1*
X15225Y14254D1*
X15196Y14268D1*
X15268Y14504D2*
X14967D1*
X15168Y14361D1*
Y14576D1*
X6583Y16505D2*
X6568Y16533D1*
X6539Y16562D1*
X6511Y16576D1*
X6454D1*
X6425Y16562D1*
X6396Y16533D1*
X6382Y16505D1*
X6367Y16462D1*
Y16390D1*
X6382Y16347D1*
X6396Y16318D1*
X6425Y16290D1*
X6454Y16275D1*
X6511D1*
X6539Y16290D1*
X6568Y16318D1*
X6583Y16347D1*
X6847Y16576D2*
X6704D1*
X6690Y16447D1*
X6704Y16461D1*
X6747Y16476D1*
X6790D1*
X6833Y16461D1*
X6862Y16433D1*
X6876Y16390D1*
Y16361D1*
X6862Y16318D1*
X6833Y16289D1*
X6790Y16275D1*
X6747D1*
X6704Y16289D1*
X6690Y16304D1*
X6675Y16332D1*
X15745Y11195D2*
X15717Y11181D1*
X15688Y11152D1*
X15673Y11123D1*
Y11066D1*
X15688Y11037D1*
X15717Y11009D1*
X15745Y10994D1*
X15788Y10980D1*
X15860D1*
X15903Y10994D1*
X15932Y11009D1*
X15960Y11037D1*
X15975Y11066D1*
Y11123D1*
X15960Y11152D1*
X15932Y11181D1*
X15903Y11195D1*
X15717Y11460D2*
X15688Y11446D1*
X15674Y11402D1*
Y11374D1*
X15688Y11331D1*
X15731Y11302D1*
X15803Y11288D1*
X15874D1*
X15932Y11302D1*
X15961Y11331D1*
X15975Y11374D1*
Y11388D1*
X15961Y11431D1*
X15932Y11460D1*
X15889Y11474D1*
X15874D1*
X15831Y11460D1*
X15803Y11431D1*
X15789Y11388D1*
Y11374D1*
X15803Y11331D1*
X15831Y11302D1*
X15874Y11288D1*
X15074Y11188D2*
X15046Y11174D1*
X15017Y11145D1*
X15003Y11116D1*
Y11059D1*
X15017Y11030D1*
X15046Y11001D1*
X15074Y10987D1*
X15117Y10973D1*
X15189D1*
X15232Y10987D1*
X15261Y11001D1*
X15289Y11030D1*
X15304Y11059D1*
Y11116D1*
X15289Y11145D1*
X15261Y11174D1*
X15232Y11188D1*
X15304Y11338D2*
X15003Y11481D1*
Y11280D1*
X13688Y7667D2*
X13674Y7695D1*
X13645Y7724D1*
X13616Y7739D1*
X13559D1*
X13530Y7724D1*
X13501Y7695D1*
X13487Y7667D1*
X13473Y7624D1*
Y7552D1*
X13487Y7509D1*
X13501Y7480D1*
X13530Y7452D1*
X13559Y7437D1*
X13616D1*
X13645Y7452D1*
X13674Y7480D1*
X13688Y7509D1*
X13852Y7738D2*
X13809Y7724D1*
X13795Y7695D1*
Y7667D1*
X13809Y7638D1*
X13838Y7623D1*
X13895Y7609D1*
X13938Y7595D1*
X13967Y7566D1*
X13981Y7538D1*
Y7494D1*
X13967Y7466D1*
X13953Y7451D1*
X13909Y7437D1*
X13852D1*
X13809Y7451D1*
X13795Y7466D1*
X13780Y7494D1*
Y7538D1*
X13795Y7566D1*
X13824Y7595D1*
X13866Y7609D1*
X13924Y7623D1*
X13953Y7638D1*
X13967Y7667D1*
Y7695D1*
X13953Y7724D1*
X13909Y7738D1*
X13852D1*
X11332Y7345D2*
X11318Y7374D1*
X11289Y7403D1*
X11261Y7417D1*
X11203D1*
X11175Y7403D1*
X11146Y7374D1*
X11131Y7345D1*
X11117Y7302D1*
Y7230D1*
X11131Y7188D1*
X11146Y7159D1*
X11175Y7130D1*
X11203Y7116D1*
X11261D1*
X11289Y7130D1*
X11318Y7159D1*
X11332Y7188D1*
X11612Y7317D2*
X11597Y7274D1*
X11569Y7245D1*
X11526Y7230D1*
X11511D1*
X11468Y7245D1*
X11440Y7274D1*
X11425Y7317D1*
Y7331D1*
X11440Y7374D1*
X11468Y7403D1*
X11511Y7417D1*
X11526D1*
X11569Y7403D1*
X11597Y7374D1*
X11612Y7317D1*
Y7245D1*
X11597Y7173D1*
X11569Y7130D1*
X11526Y7116D1*
X11497D1*
X11454Y7130D1*
X11440Y7159D1*
X11261Y7944D2*
X11247Y7972D1*
X11218Y8001D1*
X11190Y8015D1*
X11132D1*
X11103Y8001D1*
X11075Y7972D1*
X11060Y7944D1*
X11046Y7901D1*
Y7829D1*
X11060Y7786D1*
X11075Y7757D1*
X11103Y7728D1*
X11132Y7714D1*
X11190D1*
X11218Y7728D1*
X11247Y7757D1*
X11261Y7786D1*
X11354Y7958D2*
X11383Y7972D1*
X11426Y8015D1*
Y7714D1*
X11605Y8015D2*
X11562Y8001D1*
X11533Y7958D1*
X11519Y7886D1*
Y7843D1*
X11533Y7771D1*
X11562Y7728D1*
X11605Y7714D1*
X11633D1*
X11676Y7728D1*
X11705Y7771D1*
X11720Y7843D1*
Y7886D1*
X11705Y7958D1*
X11676Y8001D1*
X11633Y8015D1*
X11605D1*
X11705Y7958D2*
X11533Y7771D1*
X7416Y13186D2*
Y13315D1*
X7402Y13358D1*
X7388Y13372D1*
X7359Y13387D1*
X7330D1*
X7302Y13372D1*
X7287Y13358D1*
X7273Y13315D1*
Y13186D1*
X7574D1*
X7416Y13286D2*
X7574Y13387D1*
X7331Y13479D2*
X7316Y13508D1*
X7273Y13551D1*
X7574D1*
X5660Y14598D2*
Y14297D1*
X5761D1*
X5804Y14311D1*
X5833Y14340D1*
X5847Y14369D1*
X5861Y14412D1*
Y14484D1*
X5847Y14527D1*
X5833Y14555D1*
X5804Y14584D1*
X5761Y14598D1*
X5660D1*
X5954Y14541D2*
X5983Y14555D1*
X6026Y14598D1*
Y14297D1*
X7198Y19415D2*
Y19200D1*
X7213Y19157D1*
X7242Y19128D1*
X7285Y19113D1*
X7313D1*
X7356Y19128D1*
X7385Y19157D1*
X7399Y19200D1*
Y19415D1*
X7507Y19343D2*
Y19357D1*
X7521Y19386D1*
X7535Y19400D1*
X7564Y19415D1*
X7621D1*
X7650Y19400D1*
X7664Y19386D1*
X7679Y19357D1*
Y19329D1*
X7664Y19300D1*
X7636Y19257D1*
X7492Y19113D1*
X7693D1*
X5347Y18316D2*
X5332Y18344D1*
X5303Y18373D1*
X5275Y18387D1*
X5218D1*
X5189Y18373D1*
X5160Y18344D1*
X5146Y18316D1*
X5131Y18273D1*
Y18201D1*
X5146Y18158D1*
X5160Y18129D1*
X5189Y18100D1*
X5218Y18086D1*
X5275D1*
X5303Y18100D1*
X5332Y18129D1*
X5347Y18158D1*
X5439Y18330D2*
X5468Y18344D1*
X5511Y18387D1*
Y18086D1*
X5604Y18330D2*
X5633Y18344D1*
X5676Y18387D1*
Y18086D1*
X6435Y15796D2*
X6421Y15824D1*
X6392Y15853D1*
X6363Y15867D1*
X6306D1*
X6277Y15853D1*
X6249Y15824D1*
X6234Y15796D1*
X6220Y15753D1*
Y15681D1*
X6234Y15638D1*
X6249Y15609D1*
X6277Y15581D1*
X6306Y15566D1*
X6363D1*
X6392Y15581D1*
X6421Y15609D1*
X6435Y15638D1*
X6528Y15810D2*
X6556Y15824D1*
X6599Y15867D1*
Y15566D1*
X6707Y15796D2*
Y15810D1*
X6721Y15839D1*
X6735Y15853D1*
X6764Y15867D1*
X6821D1*
X6850Y15853D1*
X6864Y15839D1*
X6879Y15810D1*
Y15781D1*
X6864Y15752D1*
X6836Y15710D1*
X6692Y15566D1*
X6893D1*
X15606Y22162D2*
X15577Y22148D1*
X15549Y22119D1*
X15534Y22090D1*
X15520Y22047D1*
Y21975D1*
X15534Y21932D1*
X15549Y21904D1*
X15577Y21875D1*
X15606Y21860D1*
X15663D1*
X15692Y21875D1*
X15721Y21904D1*
X15735Y21932D1*
X15749Y21975D1*
Y22047D1*
X15735Y22090D1*
X15721Y22119D1*
X15692Y22148D1*
X15663Y22162D1*
X15606D1*
X15649Y21918D2*
X15735Y21832D1*
X15842Y22104D2*
X15871Y22118D1*
X15914Y22161D1*
Y21860D1*
X15765Y18901D2*
X15737Y18887D1*
X15708Y18858D1*
X15693Y18829D1*
X15679Y18786D1*
Y18715D1*
X15693Y18672D1*
X15708Y18643D1*
X15737Y18614D1*
X15765Y18600D1*
X15822D1*
X15851Y18614D1*
X15880Y18643D1*
X15894Y18672D1*
X15909Y18715D1*
Y18786D1*
X15894Y18829D1*
X15880Y18858D1*
X15851Y18887D1*
X15822Y18901D1*
X15765D1*
X15808Y18657D2*
X15894Y18571D1*
X16016Y18829D2*
Y18843D1*
X16030Y18872D1*
X16044Y18887D1*
X16073Y18901D1*
X16131D1*
X16159Y18887D1*
X16173Y18872D1*
X16188Y18843D1*
Y18815D1*
X16173Y18786D1*
X16145Y18743D1*
X16001Y18600D1*
X16202D1*
X13561Y19468D2*
X13533Y19454D1*
X13504Y19425D1*
X13490Y19397D1*
X13475Y19353D1*
Y19282D1*
X13490Y19239D1*
X13504Y19210D1*
X13533Y19181D1*
X13561Y19167D1*
X13619D1*
X13647Y19181D1*
X13676Y19210D1*
X13690Y19239D1*
X13705Y19282D1*
Y19353D1*
X13690Y19397D1*
X13676Y19425D1*
X13647Y19454D1*
X13619Y19468D1*
X13561D1*
X13604Y19224D2*
X13690Y19138D1*
X13826Y19468D2*
X13984D1*
X13898Y19353D1*
X13941D1*
X13970Y19339D1*
X13984Y19325D1*
X13998Y19282D1*
Y19253D1*
X13984Y19210D1*
X13955Y19181D1*
X13912Y19167D1*
X13869D1*
X13826Y19181D1*
X13812Y19196D1*
X13797Y19224D1*
X11765Y20168D2*
X11736Y20154D1*
X11708Y20125D1*
X11693Y20096D1*
X11679Y20053D1*
Y19981D1*
X11693Y19938D1*
X11708Y19910D1*
X11736Y19881D1*
X11765Y19867D1*
X11822D1*
X11851Y19881D1*
X11880Y19910D1*
X11894Y19938D1*
X11909Y19981D1*
Y20053D1*
X11894Y20096D1*
X11880Y20125D1*
X11851Y20154D1*
X11822Y20168D1*
X11765D1*
X11808Y19924D2*
X11894Y19838D1*
X12145Y19866D2*
Y20167D1*
X12001Y19967D1*
X12216D1*
X6066Y11381D2*
X6038Y11367D1*
X6009Y11338D1*
X5995Y11309D1*
X5980Y11266D1*
Y11194D1*
X5995Y11151D1*
X6009Y11123D1*
X6038Y11094D1*
X6066Y11079D1*
X6124D1*
X6152Y11094D1*
X6181Y11123D1*
X6195Y11151D1*
X6210Y11194D1*
Y11266D1*
X6195Y11309D1*
X6181Y11338D1*
X6152Y11367D1*
X6124Y11381D1*
X6066D1*
X6109Y11137D2*
X6195Y11051D1*
X6475Y11380D2*
X6331D1*
X6317Y11251D1*
X6331Y11265D1*
X6374Y11280D1*
X6417D1*
X6460Y11265D1*
X6489Y11237D1*
X6503Y11194D1*
Y11165D1*
X6489Y11122D1*
X6460Y11093D1*
X6417Y11079D1*
X6374D1*
X6331Y11093D1*
X6317Y11108D1*
X6302Y11136D1*
X15715Y12934D2*
X15844D1*
X15887Y12948D1*
X15901Y12963D1*
X15916Y12991D1*
Y13020D1*
X15901Y13049D1*
X15887Y13063D1*
X15844Y13077D1*
X15715D1*
Y12776D1*
X15815Y12934D2*
X15916Y12776D1*
X16023Y13006D2*
Y13020D1*
X16037Y13049D1*
X16051Y13063D1*
X16080Y13077D1*
X16137D1*
X16166Y13063D1*
X16180Y13049D1*
X16195Y13020D1*
Y12991D1*
X16180Y12962D1*
X16152Y12920D1*
X16008Y12776D1*
X16209D1*
X15221Y15971D2*
Y16100D1*
X15206Y16143D1*
X15192Y16158D1*
X15163Y16172D1*
X15134D1*
X15106Y16158D1*
X15091Y16143D1*
X15077Y16100D1*
Y15971D1*
X15379D1*
X15221Y16071D2*
X15379Y16172D1*
X15077Y16293D2*
Y16451D1*
X15192Y16365D1*
Y16408D1*
X15206Y16437D1*
X15221Y16451D1*
X15264Y16465D1*
X15292D1*
X15335Y16451D1*
X15364Y16422D1*
X15379Y16379D1*
Y16336D1*
X15364Y16293D1*
X15350Y16279D1*
X15321Y16264D1*
X13270Y15834D2*
Y15963D1*
X13255Y16006D1*
X13241Y16020D1*
X13212Y16034D1*
X13184D1*
X13155Y16020D1*
X13141Y16006D1*
X13126Y15963D1*
Y15834D1*
X13428D1*
X13270Y15934D2*
X13428Y16034D1*
Y16271D2*
X13127D1*
X13327Y16127D1*
Y16342D1*
X12112Y15820D2*
Y15949D1*
X12097Y15992D1*
X12083Y16007D1*
X12055Y16021D1*
X12026D1*
X11997Y16007D1*
X11983Y15992D1*
X11968Y15949D1*
Y15820D1*
X12270D1*
X12112Y15921D2*
X12270Y16021D1*
X11969Y16286D2*
Y16143D1*
X12098Y16129D1*
X12084Y16143D1*
X12069Y16186D1*
Y16229D1*
X12084Y16272D1*
X12112Y16301D1*
X12155Y16315D1*
X12184D1*
X12227Y16301D1*
X12256Y16272D1*
X12270Y16229D1*
Y16186D1*
X12256Y16143D1*
X12241Y16129D1*
X12213Y16114D1*
X7187Y11198D2*
X7316D1*
X7359Y11213D1*
X7374Y11227D1*
X7388Y11256D1*
Y11285D1*
X7374Y11313D1*
X7359Y11328D1*
X7316Y11342D1*
X7187D1*
Y11041D1*
X7288Y11198D2*
X7388Y11041D1*
X7653Y11299D2*
X7639Y11327D1*
X7596Y11342D1*
X7567D1*
X7524Y11327D1*
X7495Y11284D1*
X7481Y11213D1*
Y11141D1*
X7495Y11084D1*
X7524Y11055D1*
X7567Y11041D1*
X7581D1*
X7624Y11055D1*
X7653Y11084D1*
X7667Y11127D1*
Y11141D1*
X7653Y11184D1*
X7624Y11213D1*
X7581Y11227D1*
X7567D1*
X7524Y11213D1*
X7495Y11184D1*
X7481Y11141D1*
X4992Y10086D2*
X5121D1*
X5164Y10101D1*
X5178Y10115D1*
X5193Y10144D1*
Y10172D1*
X5178Y10201D1*
X5164Y10216D1*
X5121Y10230D1*
X4992D1*
Y9928D1*
X5092Y10086D2*
X5193Y9928D1*
X5343D2*
X5486Y10230D1*
X5285D1*
X15480Y19018D2*
Y19147D1*
X15465Y19190D1*
X15451Y19205D1*
X15423Y19219D1*
X15394D1*
X15365Y19205D1*
X15351Y19190D1*
X15336Y19147D1*
Y19018D1*
X15638D1*
X15480Y19119D2*
X15638Y19219D1*
X15337Y19384D2*
X15351Y19341D1*
X15380Y19326D1*
X15408D1*
X15437Y19341D1*
X15452Y19369D1*
X15466Y19427D1*
X15480Y19470D1*
X15509Y19498D1*
X15537Y19513D1*
X15581D1*
X15609Y19498D1*
X15624Y19484D1*
X15638Y19441D1*
Y19384D1*
X15624Y19341D1*
X15609Y19326D1*
X15581Y19312D1*
X15537D1*
X15509Y19326D1*
X15480Y19355D1*
X15466Y19398D1*
X15452Y19455D1*
X15437Y19484D1*
X15408Y19498D1*
X15380D1*
X15351Y19484D1*
X15337Y19441D1*
Y19384D1*
X13854Y19915D2*
Y20044D1*
X13839Y20088D1*
X13825Y20102D1*
X13796Y20116D1*
X13767D1*
X13739Y20102D1*
X13724Y20088D1*
X13710Y20044D1*
Y19915D1*
X14011D1*
X13854Y20016D2*
X14011Y20116D1*
X13810Y20396D2*
X13854Y20381D1*
X13882Y20353D1*
X13897Y20310D1*
Y20295D1*
X13882Y20252D1*
X13854Y20224D1*
X13810Y20209D1*
X13796D1*
X13753Y20224D1*
X13725Y20252D1*
X13710Y20295D1*
Y20310D1*
X13725Y20353D1*
X13753Y20381D1*
X13810Y20396D1*
X13882D1*
X13954Y20381D1*
X13997Y20353D1*
X14011Y20310D1*
Y20281D1*
X13997Y20238D1*
X13968Y20224D1*
X10199Y19595D2*
X10328D1*
X10371Y19610D1*
X10386Y19624D1*
X10400Y19653D1*
Y19682D1*
X10386Y19710D1*
X10371Y19725D1*
X10328Y19739D1*
X10199D1*
Y19438D1*
X10300Y19595D2*
X10400Y19438D1*
X10493Y19681D2*
X10522Y19696D1*
X10565Y19739D1*
Y19438D1*
X10744Y19739D2*
X10701Y19724D1*
X10672Y19681D1*
X10657Y19610D1*
Y19567D1*
X10672Y19495D1*
X10701Y19452D1*
X10744Y19438D1*
X10772D1*
X10815Y19452D1*
X10844Y19495D1*
X10858Y19567D1*
Y19610D1*
X10844Y19681D1*
X10815Y19724D1*
X10772Y19739D1*
X10744D1*
X10844Y19681D2*
X10672Y19495D1*
X14154Y21648D2*
X14283D1*
X14326Y21663D1*
X14341Y21677D1*
X14355Y21706D1*
Y21734D1*
X14341Y21763D1*
X14326Y21778D1*
X14283Y21792D1*
X14154D1*
Y21490D1*
X14255Y21648D2*
X14355Y21490D1*
X14448Y21734D2*
X14477Y21749D1*
X14520Y21792D1*
Y21490D1*
X14613Y21734D2*
X14641Y21749D1*
X14684Y21792D1*
Y21490D1*
X8411Y22337D2*
Y22107D1*
X8397Y22064D1*
X8382Y22050D1*
X8354Y22035D1*
X8325D1*
X8296Y22050D1*
X8282Y22064D1*
X8267Y22107D1*
Y22136D1*
X8504Y22279D2*
X8533Y22294D1*
X8576Y22337D1*
Y22035D1*
X5031Y19671D2*
X5017Y19700D1*
X4988Y19729D1*
X4960Y19743D1*
X4902D1*
X4874Y19729D1*
X4845Y19700D1*
X4831Y19671D1*
X4816Y19628D1*
Y19556D1*
X4831Y19514D1*
X4845Y19485D1*
X4874Y19456D1*
X4902Y19442D1*
X4960D1*
X4988Y19456D1*
X5017Y19485D1*
X5031Y19514D1*
X5124Y19685D2*
X5153Y19700D1*
X5196Y19743D1*
Y19442D1*
X5318Y19743D2*
X5475D1*
X5389Y19628D1*
X5432D1*
X5461Y19614D1*
X5475Y19599D1*
X5490Y19556D1*
Y19528D1*
X5475Y19485D1*
X5447Y19456D1*
X5403Y19442D1*
X5360D1*
X5318Y19456D1*
X5303Y19470D1*
X5289Y19499D1*
X15615Y13461D2*
X15744D1*
X15787Y13476D1*
X15801Y13490D1*
X15816Y13519D1*
Y13547D1*
X15801Y13576D1*
X15787Y13591D1*
X15744Y13605D1*
X15615D1*
Y13303D1*
X15715Y13461D2*
X15816Y13303D1*
X15908Y13547D2*
X15937Y13562D1*
X15980Y13604D1*
Y13303D1*
X16088Y13533D2*
Y13547D1*
X16102Y13576D1*
X16116Y13590D1*
X16145Y13604D1*
X16202D1*
X16231Y13590D1*
X16245Y13576D1*
X16260Y13547D1*
Y13519D1*
X16245Y13490D1*
X16217Y13447D1*
X16073Y13303D1*
X16274D1*
X15714Y14029D2*
Y14158D1*
X15699Y14201D1*
X15685Y14215D1*
X15656Y14230D1*
X15627D1*
X15599Y14215D1*
X15584Y14201D1*
X15570Y14158D1*
Y14029D1*
X15872D1*
X15714Y14129D2*
X15872Y14230D1*
X15628Y14322D2*
X15613Y14351D1*
X15570Y14394D1*
X15872D1*
X15570Y14516D2*
Y14673D1*
X15685Y14587D1*
Y14631D1*
X15699Y14659D1*
X15714Y14673D1*
X15757Y14688D1*
X15785D1*
X15828Y14673D1*
X15857Y14645D1*
X15872Y14602D1*
Y14559D1*
X15857Y14516D1*
X15843Y14502D1*
X15814Y14487D1*
X14196Y17715D2*
X14325D1*
X14369Y17729D1*
X14383Y17744D1*
X14397Y17772D1*
Y17801D1*
X14383Y17829D1*
X14369Y17844D1*
X14325Y17858D1*
X14196D1*
Y17557D1*
X14297Y17715D2*
X14397Y17557D1*
X14490Y17801D2*
X14519Y17815D1*
X14562Y17858D1*
Y17557D1*
X14798D2*
Y17858D1*
X14655Y17657D1*
X14870D1*
X14440Y18320D2*
Y18449D1*
X14426Y18492D1*
X14412Y18506D1*
X14383Y18521D1*
X14354D1*
X14326Y18506D1*
X14311Y18492D1*
X14297Y18449D1*
Y18320D1*
X14598D1*
X14440Y18420D2*
X14598Y18521D1*
X14355Y18613D2*
X14340Y18642D1*
X14297Y18685D1*
X14598D1*
X14297Y18950D2*
Y18807D1*
X14426Y18792D1*
X14412Y18807D1*
X14397Y18850D1*
Y18893D1*
X14412Y18936D1*
X14440Y18965D1*
X14484Y18979D1*
X14512D1*
X14555Y18965D1*
X14584Y18936D1*
X14598Y18893D1*
Y18850D1*
X14584Y18807D1*
X14569Y18792D1*
X14541Y18778D1*
X7422Y9332D2*
Y9461D1*
X7407Y9504D1*
X7393Y9519D1*
X7364Y9533D1*
X7336D1*
X7307Y9519D1*
X7293Y9504D1*
X7278Y9461D1*
Y9332D1*
X7580D1*
X7422Y9432D2*
X7580Y9533D1*
X7336Y9625D2*
X7321Y9654D1*
X7279Y9697D1*
X7580D1*
X7321Y9962D2*
X7293Y9948D1*
X7279Y9905D1*
Y9876D1*
X7293Y9833D1*
X7336Y9804D1*
X7408Y9790D1*
X7479D1*
X7537Y9804D1*
X7565Y9833D1*
X7580Y9876D1*
Y9891D1*
X7565Y9933D1*
X7537Y9962D1*
X7493Y9976D1*
X7479D1*
X7436Y9962D1*
X7408Y9933D1*
X7393Y9891D1*
Y9876D1*
X7408Y9833D1*
X7436Y9804D1*
X7479Y9790D1*
X7422Y11408D2*
Y11537D1*
X7407Y11580D1*
X7393Y11594D1*
X7364Y11609D1*
X7336D1*
X7307Y11594D1*
X7293Y11580D1*
X7278Y11537D1*
Y11408D1*
X7580D1*
X7422Y11508D2*
X7580Y11609D1*
X7336Y11701D2*
X7321Y11730D1*
X7279Y11773D1*
X7580D1*
Y11923D2*
X7279Y12067D1*
Y11866D1*
X10903Y17526D2*
X11032D1*
X11075Y17541D1*
X11089Y17555D1*
X11104Y17584D1*
Y17612D1*
X11089Y17641D1*
X11075Y17655D1*
X11032Y17670D1*
X10903D1*
Y17368D1*
X11003Y17526D2*
X11104Y17368D1*
X11196Y17612D2*
X11225Y17627D1*
X11268Y17669D1*
Y17368D1*
X11433Y17669D2*
X11390Y17655D1*
X11375Y17627D1*
Y17598D1*
X11390Y17569D1*
X11418Y17555D1*
X11476Y17540D1*
X11519Y17526D1*
X11547Y17497D1*
X11562Y17469D1*
Y17426D1*
X11547Y17397D1*
X11533Y17383D1*
X11490Y17368D1*
X11433D1*
X11390Y17383D1*
X11375Y17397D1*
X11361Y17426D1*
Y17469D1*
X11375Y17497D1*
X11404Y17526D1*
X11447Y17540D1*
X11504Y17555D1*
X11533Y17569D1*
X11547Y17598D1*
Y17627D1*
X11533Y17655D1*
X11490Y17669D1*
X11433D1*
X10904Y18467D2*
X11033D1*
X11076Y18482D1*
X11090Y18496D1*
X11105Y18524D1*
Y18553D1*
X11090Y18582D1*
X11076Y18596D1*
X11033Y18611D1*
X10904D1*
Y18309D1*
X11004Y18467D2*
X11105Y18309D1*
X11197Y18553D2*
X11226Y18568D1*
X11269Y18610D1*
Y18309D1*
X11549Y18510D2*
X11534Y18467D1*
X11505Y18438D1*
X11462Y18424D1*
X11448D1*
X11405Y18438D1*
X11376Y18467D1*
X11362Y18510D1*
Y18524D1*
X11376Y18568D1*
X11405Y18596D1*
X11448Y18610D1*
X11462D1*
X11505Y18596D1*
X11534Y18568D1*
X11549Y18510D1*
Y18438D1*
X11534Y18367D1*
X11505Y18323D1*
X11462Y18309D1*
X11434D1*
X11391Y18323D1*
X11376Y18352D1*
X12672Y20882D2*
X12801D1*
X12844Y20897D1*
X12859Y20911D1*
X12873Y20939D1*
Y20968D1*
X12859Y20997D1*
X12844Y21011D1*
X12801Y21026D1*
X12672D1*
Y20724D1*
X12773Y20882D2*
X12873Y20724D1*
X12980Y20954D2*
Y20968D1*
X12995Y20997D1*
X13009Y21011D1*
X13038Y21025D1*
X13095D1*
X13124Y21011D1*
X13138Y20997D1*
X13152Y20968D1*
Y20939D1*
X13138Y20911D1*
X13109Y20868D1*
X12966Y20724D1*
X13167D1*
X13346Y21025D2*
X13302Y21011D1*
X13274Y20968D1*
X13259Y20896D1*
Y20853D1*
X13274Y20782D1*
X13302Y20738D1*
X13346Y20724D1*
X13374D1*
X13417Y20738D1*
X13446Y20782D1*
X13460Y20853D1*
Y20896D1*
X13446Y20968D1*
X13417Y21011D1*
X13374Y21025D1*
X13346D1*
X13446Y20968D2*
X13274Y20782D1*
X12753Y21826D2*
X12882D1*
X12925Y21841D1*
X12939Y21855D1*
X12954Y21884D1*
Y21913D1*
X12939Y21941D1*
X12925Y21956D1*
X12882Y21970D1*
X12753D1*
Y21669D1*
X12853Y21826D2*
X12954Y21669D1*
X13061Y21898D2*
Y21912D1*
X13075Y21941D1*
X13089Y21955D1*
X13118Y21970D1*
X13176D1*
X13204Y21955D1*
X13218Y21941D1*
X13233Y21912D1*
Y21884D1*
X13218Y21855D1*
X13190Y21812D1*
X13046Y21669D1*
X13247D1*
X13340Y21912D2*
X13369Y21927D1*
X13412Y21970D1*
Y21669D1*
X5668Y9211D2*
Y8982D1*
X5654Y8939D1*
X5639Y8924D1*
X5611Y8910D1*
X5582D1*
X5553Y8924D1*
X5539Y8939D1*
X5524Y8982D1*
Y9010D1*
X5775Y9139D2*
Y9154D1*
X5789Y9182D1*
X5804Y9197D1*
X5833Y9211D1*
X5890D1*
X5918Y9197D1*
X5933Y9182D1*
X5947Y9154D1*
Y9125D1*
X5933Y9096D1*
X5904Y9053D1*
X5761Y8910D1*
X5962D1*
M02*
