G04 DipTrace 2.4.0.2*
%INBottom.gbr*%
%MOIN*%
%ADD13C,0.007*%
%ADD14C,0.05*%
%ADD16C,0.025*%
%ADD21R,0.05X0.05*%
%ADD22R,0.0591X0.0591*%
%ADD23C,0.0591*%
%ADD24R,0.0669X0.0669*%
%ADD25C,0.0669*%
%ADD28R,0.0748X0.0748*%
%ADD29C,0.0748*%
%FSLAX44Y44*%
G04*
G70*
G90*
G75*
G01*
%LNBottom*%
%LPD*%
X6190Y8638D2*
D13*
Y7888D1*
X6565Y7513D1*
X7940Y5638D2*
Y6388D1*
X7565Y6763D1*
X10206Y12468D2*
Y11716D1*
X9377Y10888D1*
X4565Y8991D2*
X9032D1*
X10436Y9729D2*
X10175Y9991D1*
X4565D1*
X17690Y11712D2*
D14*
X18015D1*
X18315Y12013D1*
Y14388D1*
X17815Y14888D1*
X16815D1*
X16565Y14638D1*
Y14138D1*
X16903Y11712D2*
X14178D1*
X12440Y13450D1*
Y14138D1*
X17690Y12500D2*
Y12888D1*
X17315Y13263D1*
X15127D1*
X14815Y13575D1*
Y14700D1*
X14627Y14888D1*
X8690D1*
X8315Y14513D1*
Y14138D1*
X7397Y5263D2*
D13*
X11240D1*
X16903Y10925D1*
X12963Y10573D2*
X14447Y9089D1*
Y8852D1*
X9870Y6536D2*
X9515D1*
X8789Y7263D1*
X4565D1*
Y6991D1*
X14447Y8852D2*
X12131Y6536D1*
X9870D1*
X17690Y10138D2*
Y9510D1*
X17315Y9135D1*
Y6263D1*
X16752Y5700D1*
Y4513D1*
X7377D2*
X10065D1*
X10502Y4950D1*
X8940Y13325D2*
Y14138D1*
X9315D1*
X8690Y12325D2*
Y13075D1*
X8940Y13325D1*
X6627Y11200D2*
X7002D1*
X7690Y11888D1*
X6065Y10700D2*
X6128D1*
X6627Y11200D1*
X5690D1*
X5252Y11638D1*
Y12075D1*
X5690Y12513D1*
X5315D1*
X5002Y12825D1*
X4502Y12200D2*
Y12325D1*
X5002Y12825D1*
X5127D1*
X5815Y13513D1*
Y13013D1*
X5940Y12888D1*
X6315Y14950D2*
Y13263D1*
X5940Y12888D1*
X4752D1*
X4440Y13200D1*
X11752Y12325D2*
X11315D1*
X10315Y13325D1*
X8940D1*
X12377Y12263D2*
X11815D1*
X11752Y12325D1*
X12002Y11825D2*
Y12075D1*
X11752Y12325D1*
X13502Y13700D2*
X13440Y13763D1*
Y14138D1*
X13690Y13075D2*
Y13513D1*
X13502Y13700D1*
X15627Y12325D2*
X16127D1*
X15002Y10700D2*
X13940D1*
X12377Y12263D1*
X15752Y11138D2*
X15440D1*
X15002Y10700D1*
X16252Y10950D2*
X15252D1*
X15002Y10700D1*
X16377Y9575D2*
Y9613D1*
X16903Y10138D1*
X16565Y8263D2*
Y9388D1*
X16377Y9575D1*
X16815Y7825D2*
Y8013D1*
X16565Y8263D1*
X7377Y4513D2*
X6502D1*
X6377Y4388D1*
X6440D1*
Y5325D1*
X5627Y6138D1*
X4502D1*
X10502Y4950D2*
X10627D1*
X11002Y4575D1*
X11127D1*
X11565Y5013D1*
X12377D1*
X12440Y5075D1*
Y5263D1*
X12940Y5763D1*
Y5700D1*
X13627Y5013D1*
Y5075D1*
X13752Y5200D1*
X14565D1*
X15627D1*
Y5450D1*
D16*
X6190Y8638D3*
X7940Y5638D3*
X7565Y6763D3*
X6565Y7513D3*
X7377Y4513D3*
X10502Y4950D3*
X7690Y11888D3*
X11377Y11138D3*
X8690Y12325D3*
X8940Y13325D3*
X6627Y11200D3*
X6065Y10700D3*
X5252Y11638D3*
X5690Y12513D3*
X4440Y13200D3*
X5940Y12888D3*
X5002Y12825D3*
X12377Y12263D3*
X11752Y12325D3*
X12002Y11825D3*
X13690Y13075D3*
X5940Y6450D3*
X13502Y13700D3*
X16127Y12325D3*
X15627D3*
X15002Y10700D3*
X15752Y11138D3*
X16252Y10950D3*
X16377Y9575D3*
X14252Y13638D3*
Y13950D3*
X14565Y5200D3*
X13627Y5013D3*
X12940Y5763D3*
X12440Y5075D3*
X11565Y5013D3*
X15627Y5450D3*
X14252Y14263D3*
X16565Y8263D3*
X16815Y7825D3*
X4502Y6138D3*
X6377Y4388D3*
X5815Y13513D3*
X4502Y12200D3*
X6315Y14950D3*
X9377Y10888D3*
X10206Y12468D3*
X9032Y8991D3*
X10436Y9729D3*
X7397Y5263D3*
X9870Y6536D3*
X12963Y10573D3*
X14447Y8852D3*
X16752Y4513D3*
X6047Y14863D2*
X7821D1*
X15402D2*
X16001D1*
X6129Y14615D2*
X6583D1*
X6152Y14366D2*
X6583D1*
X6121Y14117D2*
X6583D1*
X9047D2*
X10708D1*
X13172D2*
X14204D1*
X17297D2*
X17704D1*
X6027Y13869D2*
X6583D1*
X8996D2*
X10708D1*
X13121D2*
X14204D1*
X17246D2*
X17704D1*
X5851Y13620D2*
X6583D1*
X8824D2*
X10708D1*
X13121D2*
X14204D1*
X4287Y13371D2*
X4493D1*
X5512D2*
X11837D1*
X13371D2*
X14204D1*
X4287Y13123D2*
X11930D1*
X13621D2*
X14223D1*
X4287Y12874D2*
X9966D1*
X10449D2*
X12165D1*
X13867D2*
X14352D1*
X4287Y12625D2*
X9751D1*
X10664D2*
X12415D1*
X14117D2*
X16258D1*
X4287Y12376D2*
X9731D1*
X10683D2*
X12661D1*
X14367D2*
X16258D1*
X4287Y12128D2*
X9813D1*
X10601D2*
X12911D1*
X4287Y11879D2*
X9813D1*
X10601D2*
X13161D1*
X4789Y11630D2*
X9571D1*
X10590D2*
X13407D1*
X5133Y11382D2*
X9325D1*
X10418D2*
X13657D1*
X5246Y11133D2*
X8966D1*
X10172D2*
X14071D1*
X18308D2*
X18587D1*
X5250Y10884D2*
X8891D1*
X9922D2*
X12598D1*
X13328D2*
X16251D1*
X18344D2*
X18587D1*
X5156Y10636D2*
X8969D1*
X9789D2*
X12481D1*
X13449D2*
X16067D1*
X18344D2*
X18587D1*
X5129Y10387D2*
X12516D1*
X13695D2*
X15817D1*
X18344D2*
X18587D1*
X10672Y10138D2*
X12790D1*
X13945D2*
X15567D1*
X16664D2*
X17036D1*
X18344D2*
X18587D1*
X10891Y9890D2*
X13098D1*
X14195D2*
X15321D1*
X16414D2*
X17036D1*
X18344D2*
X18587D1*
X10914Y9641D2*
X13348D1*
X14441D2*
X15071D1*
X16168D2*
X17036D1*
X18344D2*
X18587D1*
X5125Y9392D2*
X8782D1*
X9281D2*
X10098D1*
X10773D2*
X13594D1*
X14691D2*
X14824D1*
X15918D2*
X17024D1*
X18066D2*
X18587D1*
X9492Y9144D2*
X13844D1*
X15668D2*
X16919D1*
X17871D2*
X18587D1*
X9508Y8895D2*
X13942D1*
X15422D2*
X16919D1*
X17711D2*
X18587D1*
X9363Y8646D2*
X13692D1*
X15172D2*
X16919D1*
X17711D2*
X18587D1*
X4898Y8397D2*
X5774D1*
X6605D2*
X13442D1*
X14922D2*
X16919D1*
X17711D2*
X18587D1*
X4287Y8149D2*
X5794D1*
X6586D2*
X13196D1*
X14676D2*
X16919D1*
X17711D2*
X18587D1*
X4287Y7900D2*
X5794D1*
X6836D2*
X12946D1*
X14426D2*
X16919D1*
X17711D2*
X18587D1*
X5258Y7651D2*
X5880D1*
X7027D2*
X12696D1*
X14176D2*
X16919D1*
X18058D2*
X18587D1*
X9195Y7403D2*
X12450D1*
X13930D2*
X16919D1*
X18301D2*
X18587D1*
X9445Y7154D2*
X12200D1*
X13680D2*
X16919D1*
X18363D2*
X18587D1*
X13430Y6905D2*
X16919D1*
X18312D2*
X18587D1*
X5258Y6657D2*
X7094D1*
X8219D2*
X8848D1*
X13183D2*
X16919D1*
X18109D2*
X18587D1*
X5258Y6408D2*
X7247D1*
X8336D2*
X9094D1*
X12933D2*
X16911D1*
X17711D2*
X18587D1*
X4287Y6159D2*
X7544D1*
X8336D2*
X9583D1*
X10160D2*
X11591D1*
X12683D2*
X16665D1*
X17695D2*
X18587D1*
X5707Y5911D2*
X7544D1*
X8336D2*
X11341D1*
X12437D2*
X16423D1*
X5949Y5662D2*
X7145D1*
X8426D2*
X11091D1*
X12187D2*
X16356D1*
X6082Y5413D2*
X6938D1*
X11937D2*
X16356D1*
X6144Y5165D2*
X6923D1*
X11691D2*
X16356D1*
X6148Y4916D2*
X7071D1*
X11394D2*
X16356D1*
X6098Y4667D2*
X16294D1*
X5984Y4418D2*
X16278D1*
X18324Y7014D2*
X18285Y6895D1*
X18221Y6788D1*
X18137Y6696D1*
X18034Y6625D1*
X17919Y6577D1*
X17796Y6554D1*
X17683Y6558D1*
X17685Y6263D1*
X17661Y6134D1*
X17696Y6124D1*
X17820Y6137D1*
X17945D1*
X18069Y6123D1*
X18191Y6094D1*
X18309Y6053D1*
X18421Y5999D1*
X18527Y5933D1*
X18610Y5867D1*
X18612Y7012D1*
Y11485D1*
X18428Y11299D1*
X18331Y11221D1*
X18286Y11131D1*
X18315Y11010D1*
X18320Y10925D1*
X18298Y10767D1*
X18320Y10768D1*
Y9507D1*
X18060D1*
X18038Y9384D1*
X17977Y9276D1*
X17684Y8980D1*
X17685Y7717D1*
X17746Y7723D1*
X17870Y7711D1*
X17989Y7673D1*
X18097Y7610D1*
X18189Y7527D1*
X18262Y7425D1*
X18311Y7311D1*
X18337Y7138D1*
X18324Y7014D1*
X17168Y9507D2*
X17060D1*
Y10316D1*
X16893Y10295D1*
X16804Y10305D1*
X11949Y5448D1*
X11502Y5001D1*
X11400Y4929D1*
X11278Y4894D1*
X8490Y4893D1*
X7666D1*
X7611Y4855D1*
X7494Y4813D1*
X7369Y4803D1*
X7247Y4828D1*
X7136Y4884D1*
X7044Y4968D1*
X6977Y5073D1*
X6942Y5193D1*
X6940Y5317D1*
X6971Y5438D1*
X7034Y5546D1*
X7123Y5633D1*
X7233Y5692D1*
X7354Y5721D1*
X7490Y5712D1*
X7515Y5813D1*
X7571Y5911D1*
X7570Y6235D1*
X7499Y6306D1*
X7415Y6328D1*
X7304Y6384D1*
X7212Y6468D1*
X7146Y6573D1*
X7110Y6693D1*
X7108Y6817D1*
X7129Y6896D1*
X6414Y6893D1*
X5231D1*
X5235Y6321D1*
X4262D1*
Y5862D1*
X4361Y5938D1*
X4467Y6004D1*
X4580Y6057D1*
X4699Y6097D1*
X4821Y6124D1*
X4945Y6137D1*
X5070D1*
X5194Y6123D1*
X5316Y6094D1*
X5434Y6053D1*
X5546Y5999D1*
X5652Y5933D1*
X5750Y5855D1*
X5839Y5767D1*
X5917Y5670D1*
X5984Y5565D1*
X6039Y5452D1*
X6082Y5335D1*
X6111Y5213D1*
X6129Y5013D1*
X6122Y4888D1*
X6101Y4765D1*
X6067Y4644D1*
X6020Y4529D1*
X5960Y4419D1*
X5839Y4261D1*
X16367Y4262D1*
X16333Y4323D1*
X16298Y4443D1*
X16296Y4567D1*
X16327Y4688D1*
X16384Y4786D1*
X16382Y5700D1*
X16403Y5823D1*
X16466Y5934D1*
X16947Y6417D1*
X16945Y9135D1*
X16966Y9257D1*
X17028Y9369D1*
X17167Y9510D1*
X16309Y12294D2*
X16281Y12395D1*
X16273Y12520D1*
X16300Y12677D1*
X14815Y12678D1*
X14691Y12691D1*
X14573Y12730D1*
X14465Y12794D1*
X14374Y12879D1*
X14302Y12981D1*
X14254Y13096D1*
X14230Y13263D1*
Y14306D1*
X13131Y14303D1*
X13149Y14138D1*
X13138Y14013D1*
X13105Y13893D1*
X13052Y13780D1*
X13023Y13738D1*
X13030Y13687D1*
X14428Y12297D1*
X16307D1*
X16281Y10824D2*
X16273Y10945D1*
X16289Y11069D1*
X16308Y11124D1*
X15778Y11127D1*
X14178D1*
X14054Y11141D1*
X13935Y11180D1*
X13831Y11242D1*
X13676Y11387D1*
X12026Y13036D1*
X11948Y13134D1*
X11892Y13245D1*
X11861Y13365D1*
X11774Y13429D1*
X10731D1*
Y14300D1*
X9377Y14303D1*
X9006D1*
X9024Y14138D1*
X9013Y14013D1*
X8980Y13893D1*
X8927Y13780D1*
X8855Y13678D1*
X8766Y13590D1*
X8663Y13520D1*
X8549Y13468D1*
X8428Y13438D1*
X8304Y13429D1*
X8180Y13442D1*
X8021Y13495D1*
X8024Y13429D1*
X6606D1*
Y14847D1*
X7836D1*
X7901Y14926D1*
X8086Y15111D1*
X5866Y15112D1*
X5984Y14940D1*
X6039Y14827D1*
X6082Y14710D1*
X6111Y14588D1*
X6129Y14388D1*
X6122Y14263D1*
X6101Y14140D1*
X6067Y14019D1*
X6020Y13904D1*
X5960Y13794D1*
X5888Y13692D1*
X5806Y13598D1*
X5713Y13514D1*
X5612Y13441D1*
X5504Y13379D1*
X5389Y13330D1*
X5269Y13293D1*
X5146Y13271D1*
X5022Y13261D1*
X4897Y13266D1*
X4773Y13285D1*
X4653Y13317D1*
X4536Y13362D1*
X4425Y13420D1*
X4259Y13543D1*
X4262Y12237D1*
Y11585D1*
X4411Y11642D1*
X4534Y11660D1*
X4659Y11654D1*
X4780Y11625D1*
X4894Y11574D1*
X4997Y11503D1*
X5084Y11414D1*
X5154Y11310D1*
X5203Y11195D1*
X5229Y11073D1*
X5235Y10991D1*
X5223Y10867D1*
X5188Y10747D1*
X5132Y10635D1*
X5056Y10536D1*
X5007Y10492D1*
X5084Y10414D1*
X5121Y10358D1*
X6940Y10361D1*
X10175D1*
X10298Y10340D1*
X10409Y10278D1*
X10506Y10183D1*
X10637Y10144D1*
X10740Y10075D1*
X10822Y9980D1*
X10875Y9868D1*
X10896Y9729D1*
X10879Y9606D1*
X10830Y9492D1*
X10752Y9395D1*
X10650Y9322D1*
X10533Y9280D1*
X10409Y9270D1*
X10287Y9295D1*
X10175Y9351D1*
X10083Y9435D1*
X10017Y9540D1*
X9994Y9619D1*
X7925Y9621D1*
X5124D1*
X5056Y9536D1*
X5007Y9492D1*
X5084Y9414D1*
X5121Y9358D1*
X6940Y9361D1*
X8759D1*
X8868Y9421D1*
X8989Y9449D1*
X9114Y9443D1*
X9232Y9405D1*
X9336Y9336D1*
X9418Y9242D1*
X9471Y9129D1*
X9492Y8991D1*
X9475Y8867D1*
X9426Y8753D1*
X9347Y8656D1*
X9246Y8584D1*
X9129Y8541D1*
X9005Y8532D1*
X8882Y8556D1*
X8762Y8620D1*
X6653Y8621D1*
X6633Y8514D1*
X6584Y8400D1*
X6562Y8372D1*
X6560Y8040D1*
X6631Y7970D1*
X6765Y7927D1*
X6869Y7858D1*
X6951Y7763D1*
X7007Y7632D1*
X8789Y7633D1*
X8912Y7612D1*
X9023Y7549D1*
X9639Y6936D1*
X9706Y6966D1*
X9828Y6994D1*
X9952Y6989D1*
X10071Y6951D1*
X10139Y6905D1*
X11976Y6906D1*
X13993Y8922D1*
X14008Y9004D1*
X12895Y10118D1*
X12813Y10138D1*
X12702Y10194D1*
X12610Y10278D1*
X12543Y10384D1*
X12508Y10503D1*
X12506Y10628D1*
X12537Y10749D1*
X12600Y10856D1*
X12689Y10943D1*
X12799Y11003D1*
X12920Y11031D1*
X13044Y11026D1*
X13163Y10987D1*
X13267Y10918D1*
X13348Y10824D1*
X13401Y10711D1*
X13413Y10646D1*
X14713Y9345D1*
X14779Y9325D1*
X16279Y10825D1*
X4259Y7660D2*
X5235D1*
Y7633D1*
X5920D1*
X5856Y7727D1*
X5822Y7850D1*
X5820Y8368D1*
X5771Y8448D1*
X5735Y8568D1*
X5734Y8618D1*
X5122Y8621D1*
X5056Y8536D1*
X4963Y8453D1*
X4857Y8388D1*
X4740Y8344D1*
X4617Y8323D1*
X4492Y8325D1*
X4370Y8350D1*
X4265Y8393D1*
X4262Y7663D1*
X15383Y14847D2*
X16016D1*
X16094Y14985D1*
X16215Y15115D1*
X15233Y15112D1*
X15305Y15019D1*
X15364Y14901D1*
X17263Y14013D2*
X17230Y13893D1*
X17209Y13847D1*
X17436Y13835D1*
X17554Y13796D1*
X17662Y13733D1*
X17731Y13673D1*
X17668Y13729D1*
X17730Y13763D1*
X17725Y14151D1*
X17565Y14303D1*
X17256D1*
X17274Y14138D1*
X17263Y14013D1*
X9827Y10814D2*
X9821Y10764D1*
X9771Y10650D1*
X9693Y10553D1*
X9591Y10480D1*
X9474Y10438D1*
X9350Y10428D1*
X9228Y10453D1*
X9117Y10509D1*
X9024Y10593D1*
X8958Y10698D1*
X8923Y10818D1*
X8921Y10942D1*
X8952Y11063D1*
X9015Y11171D1*
X9104Y11258D1*
X9213Y11317D1*
X9308Y11339D1*
X9837Y11870D1*
X9836Y12197D1*
X9787Y12279D1*
X9752Y12398D1*
X9750Y12523D1*
X9781Y12644D1*
X9844Y12751D1*
X9933Y12838D1*
X10042Y12898D1*
X10164Y12926D1*
X10288Y12921D1*
X10407Y12882D1*
X10510Y12813D1*
X10592Y12719D1*
X10645Y12606D1*
X10666Y12468D1*
X10649Y12345D1*
X10600Y12230D1*
X10578Y12203D1*
X10576Y11716D1*
X10555Y11594D1*
X10493Y11482D1*
X9830Y10817D1*
X10138Y6168D2*
X10084Y6129D1*
X9967Y6087D1*
X9843Y6077D1*
X9721Y6101D1*
X9601Y6165D1*
X9515Y6166D1*
X9393Y6187D1*
X9281Y6250D1*
X8638Y6891D1*
X8004Y6893D1*
X8092Y6759D1*
X8202Y6649D1*
X8274Y6548D1*
X8308Y6425D1*
X8310Y5907D1*
X8379Y5776D1*
X8399Y5634D1*
X11088Y5633D1*
X11622Y6168D1*
X10143Y6166D1*
D14*
X17752Y7138D3*
D21*
X16752D3*
D22*
X17690Y10138D3*
D23*
Y10925D3*
Y11712D3*
Y12500D3*
X16903D3*
Y11712D3*
Y10925D3*
Y10138D3*
D24*
X4565Y6991D3*
D25*
Y7991D3*
Y8991D3*
Y9991D3*
Y10991D3*
D28*
X15565Y14138D3*
D29*
X16565D3*
X17565D3*
D28*
X7315D3*
D29*
X8315D3*
X9315D3*
D28*
X11440D3*
D29*
X12440D3*
X13440D3*
M02*
