M48
INCH
T01C0.015
T02C0.028
T03C0.0354
T04C0.0433
T05C0.116
%
T01
X+006190Y+008638
X+006565Y+007513
X+005940Y+006450
X+004502Y+006138
X+006377Y+004388
X+007377Y+004513
X+007397Y+005263
X+007940Y+005638
X+007565Y+006763
X+009870Y+006536
X+010502Y+004950
X+011565Y+005013
X+012440Y+005075
X+012940Y+005763
X+013627Y+005013
X+014565Y+005200
X+015627Y+005450
X+016752Y+004513
X+016815Y+007825
X+016565Y+008263
X+016377Y+009575
X+016252Y+010950
X+015752Y+011138
X+015002Y+010700
X+015627Y+012325
X+016127Y+012325
X+014252Y+013638
X+014252Y+013950
X+014252Y+014263
X+013502Y+013700
X+013690Y+013075
X+012377Y+012263
X+012002Y+011825
X+011752Y+012325
X+011377Y+011138
X+012963Y+010573
X+014447Y+008852
X+010436Y+009729
X+009377Y+010888
X+008690Y+012325
X+008940Y+013325
X+010206Y+012468
X+007690Y+011888
X+006627Y+011200
X+006065Y+010700
X+005252Y+011638
X+004502Y+012200
X+005002Y+012825
X+004440Y+013200
X+005815Y+013513
X+005940Y+012888
X+005690Y+012513
X+006315Y+014950
X+009032Y+008991
T02
X+017752Y+007138
X+016752Y+007138
T03
X+017690Y+010138
X+017690Y+010925
X+017690Y+011712
X+017690Y+012500
X+016903Y+012500
X+016903Y+011712
X+016903Y+010925
X+016903Y+010138
T04
X+004565Y+006991
X+004565Y+007991
X+004565Y+008991
X+004565Y+009991
X+004565Y+010991
X+007315Y+014138
X+008315Y+014138
X+009315Y+014138
X+011440Y+014138
X+012440Y+014138
X+013440Y+014138
X+015565Y+014138
X+016565Y+014138
X+017565Y+014138
T05
X+005002Y+005013
X+005002Y+014388
X+017877Y+005013
T00
M30
