G04 DipTrace 2.4.0.2*
%INTop.gbr*%
%MOIN*%
%ADD14C,0.007*%
%ADD15C,0.025*%
%ADD16C,0.013*%
%ADD17R,0.0433X0.0394*%
%ADD18R,0.0709X0.063*%
%ADD19R,0.063X0.0709*%
%ADD20C,0.05*%
%ADD21R,0.05X0.05*%
%ADD24R,0.0315X0.0236*%
%ADD26R,0.0413X0.0256*%
%ADD27R,0.0591X0.0591*%
%ADD28C,0.0591*%
%ADD29R,0.0669X0.0669*%
%ADD30C,0.0669*%
%ADD31R,0.0748X0.0748*%
%ADD32C,0.0748*%
%ADD33R,0.0394X0.0433*%
%ADD34C,0.0472*%
%ADD36R,0.0709X0.0197*%
%ADD37R,0.0197X0.0709*%
%ADD38R,0.0394X0.1083*%
%ADD39R,0.2185X0.2421*%
%FSLAX44Y44*%
G04*
G70*
G90*
G75*
G01*
%LNTop*%
%LPD*%
X6133Y9092D2*
D14*
Y8714D1*
X6304Y8543D1*
X6572D1*
X6859Y8831D1*
X8340D1*
X17073Y13530D2*
X16622Y13079D1*
Y12321D1*
X16461Y12161D1*
X16181D1*
X8340Y8831D2*
X8716D1*
X9557Y9671D1*
X11633D1*
X11880Y9425D1*
Y9038D1*
X12021Y8897D1*
X12288D1*
X12362Y8971D1*
Y10944D1*
X13603Y12185D1*
X16181Y12161D2*
Y11556D1*
X17860Y13530D2*
X18260Y13930D1*
Y14578D1*
X18120Y14718D1*
X16622D1*
X16482Y14578D1*
Y13510D1*
X16364Y13393D1*
X16160D1*
X12132Y9146D2*
Y9595D1*
X11845Y9883D1*
X9521D1*
X8784Y9146D1*
X8340D1*
X16160Y13393D2*
Y12762D1*
X8340Y9146D2*
X7929D1*
X7754Y8971D1*
X7256D1*
X7062Y9165D1*
Y9195D1*
X9119Y8201D2*
X8340D1*
X7977D1*
X7863Y8086D1*
Y7834D1*
X7658Y7630D1*
X7249D1*
X7026Y7853D1*
Y7954D1*
X5937Y6312D2*
X5443D1*
X5375Y6381D1*
Y6750D1*
X8340Y9775D2*
X9030D1*
X5375Y6750D2*
X4400D1*
X4260Y6890D1*
Y10734D1*
X4400Y10874D1*
X7078D1*
X7218Y10734D1*
Y9915D1*
X7358Y9775D1*
X8340D1*
X5850Y10042D2*
Y8776D1*
X6304Y8322D1*
X6540D1*
X6729Y8134D1*
Y7819D1*
X7500Y7048D1*
Y6062D1*
X12187Y13018D2*
X9779D1*
X9639Y12878D1*
Y10760D1*
X8340Y6941D2*
X7935D1*
X7811Y6817D1*
Y5888D1*
X7753Y5829D1*
X7246D1*
X7106Y5969D1*
Y6812D1*
X6877Y10533D2*
Y10336D1*
X6583Y10042D1*
X6519D1*
Y9989D1*
X6907Y9601D1*
X7857D1*
X7962Y9496D1*
X8340D1*
Y9461D1*
X8562Y13018D2*
X9242D1*
X9382Y12878D1*
Y11277D1*
X9324Y11219D1*
Y10760D1*
X4562Y13562D2*
Y14269D1*
X4566D2*
Y13922D1*
X6109D1*
X6249Y14062D1*
Y14624D1*
X7187Y15562D1*
X12187Y13687D2*
Y14437D1*
X12143D1*
Y14518D1*
X12364Y14739D1*
X13635D1*
X13749Y14625D1*
Y13920D1*
X13889Y13780D1*
X14593D1*
X14654Y13842D1*
Y14654D1*
X15562Y15562D1*
X8562Y13687D2*
Y14437D1*
X8518D1*
Y14879D1*
X8658Y15019D1*
X10894D1*
X11437Y15562D1*
X4562Y12893D2*
X7218D1*
X7358Y12753D1*
Y10230D1*
X7498Y10090D1*
X8340D1*
X17750Y7562D2*
Y8589D1*
X17812Y8651D1*
Y9062D1*
X9009Y10760D2*
Y11053D1*
X8951Y11110D1*
X8753D1*
X8745Y11102D1*
X8424D1*
X9041Y11708D2*
X8260Y12488D1*
Y13278D1*
X8321Y13339D1*
X13880D1*
X8379Y11716D2*
X9041Y11708D1*
X8424Y11102D2*
X8379D1*
Y11716D1*
X16562Y15562D2*
X16083Y16041D1*
X14483D1*
X14343Y15901D1*
Y14063D1*
X18260Y12355D2*
X18630Y12725D1*
Y15037D1*
X12437Y15562D2*
X11754Y14879D1*
X10858D1*
X10718Y14739D1*
Y14063D1*
X6843D2*
X8047D1*
X8187Y14203D1*
Y15562D1*
X9121Y16496D1*
X18085D1*
X18400Y16181D1*
Y13283D1*
X17860Y12742D1*
X8577Y6492D2*
Y5731D1*
X8533Y5688D1*
X8405D1*
X8312Y4937D2*
Y4532D1*
X8452Y4392D1*
X8982D1*
X8405Y5688D2*
Y5371D1*
X8312Y5278D1*
Y4937D1*
X10541Y10154D2*
X11389D1*
X11529Y10294D1*
Y10760D1*
X11785Y10210D2*
Y10495D1*
X11844Y10553D1*
Y10760D1*
X12132Y8516D2*
X12085D1*
X11704Y8897D1*
Y9179D1*
X11387Y9495D1*
X9627D1*
X8647Y8516D1*
X8340D1*
X16145Y14897D2*
Y14506D1*
X8340Y8516D2*
Y8527D1*
X7973D1*
X7816Y8685D1*
X7146D1*
X6942Y8481D1*
Y8424D1*
X16145Y14506D2*
Y13920D1*
X8093Y6257D2*
Y6591D1*
X8233Y6731D1*
X8882D1*
X9009Y6604D1*
Y6272D1*
X15491Y12762D2*
Y12847D1*
X14895D1*
Y13676D1*
X15139Y13920D1*
X15475D1*
X4766Y7415D2*
X5206D1*
X5228Y7437D1*
X5768D1*
X14895Y12847D2*
Y12593D1*
X15139Y12349D1*
Y11717D1*
X15299Y11556D1*
X15512D1*
X17143Y6257D2*
Y9062D1*
X9018Y5562D2*
X8992D1*
Y4926D1*
X9009Y6272D2*
X9018Y5562D1*
X9954Y10760D2*
Y10366D1*
X9882Y10294D1*
X7894D1*
X7754Y10434D1*
Y11102D1*
X10018Y11562D2*
X9954D1*
Y10760D1*
X10018Y12187D2*
Y11562D1*
X14120Y10587D2*
Y11610D1*
X14999Y12489D1*
X10134D1*
X10018Y12372D1*
Y12187D1*
X13831Y8482D2*
Y8785D1*
X13846Y8770D1*
Y10587D1*
X14120D1*
X9324Y6272D2*
Y6660D1*
X9395Y6731D1*
X13248D1*
X13287Y6770D1*
Y7696D1*
X13427Y7836D1*
X13831D1*
Y8482D1*
X9018Y5562D2*
X9108D1*
X9300Y5754D1*
Y6272D1*
X9324D1*
X5768Y7437D2*
Y7840D1*
X5519Y8089D1*
Y8312D1*
X14120Y10587D2*
Y11595D1*
X15288Y12762D1*
X15491D1*
X15626Y8482D2*
Y7836D1*
X15486Y7696D1*
X14831D1*
X14691Y7836D1*
X14551Y7696D1*
X13567D1*
X13427Y7556D1*
Y4532D1*
X13287Y4392D1*
X9652D1*
X14691Y7836D2*
Y8566D1*
X17827Y9609D2*
X17773D1*
X17471Y9911D1*
X15766D1*
X15626Y9771D1*
Y8482D1*
X17860Y10380D2*
X17827Y10348D1*
Y9609D1*
X9187Y14437D2*
X9812D1*
X12812D2*
X13437D1*
Y15562D2*
Y15577D1*
X14135Y16275D1*
X16849D1*
X17562Y15562D1*
X15475Y14506D2*
X15491D1*
X15799Y14198D1*
Y13576D1*
X15616Y13393D1*
X15491D1*
X15502D1*
X15817Y13079D1*
Y12466D1*
X15512Y12161D1*
X15142Y13113D2*
X15211D1*
X15491Y13393D1*
X5937Y14437D2*
X5403D1*
X5235Y14269D1*
X6437Y7437D2*
Y6812D1*
Y6481D1*
X6606Y6312D1*
X9639Y6272D2*
Y5610D1*
X9687Y5562D1*
X6566Y9092D2*
Y9295D1*
X6696Y9425D1*
X7265D1*
X7495Y9195D1*
X7375Y8424D2*
Y8037D1*
X7459Y7954D1*
X6566Y9092D2*
Y8884D1*
X6461Y8779D1*
X7375Y8424D2*
X7635D1*
X7705Y8354D1*
X4766Y8415D2*
X4995D1*
X5233Y8653D1*
X5753D1*
X6225Y8181D1*
Y7649D1*
X6437Y7437D1*
X15148Y7997D2*
Y8138D1*
X15254Y8244D1*
Y9106D1*
X14691Y9668D1*
X15223Y10587D2*
Y10200D1*
X14691Y9668D1*
X6437Y7437D2*
Y7422D1*
X5956Y6941D1*
X4766Y9415D2*
X5337D1*
X5519Y9233D1*
Y8981D1*
X9489Y7256D2*
X8340D1*
D15*
X9187Y16062D3*
Y13812D3*
X11812Y12125D3*
X10312Y15625D3*
X13187Y15125D3*
X12937Y13812D3*
X13003Y12937D3*
X14467Y13185D3*
X15142Y13113D3*
X6062Y14978D3*
X5227Y13469D3*
X6461Y8779D3*
X7705Y8354D3*
X14735Y4301D3*
X12252Y6976D3*
X15148Y7997D3*
X15958Y10984D3*
X13142Y10667D3*
X5956Y6941D3*
X9124Y7680D3*
X9169Y8615D3*
X7480Y4618D3*
X10331Y4935D3*
X12920Y12135D3*
X13603Y12185D3*
X12132Y9146D3*
X9119Y8201D3*
X9030Y9775D3*
X13880Y13339D3*
X18630Y15037D3*
X18260Y12355D3*
X8577Y6492D3*
X10541Y10154D3*
X11785Y10210D3*
X16145Y14897D3*
X12132Y8516D3*
X8093Y6257D3*
X17143D3*
X9489Y7256D3*
X6070Y16238D2*
X8387D1*
X6172Y15990D2*
X6505D1*
X9094D2*
X10755D1*
X12965D2*
X14008D1*
X17090D2*
X18055D1*
X6211Y15741D2*
X6505D1*
X8848D2*
X10755D1*
X13098D2*
X13997D1*
X17223D2*
X18055D1*
X6195Y15492D2*
X6505D1*
X8867D2*
X10755D1*
X13117D2*
X13997D1*
X14687D2*
X14880D1*
X17242D2*
X18055D1*
X6121Y15244D2*
X6391D1*
X13039D2*
X13997D1*
X14687D2*
X14767D1*
X17164D2*
X18055D1*
X5976Y14995D2*
X6141D1*
X13851D2*
X13997D1*
X6848Y14746D2*
X7841D1*
X6601Y14498D2*
X7841D1*
X11062D2*
X11618D1*
X11234Y14249D2*
X11618D1*
X11234Y14000D2*
X11618D1*
X9070Y13751D2*
X9294D1*
X11234D2*
X11680D1*
X12695D2*
X12919D1*
X5070Y13503D2*
X5419D1*
X6453D2*
X8008D1*
X5070Y13254D2*
X7915D1*
X14305D2*
X14551D1*
X7582Y13005D2*
X7915D1*
X12695D2*
X13618D1*
X14141D2*
X14551D1*
X7703Y12757D2*
X7915D1*
X5070Y12508D2*
X7012D1*
X7703D2*
X7915D1*
X8719D2*
X9036D1*
X4287Y12259D2*
X7012D1*
X7703D2*
X8012D1*
X4287Y12011D2*
X4571D1*
X4961D2*
X7012D1*
X11215D2*
X12950D1*
X18508D2*
X18649D1*
X5305Y11762D2*
X7012D1*
X11215D2*
X12704D1*
X13656D2*
X13813D1*
X18433D2*
X18649D1*
X5402Y11513D2*
X7012D1*
X11215D2*
X12454D1*
X13406D2*
X13774D1*
X14516D2*
X14868D1*
X18351D2*
X18649D1*
X5391Y11265D2*
X7012D1*
X13160D2*
X13774D1*
X14465D2*
X14985D1*
X18457D2*
X18649D1*
X12910Y11016D2*
X13497D1*
X15848D2*
X16489D1*
X18445D2*
X18649D1*
X12707Y10767D2*
X13497D1*
X15848D2*
X16630D1*
X18465D2*
X18649D1*
X12707Y10519D2*
X13497D1*
X15848D2*
X17255D1*
X18465D2*
X18649D1*
X15848Y10270D2*
X17255D1*
X18465D2*
X18649D1*
X18465Y10021D2*
X18649D1*
X18355Y9772D2*
X18649D1*
X15973Y9524D2*
X16618D1*
X18355D2*
X18649D1*
X16133Y9275D2*
X16618D1*
X18355D2*
X18649D1*
X9637Y9026D2*
X11360D1*
X16133D2*
X16618D1*
X18340D2*
X18649D1*
X4605Y8778D2*
X5012D1*
X9387D2*
X11383D1*
X16133D2*
X16618D1*
X18340D2*
X18649D1*
X4605Y8529D2*
X5012D1*
X9391D2*
X11594D1*
X16133D2*
X16798D1*
X18133D2*
X18649D1*
X4605Y8280D2*
X5012D1*
X9547D2*
X11770D1*
X16133D2*
X16798D1*
X18094D2*
X18649D1*
X6051Y8032D2*
X6145D1*
X9516D2*
X12165D1*
X16133D2*
X16798D1*
X18094D2*
X18649D1*
X9004Y7783D2*
X12165D1*
X16133D2*
X16798D1*
X18262D2*
X18649D1*
X9816Y7534D2*
X12165D1*
X15801D2*
X16798D1*
X18308D2*
X18649D1*
X9922Y7286D2*
X12165D1*
X16129D2*
X16798D1*
X18234D2*
X18649D1*
X16129Y7037D2*
X16798D1*
X17488D2*
X17622D1*
X17878D2*
X18649D1*
X16129Y6788D2*
X16798D1*
X17488D2*
X18649D1*
X16129Y6540D2*
X16798D1*
X17488D2*
X18649D1*
X4287Y6291D2*
X5044D1*
X12566D2*
X13083D1*
X16129D2*
X16708D1*
X17578D2*
X18649D1*
X4287Y6042D2*
X4481D1*
X12566D2*
X13083D1*
X16129D2*
X16770D1*
X18391D2*
X18649D1*
X5945Y5793D2*
X6813D1*
X12566D2*
X13083D1*
X16129D2*
X16930D1*
X6105Y5545D2*
X6981D1*
X10215D2*
X13083D1*
X16129D2*
X16770D1*
X6187Y5296D2*
X6981D1*
X10215D2*
X13083D1*
X16129D2*
X16684D1*
X6215Y5047D2*
X6981D1*
X10187D2*
X13083D1*
X16129D2*
X16661D1*
X6183Y4799D2*
X7786D1*
X10187D2*
X13083D1*
X16129D2*
X16692D1*
X6090Y4550D2*
X7938D1*
X16129D2*
X16786D1*
X5918Y4301D2*
X8067D1*
X13676D2*
X16958D1*
X6078Y7919D2*
X6410D1*
X6409Y8002D1*
X6308D1*
X6186Y8025D1*
X6078Y8096D1*
X6001Y8064D1*
X6064Y7960D1*
X6141Y7919D1*
X6269Y7915D1*
X6304Y8002D1*
X6182Y8026D1*
X6079Y8095D1*
X10163Y5081D2*
Y4712D1*
X13109D1*
X13107Y6411D1*
X12542D1*
Y5632D1*
X11775Y5636D1*
X11662Y5632D1*
X11145Y5636D1*
X11032Y5632D1*
X10515Y5636D1*
X10402Y5632D1*
X10200Y5636D1*
X10212Y5632D1*
X10185D1*
X10189Y5519D1*
Y5080D1*
X10163D1*
X11189Y12144D2*
Y11399D1*
X11597Y11395D1*
X11710Y11399D1*
X12227Y11395D1*
X12365Y11399D1*
X13133Y12168D1*
X11189Y12169D1*
Y12144D1*
X14648Y11227D2*
X15011D1*
X15010Y11391D1*
X14913Y11491D1*
X14844Y11594D1*
X14819Y11717D1*
Y11838D1*
X14440Y11462D1*
Y11223D1*
X14720Y11227D1*
X14648D1*
X15823Y11074D2*
Y10231D1*
X17278D1*
X17280Y10624D1*
X17109Y10589D1*
X16984Y10594D1*
X16864Y10626D1*
X16753Y10683D1*
X16657Y10763D1*
X16580Y10861D1*
X16526Y10973D1*
X16501Y11076D1*
X15822Y11075D1*
X13645Y11227D2*
X13798D1*
X13800Y11610D1*
X13824Y11732D1*
X13894Y11836D1*
X14228Y12171D1*
X14011Y12169D1*
X13994Y12062D1*
X13939Y11950D1*
X13853Y11860D1*
X13744Y11800D1*
X13648Y11781D1*
X12683Y10813D1*
X12682Y10472D1*
X13467Y10474D1*
X13463Y9707D1*
X13467Y9659D1*
Y9306D1*
X13525Y9309D1*
X13467Y9344D1*
Y9309D1*
X13526Y9395D1*
X13520Y10073D1*
Y11227D1*
X13645D1*
X16656Y9544D2*
Y9591D1*
X16641Y9544D1*
X16653D1*
X16596Y9591D1*
X15944D1*
X15946Y9306D1*
X16108Y9309D1*
Y7656D1*
X15893D1*
X15712Y7470D1*
X15609Y7401D1*
X15486Y7376D1*
X14831D1*
X14710Y7401D1*
X14678Y7402D1*
X14551Y7376D1*
X13750D1*
X13751Y7340D1*
X16106D1*
Y4349D1*
X13689D1*
X13612Y4264D1*
X14887Y4262D1*
X17016D1*
X16876Y4436D1*
X16812Y4544D1*
X16761Y4658D1*
X16722Y4777D1*
X16698Y4899D1*
X16686Y5024D1*
X16689Y5149D1*
X16706Y5272D1*
X16736Y5394D1*
X16779Y5511D1*
X16835Y5622D1*
X16903Y5727D1*
X17024Y5865D1*
X16924Y5910D1*
X16830Y5992D1*
X16765Y6098D1*
X16734Y6219D1*
X16742Y6343D1*
X16786Y6460D1*
X16823Y6505D1*
Y8581D1*
X16641Y8580D1*
Y9544D1*
X18329Y9798D2*
Y9128D1*
X18317D1*
X18314Y8580D1*
X18122D1*
X18106Y8525D1*
X18077Y8472D1*
X18070Y8089D1*
Y7991D1*
X18167Y7897D1*
X18233Y7791D1*
X18273Y7673D1*
X18285Y7562D1*
X18270Y7438D1*
X18227Y7321D1*
X18158Y7217D1*
X18067Y7132D1*
X17959Y7070D1*
X17839Y7035D1*
X17715Y7028D1*
X17592Y7051D1*
X17463Y7113D1*
Y6511D1*
X17504Y6450D1*
X17546Y6333D1*
X17553Y6257D1*
X17537Y6153D1*
X17754Y6187D1*
X17879Y6186D1*
X18003Y6172D1*
X18125Y6144D1*
X18243Y6103D1*
X18356Y6048D1*
X18462Y5982D1*
X18560Y5905D1*
X18675Y5783D1*
Y12321D1*
X18651Y12232D1*
X18596Y12121D1*
X18510Y12031D1*
X18439Y11991D1*
X18427Y11831D1*
X18387Y11713D1*
X18323Y11606D1*
X18283Y11563D1*
X18378Y11429D1*
X18422Y11312D1*
X18440Y11168D1*
X18427Y11044D1*
X18405Y10961D1*
X18440D1*
Y9800D1*
X18327D1*
X4580Y8035D2*
X5034D1*
X5037Y8435D1*
X5041Y8814D1*
X5037Y8859D1*
X4985Y8835D1*
X4864Y8803D1*
X4740Y8796D1*
X4583Y8826D1*
X4580Y8035D1*
X5374Y11291D2*
X5342Y11191D1*
X5900Y11194D1*
X7040D1*
X7038Y12570D1*
X5343Y12573D1*
X5043D1*
X5044Y12391D1*
X4259D1*
X4262Y11862D1*
Y11772D1*
X4378Y11898D1*
X4482Y11966D1*
X4599Y12012D1*
X4721Y12033D1*
X4846Y12030D1*
X4968Y12001D1*
X5081Y11949D1*
X5182Y11875D1*
X5265Y11783D1*
X5329Y11675D1*
X5370Y11557D1*
X5386Y11415D1*
X5374Y11291D1*
X7792Y4901D2*
X7008D1*
Y5616D1*
X6881Y5743D1*
X6808Y5830D1*
X5888D1*
X5977Y5719D1*
X6044Y5614D1*
X6099Y5502D1*
X6141Y5384D1*
X6170Y5263D1*
X6188Y5062D1*
X6181Y4937D1*
X6161Y4814D1*
X6126Y4694D1*
X6079Y4578D1*
X6019Y4469D1*
X5948Y4366D1*
X5851Y4259D1*
X6762Y4262D1*
X8133D1*
X8089Y4303D1*
X8016Y4413D1*
X7990Y4531D1*
X7928Y4584D1*
X7855Y4686D1*
X7809Y4801D1*
X7795Y4898D1*
X14903Y15352D2*
Y15719D1*
X14665Y15721D1*
X14663Y15116D1*
X14906Y15358D1*
X17209Y15438D2*
X17174Y15318D1*
X17117Y15207D1*
X17040Y15109D1*
X16961Y15039D1*
X18078Y15038D1*
X18080Y16052D1*
X17950Y16178D1*
X16800Y16176D1*
X16933Y16106D1*
X17029Y16027D1*
X17109Y15930D1*
X17168Y15821D1*
X17206Y15702D1*
X17221Y15562D1*
X17209Y15438D1*
X7679Y12198D2*
X8098D1*
X8037Y12259D1*
X7966Y12362D1*
X7940Y12488D1*
Y13278D1*
X7964Y13400D1*
X8034Y13504D1*
X8081Y13551D1*
X8080Y13744D1*
X7332Y13743D1*
X7334Y13650D1*
X6429D1*
Y13276D1*
X5445D1*
Y13600D1*
X5042Y13602D1*
X5044Y13216D1*
X5562Y13213D1*
X7218D1*
X7340Y13189D1*
X7445Y13119D1*
X7585Y12979D1*
X7654Y12876D1*
X7678Y12753D1*
Y12194D1*
X5059Y6339D2*
X4991Y6397D1*
X4966Y6432D1*
X4400Y6430D1*
X4279Y6454D1*
X4262Y6362D1*
Y5858D1*
X4420Y5988D1*
X4527Y6053D1*
X4640Y6106D1*
X4758Y6147D1*
X4880Y6174D1*
X5004Y6187D1*
X5118Y6186D1*
X5077Y6262D1*
X5059Y6327D1*
X5080Y6258D1*
X12188Y7050D2*
X12192Y7954D1*
X12188Y8110D1*
X12027Y8119D1*
X11913Y8169D1*
X11819Y8251D1*
X11754Y8357D1*
X11742Y8406D1*
X11478Y8671D1*
X11408Y8774D1*
X11384Y8897D1*
Y9049D1*
X11254Y9176D1*
X9758Y9175D1*
X9188Y8603D1*
X9305Y8566D1*
X9406Y8493D1*
X9481Y8394D1*
X9522Y8276D1*
X9529Y8201D1*
X9510Y8078D1*
X9455Y7966D1*
X9369Y7876D1*
X9260Y7816D1*
X9138Y7791D1*
X9014Y7804D1*
X8982Y7818D1*
X8979Y7573D1*
X9234Y7576D1*
X9313Y7626D1*
X9432Y7662D1*
X9557Y7660D1*
X9675Y7621D1*
X9776Y7549D1*
X9851Y7449D1*
X9892Y7331D1*
X9899Y7256D1*
X9880Y7133D1*
X9841Y7052D1*
X12188Y7051D1*
X12192Y7639D1*
X12188Y7752D1*
Y8108D1*
X10778Y15352D2*
Y16176D1*
X9253D1*
X8820Y15742D1*
X8846Y15578D1*
X8834Y15438D1*
X8805Y15337D1*
X10763Y15339D1*
X13084Y15438D2*
X13049Y15318D1*
X12992Y15207D1*
X12915Y15109D1*
X12864Y15059D1*
X13635D1*
X13757Y15035D1*
X13861Y14965D1*
X13974Y14851D1*
X14023Y14813D1*
Y15901D1*
X14047Y16023D1*
X14116Y16127D1*
X14163Y16174D1*
X12675Y16176D1*
X12808Y16106D1*
X12904Y16027D1*
X12984Y15930D1*
X13043Y15821D1*
X13081Y15702D1*
X13096Y15562D1*
X13084Y15438D1*
X6653Y16221D2*
X7846D1*
X7848Y16127D1*
X7961Y16181D1*
X8082Y16213D1*
X8206Y16221D1*
X8364Y16194D1*
X8660Y16487D1*
X5858D1*
X5977Y16344D1*
X6044Y16239D1*
X6099Y16127D1*
X6141Y16009D1*
X6170Y15888D1*
X6188Y15687D1*
X6181Y15562D1*
X6161Y15439D1*
X6126Y15319D1*
X6079Y15203D1*
X6019Y15094D1*
X5948Y14991D1*
X5810Y14847D1*
X6022Y14850D1*
X6528Y15355D1*
Y16221D1*
X6653D1*
X7846Y14998D2*
Y14903D1*
X6983D1*
X6571Y14493D1*
X6601Y14476D1*
X7334D1*
Y14386D1*
X7843Y14383D1*
X7870D1*
X7867Y14988D1*
X7846Y15000D1*
X12669Y13958D2*
Y13661D1*
X12943Y13659D1*
X12945Y13952D1*
X12839Y13955D1*
X12669D1*
X11705Y13658D2*
Y13955D1*
X11641D1*
Y14561D1*
X11039Y14559D1*
X11038Y14477D1*
X11209Y14476D1*
Y13657D1*
X11708Y13659D1*
X12669Y12894D2*
Y12812D1*
X13509Y12809D1*
X14576D1*
X14575Y13460D1*
X14269D1*
X14290Y13339D1*
X14271Y13216D1*
X14216Y13104D1*
X14130Y13014D1*
X14021Y12954D1*
X13899Y12930D1*
X13775Y12943D1*
X13661Y12993D1*
X13628Y13021D1*
X12669Y13019D1*
Y12894D1*
X9044Y13958D2*
Y13661D1*
X9318Y13659D1*
X9320Y13952D1*
X9214Y13955D1*
X9044D1*
Y12695D2*
Y12516D1*
X8688D1*
X8975Y12226D1*
X9062Y12277D1*
Y12695D1*
X6437Y7918D2*
D16*
Y7437D1*
X9661Y4926D2*
X10162D1*
X9687Y5562D2*
X10188D1*
X10687Y12187D2*
X11188D1*
X10687Y11562D2*
X11188D1*
X15223Y10587D2*
X15822D1*
X16657Y9609D2*
X17158D1*
X7500Y5314D2*
Y4902D1*
X7008Y5314D2*
X7500D1*
X6606Y6312D2*
Y5831D1*
X7709Y12198D2*
Y11716D1*
X12189Y6941D2*
X12828D1*
Y9775D2*
X13467D1*
X14728Y7340D2*
Y4349D1*
Y5844D2*
X16105D1*
X9187Y14437D2*
Y13956D1*
X12812Y14437D2*
Y13956D1*
X5937Y14849D2*
Y14437D1*
D17*
X6437Y7437D3*
X5768D3*
X9661Y4926D3*
X8992D3*
X9687Y5562D3*
X9018D3*
X10687Y12187D3*
X10018D3*
X6437Y6812D3*
X7106D3*
X10687Y11562D3*
X10018D3*
X7709Y11716D3*
X8379D3*
X15491Y13393D3*
X16160D3*
X15512Y12161D3*
X16181D3*
X15475Y14506D3*
X16145D3*
D18*
X14691Y9668D3*
Y8566D3*
D19*
X15223Y10587D3*
X14120D3*
D17*
X17158Y9609D3*
X17827D3*
D20*
X17750Y7562D3*
D21*
X16750D3*
D24*
X7495Y9195D3*
X7062D3*
X6566Y9092D3*
X6133D3*
X7375Y8424D3*
X6942D3*
X7459Y7954D3*
X7026D3*
D26*
X13437Y14437D3*
Y13689D3*
X14343Y14063D3*
X9812Y14437D3*
Y13689D3*
X10718Y14063D3*
X5937Y14437D3*
Y13689D3*
X6843Y14063D3*
D27*
X17860Y10380D3*
D28*
Y11168D3*
Y11955D3*
Y12742D3*
Y13530D3*
Y14317D3*
X17073D3*
Y13530D3*
Y12742D3*
Y11955D3*
Y11168D3*
Y10380D3*
D29*
X4766Y7415D3*
D30*
Y8415D3*
Y9415D3*
Y10415D3*
Y11415D3*
D26*
X7500Y6062D3*
Y5314D3*
X8405Y5688D3*
D31*
X15562Y15562D3*
D32*
X16562D3*
X17562D3*
D31*
X7187D3*
D32*
X8187D3*
X9187D3*
D31*
X11437D3*
D32*
X12437D3*
X13437D3*
D17*
X17812Y9062D3*
X17143D3*
X5937Y6312D3*
X6606D3*
D33*
X5519Y8312D3*
Y8981D3*
D17*
X8982Y4392D3*
X9652D3*
X6519Y10042D3*
X5850D3*
D33*
X12187Y13687D3*
Y13018D3*
X8562Y13687D3*
Y13018D3*
X4562Y13562D3*
Y12893D3*
D17*
X9187Y14437D3*
X8518D3*
X5235Y14269D3*
X4566D3*
X12812Y14437D3*
X12143D3*
X15491Y12762D3*
X16160D3*
X15512Y11556D3*
X16181D3*
X15475Y13920D3*
X16145D3*
X7754Y11102D3*
X8424D3*
D34*
X6877Y10533D3*
X5375Y6750D3*
X8312Y4937D3*
X9041Y11708D3*
D36*
X12828Y6941D3*
Y7256D3*
Y7571D3*
Y7886D3*
Y8201D3*
Y8516D3*
Y8831D3*
Y9146D3*
Y9461D3*
Y9775D3*
Y10090D3*
D37*
X12158Y10760D3*
X11844D3*
X11529D3*
X11214D3*
X10899D3*
X10584D3*
X10269D3*
X9954D3*
X9639D3*
X9324D3*
X9009D3*
D36*
X8340Y10090D3*
Y9775D3*
Y9461D3*
Y9146D3*
Y8831D3*
Y8516D3*
Y8201D3*
Y7886D3*
Y7571D3*
Y7256D3*
Y6941D3*
D37*
X9009Y6272D3*
X9324D3*
X9639D3*
X9954D3*
X10269D3*
X10584D3*
X10899D3*
X11214D3*
X11529D3*
X11844D3*
X12158D3*
D38*
X15626Y8482D3*
X13831D3*
D39*
X14728Y5844D3*
M02*
