G04 DipTrace 2.4.0.2*
%INTopAssy.gbr*%
%MOIN*%
%ADD10C,0.0098*%
%ADD12C,0.003*%
%FSLAX44Y44*%
G04*
G70*
G90*
G75*
G01*
%LNTopAssy*%
%LPD*%
X3967Y5999D2*
D10*
Y11983D1*
X3584Y7996D2*
D12*
X3784D1*
Y8082D1*
X3775Y8111D1*
X3765Y8121D1*
X3746Y8130D1*
X3718D1*
X3698Y8121D1*
X3689Y8111D1*
X3679Y8082D1*
X3670Y8111D1*
X3660Y8121D1*
X3641Y8130D1*
X3622D1*
X3603Y8121D1*
X3593Y8111D1*
X3584Y8082D1*
Y7996D1*
X3679D2*
Y8082D1*
X3584Y8249D2*
X3593Y8230D1*
X3612Y8211D1*
X3631Y8201D1*
X3660Y8192D1*
X3708D1*
X3737Y8201D1*
X3756Y8211D1*
X3775Y8230D1*
X3784Y8249D1*
Y8288D1*
X3775Y8307D1*
X3756Y8326D1*
X3737Y8335D1*
X3708Y8345D1*
X3660D1*
X3631Y8335D1*
X3612Y8326D1*
X3593Y8307D1*
X3584Y8288D1*
Y8249D1*
X3784Y8560D2*
X3584Y8483D1*
X3784Y8407D1*
X3718Y8435D2*
Y8531D1*
X3679Y8622D2*
Y8708D1*
X3670Y8736D1*
X3660Y8746D1*
X3641Y8756D1*
X3622D1*
X3603Y8746D1*
X3593Y8736D1*
X3584Y8708D1*
Y8622D1*
X3784D1*
X3679Y8689D2*
X3784Y8756D1*
X3584Y8817D2*
X3784D1*
Y8884D1*
X3775Y8913D1*
X3756Y8932D1*
X3737Y8942D1*
X3708Y8951D1*
X3660D1*
X3631Y8942D1*
X3612Y8932D1*
X3593Y8913D1*
X3584Y8884D1*
Y8817D1*
Y9332D2*
Y9207D1*
X3784D1*
Y9332D1*
X3679Y9207D2*
Y9284D1*
X3584Y9393D2*
X3784D1*
Y9460D1*
X3775Y9489D1*
X3756Y9508D1*
X3737Y9518D1*
X3708Y9527D1*
X3660D1*
X3631Y9518D1*
X3612Y9508D1*
X3593Y9489D1*
X3584Y9460D1*
Y9393D1*
X3631Y9733D2*
X3612Y9723D1*
X3593Y9704D1*
X3584Y9685D1*
Y9647D1*
X3593Y9627D1*
X3612Y9608D1*
X3631Y9599D1*
X3660Y9589D1*
X3708D1*
X3737Y9599D1*
X3756Y9608D1*
X3775Y9627D1*
X3784Y9647D1*
Y9685D1*
X3775Y9704D1*
X3756Y9723D1*
X3737Y9733D1*
X3708D1*
Y9685D1*
X3584Y9919D2*
Y9794D1*
X3784D1*
Y9919D1*
X3679Y9794D2*
Y9871D1*
M02*
