G04 DipTrace 2.4.0.2*
%INTopDimension.gbr*%
%MOIN*%
%ADD13C,0.0014*%
%ADD82C,0.0062*%
%FSLAX44Y44*%
G04*
G70*
G90*
G75*
G01*
%LNTopDimension*%
%LPD*%
X3937Y16812D2*
D13*
Y18361D1*
X19000Y16812D2*
Y18361D1*
X11468Y18164D2*
X4331D1*
G36*
X3937D2*
X4331Y18242D1*
Y18085D1*
X3937Y18164D1*
G37*
X11468D2*
D13*
X18606D1*
G36*
X19000D2*
X18606Y18085D1*
Y18242D1*
X19000Y18164D1*
G37*
Y16812D2*
D13*
X20259D1*
X19000Y3937D2*
X20259D1*
X20062Y10375D2*
Y16418D1*
G36*
Y16812D2*
X20141Y16418D1*
X19983D1*
X20062Y16812D1*
G37*
Y10375D2*
D13*
Y4331D1*
G36*
Y3937D2*
X19983Y4331D1*
X20141D1*
X20062Y3937D1*
G37*
X5062Y15687D2*
D13*
X2988D1*
X5062Y5062D2*
X2988D1*
X3185Y10375D2*
Y15293D1*
G36*
Y15687D2*
X3264Y15293D1*
X3106D1*
X3185Y15687D1*
G37*
Y10375D2*
D13*
Y5456D1*
G36*
Y5062D2*
X3106Y5456D1*
X3264D1*
X3185Y5062D1*
G37*
X5062D2*
D13*
Y3241D1*
X17812Y5062D2*
Y3241D1*
X11437Y3438D2*
X5456D1*
G36*
X5062D2*
X5456Y3517D1*
Y3359D1*
X5062Y3438D1*
G37*
X11437D2*
D13*
X17418D1*
G36*
X17812D2*
X17418Y3359D1*
Y3517D1*
X17812Y3438D1*
G37*
X5062Y5062D2*
D13*
Y2428D1*
X3937Y3937D2*
Y2428D1*
X4500Y2625D2*
X4668D1*
G36*
X5062D2*
X4668Y2547D1*
Y2704D1*
X5062Y2625D1*
G37*
X4500D2*
D13*
X4331D1*
G36*
X3937D2*
X4331Y2704D1*
Y2547D1*
X3937Y2625D1*
G37*
X6716D2*
D13*
X5062D1*
X4482Y15687D2*
Y17884D1*
X5642Y15687D2*
Y17884D1*
X4482Y17687D2*
X5642D1*
X3891D2*
X4088D1*
G36*
X4482D2*
X4088Y17608D1*
Y17766D1*
X4482Y17687D1*
G37*
X6233D2*
D13*
X6036D1*
G36*
X5642D2*
X6036Y17766D1*
Y17608D1*
X5642Y17687D1*
G37*
X10597Y18611D2*
D82*
X10635Y18630D1*
X10693Y18687D1*
Y18286D1*
X11046Y18687D2*
X10855D1*
X10836Y18515D1*
X10855Y18534D1*
X10912Y18554D1*
X10969D1*
X11027Y18534D1*
X11065Y18496D1*
X11084Y18439D1*
Y18401D1*
X11065Y18343D1*
X11027Y18305D1*
X10969Y18286D1*
X10912D1*
X10855Y18305D1*
X10836Y18324D1*
X10816Y18362D1*
X11323Y18687D2*
X11265Y18668D1*
X11227Y18611D1*
X11208Y18515D1*
Y18458D1*
X11227Y18362D1*
X11265Y18305D1*
X11323Y18286D1*
X11361D1*
X11418Y18305D1*
X11456Y18362D1*
X11476Y18458D1*
Y18515D1*
X11456Y18611D1*
X11418Y18668D1*
X11361Y18687D1*
X11323D1*
X11456Y18611D2*
X11227Y18362D1*
X11829Y18630D2*
X11810Y18668D1*
X11752Y18687D1*
X11714D1*
X11657Y18668D1*
X11618Y18611D1*
X11599Y18515D1*
Y18420D1*
X11618Y18343D1*
X11657Y18305D1*
X11714Y18286D1*
X11733D1*
X11790Y18305D1*
X11829Y18343D1*
X11848Y18401D1*
Y18420D1*
X11829Y18477D1*
X11790Y18515D1*
X11733Y18534D1*
X11714D1*
X11657Y18515D1*
X11618Y18477D1*
X11599Y18420D1*
X11990Y18324D2*
X11971Y18305D1*
X11990Y18286D1*
X12010Y18305D1*
X11990Y18324D1*
X12153Y18592D2*
Y18611D1*
X12172Y18649D1*
X12191Y18668D1*
X12229Y18687D1*
X12306D1*
X12344Y18668D1*
X12363Y18649D1*
X12382Y18611D1*
Y18573D1*
X12363Y18534D1*
X12325Y18477D1*
X12133Y18286D1*
X12401D1*
X20509Y11255D2*
X20529Y11217D1*
X20586Y11159D1*
X20184D1*
X20490Y11016D2*
X20509D1*
X20548Y10997D1*
X20567Y10978D1*
X20586Y10940D1*
Y10863D1*
X20567Y10825D1*
X20548Y10806D1*
X20509Y10787D1*
X20471D1*
X20433Y10806D1*
X20376Y10844D1*
X20184Y11036D1*
Y10768D1*
X20586Y10549D2*
X20567Y10606D1*
X20529Y10625D1*
X20490D1*
X20452Y10606D1*
X20433Y10568D1*
X20414Y10491D1*
X20395Y10434D1*
X20356Y10396D1*
X20318Y10377D1*
X20261D1*
X20223Y10396D1*
X20203Y10415D1*
X20184Y10472D1*
Y10549D1*
X20203Y10606D1*
X20223Y10625D1*
X20261Y10644D1*
X20318D1*
X20356Y10625D1*
X20395Y10587D1*
X20414Y10530D1*
X20433Y10453D1*
X20452Y10415D1*
X20490Y10396D1*
X20529D1*
X20567Y10415D1*
X20586Y10472D1*
Y10549D1*
X20184Y10177D2*
X20586Y9985D1*
Y10253D1*
X20223Y9843D2*
X20203Y9862D1*
X20184Y9843D1*
X20203Y9823D1*
X20223Y9843D1*
X20586Y9470D2*
Y9661D1*
X20414Y9680D1*
X20433Y9661D1*
X20452Y9604D1*
Y9547D1*
X20433Y9489D1*
X20395Y9451D1*
X20337Y9432D1*
X20299D1*
X20242Y9451D1*
X20203Y9489D1*
X20184Y9547D1*
Y9604D1*
X20203Y9661D1*
X20223Y9680D1*
X20261Y9700D1*
X2738Y9503D2*
X2719Y9542D1*
X2662Y9599D1*
X3063D1*
X2662Y9838D2*
X2681Y9780D1*
X2738Y9742D1*
X2834Y9723D1*
X2891D1*
X2987Y9742D1*
X3044Y9780D1*
X3063Y9838D1*
Y9876D1*
X3044Y9933D1*
X2987Y9971D1*
X2891Y9991D1*
X2834D1*
X2738Y9971D1*
X2681Y9933D1*
X2662Y9876D1*
Y9838D1*
X2738Y9971D2*
X2987Y9742D1*
X2719Y10344D2*
X2681Y10325D1*
X2662Y10267D1*
Y10229D1*
X2681Y10172D1*
X2738Y10133D1*
X2834Y10114D1*
X2929D1*
X3006Y10133D1*
X3044Y10172D1*
X3063Y10229D1*
Y10248D1*
X3044Y10305D1*
X3006Y10344D1*
X2948Y10363D1*
X2929D1*
X2872Y10344D1*
X2834Y10305D1*
X2815Y10248D1*
Y10229D1*
X2834Y10172D1*
X2872Y10133D1*
X2929Y10114D1*
X2757Y10506D2*
X2738D1*
X2700Y10525D1*
X2681Y10544D1*
X2662Y10582D1*
Y10659D1*
X2681Y10697D1*
X2700Y10716D1*
X2738Y10735D1*
X2776D1*
X2815Y10716D1*
X2872Y10678D1*
X3063Y10486D1*
Y10754D1*
X3025Y10897D2*
X3044Y10878D1*
X3063Y10897D1*
X3044Y10916D1*
X3025Y10897D1*
X2662Y11269D2*
Y11078D1*
X2834Y11059D1*
X2815Y11078D1*
X2795Y11136D1*
Y11193D1*
X2815Y11250D1*
X2853Y11289D1*
X2910Y11308D1*
X2948D1*
X3006Y11289D1*
X3044Y11250D1*
X3063Y11193D1*
Y11136D1*
X3044Y11078D1*
X3025Y11059D1*
X2987Y11040D1*
X10833Y3885D2*
X10871Y3904D1*
X10929Y3961D1*
Y3560D1*
X11072Y3866D2*
Y3885D1*
X11091Y3923D1*
X11110Y3942D1*
X11148Y3961D1*
X11225D1*
X11263Y3942D1*
X11282Y3923D1*
X11301Y3885D1*
Y3847D1*
X11282Y3808D1*
X11244Y3751D1*
X11052Y3560D1*
X11320D1*
X11520D2*
X11712Y3961D1*
X11444D1*
X12065D2*
X11874D1*
X11855Y3789D1*
X11874Y3808D1*
X11931Y3828D1*
X11988D1*
X12046Y3808D1*
X12084Y3770D1*
X12103Y3713D1*
Y3675D1*
X12084Y3617D1*
X12046Y3579D1*
X11988Y3560D1*
X11931D1*
X11874Y3579D1*
X11855Y3598D1*
X11835Y3636D1*
X5548Y3072D2*
X5587Y3092D1*
X5644Y3149D1*
Y2747D1*
X5768Y3072D2*
X5806Y3092D1*
X5864Y3149D1*
Y2747D1*
X6007Y3053D2*
Y3072D1*
X6026Y3111D1*
X6045Y3130D1*
X6083Y3149D1*
X6160D1*
X6198Y3130D1*
X6217Y3111D1*
X6236Y3072D1*
Y3034D1*
X6217Y2996D1*
X6179Y2939D1*
X5987Y2747D1*
X6255D1*
X6398Y2786D2*
X6379Y2766D1*
X6398Y2747D1*
X6417Y2766D1*
X6398Y2786D1*
X6770Y3149D2*
X6579D1*
X6560Y2977D1*
X6579Y2996D1*
X6637Y3015D1*
X6694D1*
X6751Y2996D1*
X6790Y2958D1*
X6809Y2900D1*
Y2862D1*
X6790Y2805D1*
X6751Y2766D1*
X6694Y2747D1*
X6637D1*
X6579Y2766D1*
X6560Y2786D1*
X6541Y2824D1*
X4749Y18134D2*
X4788Y18154D1*
X4845Y18211D1*
Y17809D1*
X4969Y18134D2*
X5007Y18154D1*
X5065Y18211D1*
Y17809D1*
X5418Y18154D2*
X5399Y18192D1*
X5341Y18211D1*
X5303D1*
X5246Y18192D1*
X5207Y18134D1*
X5188Y18039D1*
Y17943D1*
X5207Y17867D1*
X5246Y17828D1*
X5303Y17809D1*
X5322D1*
X5379Y17828D1*
X5418Y17867D1*
X5437Y17924D1*
Y17943D1*
X5418Y18001D1*
X5379Y18039D1*
X5322Y18058D1*
X5303D1*
X5246Y18039D1*
X5207Y18001D1*
X5188Y17943D1*
M02*
