G04 DipTrace 2.4.0.2*
%INTopPaste.gbr*%
%MOIN*%
%ADD34C,0.0472*%
%ADD48R,0.2165X0.2401*%
%ADD50R,0.0374X0.1063*%
%ADD52R,0.0177X0.0689*%
%ADD54R,0.0689X0.0177*%
%ADD58R,0.0374X0.0413*%
%ADD68R,0.0393X0.0236*%
%ADD70R,0.0295X0.0216*%
%ADD76R,0.061X0.0689*%
%ADD78R,0.0689X0.061*%
%ADD80R,0.0413X0.0374*%
%FSLAX44Y44*%
G04*
G70*
G90*
G75*
G01*
%LNTopPaste*%
%LPD*%
D80*
X6437Y7437D3*
X5768D3*
X9661Y4926D3*
X8992D3*
X9687Y5562D3*
X9018D3*
X10687Y12187D3*
X10018D3*
X6437Y6812D3*
X7106D3*
X10687Y11562D3*
X10018D3*
X7709Y11716D3*
X8379D3*
X15491Y13393D3*
X16160D3*
X15512Y12161D3*
X16181D3*
X15475Y14506D3*
X16145D3*
D78*
X14691Y9668D3*
Y8566D3*
D76*
X15223Y10587D3*
X14120D3*
D80*
X17158Y9609D3*
X17827D3*
D70*
X7495Y9195D3*
X7062D3*
X6566Y9092D3*
X6133D3*
X7375Y8424D3*
X6942D3*
X7459Y7954D3*
X7026D3*
D68*
X13437Y14437D3*
Y13689D3*
X14343Y14063D3*
X9812Y14437D3*
Y13689D3*
X10718Y14063D3*
X5937Y14437D3*
Y13689D3*
X6843Y14063D3*
X7500Y6062D3*
Y5314D3*
X8405Y5688D3*
D80*
X17812Y9062D3*
X17143D3*
X5937Y6312D3*
X6606D3*
D58*
X5519Y8312D3*
Y8981D3*
D80*
X8982Y4392D3*
X9652D3*
X6519Y10042D3*
X5850D3*
D58*
X12187Y13687D3*
Y13018D3*
X8562Y13687D3*
Y13018D3*
X4562Y13562D3*
Y12893D3*
D80*
X9187Y14437D3*
X8518D3*
X5235Y14269D3*
X4566D3*
X12812Y14437D3*
X12143D3*
X15491Y12762D3*
X16160D3*
X15512Y11556D3*
X16181D3*
X15475Y13920D3*
X16145D3*
X7754Y11102D3*
X8424D3*
D34*
X6877Y10533D3*
X5375Y6750D3*
X8312Y4937D3*
X9041Y11708D3*
D54*
X12828Y6941D3*
Y7256D3*
Y7571D3*
Y7886D3*
Y8201D3*
Y8516D3*
Y8831D3*
Y9146D3*
Y9461D3*
Y9775D3*
Y10090D3*
D52*
X12158Y10760D3*
X11844D3*
X11529D3*
X11214D3*
X10899D3*
X10584D3*
X10269D3*
X9954D3*
X9639D3*
X9324D3*
X9009D3*
D54*
X8340Y10090D3*
Y9775D3*
Y9461D3*
Y9146D3*
Y8831D3*
Y8516D3*
Y8201D3*
Y7886D3*
Y7571D3*
Y7256D3*
Y6941D3*
D52*
X9009Y6272D3*
X9324D3*
X9639D3*
X9954D3*
X10269D3*
X10584D3*
X10899D3*
X11214D3*
X11529D3*
X11844D3*
X12158D3*
D50*
X15626Y8482D3*
X13831D3*
D48*
X14728Y5844D3*
M02*
