G04 DipTrace 2.4.0.2*
%INTopSilk.gbr*%
%MOIN*%
%ADD10C,0.0098*%
%ADD26C,0.0154*%
%ADD32C,0.0236*%
%ADD73C,0.0046*%
%FSLAX44Y44*%
G04*
G70*
G90*
G75*
G01*
%LNTopSilk*%
%LPD*%
X14563Y10630D2*
D10*
X15192D1*
X14563Y10704D2*
X15192D1*
X14563D2*
Y10469D1*
X15192Y10704D2*
Y10469D1*
X13557Y11577D2*
Y10948D1*
X13632Y11577D2*
Y10948D1*
Y11577D2*
X13396D1*
X13632Y10948D2*
X13396D1*
X16253Y6388D2*
Y7887D1*
X16255Y6385D2*
G03X16255Y7890I998J752D01*
G01*
X16430Y9665D2*
X18162D1*
Y12972D1*
X16430D1*
Y9665D1*
X4065Y6491D2*
X5065D1*
Y11491D1*
X4065D1*
Y6491D1*
D26*
X7355Y5946D3*
X7857Y5854D2*
D10*
Y4673D1*
X8054D1*
Y5854D1*
X7857D1*
X14596Y15201D2*
X18533D1*
Y13429D1*
X14596D1*
Y15201D1*
Y14846D2*
X18533D1*
X6346Y15201D2*
X10283D1*
Y13429D1*
X6346D1*
Y15201D1*
Y14846D2*
X10283D1*
X10471Y15201D2*
X14408D1*
Y13429D1*
X10471D1*
Y15201D1*
Y14846D2*
X14408D1*
X12299Y6379D2*
X8874D1*
Y9804D1*
X12299D1*
Y6379D1*
D32*
X12949Y6201D3*
G36*
X12291Y6394D2*
X11918Y6402D1*
X12291Y6394D1*
G37*
G36*
X12240Y6359D2*
X11768D1*
X12319Y6910D1*
X12240Y6359D1*
G37*
X16092Y9304D2*
D10*
X13493D1*
X16092Y6548D2*
Y9304D1*
Y6548D2*
X16013D1*
X13493D2*
Y9304D1*
Y6548D2*
X13572D1*
D26*
X16082Y10453D3*
X7006Y7140D2*
D73*
X6991Y7168D1*
X6963Y7197D1*
X6934Y7211D1*
X6877D1*
X6848Y7197D1*
X6819Y7168D1*
X6805Y7140D1*
X6790Y7097D1*
Y7025D1*
X6805Y6982D1*
X6819Y6953D1*
X6848Y6924D1*
X6877Y6910D1*
X6934D1*
X6963Y6924D1*
X6991Y6953D1*
X7006Y6982D1*
X7098Y7154D2*
X7127Y7168D1*
X7170Y7211D1*
Y6910D1*
X13566Y12702D2*
X13552Y12731D1*
X13523Y12760D1*
X13495Y12774D1*
X13437D1*
X13408Y12760D1*
X13380Y12731D1*
X13365Y12702D1*
X13351Y12659D1*
Y12587D1*
X13365Y12544D1*
X13380Y12515D1*
X13408Y12487D1*
X13437Y12472D1*
X13495D1*
X13523Y12487D1*
X13552Y12515D1*
X13566Y12544D1*
X13673Y12702D2*
Y12716D1*
X13688Y12745D1*
X13702Y12759D1*
X13731Y12773D1*
X13788D1*
X13817Y12759D1*
X13831Y12745D1*
X13845Y12716D1*
Y12688D1*
X13831Y12659D1*
X13802Y12616D1*
X13659Y12472D1*
X13860D1*
X10254Y5202D2*
X10239Y5231D1*
X10211Y5260D1*
X10182Y5274D1*
X10125D1*
X10096Y5260D1*
X10067Y5231D1*
X10053Y5202D1*
X10038Y5159D1*
Y5087D1*
X10053Y5044D1*
X10067Y5015D1*
X10096Y4987D1*
X10125Y4972D1*
X10182D1*
X10211Y4987D1*
X10239Y5015D1*
X10254Y5044D1*
X10375Y5273D2*
X10533D1*
X10447Y5159D1*
X10490D1*
X10518Y5144D1*
X10533Y5130D1*
X10547Y5087D1*
Y5059D1*
X10533Y5015D1*
X10504Y4987D1*
X10461Y4972D1*
X10418D1*
X10375Y4987D1*
X10361Y5001D1*
X10346Y5030D1*
X11309Y11827D2*
X11295Y11856D1*
X11266Y11885D1*
X11237Y11899D1*
X11180D1*
X11151Y11885D1*
X11123Y11856D1*
X11108Y11827D1*
X11094Y11784D1*
Y11712D1*
X11108Y11669D1*
X11123Y11640D1*
X11151Y11612D1*
X11180Y11597D1*
X11237D1*
X11266Y11612D1*
X11295Y11640D1*
X11309Y11669D1*
X11545Y11597D2*
Y11898D1*
X11402Y11698D1*
X11617D1*
X7610Y6452D2*
X7596Y6481D1*
X7567Y6510D1*
X7539Y6524D1*
X7481D1*
X7453Y6510D1*
X7424Y6481D1*
X7409Y6452D1*
X7395Y6409D1*
Y6337D1*
X7409Y6294D1*
X7424Y6265D1*
X7453Y6237D1*
X7481Y6222D1*
X7539D1*
X7567Y6237D1*
X7596Y6265D1*
X7610Y6294D1*
X7875Y6523D2*
X7732D1*
X7718Y6394D1*
X7732Y6409D1*
X7775Y6423D1*
X7818D1*
X7861Y6409D1*
X7890Y6380D1*
X7904Y6337D1*
Y6309D1*
X7890Y6265D1*
X7861Y6237D1*
X7818Y6222D1*
X7775D1*
X7732Y6237D1*
X7718Y6251D1*
X7703Y6280D1*
X11261Y11265D2*
X11247Y11293D1*
X11218Y11322D1*
X11189Y11336D1*
X11132D1*
X11103Y11322D1*
X11075Y11293D1*
X11060Y11265D1*
X11046Y11222D1*
Y11150D1*
X11060Y11107D1*
X11075Y11078D1*
X11103Y11049D1*
X11132Y11035D1*
X11189D1*
X11218Y11049D1*
X11247Y11078D1*
X11261Y11107D1*
X11526Y11293D2*
X11511Y11322D1*
X11468Y11336D1*
X11440D1*
X11397Y11322D1*
X11368Y11279D1*
X11354Y11207D1*
Y11135D1*
X11368Y11078D1*
X11397Y11049D1*
X11440Y11035D1*
X11454D1*
X11497Y11049D1*
X11526Y11078D1*
X11540Y11121D1*
Y11135D1*
X11526Y11178D1*
X11497Y11207D1*
X11454Y11221D1*
X11440D1*
X11397Y11207D1*
X11368Y11178D1*
X11354Y11135D1*
X8008Y11856D2*
X7994Y11885D1*
X7965Y11914D1*
X7936Y11928D1*
X7879D1*
X7850Y11914D1*
X7821Y11885D1*
X7807Y11856D1*
X7793Y11813D1*
Y11741D1*
X7807Y11699D1*
X7821Y11670D1*
X7850Y11641D1*
X7879Y11627D1*
X7936D1*
X7965Y11641D1*
X7994Y11670D1*
X8008Y11699D1*
X8158Y11627D2*
X8301Y11928D1*
X8100D1*
X14155Y10404D2*
X14127Y10390D1*
X14098Y10361D1*
X14084Y10333D1*
Y10275D1*
X14098Y10247D1*
X14127Y10218D1*
X14155Y10203D1*
X14199Y10189D1*
X14271D1*
X14313Y10203D1*
X14342Y10218D1*
X14371Y10247D1*
X14385Y10275D1*
Y10333D1*
X14371Y10361D1*
X14342Y10390D1*
X14313Y10404D1*
X14142Y10497D2*
X14127Y10526D1*
X14084Y10569D1*
X14385D1*
X14142Y10662D2*
X14127Y10691D1*
X14084Y10734D1*
X14385D1*
X12455Y11922D2*
X12441Y11951D1*
X12412Y11980D1*
X12383Y11994D1*
X12326D1*
X12297Y11980D1*
X12268Y11951D1*
X12254Y11922D1*
X12240Y11879D1*
Y11807D1*
X12254Y11764D1*
X12268Y11735D1*
X12297Y11707D1*
X12326Y11692D1*
X12383D1*
X12412Y11707D1*
X12441Y11735D1*
X12455Y11764D1*
X12547Y11936D2*
X12576Y11951D1*
X12619Y11993D1*
Y11692D1*
X12727Y11922D2*
Y11936D1*
X12741Y11965D1*
X12755Y11979D1*
X12784Y11993D1*
X12841D1*
X12870Y11979D1*
X12884Y11965D1*
X12899Y11936D1*
Y11908D1*
X12884Y11879D1*
X12856Y11836D1*
X12712Y11692D1*
X12913D1*
X16214Y9515D2*
X16199Y9543D1*
X16171Y9572D1*
X16142Y9586D1*
X16085D1*
X16056Y9572D1*
X16027Y9543D1*
X16013Y9515D1*
X15998Y9472D1*
Y9400D1*
X16013Y9357D1*
X16027Y9328D1*
X16056Y9299D1*
X16085Y9285D1*
X16142D1*
X16171Y9299D1*
X16199Y9328D1*
X16214Y9357D1*
X16321Y9514D2*
Y9529D1*
X16335Y9557D1*
X16349Y9572D1*
X16378Y9586D1*
X16436D1*
X16464Y9572D1*
X16478Y9557D1*
X16493Y9529D1*
Y9500D1*
X16478Y9471D1*
X16450Y9428D1*
X16306Y9285D1*
X16507D1*
X16772Y9586D2*
X16629D1*
X16614Y9457D1*
X16629Y9471D1*
X16672Y9486D1*
X16715D1*
X16758Y9471D1*
X16787Y9443D1*
X16801Y9400D1*
Y9371D1*
X16787Y9328D1*
X16758Y9299D1*
X16715Y9285D1*
X16672D1*
X16629Y9299D1*
X16614Y9314D1*
X16600Y9342D1*
X17007Y7764D2*
Y7463D1*
X17108D1*
X17151Y7477D1*
X17180Y7506D1*
X17194Y7535D1*
X17208Y7578D1*
Y7650D1*
X17194Y7693D1*
X17180Y7721D1*
X17151Y7750D1*
X17108Y7764D1*
X17007D1*
X17301Y7707D2*
X17330Y7721D1*
X17373Y7764D1*
Y7463D1*
X17286Y13349D2*
Y13120D1*
X17272Y13076D1*
X17257Y13062D1*
X17228Y13048D1*
X17200D1*
X17171Y13062D1*
X17157Y13076D1*
X17142Y13120D1*
Y13148D1*
X17378Y13291D2*
X17407Y13306D1*
X17450Y13349D1*
Y13048D1*
X4215Y12422D2*
Y12193D1*
X4201Y12150D1*
X4186Y12135D1*
X4158Y12121D1*
X4129D1*
X4101Y12135D1*
X4086Y12150D1*
X4072Y12193D1*
Y12221D1*
X4323Y12350D2*
Y12365D1*
X4337Y12393D1*
X4351Y12408D1*
X4380Y12422D1*
X4437D1*
X4466Y12408D1*
X4480Y12393D1*
X4495Y12365D1*
Y12336D1*
X4480Y12307D1*
X4452Y12264D1*
X4308Y12121D1*
X4509D1*
X8273Y5837D2*
X8244Y5824D1*
X8216Y5795D1*
X8201Y5766D1*
X8187Y5723D1*
Y5651D1*
X8201Y5608D1*
X8216Y5579D1*
X8244Y5551D1*
X8273Y5536D1*
X8330D1*
X8359Y5551D1*
X8388Y5579D1*
X8402Y5608D1*
X8417Y5651D1*
Y5723D1*
X8402Y5766D1*
X8388Y5795D1*
X8359Y5824D1*
X8330Y5837D1*
X8273D1*
X8316Y5594D2*
X8402Y5507D1*
X8509Y5780D2*
X8538Y5794D1*
X8581Y5837D1*
Y5536D1*
X14702Y14327D2*
X14673Y14314D1*
X14645Y14285D1*
X14630Y14256D1*
X14616Y14213D1*
Y14141D1*
X14630Y14098D1*
X14645Y14069D1*
X14673Y14041D1*
X14702Y14026D1*
X14759D1*
X14788Y14041D1*
X14817Y14069D1*
X14831Y14098D1*
X14846Y14141D1*
Y14213D1*
X14831Y14256D1*
X14817Y14285D1*
X14788Y14314D1*
X14759Y14327D1*
X14702D1*
X14745Y14084D2*
X14831Y13997D1*
X14953Y14255D2*
Y14270D1*
X14967Y14299D1*
X14981Y14313D1*
X15010Y14327D1*
X15068D1*
X15096Y14313D1*
X15110Y14299D1*
X15125Y14270D1*
Y14241D1*
X15110Y14212D1*
X15082Y14170D1*
X14938Y14026D1*
X15139D1*
X6452Y14327D2*
X6423Y14314D1*
X6395Y14285D1*
X6380Y14256D1*
X6366Y14213D1*
Y14141D1*
X6380Y14098D1*
X6395Y14069D1*
X6423Y14041D1*
X6452Y14026D1*
X6509D1*
X6538Y14041D1*
X6567Y14069D1*
X6581Y14098D1*
X6596Y14141D1*
Y14213D1*
X6581Y14256D1*
X6567Y14285D1*
X6538Y14314D1*
X6509Y14327D1*
X6452D1*
X6495Y14084D2*
X6581Y13997D1*
X6717Y14327D2*
X6875D1*
X6789Y14212D1*
X6832D1*
X6860Y14198D1*
X6875Y14184D1*
X6889Y14141D1*
Y14112D1*
X6875Y14069D1*
X6846Y14040D1*
X6803Y14026D1*
X6760D1*
X6717Y14040D1*
X6703Y14055D1*
X6688Y14083D1*
X10632Y14327D2*
X10604Y14314D1*
X10575Y14285D1*
X10561Y14256D1*
X10546Y14213D1*
Y14141D1*
X10561Y14098D1*
X10575Y14069D1*
X10604Y14041D1*
X10632Y14026D1*
X10690D1*
X10719Y14041D1*
X10747Y14069D1*
X10761Y14098D1*
X10776Y14141D1*
Y14213D1*
X10761Y14256D1*
X10747Y14285D1*
X10719Y14314D1*
X10690Y14327D1*
X10632D1*
X10675Y14084D2*
X10761Y13997D1*
X11012Y14026D2*
Y14327D1*
X10869Y14126D1*
X11084D1*
X16360Y8693D2*
X16489D1*
X16532Y8707D1*
X16547Y8722D1*
X16561Y8750D1*
Y8779D1*
X16547Y8807D1*
X16532Y8822D1*
X16489Y8836D1*
X16360D1*
Y8535D1*
X16461Y8693D2*
X16561Y8535D1*
X16654Y8779D2*
X16683Y8793D1*
X16726Y8836D1*
Y8535D1*
X6840Y5943D2*
X6969D1*
X7012Y5957D1*
X7027Y5972D1*
X7041Y6000D1*
Y6029D1*
X7027Y6057D1*
X7012Y6072D1*
X6969Y6086D1*
X6840D1*
Y5785D1*
X6940Y5943D2*
X7041Y5785D1*
X7148Y6014D2*
Y6029D1*
X7162Y6057D1*
X7177Y6072D1*
X7205Y6086D1*
X7263D1*
X7291Y6072D1*
X7306Y6057D1*
X7320Y6029D1*
Y6000D1*
X7306Y5971D1*
X7277Y5928D1*
X7133Y5785D1*
X7334D1*
X6296Y4818D2*
X6425D1*
X6468Y4832D1*
X6482Y4847D1*
X6497Y4875D1*
Y4904D1*
X6482Y4932D1*
X6468Y4947D1*
X6425Y4961D1*
X6296D1*
Y4660D1*
X6396Y4818D2*
X6497Y4660D1*
X6618Y4961D2*
X6776D1*
X6690Y4846D1*
X6733D1*
X6761Y4832D1*
X6776Y4818D1*
X6790Y4775D1*
Y4746D1*
X6776Y4703D1*
X6747Y4674D1*
X6704Y4660D1*
X6661D1*
X6618Y4674D1*
X6604Y4689D1*
X6589Y4717D1*
X10020Y4505D2*
X10149D1*
X10192Y4520D1*
X10207Y4534D1*
X10221Y4563D1*
Y4591D1*
X10207Y4620D1*
X10192Y4635D1*
X10149Y4649D1*
X10020D1*
Y4347D1*
X10121Y4505D2*
X10221Y4347D1*
X10457D2*
Y4648D1*
X10314Y4448D1*
X10529D1*
X6157Y9603D2*
X6286D1*
X6329Y9618D1*
X6344Y9632D1*
X6358Y9660D1*
Y9689D1*
X6344Y9718D1*
X6329Y9732D1*
X6286Y9747D1*
X6157D1*
Y9445D1*
X6257Y9603D2*
X6358Y9445D1*
X6623Y9746D2*
X6479D1*
X6465Y9617D1*
X6479Y9632D1*
X6523Y9646D1*
X6565D1*
X6608Y9632D1*
X6637Y9603D1*
X6652Y9560D1*
Y9531D1*
X6637Y9488D1*
X6608Y9459D1*
X6565Y9445D1*
X6523D1*
X6479Y9459D1*
X6465Y9474D1*
X6451Y9503D1*
X14385Y12625D2*
Y12754D1*
X14370Y12798D1*
X14356Y12812D1*
X14328Y12826D1*
X14299D1*
X14270Y12812D1*
X14256Y12798D1*
X14241Y12754D1*
Y12625D1*
X14543D1*
X14385Y12726D2*
X14543Y12826D1*
X14284Y13091D2*
X14256Y13077D1*
X14242Y13034D1*
Y13005D1*
X14256Y12962D1*
X14299Y12933D1*
X14371Y12919D1*
X14442D1*
X14500Y12933D1*
X14528Y12962D1*
X14543Y13005D1*
Y13020D1*
X14528Y13062D1*
X14500Y13091D1*
X14457Y13105D1*
X14442D1*
X14399Y13091D1*
X14371Y13062D1*
X14356Y13020D1*
Y13005D1*
X14371Y12962D1*
X14399Y12933D1*
X14442Y12919D1*
X10385Y12556D2*
Y12685D1*
X10370Y12728D1*
X10356Y12742D1*
X10328Y12757D1*
X10299D1*
X10270Y12742D1*
X10256Y12728D1*
X10241Y12685D1*
Y12556D1*
X10543D1*
X10385Y12656D2*
X10543Y12757D1*
Y12907D2*
X10242Y13050D1*
Y12849D1*
X6197Y12556D2*
Y12685D1*
X6183Y12728D1*
X6169Y12743D1*
X6140Y12757D1*
X6111D1*
X6083Y12743D1*
X6068Y12728D1*
X6054Y12685D1*
Y12556D1*
X6355D1*
X6197Y12656D2*
X6355Y12757D1*
X6054Y12921D2*
X6068Y12878D1*
X6097Y12864D1*
X6126D1*
X6154Y12878D1*
X6169Y12907D1*
X6183Y12964D1*
X6197Y13007D1*
X6226Y13036D1*
X6255Y13050D1*
X6298D1*
X6326Y13036D1*
X6341Y13022D1*
X6355Y12978D1*
Y12921D1*
X6341Y12878D1*
X6326Y12864D1*
X6298Y12849D1*
X6255D1*
X6226Y12864D1*
X6197Y12893D1*
X6183Y12935D1*
X6169Y12993D1*
X6154Y13022D1*
X6126Y13036D1*
X6097D1*
X6068Y13022D1*
X6054Y12978D1*
Y12921D1*
X11490Y12693D2*
X11619D1*
X11662Y12707D1*
X11677Y12722D1*
X11691Y12750D1*
Y12779D1*
X11677Y12807D1*
X11662Y12822D1*
X11619Y12836D1*
X11490D1*
Y12535D1*
X11591Y12693D2*
X11691Y12535D1*
X11970Y12736D2*
X11956Y12693D1*
X11927Y12664D1*
X11884Y12650D1*
X11870D1*
X11827Y12664D1*
X11798Y12693D1*
X11784Y12736D1*
Y12750D1*
X11798Y12793D1*
X11827Y12822D1*
X11870Y12836D1*
X11884D1*
X11927Y12822D1*
X11956Y12793D1*
X11970Y12736D1*
Y12664D1*
X11956Y12592D1*
X11927Y12549D1*
X11884Y12535D1*
X11856D1*
X11813Y12549D1*
X11798Y12578D1*
X7276Y12755D2*
X7405D1*
X7448Y12770D1*
X7462Y12784D1*
X7477Y12813D1*
Y12841D1*
X7462Y12870D1*
X7448Y12885D1*
X7405Y12899D1*
X7276D1*
Y12597D1*
X7376Y12755D2*
X7477Y12597D1*
X7569Y12841D2*
X7598Y12856D1*
X7641Y12898D1*
Y12597D1*
X7820Y12898D2*
X7777Y12884D1*
X7748Y12841D1*
X7734Y12769D1*
Y12726D1*
X7748Y12655D1*
X7777Y12612D1*
X7820Y12597D1*
X7849D1*
X7892Y12612D1*
X7920Y12655D1*
X7935Y12726D1*
Y12769D1*
X7920Y12841D1*
X7892Y12884D1*
X7849Y12898D1*
X7820D1*
X7920Y12841D2*
X7748Y12655D1*
X15465Y12693D2*
X15594D1*
X15637Y12707D1*
X15652Y12722D1*
X15666Y12750D1*
Y12779D1*
X15652Y12807D1*
X15637Y12822D1*
X15594Y12836D1*
X15465D1*
Y12535D1*
X15566Y12693D2*
X15666Y12535D1*
X15759Y12779D2*
X15788Y12793D1*
X15831Y12836D1*
Y12535D1*
X15923Y12779D2*
X15952Y12793D1*
X15995Y12836D1*
Y12535D1*
X7880Y10233D2*
X8009D1*
X8052Y10247D1*
X8067Y10262D1*
X8081Y10290D1*
Y10319D1*
X8067Y10347D1*
X8052Y10362D1*
X8009Y10376D1*
X7880D1*
Y10075D1*
X7981Y10233D2*
X8081Y10075D1*
X8317D2*
Y10376D1*
X8174Y10175D1*
X8389D1*
X8482Y10319D2*
X8510Y10333D1*
X8554Y10376D1*
Y10075D1*
X6763Y10411D2*
Y10109D1*
X6663Y10411D2*
X6864D1*
X6956Y10253D2*
X7086D1*
X7128Y10267D1*
X7143Y10282D1*
X7157Y10310D1*
Y10353D1*
X7143Y10382D1*
X7128Y10397D1*
X7086Y10411D1*
X6956D1*
Y10109D1*
X7250Y10353D2*
X7279Y10368D1*
X7322Y10411D1*
Y10109D1*
X4396Y6376D2*
Y6074D1*
X4296Y6376D2*
X4497D1*
X4590Y6218D2*
X4719D1*
X4762Y6232D1*
X4776Y6247D1*
X4790Y6275D1*
Y6318D1*
X4776Y6347D1*
X4762Y6361D1*
X4719Y6376D1*
X4590D1*
Y6074D1*
X4898Y6304D2*
Y6318D1*
X4912Y6347D1*
X4926Y6361D1*
X4955Y6375D1*
X5012D1*
X5041Y6361D1*
X5055Y6347D1*
X5070Y6318D1*
Y6289D1*
X5055Y6261D1*
X5027Y6218D1*
X4883Y6074D1*
X5084D1*
X7334Y4501D2*
Y4199D1*
X7233Y4501D2*
X7434D1*
X7527Y4343D2*
X7656D1*
X7699Y4357D1*
X7714Y4372D1*
X7728Y4400D1*
Y4443D1*
X7714Y4472D1*
X7699Y4486D1*
X7656Y4501D1*
X7527D1*
Y4199D1*
X7849Y4500D2*
X8007D1*
X7921Y4386D1*
X7964D1*
X7993Y4371D1*
X8007Y4357D1*
X8022Y4314D1*
Y4285D1*
X8007Y4242D1*
X7978Y4213D1*
X7935Y4199D1*
X7892D1*
X7849Y4213D1*
X7835Y4228D1*
X7821Y4257D1*
X8750Y11959D2*
Y11657D1*
X8650Y11959D2*
X8851D1*
X8943Y11801D2*
X9073D1*
X9115Y11815D1*
X9130Y11830D1*
X9144Y11858D1*
Y11902D1*
X9130Y11930D1*
X9115Y11945D1*
X9073Y11959D1*
X8943D1*
Y11657D1*
X9309Y11959D2*
X9266Y11944D1*
X9251Y11916D1*
Y11887D1*
X9266Y11858D1*
X9294Y11844D1*
X9352Y11830D1*
X9395Y11815D1*
X9423Y11786D1*
X9438Y11758D1*
Y11715D1*
X9423Y11686D1*
X9409Y11672D1*
X9366Y11657D1*
X9309D1*
X9266Y11672D1*
X9251Y11686D1*
X9237Y11715D1*
Y11758D1*
X9251Y11786D1*
X9280Y11815D1*
X9323Y11830D1*
X9380Y11844D1*
X9409Y11858D1*
X9423Y11887D1*
Y11916D1*
X9409Y11944D1*
X9366Y11959D1*
X9309D1*
X10466Y8316D2*
Y8101D1*
X10481Y8058D1*
X10509Y8030D1*
X10553Y8015D1*
X10581D1*
X10624Y8030D1*
X10653Y8058D1*
X10667Y8101D1*
Y8316D1*
X10760Y8259D2*
X10789Y8273D1*
X10832Y8316D1*
Y8015D1*
X14516Y8993D2*
Y8778D1*
X14531Y8735D1*
X14560Y8706D1*
X14603Y8692D1*
X14631D1*
X14674Y8706D1*
X14703Y8735D1*
X14717Y8778D1*
Y8993D1*
X14825Y8921D2*
Y8936D1*
X14839Y8964D1*
X14853Y8979D1*
X14882Y8993D1*
X14939D1*
X14968Y8979D1*
X14982Y8964D1*
X14997Y8936D1*
Y8907D1*
X14982Y8878D1*
X14954Y8835D1*
X14810Y8692D1*
X15011D1*
M02*
