M48
INCH
T01C0.015
T02C0.028
T03C0.0354
T04C0.0433
%
T01
X+020871Y+015632
X+021369Y+013273
X+021469Y+011728
X+019841Y+011529
X+019143Y+012144
X+017953Y+012374
X+017366Y+011861
X+016973Y+011854
X+016568Y+012559
X+016134Y+012377
X+014941Y+011854
X+014765Y+010993
X+013645Y+010632
X+014819Y+009613
X+014819Y+008690
X+015829Y+008395
X+016081Y+007805
X+016701Y+007608
X+017519Y+006863
X+017579Y+008768
X+016635Y+009452
X+016122Y+010713
X+018200Y+010893
X+018426Y+009935
X+019475Y+010621
X+019765Y+008143
X+021125Y+008661
X+019293Y+005980
X+015821Y+005964
X+015422Y+006877
X+014807Y+007226
X+014637Y+006787
X+013276Y+005633
X+012900Y+005537
X+012022Y+005900
X+010673Y+006776
X+012022Y+008608
X+012376Y+009276
X+013349Y+009005
X+011466Y+009752
X+010875Y+010032
X+010433Y+009752
X+008810Y+009569
X+007266Y+009364
X+007251Y+007879
X+007786Y+011406
X+007739Y+012032
X+007277Y+012215
X+006741Y+011438
X+008616Y+011765
X+008866Y+012065
X+007944Y+012939
X+009694Y+013588
X+009889Y+013042
X+010481Y+013272
X+011196Y+013502
X+010480Y+014632
X+010361Y+015785
X+010088Y+016385
X+009309Y+016728
X+011618Y+016429
X+012864Y+016346
X+013678Y+016180
X+014657Y+015062
X+014226Y+012891
X+012056Y+011223
X+010119Y+011812
X+017187Y+014187
X+018380Y+014090
X+018047Y+013223
T02
X+016000Y+015625
X+017000Y+015625
T03
X+007581Y+015052
X+005849Y+015052
T04
X+022187Y+013687
X+022187Y+012687
X+023187Y+012687
X+023187Y+013687
X+023187Y+011687
X+023187Y+010687
X+023187Y+009687
X+022187Y+009687
X+022187Y+010687
X+022187Y+011687
X+022187Y+008687
X+022187Y+007687
X+022187Y+006687
X+023187Y+006687
X+023187Y+007687
X+023187Y+008687
X+023187Y+005687
X+023187Y+004687
X+022187Y+004687
X+022187Y+005687
X+006064Y+008472
X+005064Y+008472
X+005064Y+009472
X+005064Y+010472
X+005064Y+011472
X+006064Y+011472
X+006064Y+010472
X+006064Y+009472
X+006064Y+012472
X+005064Y+012472
T00
M30
