G04 DipTrace 2.4.0.2*
%INTop.gbr*%
%MOIN*%
%ADD13C,0.007*%
%ADD14C,0.03*%
%ADD15C,0.015*%
%ADD16C,0.013*%
%ADD17R,0.0394X0.0433*%
%ADD18R,0.0433X0.0394*%
%ADD19R,0.063X0.0709*%
%ADD20C,0.05*%
%ADD21R,0.05X0.05*%
%ADD24R,0.0315X0.0236*%
%ADD25R,0.0236X0.0315*%
%ADD26R,0.0669X0.0669*%
%ADD27C,0.0669*%
%ADD29R,0.0197X0.0906*%
%ADD30R,0.0787X0.0984*%
%ADD32R,0.0413X0.0256*%
%ADD34R,0.0079X0.063*%
%ADD35R,0.063X0.0079*%
%ADD36R,0.1083X0.0394*%
%ADD37R,0.2421X0.2185*%
%ADD38C,0.025*%
%FSLAX44Y44*%
G04*
G70*
G90*
G75*
G01*
%LNTop*%
%LPD*%
X15521Y12763D2*
D13*
X15941D1*
X16293Y13115D1*
X17457D1*
X17881Y13539D1*
X18445D1*
X18870Y13114D1*
Y13062D1*
X21125Y9080D2*
Y8661D1*
X20481Y9062D2*
X21125D1*
Y9080D1*
X18870Y13062D2*
Y12838D1*
X19010Y12698D1*
X20341D1*
X20481Y12558D1*
Y9062D1*
X13276Y5633D2*
Y4442D1*
X13136Y4302D1*
X8109D1*
X7959Y4451D1*
Y9511D1*
X7802Y9669D1*
X7534D1*
X7440Y9763D1*
Y11642D1*
X7597Y11800D1*
X7849D1*
X7969Y11919D1*
Y12614D1*
X8026Y12671D1*
X8238D1*
Y12665D1*
X8516Y12388D1*
X8857D1*
X8949Y12480D1*
Y12863D1*
X9046Y12960D1*
X9379D1*
X15521Y12566D2*
X15961D1*
X16370Y12975D1*
X17979D1*
X18137Y12818D1*
Y12720D1*
X21125Y7580D2*
Y7414D1*
X20970Y7259D1*
X20853D1*
X20803Y7208D1*
Y6696D1*
X20883Y6615D1*
X21426D1*
X21566Y6755D1*
Y7107D1*
X21706Y7247D1*
X22747D1*
X23187Y7687D1*
X20419Y7562D2*
X21125D1*
Y7580D1*
X18137Y12720D2*
Y12642D1*
X18315Y12464D1*
X19994D1*
X20134Y12324D1*
Y8187D1*
X20419Y7902D1*
Y7562D1*
X14941Y11854D2*
Y11328D1*
X15081Y11188D1*
X15521D1*
X16081Y7805D2*
X16707Y7178D1*
X18046D1*
X18186Y7038D1*
Y5470D1*
X18046Y5330D1*
X14385D1*
X14245Y5190D1*
Y4387D1*
X14385Y4247D1*
X22747D1*
X23187Y4687D1*
X16973Y11854D2*
X16620D1*
Y11937D1*
X11466Y9752D2*
Y14062D1*
Y14507D1*
X11212Y14761D1*
Y15279D1*
X11072Y15419D1*
X10822D1*
X10361Y15785D2*
Y15433D1*
X11196Y13502D2*
X11231Y13537D1*
Y14062D1*
X11269D1*
X13625Y7250D2*
X13631Y7920D1*
X12875Y5937D2*
X13484D1*
X13625Y6077D1*
Y6580D1*
X15521Y9416D2*
X15140D1*
X15049Y9325D1*
Y6390D1*
X15189Y6250D1*
X16500D1*
Y8125D2*
X16218D1*
X16059Y8284D1*
Y9653D1*
X15902Y9810D1*
X15521D1*
Y10204D2*
X16030D1*
X16087Y10147D1*
X16562D1*
Y10000D1*
X13500Y16562D2*
Y16662D1*
X12667D1*
X12427Y16422D1*
Y15574D1*
Y14905D2*
X12066D1*
X11926Y14765D1*
Y14667D1*
X11859Y14600D1*
Y14062D1*
X17875Y6562D2*
Y6439D1*
X17685Y6250D1*
X17169D1*
X17875Y8375D2*
Y8283D1*
X17716Y8125D1*
X17169D1*
X17231Y10000D2*
X17697D1*
X17875Y10177D1*
Y10250D1*
X17187Y14187D2*
D3*
X8467Y14068D2*
Y16234D1*
X4963D2*
Y15636D1*
Y14068D1*
X8467Y16234D2*
X4963D1*
X8375Y10523D2*
X8676D1*
X8947Y10794D1*
X9379D1*
X9710D1*
X9799Y10706D1*
Y9662D1*
X9939Y9522D1*
X13498D1*
X14558Y10582D1*
X15521D1*
Y10597D1*
X12250Y7187D2*
Y7352D1*
X12450Y7552D1*
Y7920D1*
X10088Y16385D2*
Y14062D1*
X13349Y9005D2*
X13452D1*
X13828Y8629D1*
Y8619D1*
X13503Y8944D1*
X10427D1*
X9943Y8461D1*
Y5327D1*
X10083Y5187D1*
X11580D1*
X13828Y8619D2*
Y7920D1*
X14819Y9613D2*
X15521D1*
X17187Y6830D2*
X17519D1*
Y6863D1*
X17579Y8768D2*
X17187D1*
X16339D1*
X16199Y8908D1*
Y9875D1*
X16067Y10007D1*
X15521D1*
X18200Y10893D2*
X17875D1*
Y10792D1*
X17416Y10333D1*
X16103D1*
X16035Y10401D1*
X15521D1*
X14765Y10993D2*
X11753D1*
X11662Y11083D1*
Y14062D1*
Y14494D1*
X11625Y14532D1*
Y14955D1*
X14637Y6787D2*
Y5669D1*
X14687D1*
Y5563D1*
X13780D1*
X18780Y6188D2*
Y6768D1*
X18875D1*
X19994D1*
X20134Y6628D1*
Y5946D1*
X20274Y5806D1*
X21406D1*
X21727Y6128D1*
X23487D1*
X23627Y6268D1*
Y8107D1*
X23487Y8247D1*
X21887D1*
X21747Y8387D1*
Y11247D1*
X22187Y11687D1*
X19475Y10621D2*
Y8852D1*
X19204Y8580D1*
X18812D1*
Y8259D1*
X18780D1*
Y8000D1*
X18426Y9935D2*
X18691D1*
X18751Y9875D1*
X18780D1*
Y10455D1*
X18812D1*
X14405Y16188D2*
Y15871D1*
X14545Y15731D1*
X15000D1*
Y16707D1*
X15140Y16847D1*
X23487D1*
X23627Y16707D1*
Y9387D1*
X23487Y9247D1*
X22747D1*
X22187Y8687D1*
X7030Y14029D2*
Y14498D1*
X7165Y14632D1*
X7494D1*
X7660Y14467D1*
Y12032D1*
X7739D1*
X8866Y12065D2*
Y11475D1*
X8956Y11385D1*
X9379D1*
X7739Y12032D2*
X7420D1*
X7203Y11816D1*
Y10611D1*
X6064Y9472D1*
Y8472D2*
X5503Y9032D1*
Y12911D1*
X5643Y13051D1*
X6575D1*
X6715Y13191D1*
Y14029D1*
X10433Y9752D2*
Y11442D1*
X10293Y11582D1*
X9379D1*
Y13156D2*
X8993D1*
X8949Y13200D1*
Y13383D1*
X8861Y13471D1*
X8394D1*
X8254Y13331D1*
Y13187D1*
X9889Y13042D2*
X9774Y13156D1*
X9379D1*
X10875Y10032D2*
Y14062D1*
X10119Y11812D2*
Y13419D1*
X10284Y13585D1*
Y14062D1*
X10481Y13272D2*
Y14062D1*
X10480Y14632D2*
X10932D1*
X11072Y14492D1*
Y14062D1*
X22187Y6687D2*
X21706D1*
Y6408D1*
X21566Y6268D1*
X21125D1*
X17308Y12375D2*
Y12517D1*
X17017Y12808D1*
X16469D1*
X16134Y12473D1*
Y12377D1*
X21125Y6268D2*
Y6250D1*
X20481D1*
X16134Y12377D2*
X15521D1*
Y12369D1*
X9250Y13937D2*
Y13714D1*
X9376Y13588D1*
X9694D1*
X17187Y13518D2*
X17316D1*
X18133Y14335D1*
X20477D1*
Y16405D1*
X20617Y16545D1*
X21750D1*
X16625Y10875D2*
X16651D1*
Y11437D1*
X16625D1*
X6064Y12472D2*
X7205D1*
X7345Y12612D1*
Y14029D1*
X8616Y11765D2*
X8275D1*
Y11748D1*
X21125Y9750D2*
X21216D1*
X21426Y9539D1*
Y8250D1*
Y7084D1*
X21279Y6937D1*
X21125D1*
X9694Y13588D2*
Y16682D1*
X9834Y16822D1*
X13751D1*
X13994Y16579D1*
Y15706D1*
X13671Y15384D1*
X14546Y14509D1*
X14884D1*
X14956Y14437D1*
Y13493D1*
X15096Y13353D1*
X15521D1*
X15829Y8395D2*
X15568D1*
X15437Y8264D1*
Y8000D1*
X16625Y11437D2*
X16262D1*
X16122Y11297D1*
Y10991D1*
X15521D1*
X14812Y7920D2*
Y7613D1*
X14127Y6928D1*
X12984D1*
X12680Y6625D1*
X12250D1*
X20477Y14335D2*
Y13812D1*
X17187Y13518D2*
X17175Y13437D1*
X17187Y13449D1*
X16312Y13437D2*
X17175D1*
X15521Y13353D2*
X16312D1*
Y13437D1*
X13671Y15384D2*
X13046D1*
X12964Y15466D1*
Y15625D1*
X21426Y8250D2*
X21125D1*
X20250Y13000D2*
X20984D1*
X21125Y12859D1*
Y9750D1*
X20477Y13812D2*
Y13494D1*
X20250Y13266D1*
Y13000D1*
X16122Y10713D2*
Y10991D1*
X12984Y6928D2*
X12844Y7068D1*
Y7920D1*
X14819Y8690D2*
X14812Y7920D1*
X12376Y9276D2*
X14232D1*
X14819Y8690D1*
X9379Y8629D2*
X9833D1*
X10474Y9270D1*
X12369D1*
X12376Y9276D1*
X8375Y8687D2*
X8386Y8629D1*
X9379D1*
X8375Y8618D2*
X8386Y8629D1*
X8275Y11748D2*
X8309D1*
X8869Y11188D1*
X9379D1*
X9694Y13588D2*
X9799D1*
X9924Y13463D1*
Y13353D1*
X9379D1*
X8275Y11748D2*
X8616D1*
Y11765D1*
X17953Y12374D2*
D14*
X18180Y12147D1*
X18672D1*
X18812Y12007D1*
Y11125D1*
X22187Y13687D2*
Y13860D1*
X22614Y14287D1*
Y14460D1*
X22491D1*
Y15625D1*
X22664D1*
X18875Y7437D2*
D15*
X18468D1*
X18404Y7373D1*
Y5215D1*
X18188Y5000D1*
X14687D1*
X18812Y9250D2*
X18675D1*
X18404Y8979D1*
Y7824D1*
X18634Y7594D1*
X18875D1*
Y7437D1*
X18812Y11125D2*
X18966D1*
X19160Y10930D1*
Y9469D1*
X18941Y9250D1*
X18812D1*
X22614Y14460D2*
D14*
Y14418D1*
X22282Y14750D1*
X21750D1*
X15000Y15062D2*
X14657D1*
X23283Y14460D2*
D13*
Y16276D1*
X23130Y16429D1*
X22598D1*
X21562Y15393D1*
Y15625D1*
X18380Y14090D2*
X18894Y13576D1*
Y13456D1*
X19027Y13323D1*
X19257D1*
X19580Y13000D1*
X17294Y11437D2*
Y10875D1*
X18437Y13062D2*
X18208D1*
X18047Y13223D1*
X16187Y11937D2*
Y11961D1*
X16419Y12193D1*
X16693D1*
X16875Y12375D1*
X16568Y12559D2*
X16690D1*
X16875Y12375D1*
X17703Y12720D2*
Y12597D1*
X17582Y12476D1*
Y12077D1*
X17366Y11861D1*
X17187Y7500D2*
X17748D1*
X17875Y7626D1*
Y9501D2*
X17251D1*
X17187Y9437D1*
X14807Y7226D2*
Y6944D1*
X14907Y6844D1*
Y6163D1*
X15057Y6013D1*
X15771D1*
X15821Y5964D1*
X17875Y9501D2*
Y9392D1*
X18191Y9076D1*
Y7943D1*
X17875Y7626D1*
Y11562D2*
X18296D1*
X18446Y11412D1*
Y10283D1*
X18180Y10017D1*
Y9807D1*
X17875Y9501D1*
X15521Y10794D2*
X14970D1*
X14907Y10731D1*
X13744D1*
X13645Y10632D1*
X10822Y14986D2*
X10375D1*
X10361Y15000D1*
X10387D1*
X10588Y15200D1*
Y15649D1*
X10721Y15782D1*
X11467D1*
X11625Y15625D1*
X8687Y13187D2*
Y12671D1*
X8671D1*
X9379Y10991D2*
X8362D1*
X8275Y11079D1*
X8375Y9854D2*
Y9356D1*
X8671Y12671D2*
Y12825D1*
X8558Y12939D1*
X7944D1*
X12056Y11223D2*
Y14062D1*
Y14494D1*
X12824D1*
X12964Y14634D1*
Y14955D1*
D38*
X20871Y15632D3*
X18380Y14090D3*
X17366Y11861D3*
X19841Y11529D3*
X21469Y11728D3*
X19143Y12144D3*
X18047Y13223D3*
X16568Y12559D3*
X14226Y12891D3*
X21369Y13273D3*
X15821Y5964D3*
X19293Y5980D3*
X14807Y7226D3*
X15422Y6877D3*
X16701Y7608D3*
X16635Y9452D3*
X13645Y10632D3*
X13678Y16180D3*
X12864Y16346D3*
X11618Y16429D3*
X9309Y16728D3*
X12900Y5537D3*
X12022Y8608D3*
Y5900D3*
X10673Y6776D3*
X7251Y7879D3*
X7266Y9364D3*
X8810Y9569D3*
X7786Y11406D3*
X6741Y11438D3*
X7944Y12939D3*
X7277Y12215D3*
X19765Y8143D3*
X21125Y8661D3*
X13276Y5633D3*
X14941Y11854D3*
X16081Y7805D3*
X16973Y11854D3*
X11466Y9752D3*
X10361Y15785D3*
X11196Y13502D3*
X17187Y14187D3*
X10088Y16385D3*
X13349Y9005D3*
X17519Y6863D3*
X14819Y9613D3*
X17579Y8768D3*
X18200Y10893D3*
X14765Y10993D3*
X14637Y6787D3*
X19475Y10621D3*
X18426Y9935D3*
X7739Y12032D3*
X8866Y12065D3*
X10433Y9752D3*
X9889Y13042D3*
X10875Y10032D3*
X10119Y11812D3*
X10481Y13272D3*
X10480Y14632D3*
X16134Y12377D3*
X8616Y11765D3*
X16122Y10713D3*
X12376Y9276D3*
X15829Y8395D3*
X14819Y8690D3*
X9694Y13588D3*
X14657Y15062D3*
X17953Y12374D3*
X12056Y11223D3*
X4348Y16514D2*
D15*
X4283Y16448D1*
X4348Y16090D2*
X4283Y16024D1*
X4348Y15666D2*
X4283Y15600D1*
X5949Y16842D2*
X5598Y16491D1*
X4627Y15520D2*
X4283Y15176D1*
X6374Y16842D2*
X6022Y16491D1*
X4706Y15175D2*
X4283Y14751D1*
X6798Y16842D2*
X6446Y16491D1*
X5933Y15977D2*
X5578Y15622D1*
X5475Y15520D2*
X5220Y15264D1*
X4348Y14393D2*
X4283Y14327D1*
X7222Y16842D2*
X6870Y16491D1*
X6357Y15977D2*
X5833Y15453D1*
X5449Y15069D2*
X5220Y14840D1*
X4348Y13969D2*
X4283Y13903D1*
X7648Y16844D2*
X7295Y16491D1*
X6781Y15977D2*
X6140Y15335D1*
X4348Y13544D2*
X4283Y13479D1*
X7852Y16624D2*
X7719Y16491D1*
X7206Y15977D2*
X6249Y15021D1*
X5765Y14537D2*
X5578Y14349D1*
X4584Y13355D2*
X4283Y13054D1*
X7630Y15977D2*
X6355Y14702D1*
X5765Y14113D2*
X5578Y13925D1*
X5008Y13355D2*
X4283Y12630D1*
X7852Y15775D2*
X7525Y15448D1*
X7186Y15109D2*
X6779Y14702D1*
X5765Y13688D2*
X5578Y13501D1*
X5432Y13355D2*
X5104Y13027D1*
X4509Y12432D2*
X4283Y12206D1*
X9345Y16844D2*
X9083Y16582D1*
X8021Y15520D2*
X7855Y15354D1*
X5857Y13355D2*
X5808Y13307D1*
X4625Y12124D2*
X4283Y11781D1*
X9438Y16512D2*
X9083Y16157D1*
X8212Y15286D2*
X7982Y15057D1*
X6281Y13355D2*
X6232Y13307D1*
X4526Y11600D2*
X4283Y11357D1*
X9438Y16088D2*
X9083Y15733D1*
X8869Y15520D2*
X8723Y15374D1*
X8212Y14862D2*
X8132Y14782D1*
X4566Y11216D2*
X4283Y10933D1*
X9438Y15664D2*
X8723Y14949D1*
X7090Y13316D2*
X6972Y13198D1*
X4769Y10995D2*
X4283Y10509D1*
X10764Y16566D2*
X10344Y16146D1*
X9438Y15240D2*
X9242Y15044D1*
X7090Y12891D2*
X6927Y12729D1*
X6118Y11920D2*
X5760Y11562D1*
X4524Y10326D2*
X4283Y10084D1*
X11188Y16566D2*
X10631Y16008D1*
X6838Y12215D2*
X5760Y11138D1*
X4683Y10061D2*
X4283Y9660D1*
X11612Y16566D2*
X10845Y15798D1*
X6988Y11942D2*
X6075Y11028D1*
X4508Y9461D2*
X4283Y9236D1*
X12037Y16566D2*
X11534Y16063D1*
X11206Y15735D2*
X11161Y15690D1*
X6947Y11476D2*
X6395Y10924D1*
X4612Y9141D2*
X4283Y8812D1*
X12171Y16276D2*
X11958Y16063D1*
X6947Y11052D2*
X6580Y10685D1*
X4539Y8644D2*
X4283Y8387D1*
X7857Y11537D2*
X7696Y11376D1*
X4556Y8236D2*
X4283Y7963D1*
X13071Y16327D2*
X12807Y16063D1*
X7857Y11113D2*
X7696Y10952D1*
X4751Y8007D2*
X4283Y7539D1*
X13381Y16213D2*
X13332Y16164D1*
X7857Y10689D2*
X7696Y10528D1*
X7184Y10016D2*
X6619Y9450D1*
X5084Y7916D2*
X4283Y7115D1*
X14440Y16847D2*
X14242Y16650D1*
X10522Y12929D2*
X10376Y12783D1*
X7956Y10364D2*
X7696Y10103D1*
X7219Y9626D2*
X6620Y9028D1*
X5509Y7916D2*
X4283Y6690D1*
X14745Y16728D2*
X14554Y16537D1*
X11173Y13156D2*
X11132Y13115D1*
X10618Y12601D2*
X10376Y12359D1*
X7956Y9940D2*
X7918Y9901D1*
X7443Y9426D2*
X6620Y8604D1*
X5933Y7916D2*
X4283Y6266D1*
X13563Y15122D2*
X13382Y14941D1*
X11210Y12769D2*
X11131Y12690D1*
X10618Y12177D2*
X10424Y11983D1*
X7703Y9262D2*
X6620Y8179D1*
X6357Y7916D2*
X4283Y5842D1*
X15456Y16590D2*
X15256Y16391D1*
X14388Y15523D2*
X14144Y15279D1*
X13775Y14910D2*
X13463Y14598D1*
X12391Y13526D2*
X12313Y13448D1*
X11210Y12344D2*
X11131Y12266D1*
X10618Y11753D2*
X10554Y11689D1*
X10177Y11312D2*
X9915Y11050D1*
X8843Y9978D2*
X8794Y9929D1*
X7703Y8838D2*
X4283Y5417D1*
X15880Y16590D2*
X15417Y16128D1*
X13987Y14698D2*
X13887Y14598D1*
X12815Y13526D2*
X12313Y13024D1*
X11210Y11920D2*
X11131Y11842D1*
X10177Y10888D2*
X10051Y10761D1*
X8843Y9554D2*
X8794Y9504D1*
X7703Y8413D2*
X4283Y4993D1*
X16304Y16590D2*
X15417Y15703D1*
X13240Y13526D2*
X12313Y12599D1*
X11210Y11496D2*
X11131Y11418D1*
X10177Y10463D2*
X10056Y10342D1*
X8843Y9129D2*
X8794Y9080D1*
X7703Y7989D2*
X4283Y4569D1*
X16728Y16590D2*
X16194Y16056D1*
X15567Y15429D2*
X15417Y15279D1*
X13664Y13526D2*
X12313Y12175D1*
X11210Y11072D2*
X11131Y10993D1*
X10177Y10039D2*
X10056Y9918D1*
X8387Y8249D2*
X8216Y8078D1*
X7703Y7565D2*
X4421Y4283D1*
X17153Y16590D2*
X16416Y15854D1*
X15770Y15208D2*
X15417Y14855D1*
X14088Y13526D2*
X12313Y11751D1*
X11210Y10647D2*
X11131Y10569D1*
X8931Y8369D2*
X8216Y7654D1*
X7703Y7141D2*
X4845Y4283D1*
X17577Y16590D2*
X16428Y15442D1*
X16181Y15195D2*
X15213Y14227D1*
X14513Y13526D2*
X12368Y11381D1*
X9355Y8369D2*
X8216Y7230D1*
X7703Y6716D2*
X5268Y4281D1*
X17680Y16269D2*
X15956Y14545D1*
X15893Y14482D2*
X15213Y13803D1*
X14748Y13337D2*
X12659Y11249D1*
X12148Y10737D2*
X11721Y10311D1*
X9687Y8276D2*
X8216Y6805D1*
X7703Y6292D2*
X5692Y4281D1*
X17680Y15845D2*
X16380Y14545D1*
X15893Y14058D2*
X15449Y13614D1*
X14965Y13130D2*
X13084Y11249D1*
X12572Y10737D2*
X11766Y9931D1*
X10523Y8688D2*
X10291Y8456D1*
X9687Y7852D2*
X8216Y6381D1*
X7703Y5868D2*
X6116Y4281D1*
X17680Y15420D2*
X16884Y14625D1*
X16768Y14509D2*
X16730Y14471D1*
X14985Y12726D2*
X13508Y11249D1*
X12996Y10737D2*
X12038Y9779D1*
X10948Y8688D2*
X10715Y8456D1*
X9687Y7427D2*
X8216Y5957D1*
X7703Y5444D2*
X6541Y4281D1*
X17680Y14996D2*
X17308Y14625D1*
X16768Y14085D2*
X16730Y14047D1*
X14985Y12301D2*
X14875Y12192D1*
X14604Y11920D2*
X13932Y11249D1*
X13420Y10737D2*
X12462Y9779D1*
X11372Y8688D2*
X11140Y8456D1*
X9687Y7003D2*
X8216Y5533D1*
X7703Y5019D2*
X6965Y4281D1*
X17680Y14572D2*
X17605Y14497D1*
X14685Y11577D2*
X14356Y11249D1*
X13845Y10737D2*
X12886Y9779D1*
X11796Y8688D2*
X11564Y8456D1*
X10492Y7384D2*
X10200Y7092D1*
X9687Y6579D2*
X8216Y5108D1*
X7703Y4595D2*
X7389Y4281D1*
X14269Y10737D2*
X13311Y9779D1*
X12221Y8688D2*
X11988Y8456D1*
X10916Y7384D2*
X10200Y6668D1*
X9687Y6154D2*
X8216Y4684D1*
X12645Y8688D2*
X12412Y8456D1*
X11142Y7185D2*
X10200Y6244D1*
X9687Y5730D2*
X8514Y4558D1*
X18460Y14080D2*
X18176Y13796D1*
X14706Y10326D2*
X13914Y9533D1*
X13069Y8688D2*
X12837Y8456D1*
X11142Y6761D2*
X10200Y5819D1*
X9687Y5306D2*
X8939Y4558D1*
X20988Y16183D2*
X20734Y15929D1*
X18838Y14033D2*
X18571Y13766D1*
X14985Y10180D2*
X14756Y9951D1*
X14479Y9675D2*
X14323Y9518D1*
X13442Y8637D2*
X13261Y8456D1*
X11142Y6337D2*
X10248Y5443D1*
X9854Y5049D2*
X9363Y4558D1*
X21026Y15797D2*
X20734Y15505D1*
X18838Y13609D2*
X18790Y13561D1*
X14184Y8955D2*
X14027Y8798D1*
X11435Y6206D2*
X10672Y5443D1*
X10161Y4931D2*
X9787Y4558D1*
X21026Y15372D2*
X20734Y15080D1*
X17724Y12071D2*
X17655Y12001D1*
X14397Y8743D2*
X14109Y8456D1*
X11859Y6206D2*
X11259Y5606D1*
X11142Y5488D2*
X11098Y5445D1*
X10585Y4931D2*
X10212Y4558D1*
X22668Y16590D2*
X22512Y16434D1*
X20988Y14910D2*
X20734Y14656D1*
X12283Y6206D2*
X11683Y5606D1*
X11009Y4931D2*
X10636Y4558D1*
X23092Y16590D2*
X22702Y16201D1*
X20988Y14486D2*
X20889Y14388D1*
X13173Y6672D2*
X12789Y6287D1*
X12446Y5944D2*
X12107Y5606D1*
X11271Y4769D2*
X11060Y4558D1*
X23370Y16444D2*
X23126Y16200D1*
X21257Y14331D2*
X21013Y14087D1*
X18393Y11467D2*
X18292Y11366D1*
X16507Y9581D2*
X16456Y9530D1*
X11695Y4769D2*
X11484Y4558D1*
X23370Y16020D2*
X23201Y15850D1*
X21681Y14331D2*
X21013Y13663D1*
X19558Y12208D2*
X19184Y11833D1*
X16769Y9419D2*
X16456Y9105D1*
X12933Y5582D2*
X12889Y5538D1*
X12119Y4769D2*
X11908Y4558D1*
X23370Y15596D2*
X23201Y15426D1*
X22106Y14331D2*
X22018Y14243D1*
X21632Y13857D2*
X21028Y13253D1*
X19877Y12102D2*
X19230Y11455D1*
X18382Y10607D2*
X18302Y10527D1*
X14355Y6580D2*
X14043Y6268D1*
X13917Y6142D2*
X13882Y6107D1*
X12543Y4769D2*
X12332Y4558D1*
X23370Y15171D2*
X23077Y14878D1*
X21632Y13433D2*
X21275Y13076D1*
X20868Y12669D2*
X20738Y12539D1*
X19877Y11678D2*
X19358Y11159D1*
X14381Y6182D2*
X14111Y5912D1*
X13020Y4822D2*
X12757Y4558D1*
X21754Y13131D2*
X21381Y12758D1*
X20868Y12245D2*
X20738Y12115D1*
X19877Y11253D2*
X19578Y10955D1*
X17775Y9152D2*
X17714Y9090D1*
X16070Y7447D2*
X15856Y7233D1*
X15515Y6891D2*
X15306Y6682D1*
X13838Y5214D2*
X13532Y4909D1*
X23088Y14041D2*
X22743Y13696D1*
X21638Y12591D2*
X21381Y12334D1*
X20868Y11820D2*
X20738Y11691D1*
X19877Y10829D2*
X19800Y10753D1*
X18133Y9086D2*
X17914Y8867D1*
X16754Y7707D2*
X16651Y7604D1*
X16282Y7235D2*
X15554Y6507D1*
X13988Y4941D2*
X13532Y4485D1*
X23370Y13898D2*
X22743Y13272D1*
X22603Y13131D2*
X22569Y13097D1*
X21778Y12306D2*
X21381Y11909D1*
X20868Y11396D2*
X20738Y11266D1*
X19877Y10405D2*
X19732Y10260D1*
X16494Y7022D2*
X16139Y6667D1*
X16063Y6591D2*
X15978Y6507D1*
X15465Y5993D2*
X15105Y5633D1*
X13988Y4517D2*
X13749Y4278D1*
X23370Y13474D2*
X23136Y13240D1*
X21635Y11739D2*
X21381Y11485D1*
X20868Y10972D2*
X20738Y10842D1*
X19877Y9981D2*
X19732Y9836D1*
X16769Y6873D2*
X16563Y6667D1*
X15889Y5993D2*
X15483Y5587D1*
X22712Y12392D2*
X22483Y12163D1*
X21491Y11171D2*
X21381Y11061D1*
X20868Y10547D2*
X20738Y10418D1*
X19877Y9556D2*
X19800Y9480D1*
X16151Y5831D2*
X15907Y5587D1*
X14882Y4561D2*
X14823Y4503D1*
X22933Y12188D2*
X22897Y12153D1*
X22721Y11976D2*
X22685Y11941D1*
X21491Y10746D2*
X21381Y10637D1*
X16575Y5831D2*
X16331Y5587D1*
X15448Y4704D2*
X15248Y4503D1*
X21491Y10322D2*
X21381Y10212D1*
X19812Y8643D2*
X19208Y8040D1*
X17000Y5831D2*
X16756Y5587D1*
X15873Y4704D2*
X15672Y4503D1*
X22840Y11247D2*
X22627Y11034D1*
X19877Y8284D2*
X19573Y7980D1*
X17424Y5831D2*
X17180Y5587D1*
X16297Y4704D2*
X16096Y4503D1*
X20661Y8643D2*
X20390Y8373D1*
X16721Y4704D2*
X16520Y4503D1*
X22762Y10320D2*
X22553Y10111D1*
X20707Y8265D2*
X20566Y8124D1*
X19585Y7143D2*
X19465Y7024D1*
X17145Y4704D2*
X16945Y4503D1*
X20009Y7143D2*
X19890Y7024D1*
X19375Y6509D2*
X19293Y6427D1*
X17570Y4704D2*
X17369Y4503D1*
X20434Y7143D2*
X20209Y6919D1*
X19375Y6084D2*
X19208Y5918D1*
X19130Y5840D2*
X18701Y5411D1*
X17994Y4704D2*
X17793Y4503D1*
X20546Y6832D2*
X20387Y6672D1*
X19545Y5831D2*
X18217Y4503D1*
X19926Y5788D2*
X18642Y4503D1*
X20143Y5581D2*
X19066Y4503D1*
X20536Y5549D2*
X19490Y4503D1*
X20961Y5549D2*
X19914Y4503D1*
X21385Y5549D2*
X20339Y4503D1*
X21690Y5430D2*
X20763Y4503D1*
X21894Y5209D2*
X21187Y4503D1*
X21648Y4540D2*
X21612Y4504D1*
X22807Y5274D2*
X22599Y5066D1*
X23035Y16590D2*
X23370Y16255D1*
X22611Y16590D2*
X23001Y16201D1*
X23201Y16000D2*
X23370Y15831D1*
X22513Y16264D2*
X22576Y16201D1*
X23201Y15576D2*
X23370Y15407D1*
X23201Y15152D2*
X23370Y14982D1*
X22879Y15049D2*
X23050Y14878D1*
X20791Y16289D2*
X21025Y16055D1*
X23038Y14041D2*
X23370Y13710D1*
X20733Y15922D2*
X21025Y15630D1*
X22757Y13899D2*
X23370Y13285D1*
X20733Y15498D2*
X21025Y15206D1*
X21900Y14332D2*
X21988Y14243D1*
X22743Y13488D2*
X23014Y13217D1*
X20733Y15074D2*
X20987Y14820D1*
X21476Y14332D2*
X21632Y14175D1*
X22675Y13132D2*
X22759Y13048D1*
X20733Y14650D2*
X20987Y14396D1*
X21052Y14331D2*
X21632Y13751D1*
X21013Y13945D2*
X21632Y13327D1*
X22622Y12336D2*
X22835Y12124D1*
X21013Y13521D2*
X21660Y12874D1*
X17520Y16590D2*
X17679Y16431D1*
X21381Y12729D2*
X21741Y12369D1*
X21868Y12242D2*
X21927Y12183D1*
X22682Y11428D2*
X22740Y11370D1*
X22869Y11241D2*
X22928Y11182D1*
X17095Y16590D2*
X17679Y16007D1*
X21381Y12305D2*
X21708Y11978D1*
X22478Y11208D2*
X22709Y10977D1*
X16671Y16590D2*
X17679Y15582D1*
X20738Y12523D2*
X20868Y12394D1*
X21381Y11880D2*
X21635Y11626D1*
X16247Y16590D2*
X17679Y15158D1*
X18758Y14080D2*
X18838Y14000D1*
X20738Y12099D2*
X20868Y11970D1*
X21381Y11456D2*
X21502Y11335D1*
X22564Y10273D2*
X22774Y10064D1*
X15823Y16590D2*
X17679Y14734D1*
X18333Y14080D2*
X18838Y13575D1*
X20738Y11675D2*
X20868Y11545D1*
X21381Y11032D2*
X21491Y10922D1*
X15398Y16590D2*
X15901Y16088D1*
X16462Y15526D2*
X17364Y14625D1*
X17606Y14383D2*
X17709Y14280D1*
X18078Y13911D2*
X18193Y13796D1*
X19782Y12207D2*
X19877Y12112D1*
X20738Y11251D2*
X20868Y11121D1*
X21381Y10608D2*
X21491Y10498D1*
X14717Y16847D2*
X14758Y16806D1*
X15256Y16309D2*
X15634Y15930D1*
X16305Y15260D2*
X16940Y14625D1*
X19358Y12207D2*
X19877Y11688D1*
X20738Y10826D2*
X20868Y10697D1*
X14293Y16847D2*
X14603Y16537D1*
X15418Y15722D2*
X15528Y15612D1*
X15987Y15154D2*
X16595Y14545D1*
X16731Y14409D2*
X16769Y14371D1*
X19184Y11957D2*
X19877Y11264D1*
X20738Y10402D2*
X20868Y10272D1*
X15418Y15298D2*
X16171Y14545D1*
X16731Y13985D2*
X16769Y13946D1*
X19230Y11486D2*
X19877Y10839D1*
X15418Y14873D2*
X15894Y14397D1*
X19800Y10492D2*
X19877Y10415D1*
X13655Y16213D2*
X13703Y16164D1*
X14240Y15627D2*
X14477Y15390D1*
X15243Y14625D2*
X15894Y13973D1*
X18292Y11575D2*
X18393Y11474D1*
X19732Y10135D2*
X19877Y9991D1*
X13037Y16406D2*
X13070Y16373D1*
X13231Y16213D2*
X13279Y16164D1*
X14049Y15394D2*
X14295Y15148D1*
X15213Y14230D2*
X15830Y13614D1*
X17409Y12035D2*
X17457Y11986D1*
X19732Y9711D2*
X19877Y9566D1*
X12697Y16322D2*
X12956Y16063D1*
X15213Y13806D2*
X15405Y13614D1*
X20390Y8629D2*
X20707Y8312D1*
X12029Y16566D2*
X12170Y16424D1*
X13468Y15127D2*
X13997Y14598D1*
X11605Y16566D2*
X12159Y16012D1*
X13381Y14789D2*
X13572Y14598D1*
X14644Y13526D2*
X14703Y13468D1*
X19581Y8589D2*
X19877Y8294D1*
X11181Y16566D2*
X11683Y16063D1*
X14220Y13526D2*
X14984Y12762D1*
X19368Y8379D2*
X19766Y7980D1*
X22515Y5231D2*
X22732Y5014D1*
X10756Y16566D2*
X11259Y16063D1*
X13796Y13526D2*
X14984Y12337D1*
X19208Y8113D2*
X19341Y7980D1*
X20178Y7144D2*
X20546Y6776D1*
X10417Y16481D2*
X11100Y15798D1*
X11163Y15735D2*
X11208Y15690D1*
X13371Y13526D2*
X14751Y12147D1*
X17745Y9152D2*
X18108Y8789D1*
X19754Y7144D2*
X19873Y7024D1*
X21348Y5550D2*
X21802Y5095D1*
X12947Y13526D2*
X14595Y11878D1*
X19293Y7180D2*
X19449Y7024D1*
X20924Y5550D2*
X21647Y4827D1*
X9205Y16844D2*
X9437Y16612D1*
X12523Y13526D2*
X14684Y11365D1*
X16467Y9582D2*
X16769Y9280D1*
X20499Y5550D2*
X21546Y4503D1*
X9082Y16542D2*
X9437Y16187D1*
X12312Y13312D2*
X14376Y11249D1*
X16456Y9169D2*
X16600Y9025D1*
X19293Y6332D2*
X19375Y6250D1*
X19793Y5831D2*
X21121Y4503D1*
X9082Y16118D2*
X9437Y15763D1*
X12312Y12888D2*
X13952Y11249D1*
X14875Y10326D2*
X14984Y10216D1*
X19208Y5992D2*
X20697Y4503D1*
X9082Y15694D2*
X9437Y15339D1*
X12312Y12464D2*
X13528Y11249D1*
X14039Y10737D2*
X14192Y10584D1*
X14561Y10215D2*
X14817Y9959D1*
X18938Y5838D2*
X20273Y4503D1*
X7508Y16844D2*
X7851Y16501D1*
X8832Y15520D2*
X9308Y15044D1*
X12312Y12039D2*
X13103Y11249D1*
X13615Y10737D2*
X13980Y10372D1*
X14349Y10003D2*
X14534Y9818D1*
X16646Y7706D2*
X16769Y7583D1*
X18701Y5651D2*
X19848Y4503D1*
X7085Y16842D2*
X7437Y16491D1*
X8723Y15205D2*
X8884Y15044D1*
X11131Y12797D2*
X11209Y12719D1*
X12312Y11615D2*
X12679Y11249D1*
X13191Y10737D2*
X13768Y10160D1*
X14137Y9791D2*
X14792Y9136D1*
X18701Y5226D2*
X19424Y4503D1*
X6661Y16842D2*
X7013Y16491D1*
X7526Y15977D2*
X7851Y15652D1*
X7984Y15520D2*
X8211Y15292D1*
X10569Y12934D2*
X10619Y12884D1*
X11131Y12373D2*
X11209Y12294D1*
X12767Y10737D2*
X13556Y9948D1*
X13925Y9578D2*
X13970Y9533D1*
X16041Y7462D2*
X16769Y6734D1*
X18559Y4945D2*
X19000Y4503D1*
X6237Y16842D2*
X6589Y16491D1*
X7102Y15977D2*
X7629Y15450D1*
X7979Y15100D2*
X8211Y14868D1*
X10375Y12704D2*
X10619Y12460D1*
X11131Y11948D2*
X11209Y11870D1*
X12342Y10737D2*
X13301Y9779D1*
X14059Y9020D2*
X14492Y8587D1*
X15856Y7223D2*
X16411Y6668D1*
X17248Y5831D2*
X17447Y5632D1*
X18340Y4739D2*
X18576Y4503D1*
X5813Y16842D2*
X6164Y16491D1*
X6678Y15977D2*
X7305Y15350D1*
X10375Y12280D2*
X10619Y12036D1*
X11131Y11524D2*
X11209Y11446D1*
X11918Y10737D2*
X12876Y9779D1*
X14084Y8571D2*
X14199Y8456D1*
X15763Y6892D2*
X16062Y6593D1*
X16824Y5831D2*
X17069Y5586D1*
X17952Y4703D2*
X18151Y4503D1*
X5579Y16652D2*
X5740Y16491D1*
X6253Y15977D2*
X7180Y15050D1*
X10463Y11768D2*
X10619Y11612D1*
X11131Y11100D2*
X11209Y11022D1*
X11723Y10508D2*
X12452Y9779D1*
X15339Y6892D2*
X15725Y6505D1*
X16399Y5831D2*
X16645Y5586D1*
X17528Y4703D2*
X17727Y4503D1*
X5829Y15977D2*
X6985Y14822D1*
X11131Y10676D2*
X11209Y10597D1*
X11723Y10084D2*
X12028Y9779D1*
X13118Y8688D2*
X13350Y8456D1*
X15813Y5994D2*
X16221Y5586D1*
X17104Y4703D2*
X17303Y4503D1*
X5579Y15803D2*
X5942Y15440D1*
X6237Y15145D2*
X6680Y14702D1*
X10057Y11325D2*
X10177Y11206D1*
X11131Y10251D2*
X11209Y10173D1*
X12694Y8688D2*
X12926Y8456D1*
X14043Y7339D2*
X14107Y7275D1*
X15388Y5994D2*
X15796Y5586D1*
X16679Y4703D2*
X16879Y4503D1*
X4283Y16675D2*
X4348Y16609D1*
X5439Y15519D2*
X5591Y15366D1*
X6163Y14795D2*
X6254Y14704D1*
X9915Y11043D2*
X10177Y10781D1*
X12270Y8688D2*
X12501Y8457D1*
X14255Y6703D2*
X14348Y6609D1*
X15105Y5852D2*
X15371Y5587D1*
X16254Y4704D2*
X16455Y4503D1*
X4283Y16251D2*
X4348Y16185D1*
X5220Y15314D2*
X5447Y15086D1*
X10056Y10478D2*
X10177Y10357D1*
X11846Y8688D2*
X12076Y8457D1*
X14043Y6490D2*
X14382Y6152D1*
X15830Y4704D2*
X16031Y4503D1*
X4283Y15827D2*
X4348Y15761D1*
X4590Y15519D2*
X4706Y15403D1*
X5220Y14890D2*
X5328Y14781D1*
X5578Y14532D2*
X5765Y14344D1*
X6968Y13141D2*
X7090Y13020D1*
X10056Y10054D2*
X10151Y9959D1*
X11421Y8688D2*
X11652Y8457D1*
X13967Y6142D2*
X14269Y5840D1*
X15405Y4704D2*
X15606Y4503D1*
X4283Y15402D2*
X4706Y14979D1*
X5578Y14107D2*
X5765Y13920D1*
X6330Y13355D2*
X6377Y13308D1*
X6789Y12896D2*
X6957Y12728D1*
X10997Y8688D2*
X11228Y8457D1*
X13055Y6630D2*
X13207Y6479D1*
X15105Y4580D2*
X15181Y4504D1*
X4283Y14978D2*
X4479Y14781D1*
X5578Y13683D2*
X5765Y13495D1*
X5906Y13355D2*
X5953Y13308D1*
X7046Y12215D2*
X7139Y12122D1*
X7717Y11543D2*
X7857Y11404D1*
X9994Y9266D2*
X10048Y9213D1*
X10573Y8688D2*
X10804Y8457D1*
X12842Y6419D2*
X12975Y6286D1*
X14699Y4561D2*
X14758Y4503D1*
X4283Y14554D2*
X4348Y14488D1*
X5482Y13355D2*
X5545Y13292D1*
X6622Y12215D2*
X6954Y11883D1*
X7696Y11141D2*
X7857Y10980D1*
X8793Y10044D2*
X8841Y9995D1*
X10344Y8492D2*
X10381Y8456D1*
X13622Y5214D2*
X13989Y4848D1*
X4283Y14130D2*
X4348Y14064D1*
X5057Y13355D2*
X5318Y13094D1*
X6393Y12019D2*
X6947Y11465D1*
X7696Y10716D2*
X7956Y10456D1*
X8793Y9619D2*
X8841Y9571D1*
X11029Y7384D2*
X11142Y7271D1*
X12205Y6207D2*
X12446Y5966D1*
X12825Y5587D2*
X12876Y5537D1*
X13533Y4880D2*
X13989Y4423D1*
X4283Y13705D2*
X4348Y13640D1*
X4633Y13355D2*
X4967Y13021D1*
X6072Y11916D2*
X6947Y11041D1*
X7696Y10292D2*
X7956Y10032D1*
X8793Y9195D2*
X8841Y9147D1*
X9620Y8368D2*
X9687Y8302D1*
X10604Y7384D2*
X11142Y6846D1*
X11781Y6207D2*
X12383Y5605D1*
X13533Y4455D2*
X13710Y4278D1*
X4283Y13281D2*
X4682Y12882D1*
X5760Y11804D2*
X6894Y10670D1*
X9196Y8368D2*
X9687Y7877D1*
X10200Y7364D2*
X11142Y6422D1*
X11357Y6207D2*
X11959Y5605D1*
X12724Y4840D2*
X13006Y4558D1*
X4283Y12857D2*
X4524Y12615D1*
X5760Y11379D2*
X6115Y11024D1*
X6617Y10523D2*
X6683Y10457D1*
X7049Y10090D2*
X7184Y9955D1*
X8793Y8347D2*
X9687Y7453D1*
X10200Y6940D2*
X11534Y5605D1*
X12371Y4769D2*
X12582Y4558D1*
X4283Y12433D2*
X4768Y11948D1*
X6837Y9878D2*
X7703Y9012D1*
X8466Y8249D2*
X9687Y7029D1*
X10200Y6515D2*
X11142Y5574D1*
X11947Y4769D2*
X12158Y4558D1*
X4283Y12008D2*
X4566Y11725D1*
X6625Y9666D2*
X7703Y8588D1*
X8216Y8075D2*
X9687Y6604D1*
X10200Y6091D2*
X10848Y5443D1*
X11522Y4769D2*
X11733Y4558D1*
X4283Y11584D2*
X4526Y11341D1*
X6589Y9278D2*
X7703Y8164D1*
X8216Y7651D2*
X9687Y6180D1*
X10200Y5667D2*
X10424Y5443D1*
X10936Y4931D2*
X11309Y4558D1*
X4283Y11160D2*
X4624Y10819D1*
X6620Y8822D2*
X7703Y7740D1*
X8216Y7226D2*
X9687Y5756D1*
X10512Y4931D2*
X10885Y4558D1*
X4283Y10736D2*
X4508Y10511D1*
X6620Y8398D2*
X7703Y7315D1*
X8216Y6802D2*
X9687Y5332D1*
X10087Y4931D2*
X10460Y4558D1*
X4283Y10311D2*
X4698Y9896D1*
X6620Y7974D2*
X7703Y6891D1*
X8216Y6378D2*
X10036Y4558D1*
X4283Y9887D2*
X4531Y9639D1*
X6254Y7916D2*
X7703Y6467D1*
X8216Y5953D2*
X9612Y4558D1*
X4283Y9463D2*
X4788Y8958D1*
X5830Y7916D2*
X7703Y6043D1*
X8216Y5529D2*
X9188Y4558D1*
X4283Y9039D2*
X4575Y8746D1*
X5337Y7984D2*
X7703Y5618D1*
X8216Y5105D2*
X8763Y4558D1*
X4283Y8614D2*
X4517Y8379D1*
X4971Y7926D2*
X7703Y5194D1*
X8216Y4681D2*
X8339Y4558D1*
X4283Y8190D2*
X7703Y4770D1*
X4283Y7766D2*
X7767Y4281D1*
X4283Y7341D2*
X7343Y4281D1*
X4283Y6917D2*
X6919Y4281D1*
X4283Y6493D2*
X6495Y4281D1*
X4283Y6069D2*
X6070Y4281D1*
X4283Y5644D2*
X5644Y4283D1*
X4283Y5220D2*
X5220Y4283D1*
X4283Y4796D2*
X4796Y4283D1*
X4283Y4372D2*
X4372Y4283D1*
X16718Y13864D2*
X16720Y13683D1*
X16778D1*
X16779Y13945D1*
Y14614D1*
X17595D1*
Y14143D1*
X17793Y14343D1*
X17690Y14344D1*
Y16601D1*
X15244D1*
X15245Y16161D1*
X15407Y16159D1*
X15405Y15304D1*
X15407Y15339D1*
Y14635D1*
X15106Y14634D1*
X15171Y14556D1*
X15196Y14491D1*
X15202Y14437D1*
Y13605D1*
X15907Y13604D1*
X15904Y13760D1*
X15907Y13864D1*
X15904Y13874D1*
Y14534D1*
X16720D1*
Y13694D1*
X16779Y13760D1*
Y13910D1*
X17308Y11845D2*
X17467D1*
Y11989D1*
X17827D1*
X17676Y12146D1*
Y12045D1*
X17247D1*
X17271Y12008D1*
X17298Y11939D1*
X17308Y11847D1*
X15845Y7566D2*
Y6903D1*
X15294D1*
Y6496D1*
X16072Y6495D1*
Y6657D1*
X16781D1*
X16779Y6930D1*
X16707Y6932D1*
X16633Y6943D1*
X16550Y6989D1*
X16068Y7470D1*
X16009Y7476D1*
X15938Y7500D1*
X15874Y7540D1*
X15846Y7567D1*
X20677Y12753D2*
Y12706D1*
X20699Y12671D1*
X20726Y12580D1*
X20727Y10308D1*
Y10179D1*
X20878Y10177D1*
X20879Y12752D1*
X20677Y12754D1*
X20726Y12580D1*
X19900Y13407D2*
X19951D1*
X19900Y13417D1*
Y13407D1*
X19951Y13472D1*
Y14088D1*
X19900Y14077D1*
Y13417D1*
X12677Y6378D2*
Y6276D1*
X13219D1*
X13217Y6680D1*
X13084Y6682D1*
X12854Y6451D1*
X12794Y6406D1*
X12703Y6380D1*
X12678Y6379D1*
X12459Y6217D2*
X11822Y6219D1*
X11813Y6217D1*
X11153D1*
Y7395D1*
X11018Y7397D1*
X10872Y7394D1*
X10822Y7397D1*
X10675Y7394D1*
X10625Y7397D1*
X10478Y7394D1*
X10428Y7397D1*
X10282Y7394D1*
X10231Y7397D1*
X10190Y7394D1*
X10189Y5430D1*
X10533Y5433D1*
X11154D1*
X11153Y5595D1*
X12008Y5592D1*
X12017Y5595D1*
X12677D1*
Y5528D1*
X12957D1*
X12944Y5597D1*
X12457Y5598D1*
Y6215D1*
X8780Y9114D2*
X8782Y8964D1*
Y8873D1*
X8853Y8876D1*
X8855Y9076D1*
X8853Y9222D1*
X8855Y9273D1*
X8853Y9419D1*
X8855Y9470D1*
X8853Y9616D1*
X8855Y9667D1*
X8853Y9813D1*
X8855Y9863D1*
X8853Y10010D1*
X8855Y10060D1*
X8853Y10207D1*
X8855Y10257D1*
X8853Y10354D1*
X8788Y10304D1*
X8782Y10251D1*
Y8929D1*
X8853Y8922D1*
Y9072D1*
X8782Y8381D2*
Y8260D1*
X8203D1*
X8205Y7861D1*
Y4554D1*
X8334Y4548D1*
X13028D1*
X13030Y4852D1*
X12947Y4850D1*
X12677D1*
Y4779D1*
X11153D1*
Y4941D1*
X10083D1*
X10009Y4952D1*
X9926Y4998D1*
X9769Y5153D1*
X9725Y5213D1*
X9698Y5304D1*
X9697Y7577D1*
Y8381D1*
X9455Y8379D1*
X8853Y8381D1*
X8782Y9784D2*
Y9424D1*
X8853Y9363D1*
Y9663D1*
X7869Y11320D2*
X7867Y11470D1*
Y11552D1*
X7697Y11554D1*
X7686Y11492D1*
Y9915D1*
X7802D1*
X7876Y9903D1*
X7959Y9858D1*
X7967Y9861D1*
Y10651D1*
X7867D1*
X7868Y11506D1*
X22088Y16137D2*
Y15157D1*
X22129D1*
X22130Y15625D1*
X22138Y15734D1*
Y16135D1*
X22087Y16137D1*
X21036Y15157D2*
Y16137D1*
X20997D1*
Y16299D1*
X20721D1*
X20723Y15880D1*
Y14378D1*
X20999Y14377D1*
X20997Y15157D1*
X21037D1*
X22502Y16190D2*
X23190D1*
Y15059D1*
X22850D1*
X22852Y14867D1*
X23381Y14868D1*
Y16599D1*
X22662Y16601D1*
X22500D1*
X22502Y16188D1*
X18849Y13483D2*
Y14090D1*
X18234D1*
X17931Y13785D1*
X18445D1*
X18519Y13773D1*
X18602Y13728D1*
X18849Y13482D1*
X21003Y14342D2*
Y13247D1*
X20850Y13245D1*
X20984D1*
X21058Y13234D1*
X21142Y13189D1*
X21298Y13033D1*
X21343Y12973D1*
X21369Y12882D1*
X21370Y10609D1*
Y10176D1*
X21502Y10177D1*
X21501Y11247D1*
X21513Y11321D1*
X21558Y11405D1*
X21668Y11516D1*
X21645Y11623D1*
X21642Y11698D1*
X21648Y11773D1*
X21665Y11846D1*
X21692Y11916D1*
X21728Y11981D1*
X21772Y12042D1*
X21825Y12095D1*
X21884Y12141D1*
X21969Y12186D1*
X21866Y12246D1*
X21809Y12294D1*
X21758Y12349D1*
X21716Y12411D1*
X21683Y12479D1*
X21659Y12550D1*
X21645Y12623D1*
X21642Y12698D1*
X21648Y12773D1*
X21665Y12846D1*
X21692Y12916D1*
X21728Y12981D1*
X21772Y13042D1*
X21825Y13095D1*
X21886Y13142D1*
X21641Y13141D1*
Y14233D1*
X22047D1*
X22152Y14336D1*
X22127Y14342D1*
X21004D1*
X23380Y14052D2*
X22889D1*
X22732Y13895D1*
X22733Y13141D1*
X22486D1*
X22573Y13072D1*
X22622Y13016D1*
X22663Y12953D1*
X22686Y12904D1*
X22728Y12981D1*
X22772Y13042D1*
X22825Y13095D1*
X22884Y13141D1*
X22949Y13178D1*
X23019Y13206D1*
X23092Y13224D1*
X23166Y13232D1*
X23241Y13230D1*
X23315Y13217D1*
X23380Y13197D1*
X23381Y14054D1*
X8857Y15034D2*
X9448D1*
Y16682D1*
X9459Y16756D1*
X9505Y16839D1*
X9512Y16855D1*
X9074D1*
X9072Y16187D1*
Y15531D1*
X8713D1*
Y14773D1*
X8840Y14771D1*
X8842Y14884D1*
Y15034D1*
X8857D1*
X19911Y5842D2*
X19385D1*
Y6522D1*
X19282Y6520D1*
Y6340D1*
X19196D1*
X19198Y5927D1*
Y5849D1*
X18689D1*
X18690Y5215D1*
X18680Y5141D1*
X18652Y5072D1*
X18606Y5013D1*
X18391Y4797D1*
X18331Y4752D1*
X18262Y4723D1*
X18188Y4714D1*
X15097D1*
X15095Y4572D1*
X14492D1*
X14491Y4494D1*
X21677Y4493D1*
X21659Y4550D1*
X21645Y4623D1*
X21642Y4698D1*
X21648Y4773D1*
X21665Y4846D1*
X21692Y4916D1*
X21728Y4981D1*
X21772Y5042D1*
X21825Y5095D1*
X21884Y5141D1*
X21969Y5186D1*
X21866Y5246D1*
X21809Y5294D1*
X21758Y5349D1*
X21716Y5411D1*
X21683Y5479D1*
X21659Y5550D1*
X21645Y5623D1*
X21642Y5696D1*
X21580Y5632D1*
X21519Y5588D1*
X21428Y5561D1*
X20274Y5560D1*
X20200Y5572D1*
X20116Y5617D1*
X19960Y5772D1*
X19915Y5835D1*
X19945Y5789D1*
X20380Y6657D2*
X20562D1*
X20557Y6696D1*
Y7156D1*
X20021Y7154D1*
X19991Y7157D1*
X19982Y7154D1*
X19322D1*
Y7970D1*
X20003D1*
X19960Y8013D1*
X19915Y8073D1*
X19889Y8164D1*
X19888Y8653D1*
X19626Y8654D1*
X19378Y8406D1*
X19317Y8362D1*
X19226Y8335D1*
X19220Y8333D1*
Y8153D1*
X19199D1*
X19198Y7864D1*
X19282D1*
Y7015D1*
X19994Y7014D1*
X20067Y7002D1*
X20151Y6957D1*
X20307Y6802D1*
X20352Y6741D1*
X20376Y6668D1*
X20361Y6721D1*
X20655Y7970D2*
X20717Y7972D1*
Y8655D1*
X20381Y8654D1*
X20379Y8424D1*
Y8290D1*
X20593Y8076D1*
X20646Y7997D1*
X20719Y8008D1*
X19722Y9470D2*
X19888D1*
Y12216D1*
X19469Y12218D1*
X19105D1*
X19149Y12137D1*
X19163Y12090D1*
X19173Y12007D1*
Y11550D1*
X19220Y11552D1*
X19221Y11274D1*
X19362Y11132D1*
X19408Y11073D1*
X19437Y11000D1*
X19467Y10957D1*
X19542Y10951D1*
X19613Y10928D1*
X19678Y10889D1*
X19732Y10838D1*
X19774Y10776D1*
X19800Y10706D1*
X19811Y10621D1*
X19803Y10547D1*
X19778Y10476D1*
X19739Y10413D1*
X19721Y10394D1*
Y9470D1*
X16454Y15550D2*
X16436Y15477D1*
X16407Y15408D1*
X16366Y15345D1*
X16316Y15290D1*
X16258Y15243D1*
X16192Y15206D1*
X16122Y15180D1*
X16048Y15166D1*
X15974Y15164D1*
X15899Y15175D1*
X15828Y15197D1*
X15761Y15230D1*
X15700Y15274D1*
X15647Y15327D1*
X15604Y15388D1*
X15571Y15456D1*
X15549Y15527D1*
X15539Y15601D1*
X15542Y15676D1*
X15556Y15750D1*
X15582Y15820D1*
X15619Y15885D1*
X15667Y15943D1*
X15723Y15993D1*
X15786Y16033D1*
X15855Y16062D1*
X15928Y16080D1*
X16002Y16085D1*
X16077Y16079D1*
X16150Y16060D1*
X16218Y16030D1*
X16281Y15989D1*
X16337Y15939D1*
X16383Y15880D1*
X16419Y15815D1*
X16445Y15744D1*
X16460Y15625D1*
X16454Y15550D1*
X10697Y15788D2*
X11151D1*
Y15654D1*
X11167Y15646D1*
X11217Y15647D1*
Y16052D1*
X12032D1*
Y16001D1*
X12181D1*
Y16422D1*
X12192Y16496D1*
X12227Y16565D1*
X12176Y16576D1*
X10364D1*
X10386Y16540D1*
X10413Y16470D1*
X10424Y16385D1*
X10415Y16311D1*
X10391Y16240D1*
X10351Y16177D1*
X10333Y16158D1*
X10353Y16121D1*
X10428Y16114D1*
X10499Y16091D1*
X10563Y16053D1*
X10618Y16002D1*
X10659Y15940D1*
X10686Y15870D1*
X10697Y15787D1*
X22688Y12471D2*
X22652Y12402D1*
X22609Y12341D1*
X22557Y12286D1*
X22499Y12239D1*
X22402Y12187D1*
X22454Y12163D1*
X22517Y12122D1*
X22573Y12072D1*
X22622Y12016D1*
X22663Y11953D1*
X22686Y11904D1*
X22728Y11981D1*
X22772Y12042D1*
X22825Y12095D1*
X22884Y12141D1*
X22969Y12186D1*
X22866Y12246D1*
X22809Y12294D1*
X22758Y12349D1*
X22716Y12411D1*
X22688Y12468D1*
Y11471D2*
X22652Y11402D1*
X22609Y11341D1*
X22557Y11286D1*
X22499Y11239D1*
X22402Y11187D1*
X22454Y11163D1*
X22517Y11122D1*
X22573Y11072D1*
X22622Y11016D1*
X22663Y10953D1*
X22686Y10904D1*
X22728Y10981D1*
X22772Y11042D1*
X22825Y11095D1*
X22884Y11141D1*
X22969Y11186D1*
X22866Y11246D1*
X22809Y11294D1*
X22758Y11349D1*
X22716Y11411D1*
X22688Y11468D1*
Y10471D2*
X22652Y10402D1*
X22609Y10341D1*
X22557Y10286D1*
X22499Y10239D1*
X22402Y10187D1*
X22454Y10163D1*
X22517Y10122D1*
X22573Y10072D1*
X22622Y10016D1*
X22663Y9953D1*
X22686Y9904D1*
X22728Y9981D1*
X22772Y10042D1*
X22825Y10095D1*
X22884Y10141D1*
X22969Y10186D1*
X22866Y10246D1*
X22809Y10294D1*
X22758Y10349D1*
X22716Y10411D1*
X22688Y10468D1*
Y5471D2*
X22652Y5402D1*
X22609Y5341D1*
X22557Y5286D1*
X22499Y5239D1*
X22402Y5187D1*
X22454Y5163D1*
X22517Y5122D1*
X22573Y5072D1*
X22622Y5016D1*
X22663Y4953D1*
X22686Y4904D1*
X22728Y4981D1*
X22772Y5042D1*
X22825Y5095D1*
X22884Y5141D1*
X22969Y5186D1*
X22866Y5246D1*
X22809Y5294D1*
X22758Y5349D1*
X22716Y5411D1*
X22688Y5468D1*
X7099Y13365D2*
X7036Y13368D1*
X6962Y13365D1*
X6961Y13191D1*
X6950Y13117D1*
X6904Y13034D1*
X6749Y12877D1*
X6689Y12833D1*
X6598Y12806D1*
X6493Y12805D1*
X6540Y12738D1*
X6549Y12719D1*
X7097Y12718D1*
X7099Y13137D1*
Y13364D1*
X6961Y13365D1*
X6166Y14693D2*
X6706D1*
X6877D1*
X6991Y14806D1*
X7051Y14851D1*
X7142Y14877D1*
X7230Y14879D1*
X7204Y14949D1*
X7191Y15023D1*
X7193Y15098D1*
X7208Y15171D1*
X7238Y15240D1*
X7280Y15302D1*
X7333Y15355D1*
X7395Y15397D1*
X7464Y15426D1*
X7537Y15441D1*
X7612Y15442D1*
X7686Y15429D1*
X7756Y15403D1*
X7819Y15363D1*
X7874Y15312D1*
X7918Y15251D1*
X7950Y15183D1*
X7968Y15111D1*
X7972Y15052D1*
X7965Y14978D1*
X7944Y14906D1*
X7910Y14840D1*
X7863Y14781D1*
X7806Y14732D1*
X7763Y14708D1*
X7849Y14623D1*
X7863Y14640D1*
Y14771D1*
X8221D1*
Y15528D1*
X7863Y15531D1*
Y15988D1*
X5568D1*
Y15531D1*
X5209D1*
Y14772D1*
X5568Y14771D1*
Y13365D1*
X4359D1*
Y14771D1*
X4717D1*
Y15528D1*
X4359Y15531D1*
Y16850D1*
X4272Y16852D1*
Y4272D1*
X7795Y4270D1*
X7741Y4338D1*
X7714Y4429D1*
X7713Y6701D1*
Y9408D1*
X7652Y9423D1*
X7534D1*
X7460Y9434D1*
X7377Y9480D1*
X7266Y9589D1*
X7222Y9649D1*
X7195Y9741D1*
X7194Y10253D1*
X6580Y9640D1*
X6594Y9598D1*
X6609Y9472D1*
X6604Y9397D1*
X6589Y9324D1*
X6563Y9253D1*
X6529Y9187D1*
X6485Y9125D1*
X6434Y9071D1*
X6365Y9018D1*
X6609Y9017D1*
Y7926D1*
X5518D1*
Y8172D1*
X5485Y8125D1*
X5434Y8071D1*
X5375Y8024D1*
X5311Y7985D1*
X5242Y7956D1*
X5170Y7937D1*
X5096Y7927D1*
X5021Y7928D1*
X4946Y7939D1*
X4875Y7960D1*
X4806Y7991D1*
X4743Y8030D1*
X4685Y8079D1*
X4635Y8134D1*
X4593Y8196D1*
X4559Y8263D1*
X4536Y8334D1*
X4522Y8408D1*
X4518Y8483D1*
X4525Y8557D1*
X4542Y8630D1*
X4568Y8700D1*
X4604Y8766D1*
X4649Y8826D1*
X4702Y8880D1*
X4761Y8926D1*
X4845Y8971D1*
X4743Y9030D1*
X4685Y9079D1*
X4635Y9134D1*
X4593Y9196D1*
X4559Y9263D1*
X4536Y9334D1*
X4522Y9408D1*
X4518Y9483D1*
X4525Y9557D1*
X4542Y9630D1*
X4568Y9700D1*
X4604Y9766D1*
X4649Y9826D1*
X4702Y9880D1*
X4761Y9926D1*
X4845Y9971D1*
X4743Y10030D1*
X4685Y10079D1*
X4635Y10134D1*
X4593Y10196D1*
X4559Y10263D1*
X4536Y10334D1*
X4522Y10408D1*
X4518Y10483D1*
X4525Y10557D1*
X4542Y10630D1*
X4568Y10700D1*
X4604Y10766D1*
X4649Y10826D1*
X4702Y10880D1*
X4761Y10926D1*
X4845Y10971D1*
X4743Y11030D1*
X4685Y11079D1*
X4635Y11134D1*
X4593Y11196D1*
X4559Y11263D1*
X4536Y11334D1*
X4522Y11408D1*
X4518Y11483D1*
X4525Y11557D1*
X4542Y11630D1*
X4568Y11700D1*
X4604Y11766D1*
X4649Y11826D1*
X4702Y11880D1*
X4761Y11926D1*
X4845Y11971D1*
X4743Y12030D1*
X4685Y12079D1*
X4635Y12134D1*
X4593Y12196D1*
X4559Y12263D1*
X4536Y12334D1*
X4522Y12408D1*
X4518Y12483D1*
X4525Y12557D1*
X4542Y12630D1*
X4568Y12700D1*
X4604Y12766D1*
X4649Y12826D1*
X4702Y12880D1*
X4761Y12926D1*
X4826Y12963D1*
X4895Y12991D1*
X4968Y13009D1*
X5043Y13017D1*
X5118Y13015D1*
X5191Y13002D1*
X5265Y12978D1*
X5314Y13069D1*
X5469Y13225D1*
X5530Y13269D1*
X5621Y13296D1*
X6471Y13297D1*
X6469Y13367D1*
X6406Y13368D1*
X6260Y13365D1*
X6091Y13368D1*
X6080Y13365D1*
X5776D1*
Y14668D1*
X5716Y14684D1*
X5649Y14716D1*
X5588Y14761D1*
X5537Y14816D1*
X5498Y14879D1*
X5471Y14949D1*
X5459Y15023D1*
X5460Y15098D1*
X5476Y15171D1*
X5506Y15240D1*
X5548Y15302D1*
X5601Y15355D1*
X5663Y15397D1*
X5732Y15426D1*
X5805Y15441D1*
X5880Y15442D1*
X5954Y15429D1*
X6024Y15403D1*
X6087Y15363D1*
X6142Y15312D1*
X6186Y15251D1*
X6218Y15183D1*
X6236Y15111D1*
X6240Y15052D1*
X6233Y14978D1*
X6212Y14906D1*
X6177Y14840D1*
X6131Y14781D1*
X6074Y14732D1*
X6002Y14693D1*
X6710D1*
X6856D1*
X7863Y16480D2*
X7862Y16854D1*
X5568Y16853D1*
Y16480D1*
X7862Y16479D1*
X6604Y10397D2*
X6594Y10349D1*
X6959Y10714D1*
X6957Y11816D1*
X6969Y11889D1*
X7014Y11973D1*
X7263Y12221D1*
X7246Y12229D1*
X7130Y12226D1*
X6551D1*
X6485Y12125D1*
X6434Y12071D1*
X6375Y12024D1*
X6311Y11985D1*
X6242Y11956D1*
X6170Y11937D1*
X6096Y11927D1*
X6021Y11928D1*
X5946Y11939D1*
X5875Y11960D1*
X5806Y11991D1*
X5749Y12027D1*
Y10917D1*
X5826Y10963D1*
X5895Y10991D1*
X5968Y11009D1*
X6043Y11017D1*
X6118Y11015D1*
X6191Y11002D1*
X6263Y10979D1*
X6331Y10947D1*
X6393Y10906D1*
X6450Y10857D1*
X6499Y10800D1*
X6540Y10738D1*
X6572Y10670D1*
X6594Y10598D1*
X6609Y10472D1*
X6604Y10397D1*
X13796Y5902D2*
X14198D1*
Y5810D1*
X14279Y5809D1*
Y6096D1*
X14389D1*
X14391Y6494D1*
Y6557D1*
X14337Y6637D1*
X14311Y6708D1*
X14305Y6756D1*
X14241Y6710D1*
X14150Y6683D1*
X14031Y6682D1*
X14032Y6153D1*
X13871D1*
X13870Y6077D1*
X13859Y6003D1*
X13814Y5920D1*
X13797Y5901D1*
X14003Y5224D2*
X13520D1*
X13522Y4658D1*
Y4442D1*
X13511Y4368D1*
X13465Y4285D1*
X13448Y4266D1*
X14029Y4267D1*
X14000Y4365D1*
Y5211D1*
X14001Y5213D1*
X17457Y5576D2*
Y5842D1*
X16741Y5844D1*
X16777Y5842D1*
X16072D1*
Y6003D1*
X15189Y6004D1*
X15095Y6022D1*
Y5646D1*
Y5574D1*
X15435Y5576D1*
X17458D1*
X17909Y8713D2*
X18120D1*
X18118Y8979D1*
X18128Y9053D1*
X18159Y9125D1*
X18157Y9163D1*
X17595Y9159D1*
Y9104D1*
X17645Y9097D1*
X17717Y9074D1*
X17781Y9036D1*
X17835Y8985D1*
X17877Y8922D1*
X17904Y8852D1*
X17915Y8768D1*
X17909Y8714D1*
X18292Y10572D2*
Y10244D1*
X18344Y10261D1*
X18406Y10269D1*
X18404Y10625D1*
X18347Y10591D1*
X18292Y10571D1*
X13746Y16223D2*
X13082D1*
Y16418D1*
X12771Y16416D1*
X12673Y16321D1*
Y16054D1*
X13083Y16052D1*
X13082Y16153D1*
X13748Y16156D1*
Y16224D1*
X14238Y16527D2*
X14754D1*
Y16707D1*
X14765Y16780D1*
X14800Y16849D1*
X14762Y16857D1*
X14061D1*
X14167Y16753D1*
X14212Y16693D1*
X14238Y16602D1*
X14240Y16525D1*
X16779Y7717D2*
X16520Y7713D1*
X16780Y7453D1*
X16779Y7717D1*
X16741Y7719D1*
X16781Y9592D2*
X16443D1*
X16445Y9015D1*
X16777Y9014D1*
X16779Y9195D1*
Y9592D1*
X14592Y15415D2*
Y15484D1*
X14545Y15485D1*
X14471Y15497D1*
X14388Y15542D1*
X14239Y15690D1*
X14221Y15613D1*
X14167Y15532D1*
X14020Y15384D1*
X14298Y15105D1*
X14313Y15168D1*
X14342Y15237D1*
X14385Y15299D1*
X14440Y15350D1*
X14504Y15389D1*
X14591Y15415D1*
X14524Y15486D1*
X14452Y15504D1*
X14388Y15542D1*
X18404Y11159D2*
Y11552D1*
X18453D1*
X18451Y11788D1*
X18281Y11786D1*
X18282Y11659D1*
Y11219D1*
X18338Y11199D1*
X18404Y11159D1*
X13372Y15137D2*
Y14588D1*
X13881Y14586D1*
X14027Y14588D1*
X14078Y14586D1*
X14119Y14588D1*
X13569Y15138D1*
X13374D1*
X14708Y13536D2*
X14562Y13538D1*
X14415Y13536D1*
X14365Y13538D1*
X14219Y13536D1*
X14168Y13538D1*
X14022Y13536D1*
X13971Y13538D1*
X13825Y13536D1*
X13774Y13538D1*
X13628Y13536D1*
X13577Y13538D1*
X13431Y13536D1*
X13381Y13538D1*
X13234Y13536D1*
X13184Y13538D1*
X13171Y13536D1*
X12302D1*
Y11453D1*
X12354Y11377D1*
X12381Y11307D1*
X12391Y11240D1*
X13028Y11239D1*
X14535D1*
X14613Y11292D1*
X14695Y11320D1*
X14696Y11626D1*
X14641Y11704D1*
X14615Y11774D1*
X14606Y11849D1*
X14613Y11923D1*
X14636Y11994D1*
X14675Y12058D1*
X14727Y12112D1*
X14789Y12153D1*
X14859Y12180D1*
X14933Y12190D1*
X14996Y12184D1*
X14995Y12619D1*
Y12816D1*
Y13013D1*
Y13129D1*
X14939Y13164D1*
X14782Y13319D1*
X14738Y13380D1*
X14711Y13471D1*
X14710Y13538D1*
X14200Y13536D1*
X12987Y13538D1*
X13019Y13536D1*
X12593Y13538D1*
X12580Y13536D1*
X12310D1*
X9905Y11336D2*
X9902Y11331D1*
X9905Y11185D1*
X9902Y11135D1*
X9905Y11121D1*
Y10949D1*
X9973Y10880D1*
X10017Y10819D1*
X10044Y10728D1*
X10045Y9766D1*
X10096Y9768D1*
X10104Y9821D1*
X10128Y9892D1*
X10166Y9956D1*
X10188Y9978D1*
X10187Y11334D1*
X9906Y11336D1*
X9905Y10970D1*
Y9280D2*
X9902Y9166D1*
X9905Y9050D1*
X10131Y9275D1*
X9916Y9277D1*
X9905Y9273D1*
Y9050D1*
X10276Y8446D2*
X10338Y8444D1*
X10484Y8446D1*
X10535Y8444D1*
X10681Y8446D1*
X10732Y8444D1*
X10878Y8446D1*
X10928Y8444D1*
X11075Y8446D1*
X11125Y8444D1*
X11272Y8446D1*
X11322Y8444D1*
X11468Y8446D1*
X11519Y8444D1*
X11665Y8446D1*
X11716Y8444D1*
X11862Y8446D1*
X11913Y8444D1*
X12059Y8446D1*
X12110Y8444D1*
X12256Y8446D1*
X12306Y8444D1*
X12453Y8446D1*
X12503Y8444D1*
X12516Y8446D1*
X13487D1*
X13580D1*
X13548Y8551D1*
X13420Y8679D1*
X13352Y8669D1*
X13277Y8677D1*
X13203Y8698D1*
X10528D1*
X10277Y8447D1*
X11684Y8446D1*
X12700Y8444D1*
X12668Y8446D1*
X13094Y8444D1*
X13062Y8446D1*
X13531D1*
X14073D2*
X14078Y8444D1*
X14224Y8446D1*
X14275Y8444D1*
X14421Y8446D1*
X14472Y8444D1*
X14569Y8446D1*
X14571Y8464D1*
X14518Y8540D1*
X14492Y8611D1*
X14484Y8678D1*
X14129Y9032D1*
X13775Y9030D1*
X14002Y8803D1*
X14046Y8743D1*
X14073Y8651D1*
X14074Y8448D1*
X14440Y8446D1*
X14569D1*
X14244Y7394D2*
X14032Y7393D1*
Y7182D1*
X14246Y7395D1*
X14168Y7397D1*
X14033Y7394D1*
X14050D1*
X14995Y9900D2*
X14997Y10060D1*
X14995Y10207D1*
X14997Y10257D1*
X14995Y10335D1*
X14661Y10336D1*
X13846Y9521D1*
X14232Y9522D1*
X14306Y9511D1*
X14390Y9465D1*
X14802Y9054D1*
X14803Y9279D1*
X14747Y9285D1*
X14676Y9309D1*
X14612Y9348D1*
X14559Y9400D1*
X14518Y9463D1*
X14492Y9534D1*
X14483Y9608D1*
X14490Y9682D1*
X14513Y9753D1*
X14552Y9818D1*
X14604Y9871D1*
X14666Y9913D1*
X14736Y9939D1*
X14811Y9949D1*
X14885Y9942D1*
X14956Y9920D1*
X14995Y9897D1*
Y10300D1*
X11710Y9980D2*
X11764Y9907D1*
X11791Y9837D1*
X11800Y9770D1*
X12264Y9768D1*
X13396D1*
X14376Y10748D1*
X11730D1*
X11711Y10687D1*
Y9982D1*
X11220Y13169D2*
X11124Y13174D1*
X11121Y13162D1*
Y10263D1*
X11173Y10187D1*
X11200Y10117D1*
X11211Y10032D1*
X11203Y9960D1*
X11220Y10052D1*
Y13167D1*
X10364Y12040D2*
X10417Y11966D1*
X10444Y11896D1*
X10455Y11812D1*
X10450Y11772D1*
X10622Y11598D1*
X10629Y11607D1*
Y12970D1*
X10558Y12945D1*
X10484Y12936D1*
X10410Y12944D1*
X10363Y12960D1*
X10365Y12219D1*
Y12039D1*
X16312Y14533D2*
D16*
Y14106D1*
X15905D2*
X16719D1*
X17294Y11844D2*
Y11437D1*
X15437Y7330D2*
Y6903D1*
Y7330D2*
X15844D1*
X11580Y6625D2*
Y6217D1*
X11153Y6625D2*
X11580D1*
X11153Y7187D2*
X11580D1*
X8375Y9356D2*
X8782D1*
X7867Y11079D2*
X8275D1*
X7967Y9854D2*
X8782D1*
X21036Y15625D2*
X22088D1*
X18849Y13812D2*
X19900D1*
X23283Y14867D2*
Y14052D1*
X9250Y15033D2*
Y14606D1*
X19812Y6250D2*
Y5842D1*
X19385Y6250D2*
X19812D1*
X19750Y7969D2*
Y7155D1*
X19322Y7562D2*
X19750D1*
X19812Y9469D2*
Y8655D1*
X6085Y14692D2*
Y13365D1*
X5776Y14029D2*
X6085D1*
X12875Y5528D2*
Y4850D1*
X17457Y5814D2*
X17875D1*
Y9501D2*
Y9163D1*
X13500Y16153D2*
Y15814D1*
X12250Y5594D2*
Y4780D1*
X16780Y7500D2*
X17187D1*
X11625Y16052D2*
Y15625D1*
X11217D2*
X11625D1*
X17875Y11989D2*
Y11562D1*
X18282D1*
X16780Y9437D2*
X17187D1*
X13040Y14062D2*
Y13536D1*
X12647Y14062D2*
Y13536D1*
X12450Y14062D2*
Y13536D1*
X12253Y14062D2*
Y13536D1*
X9379Y10991D2*
X9905D1*
X12647Y8446D2*
Y7920D1*
X13040Y8446D2*
Y7920D1*
X17690Y15647D2*
X19112D1*
D17*
X16312Y13437D3*
Y14106D3*
D18*
X16625Y10875D3*
X17294D3*
X16625Y11437D3*
X17294D3*
D17*
X15437Y8000D3*
Y7330D3*
D18*
X20250Y13000D3*
X19580D3*
X12250Y6625D3*
X11580D3*
X12250Y7187D3*
X11580D3*
D17*
X8375Y8687D3*
Y9356D3*
X8275Y11748D3*
Y11079D3*
X8375Y10523D3*
Y9854D3*
D19*
X21562Y15625D3*
X22664D3*
X19375Y13812D3*
X20477D3*
D18*
X23283Y14460D3*
X22614D3*
D17*
X9250Y13937D3*
Y14606D3*
D18*
X19812Y6250D3*
X20481D3*
X19750Y7562D3*
X20419D3*
X19812Y9062D3*
X20481D3*
D20*
X16000Y15625D3*
D21*
X17000D3*
D24*
X16187Y11937D3*
X16620D3*
D25*
X10361Y15000D3*
Y15433D3*
X10822Y14986D3*
Y15419D3*
D24*
X8671Y12671D3*
X8238D3*
X8687Y13187D3*
X8254D3*
X16875Y12375D3*
X17308D3*
X17703Y12720D3*
X18137D3*
X18437Y13062D3*
X18870D3*
D26*
X22187Y13687D3*
D27*
X23187D3*
X22187Y12687D3*
X23187D3*
X22187Y11687D3*
X23187D3*
X22187Y10687D3*
X23187D3*
X22187Y9687D3*
X23187D3*
X22187Y8687D3*
X23187D3*
X22187Y7687D3*
X23187D3*
X22187Y6687D3*
X23187D3*
X22187Y5687D3*
X23187D3*
X22187Y4687D3*
X23187D3*
D29*
X7345Y14029D3*
X7030D3*
X6715D3*
X6400D3*
X6085D3*
D30*
X8467Y14068D3*
X4963D3*
X8467Y16234D3*
X4963D3*
D26*
X6064Y8472D3*
D27*
X5064D3*
X6064Y9472D3*
X5064D3*
X6064Y10472D3*
X5064D3*
X6064Y11472D3*
X5064D3*
X6064Y12472D3*
X5064D3*
D32*
X12875Y5937D3*
Y5189D3*
X13780Y5563D3*
X17875Y6562D3*
Y5814D3*
X18780Y6188D3*
X17875Y8375D3*
Y7626D3*
X18780Y8000D3*
X17875Y10250D3*
Y9501D3*
X18780Y9875D3*
X13500Y16562D3*
Y15814D3*
X14405Y16188D3*
D17*
X17187Y14187D3*
Y13518D3*
X13625Y7250D3*
Y6580D3*
D18*
X16500Y6250D3*
X17169D3*
X16500Y8125D3*
X17169D3*
X16562Y10000D3*
X17231D3*
D17*
X12427Y15574D3*
Y14905D3*
X15000Y15062D3*
Y15731D3*
X18875Y7437D3*
Y6768D3*
X18812Y9250D3*
Y8580D3*
Y11125D3*
Y10455D3*
X14687Y5000D3*
Y5669D3*
D18*
X12250Y5187D3*
X11580D3*
D17*
X12964Y15625D3*
Y14955D3*
X17187Y7500D3*
Y6830D3*
X21125Y6937D3*
Y6268D3*
X11625Y15625D3*
Y14955D3*
X21125Y8250D3*
Y7580D3*
X17875Y11562D3*
Y10893D3*
X21125Y9750D3*
Y9080D3*
X17187Y9437D3*
Y8768D3*
D34*
X14812Y14062D3*
X14615D3*
X14418D3*
X14221D3*
X14025D3*
X13828D3*
X13631D3*
X13434D3*
X13237D3*
X13040D3*
X12844D3*
X12647D3*
X12450D3*
X12253D3*
X12056D3*
X11859D3*
X11662D3*
X11466D3*
X11269D3*
X11072D3*
X10875D3*
X10678D3*
X10481D3*
X10284D3*
X10088D3*
D35*
X9379Y13353D3*
Y13156D3*
Y12960D3*
Y12763D3*
Y12566D3*
Y12369D3*
Y12172D3*
Y11975D3*
Y11779D3*
Y11582D3*
Y11385D3*
Y11188D3*
Y10991D3*
Y10794D3*
Y10597D3*
Y10401D3*
Y10204D3*
Y10007D3*
Y9810D3*
Y9613D3*
Y9416D3*
Y9219D3*
Y9023D3*
Y8826D3*
Y8629D3*
D34*
X10088Y7920D3*
X10284D3*
X10481D3*
X10678D3*
X10875D3*
X11072D3*
X11269D3*
X11466D3*
X11662D3*
X11859D3*
X12056D3*
X12253D3*
X12450D3*
X12647D3*
X12844D3*
X13040D3*
X13237D3*
X13434D3*
X13631D3*
X13828D3*
X14025D3*
X14221D3*
X14418D3*
X14615D3*
X14812D3*
D35*
X15521Y8629D3*
Y8826D3*
Y9023D3*
Y9219D3*
Y9416D3*
Y9613D3*
Y9810D3*
Y10007D3*
Y10204D3*
Y10401D3*
Y10597D3*
Y10794D3*
Y10991D3*
Y11188D3*
Y11385D3*
Y11582D3*
Y11779D3*
Y11975D3*
Y12172D3*
Y12369D3*
Y12566D3*
Y12763D3*
Y12960D3*
Y13156D3*
Y13353D3*
D36*
X21750Y14750D3*
Y16545D3*
D37*
X19112Y15647D3*
M02*
