G04 DipTrace 2.4.0.2*
%INTopAssy.gbr*%
%MOIN*%
%ADD10C,0.0098*%
%ADD12C,0.003*%
%FSLAX44Y44*%
G04*
G70*
G90*
G75*
G01*
%LNTopAssy*%
%LPD*%
X8487Y17119D2*
D10*
X4944D1*
X6393Y16804D2*
D12*
X6517D1*
Y17005D1*
X6393D1*
X6517Y16900D2*
X6441D1*
X6331Y16804D2*
Y17005D1*
X6264D1*
X6235Y16995D1*
X6216Y16976D1*
X6207Y16957D1*
X6197Y16928D1*
Y16880D1*
X6207Y16852D1*
X6216Y16833D1*
X6235Y16813D1*
X6264Y16804D1*
X6331D1*
X5992Y16852D2*
X6001Y16833D1*
X6021Y16813D1*
X6040Y16804D1*
X6078D1*
X6097Y16813D1*
X6116Y16833D1*
X6126Y16852D1*
X6135Y16880D1*
Y16928D1*
X6126Y16957D1*
X6116Y16976D1*
X6097Y16995D1*
X6078Y17005D1*
X6040D1*
X6021Y16995D1*
X6001Y16976D1*
X5992Y16957D1*
Y16928D1*
X6040D1*
X5806Y16804D2*
X5930D1*
Y17005D1*
X5806D1*
X5930Y16900D2*
X5854D1*
X7698Y16800D2*
Y17001D1*
X7612D1*
X7583Y16991D1*
X7574Y16981D1*
X7564Y16962D1*
Y16934D1*
X7574Y16914D1*
X7583Y16905D1*
X7612Y16895D1*
X7583Y16886D1*
X7574Y16876D1*
X7564Y16857D1*
Y16838D1*
X7574Y16819D1*
X7583Y16809D1*
X7612Y16800D1*
X7698D1*
Y16895D2*
X7612D1*
X7445Y16800D2*
X7464Y16809D1*
X7483Y16828D1*
X7493Y16848D1*
X7502Y16876D1*
Y16924D1*
X7493Y16953D1*
X7483Y16972D1*
X7464Y16991D1*
X7445Y17001D1*
X7407D1*
X7388Y16991D1*
X7368Y16972D1*
X7359Y16953D1*
X7349Y16924D1*
Y16876D1*
X7359Y16848D1*
X7368Y16828D1*
X7388Y16809D1*
X7407Y16800D1*
X7445D1*
X7134Y17001D2*
X7211Y16800D1*
X7288Y17001D1*
X7259Y16934D2*
X7163D1*
X7073Y16895D2*
X6987D1*
X6958Y16886D1*
X6948Y16876D1*
X6939Y16857D1*
Y16838D1*
X6948Y16819D1*
X6958Y16809D1*
X6987Y16800D1*
X7073D1*
Y17001D1*
X7006Y16895D2*
X6939Y17001D1*
X6877Y16800D2*
Y17001D1*
X6810D1*
X6781Y16991D1*
X6762Y16972D1*
X6752Y16953D1*
X6743Y16924D1*
Y16876D1*
X6752Y16848D1*
X6762Y16828D1*
X6781Y16809D1*
X6810Y16800D1*
X6877D1*
M02*
