G04 DipTrace 2.4.0.2*
%INTopSilk.gbr*%
%MOIN*%
%ADD10C,0.0098*%
%ADD22C,0.0039*%
%ADD23C,0.0079*%
%ADD28C,0.0197*%
%ADD31C,0.0154*%
%ADD33O,0.0184X0.0179*%
%ADD76C,0.0046*%
%FSLAX44Y44*%
G04*
G70*
G90*
G75*
G01*
%LNTopSilk*%
%LPD*%
X22070Y15310D2*
D10*
Y15939D1*
X21995Y15310D2*
Y15939D1*
Y15310D2*
X22231D1*
X21995Y15939D2*
X22231D1*
X19882Y13497D2*
Y14127D1*
X19808Y13497D2*
Y14127D1*
Y13497D2*
X20043D1*
X19808Y14127D2*
X20043D1*
X17499Y16374D2*
Y14875D1*
X17497Y16377D2*
G03X17497Y14872I-998J-752D01*
G01*
X16167Y12134D2*
D22*
X16640D1*
X16167Y11740D2*
X16640D1*
D23*
X15931Y11937D3*
X10164Y14980D2*
D22*
Y15452D1*
X10558Y14980D2*
Y15452D1*
D23*
X10361Y14744D3*
X10625Y14966D2*
D22*
Y15439D1*
X11019Y14966D2*
Y15439D1*
D23*
X10822Y14730D3*
X8691Y12474D2*
D22*
X8219D1*
X8691Y12868D2*
X8219D1*
D23*
X8927Y12671D3*
X8707Y12990D2*
D22*
X8234D1*
X8707Y13384D2*
X8234D1*
D23*
X8943Y13187D3*
X16855Y12571D2*
D22*
X17327D1*
X16855Y12178D2*
X17327D1*
D23*
X16619Y12375D3*
X17684Y12917D2*
D22*
X18156D1*
X17684Y12523D2*
X18156D1*
D23*
X17448Y12720D3*
X18417Y13259D2*
D22*
X18890D1*
X18417Y12865D2*
X18890D1*
D23*
X18181Y13062D3*
X23687Y14187D2*
D10*
X21687D1*
Y4187D1*
X23687D1*
Y14187D1*
X8251Y17395D2*
X5180D1*
X8251D2*
Y16903D1*
Y15572D2*
Y14729D1*
X7896Y13694D2*
X7621D1*
X5810D2*
X5534D1*
X5180Y14729D2*
Y15572D1*
Y16903D2*
Y17395D1*
D28*
X7345Y13360D3*
X4564Y7972D2*
D10*
X6564D1*
Y12972D1*
X4564D1*
Y7972D1*
D31*
X12727Y6245D3*
X13229Y6153D2*
D10*
Y4972D1*
X13426D1*
Y6153D1*
X13229D1*
D31*
X17727Y6870D3*
X18229Y6778D2*
D10*
Y5597D1*
X18426D1*
Y6778D1*
X18229D1*
D31*
X17727Y8683D3*
X18229Y8591D2*
D10*
Y7410D1*
X18426D1*
Y8591D1*
X18229D1*
D31*
X17727Y10558D3*
X18229Y10466D2*
D10*
Y9285D1*
X18426D1*
Y10466D1*
X18229D1*
D31*
X13352Y16870D3*
X13854Y16778D2*
D10*
Y15597D1*
X14051D1*
Y16778D1*
X13854D1*
X14950Y13491D2*
X9950D1*
Y8491D1*
X14950D1*
Y13491D1*
G36*
X14989Y13531D2*
X14513D1*
X14989Y13054D1*
Y13531D1*
G37*
D33*
X15046Y14080D3*
X21041Y14348D2*
D10*
Y16946D1*
X18285Y14348D2*
X21041D1*
X18285D2*
Y14427D1*
Y16946D2*
X21041D1*
X18285D2*
Y16868D1*
D31*
X22190Y14357D3*
X15747Y13797D2*
D76*
X15719Y13783D1*
X15690Y13754D1*
X15676Y13725D1*
Y13668D1*
X15690Y13639D1*
X15719Y13611D1*
X15747Y13596D1*
X15791Y13582D1*
X15863D1*
X15905Y13596D1*
X15934Y13611D1*
X15963Y13639D1*
X15977Y13668D1*
Y13725D1*
X15963Y13754D1*
X15934Y13783D1*
X15905Y13797D1*
X15734Y13890D2*
X15719Y13918D1*
X15676Y13962D1*
X15977D1*
X16920Y11439D2*
X16906Y11468D1*
X16877Y11496D1*
X16848Y11511D1*
X16791D1*
X16762Y11496D1*
X16734Y11468D1*
X16719Y11439D1*
X16705Y11396D1*
Y11324D1*
X16719Y11281D1*
X16734Y11252D1*
X16762Y11224D1*
X16791Y11209D1*
X16848D1*
X16877Y11224D1*
X16906Y11252D1*
X16920Y11281D1*
X17027Y11439D2*
Y11453D1*
X17041Y11482D1*
X17056Y11496D1*
X17085Y11510D1*
X17142D1*
X17170Y11496D1*
X17185Y11482D1*
X17199Y11453D1*
Y11424D1*
X17185Y11396D1*
X17156Y11353D1*
X17013Y11209D1*
X17214D1*
X16920Y12002D2*
X16906Y12030D1*
X16877Y12059D1*
X16848Y12073D1*
X16791D1*
X16762Y12059D1*
X16734Y12030D1*
X16719Y12002D1*
X16705Y11958D1*
Y11886D1*
X16719Y11844D1*
X16734Y11815D1*
X16762Y11786D1*
X16791Y11772D1*
X16848D1*
X16877Y11786D1*
X16906Y11815D1*
X16920Y11844D1*
X17041Y12073D2*
X17199D1*
X17113Y11958D1*
X17156D1*
X17185Y11944D1*
X17199Y11930D1*
X17214Y11886D1*
Y11858D1*
X17199Y11815D1*
X17170Y11786D1*
X17127Y11772D1*
X17084D1*
X17041Y11786D1*
X17027Y11801D1*
X17013Y11829D1*
X14872Y7619D2*
X14844Y7604D1*
X14815Y7575D1*
X14801Y7547D1*
Y7490D1*
X14815Y7461D1*
X14844Y7432D1*
X14872Y7418D1*
X14916Y7403D1*
X14988D1*
X15030Y7418D1*
X15059Y7432D1*
X15088Y7461D1*
X15102Y7490D1*
Y7547D1*
X15088Y7575D1*
X15059Y7604D1*
X15030Y7619D1*
X15102Y7855D2*
X14801D1*
X15002Y7711D1*
Y7926D1*
X19876Y13564D2*
X19861Y13593D1*
X19833Y13621D1*
X19804Y13636D1*
X19747D1*
X19718Y13621D1*
X19689Y13593D1*
X19675Y13564D1*
X19660Y13521D1*
Y13449D1*
X19675Y13406D1*
X19689Y13377D1*
X19718Y13349D1*
X19747Y13334D1*
X19804D1*
X19833Y13349D1*
X19861Y13377D1*
X19876Y13406D1*
X20140Y13635D2*
X19997D1*
X19983Y13506D1*
X19997Y13521D1*
X20040Y13535D1*
X20083D1*
X20126Y13521D1*
X20155Y13492D1*
X20169Y13449D1*
Y13420D1*
X20155Y13377D1*
X20126Y13349D1*
X20083Y13334D1*
X20040D1*
X19997Y13349D1*
X19983Y13363D1*
X19968Y13392D1*
X11883Y7189D2*
X11869Y7218D1*
X11840Y7246D1*
X11811Y7261D1*
X11754D1*
X11725Y7246D1*
X11697Y7218D1*
X11682Y7189D1*
X11668Y7146D1*
Y7074D1*
X11682Y7031D1*
X11697Y7002D1*
X11725Y6974D1*
X11754Y6959D1*
X11811D1*
X11840Y6974D1*
X11869Y7002D1*
X11883Y7031D1*
X12148Y7218D2*
X12133Y7246D1*
X12090Y7260D1*
X12062D1*
X12019Y7246D1*
X11990Y7203D1*
X11976Y7131D1*
Y7060D1*
X11990Y7002D1*
X12019Y6974D1*
X12062Y6959D1*
X12076D1*
X12119Y6974D1*
X12148Y7002D1*
X12162Y7045D1*
Y7060D1*
X12148Y7103D1*
X12119Y7131D1*
X12076Y7146D1*
X12062D1*
X12019Y7131D1*
X11990Y7103D1*
X11976Y7060D1*
X11876Y7752D2*
X11861Y7780D1*
X11833Y7809D1*
X11804Y7823D1*
X11747D1*
X11718Y7809D1*
X11689Y7780D1*
X11675Y7752D1*
X11660Y7708D1*
Y7636D1*
X11675Y7594D1*
X11689Y7565D1*
X11718Y7536D1*
X11747Y7522D1*
X11804D1*
X11833Y7536D1*
X11861Y7565D1*
X11876Y7594D1*
X12026Y7522D2*
X12169Y7823D1*
X11968D1*
X7810Y8983D2*
X7781Y8968D1*
X7753Y8940D1*
X7738Y8911D1*
Y8854D1*
X7753Y8825D1*
X7781Y8796D1*
X7810Y8782D1*
X7853Y8767D1*
X7925D1*
X7968Y8782D1*
X7997Y8796D1*
X8025Y8825D1*
X8040Y8854D1*
Y8911D1*
X8025Y8940D1*
X7997Y8968D1*
X7968Y8983D1*
X7739Y9147D2*
X7753Y9104D1*
X7781Y9090D1*
X7810D1*
X7839Y9104D1*
X7853Y9133D1*
X7868Y9190D1*
X7882Y9233D1*
X7911Y9262D1*
X7939Y9276D1*
X7982D1*
X8011Y9262D1*
X8025Y9247D1*
X8040Y9204D1*
Y9147D1*
X8025Y9104D1*
X8011Y9090D1*
X7982Y9075D1*
X7939D1*
X7911Y9090D1*
X7882Y9118D1*
X7868Y9161D1*
X7853Y9219D1*
X7839Y9247D1*
X7810Y9262D1*
X7781D1*
X7753Y9247D1*
X7739Y9204D1*
Y9147D1*
X7710Y11381D2*
X7682Y11367D1*
X7653Y11338D1*
X7639Y11310D1*
Y11252D1*
X7653Y11223D1*
X7682Y11195D1*
X7710Y11180D1*
X7753Y11166D1*
X7825D1*
X7868Y11180D1*
X7897Y11195D1*
X7925Y11223D1*
X7940Y11252D1*
Y11310D1*
X7925Y11338D1*
X7897Y11367D1*
X7868Y11381D1*
X7739Y11661D2*
X7782Y11646D1*
X7811Y11617D1*
X7825Y11574D1*
Y11560D1*
X7811Y11517D1*
X7782Y11488D1*
X7739Y11474D1*
X7725D1*
X7682Y11488D1*
X7653Y11517D1*
X7639Y11560D1*
Y11574D1*
X7653Y11617D1*
X7682Y11646D1*
X7739Y11661D1*
X7811D1*
X7883Y11646D1*
X7926Y11617D1*
X7940Y11574D1*
Y11546D1*
X7926Y11503D1*
X7897Y11488D1*
X7810Y10067D2*
X7781Y10053D1*
X7753Y10024D1*
X7738Y9995D1*
Y9938D1*
X7753Y9909D1*
X7781Y9881D1*
X7810Y9866D1*
X7853Y9852D1*
X7925D1*
X7968Y9866D1*
X7997Y9881D1*
X8025Y9909D1*
X8040Y9938D1*
Y9995D1*
X8025Y10024D1*
X7997Y10053D1*
X7968Y10067D1*
X7796Y10160D2*
X7781Y10189D1*
X7739Y10232D1*
X8040D1*
X7739Y10411D2*
X7753Y10367D1*
X7796Y10339D1*
X7868Y10324D1*
X7911D1*
X7982Y10339D1*
X8025Y10367D1*
X8040Y10411D1*
Y10439D1*
X8025Y10482D1*
X7982Y10511D1*
X7911Y10525D1*
X7868D1*
X7796Y10511D1*
X7753Y10482D1*
X7739Y10439D1*
Y10411D1*
X7796Y10511D2*
X7982Y10339D1*
X22056Y16347D2*
X22042Y16375D1*
X22013Y16404D1*
X21985Y16418D1*
X21927D1*
X21898Y16404D1*
X21870Y16375D1*
X21855Y16347D1*
X21841Y16303D1*
Y16231D1*
X21855Y16189D1*
X21870Y16160D1*
X21898Y16131D1*
X21927Y16117D1*
X21985D1*
X22013Y16131D1*
X22042Y16160D1*
X22056Y16189D1*
X22149Y16360D2*
X22178Y16375D1*
X22221Y16418D1*
Y16117D1*
X22313Y16360D2*
X22342Y16375D1*
X22385Y16418D1*
Y16117D1*
X19804Y14534D2*
X19790Y14563D1*
X19761Y14591D1*
X19733Y14606D1*
X19675D1*
X19646Y14591D1*
X19618Y14563D1*
X19603Y14534D1*
X19589Y14491D1*
Y14419D1*
X19603Y14376D1*
X19618Y14347D1*
X19646Y14319D1*
X19675Y14304D1*
X19733D1*
X19761Y14319D1*
X19790Y14347D1*
X19804Y14376D1*
X19897Y14548D2*
X19926Y14563D1*
X19969Y14605D1*
Y14304D1*
X20076Y14534D2*
Y14548D1*
X20090Y14577D1*
X20105Y14591D1*
X20133Y14605D1*
X20191D1*
X20219Y14591D1*
X20234Y14577D1*
X20248Y14548D1*
Y14519D1*
X20234Y14491D1*
X20205Y14448D1*
X20061Y14304D1*
X20262D1*
X22827Y15024D2*
X22813Y15053D1*
X22784Y15082D1*
X22756Y15096D1*
X22698D1*
X22669Y15082D1*
X22641Y15053D1*
X22626Y15024D1*
X22612Y14981D1*
Y14909D1*
X22626Y14866D1*
X22641Y14838D1*
X22669Y14809D1*
X22698Y14795D1*
X22756D1*
X22784Y14809D1*
X22813Y14838D1*
X22827Y14866D1*
X22920Y15038D2*
X22949Y15053D1*
X22992Y15096D1*
Y14795D1*
X23113Y15096D2*
X23271D1*
X23185Y14981D1*
X23228D1*
X23257Y14967D1*
X23271Y14952D1*
X23286Y14909D1*
Y14881D1*
X23271Y14838D1*
X23242Y14809D1*
X23199Y14795D1*
X23156D1*
X23113Y14809D1*
X23099Y14823D1*
X23085Y14852D1*
X8685Y14143D2*
X8656Y14129D1*
X8628Y14100D1*
X8613Y14071D1*
Y14014D1*
X8628Y13985D1*
X8656Y13957D1*
X8685Y13942D1*
X8728Y13928D1*
X8800D1*
X8843Y13942D1*
X8872Y13957D1*
X8900Y13985D1*
X8915Y14014D1*
Y14071D1*
X8900Y14100D1*
X8872Y14129D1*
X8843Y14143D1*
X8671Y14236D2*
X8656Y14265D1*
X8614Y14308D1*
X8915D1*
Y14544D2*
X8614D1*
X8814Y14400D1*
Y14615D1*
X20025Y6814D2*
X20011Y6843D1*
X19982Y6871D1*
X19954Y6886D1*
X19896D1*
X19867Y6871D1*
X19839Y6843D1*
X19824Y6814D1*
X19810Y6771D1*
Y6699D1*
X19824Y6656D1*
X19839Y6627D1*
X19867Y6599D1*
X19896Y6584D1*
X19954D1*
X19982Y6599D1*
X20011Y6627D1*
X20025Y6656D1*
X20118Y6828D2*
X20147Y6843D1*
X20190Y6885D1*
Y6584D1*
X20455Y6885D2*
X20311D1*
X20297Y6756D1*
X20311Y6771D1*
X20354Y6785D1*
X20397D1*
X20440Y6771D1*
X20469Y6742D1*
X20483Y6699D1*
Y6670D1*
X20469Y6627D1*
X20440Y6599D1*
X20397Y6584D1*
X20354D1*
X20311Y6599D1*
X20297Y6613D1*
X20282Y6642D1*
X19970Y8127D2*
X19956Y8155D1*
X19927Y8184D1*
X19898Y8198D1*
X19841D1*
X19812Y8184D1*
X19784Y8155D1*
X19769Y8127D1*
X19755Y8083D1*
Y8011D1*
X19769Y7969D1*
X19784Y7940D1*
X19812Y7911D1*
X19841Y7897D1*
X19898D1*
X19927Y7911D1*
X19956Y7940D1*
X19970Y7969D1*
X20063Y8140D2*
X20091Y8155D1*
X20135Y8198D1*
Y7897D1*
X20399Y8155D2*
X20385Y8184D1*
X20342Y8198D1*
X20313D1*
X20270Y8184D1*
X20241Y8140D1*
X20227Y8069D1*
Y7997D1*
X20241Y7940D1*
X20270Y7911D1*
X20313Y7897D1*
X20328D1*
X20370Y7911D1*
X20399Y7940D1*
X20414Y7983D1*
Y7997D1*
X20399Y8040D1*
X20370Y8069D1*
X20328Y8083D1*
X20313D1*
X20270Y8069D1*
X20241Y8040D1*
X20227Y7997D1*
X20025Y9627D2*
X20011Y9655D1*
X19982Y9684D1*
X19954Y9698D1*
X19896D1*
X19867Y9684D1*
X19839Y9655D1*
X19824Y9627D1*
X19810Y9583D1*
Y9511D1*
X19824Y9469D1*
X19839Y9440D1*
X19867Y9411D1*
X19896Y9397D1*
X19954D1*
X19982Y9411D1*
X20011Y9440D1*
X20025Y9469D1*
X20118Y9640D2*
X20147Y9655D1*
X20190Y9698D1*
Y9397D1*
X20340D2*
X20483Y9698D1*
X20282D1*
X16192Y17314D2*
Y17012D1*
X16292D1*
X16335Y17027D1*
X16364Y17055D1*
X16378Y17084D1*
X16393Y17127D1*
Y17199D1*
X16378Y17242D1*
X16364Y17271D1*
X16335Y17299D1*
X16292Y17314D1*
X16192D1*
X16485Y17256D2*
X16514Y17271D1*
X16557Y17313D1*
Y17012D1*
X16087Y12573D2*
Y12272D1*
X16188D1*
X16231Y12286D1*
X16260Y12315D1*
X16274Y12344D1*
X16288Y12386D1*
Y12458D1*
X16274Y12502D1*
X16260Y12530D1*
X16231Y12559D1*
X16188Y12573D1*
X16087D1*
X16396Y12501D2*
Y12515D1*
X16410Y12544D1*
X16424Y12559D1*
X16453Y12573D1*
X16510D1*
X16539Y12559D1*
X16553Y12544D1*
X16568Y12515D1*
Y12487D1*
X16553Y12458D1*
X16525Y12415D1*
X16381Y12272D1*
X16582D1*
X9725Y14900D2*
X10026D1*
Y15000D1*
X10012Y15043D1*
X9983Y15072D1*
X9954Y15087D1*
X9912Y15101D1*
X9840D1*
X9796Y15087D1*
X9768Y15072D1*
X9739Y15043D1*
X9725Y15000D1*
Y14900D1*
Y15222D2*
Y15380D1*
X9840Y15294D1*
Y15337D1*
X9854Y15366D1*
X9868Y15380D1*
X9912Y15394D1*
X9940D1*
X9983Y15380D1*
X10012Y15351D1*
X10026Y15308D1*
Y15265D1*
X10012Y15222D1*
X9997Y15208D1*
X9969Y15193D1*
X10186Y14879D2*
X10488D1*
Y14980D1*
X10473Y15023D1*
X10444Y15052D1*
X10416Y15066D1*
X10373Y15080D1*
X10301D1*
X10258Y15066D1*
X10229Y15052D1*
X10200Y15023D1*
X10186Y14980D1*
Y14879D1*
X10488Y15316D2*
X10186D1*
X10387Y15173D1*
Y15388D1*
X8276Y13307D2*
Y13006D1*
X8377D1*
X8420Y13020D1*
X8449Y13049D1*
X8463Y13077D1*
X8477Y13120D1*
Y13192D1*
X8463Y13235D1*
X8449Y13264D1*
X8420Y13293D1*
X8377Y13307D1*
X8276D1*
X8742D2*
X8599D1*
X8585Y13178D1*
X8599Y13192D1*
X8642Y13206D1*
X8685D1*
X8728Y13192D1*
X8757Y13163D1*
X8771Y13120D1*
Y13092D1*
X8757Y13049D1*
X8728Y13020D1*
X8685Y13006D1*
X8642D1*
X8599Y13020D1*
X8585Y13034D1*
X8570Y13063D1*
X8299Y13823D2*
Y13522D1*
X8400D1*
X8443Y13536D1*
X8472Y13565D1*
X8486Y13594D1*
X8500Y13636D1*
Y13708D1*
X8486Y13752D1*
X8472Y13780D1*
X8443Y13809D1*
X8400Y13823D1*
X8299D1*
X8765Y13780D2*
X8751Y13809D1*
X8708Y13823D1*
X8679D1*
X8636Y13809D1*
X8607Y13765D1*
X8593Y13694D1*
Y13622D1*
X8607Y13565D1*
X8636Y13536D1*
X8679Y13522D1*
X8693D1*
X8736Y13536D1*
X8765Y13565D1*
X8779Y13608D1*
Y13622D1*
X8765Y13665D1*
X8736Y13694D1*
X8693Y13708D1*
X8679D1*
X8636Y13694D1*
X8607Y13665D1*
X8593Y13622D1*
X16775Y13011D2*
Y12709D1*
X16875D1*
X16918Y12724D1*
X16947Y12752D1*
X16962Y12781D1*
X16976Y12824D1*
Y12896D1*
X16962Y12939D1*
X16947Y12968D1*
X16918Y12996D1*
X16875Y13011D1*
X16775D1*
X17126Y12709D2*
X17269Y13010D1*
X17068D1*
X17604Y13356D2*
Y13055D1*
X17704D1*
X17748Y13069D1*
X17776Y13098D1*
X17791Y13127D1*
X17805Y13169D1*
Y13241D1*
X17791Y13284D1*
X17776Y13313D1*
X17748Y13342D1*
X17704Y13356D1*
X17604D1*
X17969D2*
X17926Y13341D1*
X17912Y13313D1*
Y13284D1*
X17926Y13256D1*
X17955Y13241D1*
X18012Y13227D1*
X18055Y13212D1*
X18084Y13184D1*
X18098Y13155D1*
Y13112D1*
X18084Y13083D1*
X18070Y13069D1*
X18027Y13055D1*
X17969D1*
X17926Y13069D1*
X17912Y13083D1*
X17898Y13112D1*
Y13155D1*
X17912Y13184D1*
X17941Y13212D1*
X17983Y13227D1*
X18041Y13241D1*
X18070Y13256D1*
X18084Y13284D1*
Y13313D1*
X18070Y13341D1*
X18027Y13356D1*
X17969D1*
X18344Y13698D2*
Y13397D1*
X18445D1*
X18488Y13411D1*
X18517Y13440D1*
X18531Y13469D1*
X18545Y13511D1*
Y13583D1*
X18531Y13627D1*
X18517Y13655D1*
X18488Y13684D1*
X18445Y13698D1*
X18344D1*
X18825Y13598D2*
X18810Y13555D1*
X18782Y13526D1*
X18739Y13511D1*
X18724D1*
X18681Y13526D1*
X18653Y13555D1*
X18638Y13598D1*
Y13612D1*
X18653Y13655D1*
X18681Y13684D1*
X18724Y13698D1*
X18739D1*
X18782Y13684D1*
X18810Y13655D1*
X18825Y13598D1*
Y13526D1*
X18810Y13454D1*
X18782Y13411D1*
X18739Y13397D1*
X18710D1*
X18667Y13411D1*
X18653Y13440D1*
X22677Y14626D2*
Y14397D1*
X22662Y14354D1*
X22648Y14339D1*
X22619Y14325D1*
X22590D1*
X22562Y14339D1*
X22548Y14354D1*
X22533Y14397D1*
Y14425D1*
X22769Y14569D2*
X22798Y14583D1*
X22841Y14626D1*
Y14325D1*
X6640Y17834D2*
Y17605D1*
X6626Y17562D1*
X6611Y17547D1*
X6583Y17533D1*
X6554D1*
X6526Y17547D1*
X6511Y17562D1*
X6497Y17605D1*
Y17633D1*
X6747Y17762D2*
Y17777D1*
X6762Y17805D1*
X6776Y17820D1*
X6805Y17834D1*
X6862D1*
X6891Y17820D1*
X6905Y17805D1*
X6920Y17777D1*
Y17748D1*
X6905Y17719D1*
X6876Y17676D1*
X6733Y17533D1*
X6934D1*
X5406Y13411D2*
Y13182D1*
X5392Y13138D1*
X5377Y13124D1*
X5349Y13110D1*
X5320D1*
X5292Y13124D1*
X5277Y13138D1*
X5263Y13182D1*
Y13210D1*
X5499Y13353D2*
X5528Y13368D1*
X5571Y13411D1*
Y13110D1*
X5750Y13411D2*
X5707Y13396D1*
X5678Y13353D1*
X5664Y13282D1*
Y13239D1*
X5678Y13167D1*
X5707Y13124D1*
X5750Y13110D1*
X5778D1*
X5821Y13124D1*
X5850Y13167D1*
X5865Y13239D1*
Y13282D1*
X5850Y13353D1*
X5821Y13396D1*
X5778Y13411D1*
X5750D1*
X5850Y13353D2*
X5678Y13167D1*
X13208Y6762D2*
X13179Y6748D1*
X13150Y6719D1*
X13136Y6690D1*
X13121Y6647D1*
Y6575D1*
X13136Y6532D1*
X13150Y6504D1*
X13179Y6475D1*
X13208Y6461D1*
X13265D1*
X13294Y6475D1*
X13322Y6504D1*
X13337Y6532D1*
X13351Y6575D1*
Y6647D1*
X13337Y6690D1*
X13322Y6719D1*
X13294Y6748D1*
X13265Y6762D1*
X13208D1*
X13251Y6518D2*
X13337Y6432D1*
X13444Y6704D2*
X13473Y6719D1*
X13516Y6762D1*
Y6460D1*
X18143Y7387D2*
X18115Y7373D1*
X18086Y7344D1*
X18071Y7315D1*
X18057Y7272D1*
Y7200D1*
X18071Y7157D1*
X18086Y7129D1*
X18115Y7100D1*
X18143Y7086D1*
X18200D1*
X18229Y7100D1*
X18258Y7129D1*
X18272Y7157D1*
X18287Y7200D1*
Y7272D1*
X18272Y7315D1*
X18258Y7344D1*
X18229Y7373D1*
X18200Y7387D1*
X18143D1*
X18186Y7143D2*
X18272Y7057D1*
X18394Y7315D2*
Y7329D1*
X18408Y7358D1*
X18422Y7372D1*
X18451Y7387D1*
X18509D1*
X18537Y7372D1*
X18551Y7358D1*
X18566Y7329D1*
Y7301D1*
X18551Y7272D1*
X18523Y7229D1*
X18379Y7085D1*
X18580D1*
X18143Y9199D2*
X18115Y9185D1*
X18086Y9157D1*
X18071Y9128D1*
X18057Y9085D1*
Y9013D1*
X18071Y8970D1*
X18086Y8941D1*
X18115Y8913D1*
X18143Y8898D1*
X18200D1*
X18229Y8913D1*
X18258Y8941D1*
X18272Y8970D1*
X18287Y9013D1*
Y9085D1*
X18272Y9128D1*
X18258Y9157D1*
X18229Y9185D1*
X18200Y9199D1*
X18143D1*
X18186Y8956D2*
X18272Y8869D1*
X18408Y9199D2*
X18566D1*
X18480Y9084D1*
X18523D1*
X18551Y9070D1*
X18566Y9056D1*
X18580Y9013D1*
Y8984D1*
X18566Y8941D1*
X18537Y8912D1*
X18494Y8898D1*
X18451D1*
X18408Y8912D1*
X18394Y8927D1*
X18379Y8955D1*
X18136Y11074D2*
X18107Y11060D1*
X18079Y11032D1*
X18064Y11003D1*
X18050Y10960D1*
Y10888D1*
X18064Y10845D1*
X18079Y10816D1*
X18107Y10788D1*
X18136Y10773D1*
X18193D1*
X18222Y10788D1*
X18251Y10816D1*
X18265Y10845D1*
X18279Y10888D1*
Y10960D1*
X18265Y11003D1*
X18251Y11032D1*
X18222Y11060D1*
X18193Y11074D1*
X18136D1*
X18179Y10831D2*
X18265Y10744D1*
X18516Y10773D2*
Y11074D1*
X18372Y10873D1*
X18587D1*
X13768Y17387D2*
X13740Y17373D1*
X13711Y17344D1*
X13696Y17315D1*
X13682Y17272D1*
Y17200D1*
X13696Y17157D1*
X13711Y17129D1*
X13740Y17100D1*
X13768Y17086D1*
X13825D1*
X13854Y17100D1*
X13883Y17129D1*
X13897Y17157D1*
X13912Y17200D1*
Y17272D1*
X13897Y17315D1*
X13883Y17344D1*
X13854Y17373D1*
X13825Y17387D1*
X13768D1*
X13811Y17143D2*
X13897Y17057D1*
X14176Y17387D2*
X14033D1*
X14019Y17258D1*
X14033Y17272D1*
X14076Y17286D1*
X14119D1*
X14162Y17272D1*
X14191Y17243D1*
X14205Y17200D1*
Y17172D1*
X14191Y17129D1*
X14162Y17100D1*
X14119Y17085D1*
X14076D1*
X14033Y17100D1*
X14019Y17114D1*
X14004Y17143D1*
X16694Y13670D2*
Y13799D1*
X16680Y13842D1*
X16666Y13856D1*
X16637Y13871D1*
X16608D1*
X16580Y13856D1*
X16565Y13842D1*
X16551Y13799D1*
Y13670D1*
X16852D1*
X16694Y13770D2*
X16852Y13871D1*
X16609Y13963D2*
X16594Y13992D1*
X16551Y14035D1*
X16852D1*
X13132Y6668D2*
Y6797D1*
X13117Y6840D1*
X13103Y6854D1*
X13075Y6869D1*
X13046D1*
X13017Y6854D1*
X13003Y6840D1*
X12988Y6797D1*
Y6668D1*
X13290D1*
X13132Y6768D2*
X13290Y6869D1*
X13060Y6976D2*
X13046D1*
X13017Y6990D1*
X13003Y7004D1*
X12989Y7033D1*
Y7091D1*
X13003Y7119D1*
X13017Y7133D1*
X13046Y7148D1*
X13075D1*
X13103Y7133D1*
X13146Y7105D1*
X13290Y6961D1*
Y7162D1*
X16587Y6742D2*
X16716D1*
X16759Y6757D1*
X16774Y6771D1*
X16788Y6799D1*
Y6828D1*
X16774Y6857D1*
X16759Y6871D1*
X16716Y6886D1*
X16587D1*
Y6584D1*
X16687Y6742D2*
X16788Y6584D1*
X16909Y6885D2*
X17067D1*
X16981Y6771D1*
X17024D1*
X17053Y6756D1*
X17067Y6742D1*
X17081Y6699D1*
Y6670D1*
X17067Y6627D1*
X17038Y6599D1*
X16995Y6584D1*
X16952D1*
X16909Y6599D1*
X16895Y6613D1*
X16880Y6642D1*
X16580Y8617D2*
X16709D1*
X16752Y8632D1*
X16766Y8646D1*
X16781Y8674D1*
Y8703D1*
X16766Y8732D1*
X16752Y8746D1*
X16709Y8761D1*
X16580D1*
Y8459D1*
X16680Y8617D2*
X16781Y8459D1*
X17017D2*
Y8760D1*
X16873Y8560D1*
X17089D1*
X16649Y10492D2*
X16778D1*
X16821Y10507D1*
X16836Y10521D1*
X16850Y10549D1*
Y10578D1*
X16836Y10607D1*
X16821Y10621D1*
X16778Y10636D1*
X16649D1*
Y10334D1*
X16750Y10492D2*
X16850Y10334D1*
X17115Y10635D2*
X16972D1*
X16958Y10506D1*
X16972Y10521D1*
X17015Y10535D1*
X17058D1*
X17101Y10521D1*
X17130Y10492D1*
X17144Y10449D1*
Y10420D1*
X17130Y10377D1*
X17101Y10349D1*
X17058Y10334D1*
X17015D1*
X16972Y10349D1*
X16958Y10363D1*
X16943Y10392D1*
X11934Y14999D2*
Y15128D1*
X11920Y15171D1*
X11905Y15186D1*
X11877Y15200D1*
X11848D1*
X11819Y15186D1*
X11805Y15171D1*
X11791Y15128D1*
Y14999D1*
X12092D1*
X11934Y15100D2*
X12092Y15200D1*
X11834Y15465D2*
X11805Y15451D1*
X11791Y15408D1*
Y15379D1*
X11805Y15336D1*
X11848Y15307D1*
X11920Y15293D1*
X11992D1*
X12049Y15307D1*
X12078Y15336D1*
X12092Y15379D1*
Y15393D1*
X12078Y15436D1*
X12049Y15465D1*
X12006Y15479D1*
X11992D1*
X11948Y15465D1*
X11920Y15436D1*
X11906Y15393D1*
Y15379D1*
X11920Y15336D1*
X11948Y15307D1*
X11992Y15293D1*
X14507Y15149D2*
Y15278D1*
X14492Y15321D1*
X14478Y15336D1*
X14450Y15350D1*
X14421D1*
X14392Y15336D1*
X14378Y15321D1*
X14363Y15278D1*
Y15149D1*
X14665D1*
X14507Y15250D2*
X14665Y15350D1*
Y15500D2*
X14364Y15644D1*
Y15443D1*
X18382Y6855D2*
Y6984D1*
X18367Y7027D1*
X18353Y7042D1*
X18325Y7056D1*
X18296D1*
X18267Y7042D1*
X18253Y7027D1*
X18238Y6984D1*
Y6855D1*
X18540D1*
X18382Y6956D2*
X18540Y7056D1*
X18239Y7220D2*
X18253Y7178D1*
X18281Y7163D1*
X18310D1*
X18339Y7178D1*
X18353Y7206D1*
X18368Y7264D1*
X18382Y7307D1*
X18411Y7335D1*
X18439Y7349D1*
X18482D1*
X18511Y7335D1*
X18526Y7321D1*
X18540Y7278D1*
Y7220D1*
X18526Y7178D1*
X18511Y7163D1*
X18482Y7149D1*
X18439D1*
X18411Y7163D1*
X18382Y7192D1*
X18368Y7235D1*
X18353Y7292D1*
X18339Y7321D1*
X18310Y7335D1*
X18281D1*
X18253Y7321D1*
X18239Y7278D1*
Y7220D1*
X18319Y8675D2*
Y8804D1*
X18305Y8847D1*
X18291Y8861D1*
X18262Y8876D1*
X18233D1*
X18205Y8861D1*
X18190Y8847D1*
X18176Y8804D1*
Y8675D1*
X18477D1*
X18319Y8775D2*
X18477Y8876D1*
X18276Y9155D2*
X18319Y9140D1*
X18348Y9112D1*
X18363Y9069D1*
Y9055D1*
X18348Y9011D1*
X18319Y8983D1*
X18276Y8968D1*
X18262D1*
X18219Y8983D1*
X18190Y9011D1*
X18176Y9055D1*
Y9069D1*
X18190Y9112D1*
X18219Y9140D1*
X18276Y9155D1*
X18348D1*
X18420Y9140D1*
X18463Y9112D1*
X18477Y9069D1*
Y9040D1*
X18463Y8997D1*
X18434Y8983D1*
X18319Y10460D2*
Y10589D1*
X18305Y10632D1*
X18291Y10647D1*
X18262Y10661D1*
X18233D1*
X18205Y10647D1*
X18190Y10632D1*
X18176Y10589D1*
Y10460D1*
X18477D1*
X18319Y10561D2*
X18477Y10661D1*
X18234Y10754D2*
X18219Y10783D1*
X18176Y10826D1*
X18477D1*
X18176Y11005D2*
X18190Y10962D1*
X18234Y10933D1*
X18305Y10918D1*
X18348D1*
X18420Y10933D1*
X18463Y10962D1*
X18477Y11005D1*
Y11033D1*
X18463Y11076D1*
X18420Y11105D1*
X18348Y11119D1*
X18305D1*
X18234Y11105D1*
X18190Y11076D1*
X18176Y11033D1*
Y11005D1*
X18234Y11105D2*
X18420Y10933D1*
X14194Y5069D2*
Y5198D1*
X14180Y5241D1*
X14166Y5256D1*
X14137Y5270D1*
X14108D1*
X14080Y5256D1*
X14065Y5241D1*
X14051Y5198D1*
Y5069D1*
X14352D1*
X14194Y5170D2*
X14352Y5270D1*
X14109Y5363D2*
X14094Y5392D1*
X14051Y5435D1*
X14352D1*
X14109Y5527D2*
X14094Y5556D1*
X14051Y5599D1*
X14352D1*
X11585Y5680D2*
X11714D1*
X11757Y5694D1*
X11772Y5708D1*
X11786Y5737D1*
Y5766D1*
X11772Y5794D1*
X11757Y5809D1*
X11714Y5823D1*
X11585D1*
Y5522D1*
X11686Y5680D2*
X11786Y5522D1*
X11879Y5765D2*
X11908Y5780D1*
X11951Y5823D1*
Y5522D1*
X12058Y5751D2*
Y5765D1*
X12072Y5794D1*
X12087Y5809D1*
X12115Y5823D1*
X12173D1*
X12201Y5809D1*
X12216Y5794D1*
X12230Y5765D1*
Y5737D1*
X12216Y5708D1*
X12187Y5665D1*
X12043Y5522D1*
X12244D1*
X12471Y14960D2*
Y15089D1*
X12457Y15132D1*
X12442Y15147D1*
X12414Y15161D1*
X12385D1*
X12357Y15147D1*
X12342Y15132D1*
X12328Y15089D1*
Y14960D1*
X12629D1*
X12471Y15061D2*
X12629Y15161D1*
X12385Y15254D2*
X12371Y15283D1*
X12328Y15326D1*
X12629D1*
X12328Y15447D2*
Y15605D1*
X12443Y15519D1*
Y15562D1*
X12457Y15591D1*
X12471Y15605D1*
X12514Y15619D1*
X12543D1*
X12586Y15605D1*
X12615Y15576D1*
X12629Y15533D1*
Y15490D1*
X12615Y15447D1*
X12600Y15433D1*
X12572Y15418D1*
X16694Y6828D2*
Y6957D1*
X16680Y7000D1*
X16666Y7015D1*
X16637Y7029D1*
X16608D1*
X16580Y7015D1*
X16565Y7000D1*
X16551Y6957D1*
Y6828D1*
X16852D1*
X16694Y6929D2*
X16852Y7029D1*
X16609Y7122D2*
X16594Y7151D1*
X16551Y7194D1*
X16852D1*
Y7430D2*
X16551D1*
X16752Y7286D1*
Y7502D1*
X20632Y6273D2*
Y6402D1*
X20617Y6445D1*
X20603Y6459D1*
X20575Y6474D1*
X20546D1*
X20517Y6459D1*
X20503Y6445D1*
X20488Y6402D1*
Y6273D1*
X20790D1*
X20632Y6373D2*
X20790Y6474D1*
X20546Y6566D2*
X20531Y6595D1*
X20489Y6638D1*
X20790D1*
X20489Y6903D2*
Y6760D1*
X20618Y6746D1*
X20603Y6760D1*
X20589Y6803D1*
Y6846D1*
X20603Y6889D1*
X20632Y6918D1*
X20675Y6932D1*
X20704D1*
X20747Y6918D1*
X20775Y6889D1*
X20790Y6846D1*
Y6803D1*
X20775Y6760D1*
X20761Y6746D1*
X20732Y6731D1*
X11132Y14968D2*
Y15097D1*
X11117Y15140D1*
X11103Y15154D1*
X11075Y15169D1*
X11046D1*
X11017Y15154D1*
X11003Y15140D1*
X10988Y15097D1*
Y14968D1*
X11290D1*
X11132Y15068D2*
X11290Y15169D1*
X11046Y15261D2*
X11031Y15290D1*
X10989Y15333D1*
X11290D1*
X11031Y15598D2*
X11003Y15584D1*
X10989Y15541D1*
Y15512D1*
X11003Y15469D1*
X11046Y15440D1*
X11118Y15426D1*
X11189D1*
X11247Y15440D1*
X11276Y15469D1*
X11290Y15512D1*
Y15526D1*
X11276Y15569D1*
X11247Y15598D1*
X11204Y15612D1*
X11189D1*
X11146Y15598D1*
X11118Y15569D1*
X11103Y15526D1*
Y15512D1*
X11118Y15469D1*
X11146Y15440D1*
X11189Y15426D1*
X20632Y7585D2*
Y7714D1*
X20617Y7757D1*
X20603Y7772D1*
X20575Y7786D1*
X20546D1*
X20517Y7772D1*
X20503Y7757D1*
X20488Y7714D1*
Y7585D1*
X20790D1*
X20632Y7686D2*
X20790Y7786D1*
X20546Y7879D2*
X20531Y7908D1*
X20489Y7951D1*
X20790D1*
Y8101D2*
X20489Y8244D1*
Y8043D1*
X17382Y10898D2*
Y11027D1*
X17367Y11070D1*
X17353Y11085D1*
X17325Y11099D1*
X17296D1*
X17267Y11085D1*
X17253Y11070D1*
X17238Y11027D1*
Y10898D1*
X17540D1*
X17382Y10998D2*
X17540Y11099D1*
X17296Y11192D2*
X17281Y11220D1*
X17239Y11264D1*
X17540D1*
X17239Y11428D2*
X17253Y11385D1*
X17281Y11370D1*
X17310D1*
X17339Y11385D1*
X17353Y11414D1*
X17368Y11471D1*
X17382Y11514D1*
X17411Y11543D1*
X17439Y11557D1*
X17482D1*
X17511Y11543D1*
X17525Y11528D1*
X17540Y11485D1*
Y11428D1*
X17525Y11385D1*
X17511Y11370D1*
X17482Y11356D1*
X17439D1*
X17411Y11370D1*
X17382Y11399D1*
X17368Y11442D1*
X17353Y11499D1*
X17339Y11528D1*
X17310Y11543D1*
X17281D1*
X17253Y11528D1*
X17239Y11485D1*
Y11428D1*
X20632Y9092D2*
Y9221D1*
X20617Y9265D1*
X20603Y9279D1*
X20575Y9293D1*
X20546D1*
X20517Y9279D1*
X20503Y9265D1*
X20488Y9221D1*
Y9092D1*
X20790D1*
X20632Y9193D2*
X20790Y9293D1*
X20546Y9386D2*
X20531Y9415D1*
X20489Y9458D1*
X20790D1*
X20589Y9737D2*
X20632Y9723D1*
X20661Y9694D1*
X20675Y9651D1*
Y9637D1*
X20661Y9594D1*
X20632Y9565D1*
X20589Y9551D1*
X20575D1*
X20531Y9565D1*
X20503Y9594D1*
X20489Y9637D1*
Y9651D1*
X20503Y9694D1*
X20531Y9723D1*
X20589Y9737D1*
X20661D1*
X20732Y9723D1*
X20775Y9694D1*
X20790Y9651D1*
Y9623D1*
X20775Y9579D1*
X20747Y9565D1*
X16694Y8708D2*
Y8837D1*
X16680Y8880D1*
X16666Y8895D1*
X16637Y8909D1*
X16608D1*
X16580Y8895D1*
X16565Y8880D1*
X16551Y8837D1*
Y8708D1*
X16852D1*
X16694Y8809D2*
X16852Y8909D1*
X16623Y9016D2*
X16609D1*
X16580Y9031D1*
X16565Y9045D1*
X16551Y9074D1*
Y9131D1*
X16565Y9160D1*
X16580Y9174D1*
X16609Y9189D1*
X16637D1*
X16666Y9174D1*
X16709Y9145D1*
X16852Y9002D1*
Y9203D1*
X16551Y9382D2*
X16565Y9339D1*
X16609Y9310D1*
X16680Y9295D1*
X16723D1*
X16795Y9310D1*
X16838Y9339D1*
X16852Y9382D1*
Y9410D1*
X16838Y9453D1*
X16795Y9482D1*
X16723Y9496D1*
X16680D1*
X16609Y9482D1*
X16565Y9453D1*
X16551Y9410D1*
Y9382D1*
X16609Y9482D2*
X16795Y9310D1*
X12267Y14816D2*
Y14601D1*
X12281Y14558D1*
X12310Y14529D1*
X12353Y14515D1*
X12382D1*
X12425Y14529D1*
X12454Y14558D1*
X12468Y14601D1*
Y14816D1*
X12561Y14759D2*
X12589Y14773D1*
X12633Y14816D1*
Y14515D1*
X19849Y17386D2*
Y17170D1*
X19863Y17127D1*
X19892Y17099D1*
X19935Y17084D1*
X19963D1*
X20007Y17099D1*
X20035Y17127D1*
X20050Y17170D1*
Y17386D1*
X20157Y17314D2*
Y17328D1*
X20171Y17357D1*
X20185Y17371D1*
X20214Y17385D1*
X20272D1*
X20300Y17371D1*
X20314Y17357D1*
X20329Y17328D1*
Y17299D1*
X20314Y17271D1*
X20286Y17228D1*
X20142Y17084D1*
X20343D1*
M02*
