G04 DipTrace 2.4.0.2*
%INBottom.gbr*%
%MOIN*%
%ADD14C,0.007*%
%ADD15C,0.005*%
%ADD16C,0.02*%
%ADD19C,0.015*%
%ADD20C,0.013*%
%ADD21R,0.0433X0.0394*%
%ADD22R,0.0394X0.0433*%
%ADD25C,0.05*%
%ADD26R,0.05X0.05*%
%ADD30R,0.0591X0.0591*%
%ADD31C,0.0591*%
%ADD32R,0.0669X0.0669*%
%ADD33C,0.0669*%
%ADD45C,0.025*%
%FSLAX44Y44*%
G04*
G70*
G90*
G75*
G01*
%LNBottom*%
%LPD*%
X17945Y13289D2*
D14*
X17753D1*
X17539Y13502D1*
Y14239D1*
X17479D1*
X17114Y13902D2*
Y12505D1*
X17109Y12500D1*
X4527Y9024D2*
Y8934D1*
X4753Y8707D1*
X4882D1*
Y9373D1*
X5022Y9513D1*
X5847D1*
X9676Y10137D2*
Y10917D1*
X9743D1*
X9525Y12446D2*
Y12117D1*
X18015Y6908D2*
Y7809D1*
X18264Y8057D1*
X20185D1*
X20325Y7917D1*
Y5766D1*
X20185Y5626D1*
X19555D1*
X15141Y12430D2*
Y11809D1*
X15133Y11801D1*
X16067D1*
X18223Y9645D1*
X13575Y14687D2*
D15*
Y14771D1*
X13893Y15089D1*
X14621D1*
X14753Y14957D1*
Y13487D1*
X15141Y13099D1*
X8133Y10780D2*
D14*
Y11395D1*
X7927Y11601D1*
Y12213D1*
Y12301D1*
X7787Y12441D1*
X7217D1*
Y11463D1*
X6973Y7963D2*
Y9331D1*
X6791Y9513D1*
X6516D1*
X6900Y7598D2*
Y7963D1*
X6973D1*
X10066Y10106D2*
X10252Y9919D1*
X10520D1*
X10017Y11545D2*
Y11910D1*
X9944D1*
X12176Y9189D2*
X12267Y9097D1*
Y8630D1*
Y8490D1*
X12827Y7931D1*
X13749D1*
X9074Y10917D2*
Y10469D1*
X9176Y10367D1*
Y10137D1*
X9782Y9531D1*
X13807D1*
X14508Y8830D1*
X7928Y8230D2*
X8067Y8369D1*
Y8733D1*
X4984Y10160D2*
X4949Y10195D1*
Y10668D1*
X4882D1*
X6819Y10160D2*
X4984D1*
X11189Y9919D2*
X11617D1*
X11742Y10044D1*
X12176D1*
Y10274D1*
X12329Y10428D1*
Y10889D1*
X7484Y10160D2*
Y10731D1*
X7464Y10780D1*
Y11082D1*
X7629Y11247D1*
Y12119D1*
X7525D1*
X7398Y8733D2*
Y7719D1*
X7508Y7678D1*
X7484Y9211D2*
X7398Y9125D1*
Y8733D1*
X5986Y12093D2*
X5984Y11337D1*
X6214D1*
Y11463D1*
X6547D1*
X5476Y11847D2*
Y11322D1*
X5551Y11247D1*
Y10668D1*
X5549Y11475D2*
Y11847D1*
X5476D1*
X5436Y9211D2*
Y8753D1*
X5551Y8707D1*
X5556Y7658D1*
X11630Y11193D2*
Y10889D1*
X11660D1*
X11630Y11558D2*
Y11193D1*
X18437Y14687D2*
X18883D1*
X19296Y14275D1*
X9663Y7988D2*
X10018D1*
X9761Y7731D1*
X9599D1*
Y7678D1*
X9736Y9229D2*
X9771Y9264D1*
X9849D1*
X10177Y8936D1*
Y8133D1*
X10033Y7988D1*
X9663D1*
X11598Y8630D2*
X11700D1*
Y7687D1*
X11676Y9189D2*
X11598Y9111D1*
Y8630D1*
X9067Y9229D2*
Y8768D1*
X9207Y8628D1*
X9847D1*
Y8607D1*
X9176D1*
Y8280D1*
X11025Y8062D2*
Y8488D1*
X10885Y8628D1*
X10516D1*
X11025Y7697D2*
Y8062D1*
X10437Y12437D2*
Y11313D1*
X10343Y11219D1*
X8595D1*
X8455Y11079D1*
Y10070D1*
X8309Y9925D1*
X4502D1*
Y12502D1*
X5424Y13424D1*
X6180D1*
X6437Y13682D1*
Y15187D1*
X6791Y15541D1*
X14887D1*
X15150Y15278D1*
Y14687D1*
X4502Y9925D2*
X4275Y9698D1*
Y7454D1*
X4729Y7000D1*
X6795D1*
X6974Y6822D1*
Y4578D1*
X7173Y4378D1*
X9877D1*
Y6023D1*
X10017Y6163D1*
X12906D1*
X16404Y8001D2*
Y5097D1*
X16285Y4978D1*
X12362D1*
X12131Y4747D1*
X10877D1*
X10437Y5187D1*
X15617Y7643D2*
Y5327D1*
X15477Y5187D1*
X11437D1*
X16122Y7545D2*
X15917D1*
X15819Y7643D1*
X15617D1*
X6214Y13174D2*
X6682Y13642D1*
Y15227D1*
X6822Y15367D1*
X10532D1*
X11213Y14687D1*
X6912Y13109D2*
X6822Y13199D1*
Y15087D1*
X6962Y15227D1*
X9098D1*
X9638Y14687D1*
X21281Y9175D2*
D16*
Y11620D1*
X19296Y13605D1*
X15781Y13087D2*
Y12545D1*
X15810Y12516D1*
X15874Y12038D2*
Y12452D1*
X15810Y12516D1*
X16704Y11922D2*
X16404D1*
X15810Y12516D1*
X16704Y11922D2*
Y11844D1*
X17180Y11367D1*
X17260D1*
Y11063D1*
X17642Y10681D1*
X18392D1*
X20268Y8805D1*
X20911D1*
X21281Y9175D1*
X15810Y12516D2*
Y13058D1*
X15781Y13087D1*
X17180Y11367D2*
Y11446D1*
X16704Y11922D1*
X17180Y11367D2*
D3*
X21281Y9175D2*
D3*
X8850Y13900D2*
D14*
Y13145D1*
X8812Y13106D1*
X10425Y13900D2*
Y13118D1*
X10437Y13106D1*
X12000Y13900D2*
Y13168D1*
X12062Y13106D1*
X13575Y13900D2*
Y13119D1*
X13562Y13106D1*
X14362Y14687D2*
Y14612D1*
X13937Y14187D1*
Y13356D1*
X14187Y13106D1*
X15937Y14687D2*
X16002Y14622D1*
X16655D1*
X20312Y9187D2*
Y10062D1*
X17398Y12976D1*
Y13980D1*
X17240Y14138D1*
Y14259D1*
X16877Y14622D1*
X16655D1*
X17872Y14570D2*
X16707D1*
X16655Y14622D1*
X14362Y13900D2*
Y13496D1*
X14614Y13245D1*
Y12752D1*
X15408D1*
X15442Y12786D1*
Y13337D1*
X15494Y13389D1*
X15937D1*
Y13900D1*
X9348Y11545D2*
X8952D1*
X8812Y11685D1*
Y12437D1*
X14826Y6818D2*
Y5935D1*
X15191D1*
X8812Y12437D2*
X8455D1*
Y12537D1*
X8063Y12929D1*
X7923Y12789D1*
X7525D1*
X15133Y11132D2*
X15120D1*
Y10102D1*
Y8374D1*
X14262Y7516D1*
X12037D1*
X12370Y7848D1*
Y7687D1*
X18437Y13687D2*
X18048D1*
Y13901D1*
X17872D1*
X8177Y7678D2*
X8001D1*
X7830Y7507D1*
Y7296D1*
X7690Y7156D1*
X6371D1*
X6231Y7296D1*
Y7598D1*
X14187Y12437D2*
X14614D1*
Y12752D1*
X9525Y13115D2*
Y13437D1*
X9638D1*
Y13900D1*
X15937D2*
X16337D1*
X16390Y13953D1*
X16655D1*
X18707Y6549D2*
Y5789D1*
X19051Y5445D1*
Y5716D1*
X19593Y6258D1*
X19780D1*
X8850Y14687D2*
X8450Y15087D1*
X7676D1*
X7276Y14687D1*
X15599Y4748D2*
X16846D1*
X17098Y5000D1*
X12062Y12437D2*
X12647D1*
X12787Y12577D1*
X12927Y12437D1*
X13562D1*
X9525Y13115D2*
Y12785D1*
X11073D1*
X11213Y12925D1*
X11700Y12437D1*
X12062D1*
X8063Y13900D2*
Y12929D1*
X12062Y12437D2*
Y12097D1*
X12299Y11860D1*
Y11558D1*
X19051Y5445D2*
X19191Y5305D1*
Y4691D1*
X17903Y11671D2*
X17849Y11617D1*
Y11367D1*
X17373Y11922D2*
Y11965D1*
X17610D1*
X17903Y11671D1*
X16479Y12516D2*
X16747D1*
X17373Y11889D1*
Y11922D1*
X16450Y13087D2*
Y12516D1*
X16479D1*
X15937Y13900D2*
X16447Y13389D1*
X16450D1*
Y13087D1*
X8177Y7678D2*
Y6383D1*
X8437Y6123D1*
Y5187D1*
X8929Y7678D2*
X8177D1*
X10356Y7697D2*
X10100D1*
X10028Y7624D1*
Y7411D1*
X9888Y7271D1*
X9106D1*
X8929Y7448D1*
Y7678D1*
X10767Y7222D2*
X10356D1*
Y7697D1*
X12370Y7687D2*
Y7271D1*
X12320Y7222D1*
X10767D1*
X15120Y10102D2*
X15501Y10483D1*
X16261D1*
X17098Y9646D1*
Y6689D1*
X17238Y6549D1*
X18707D1*
X14041Y12080D2*
Y11418D1*
X14327Y11132D1*
X15133D1*
X14187Y12437D2*
Y12080D1*
X14041D1*
X13562Y12437D2*
X14187D1*
X12787Y12577D2*
Y13900D1*
X11213Y12925D2*
Y13900D1*
X8812Y12437D2*
X9114D1*
Y13115D1*
X9525D1*
X5986Y12762D2*
X5020D1*
X4880Y12622D1*
Y11475D1*
X7525Y12789D2*
Y12762D1*
X5986D1*
X18707Y6549D2*
X17853D1*
X17505Y6897D1*
Y7153D1*
X17763Y7410D1*
X17749D1*
X6231Y7598D2*
X6024D1*
X5877Y7451D1*
Y7356D1*
X5737Y7216D1*
X5026D1*
X4886Y7356D1*
Y7658D1*
X17098Y5000D2*
Y6409D1*
X17238Y6549D1*
X6231Y7598D2*
X6300D1*
X6412Y7710D1*
Y8034D1*
X16105Y7873D2*
X15343D1*
X14087Y6616D1*
X9577D1*
X9437Y6476D1*
Y5187D1*
X16118Y10128D2*
Y7887D1*
X16105Y7873D1*
D45*
X20312Y9187D3*
X18223Y9645D3*
X21281Y9175D3*
X15874Y12038D3*
X16118Y10128D3*
X16122Y7545D3*
X17945Y13289D3*
X17479Y14239D3*
X13171Y12751D3*
X17109Y12500D3*
X17114Y13902D3*
X4527Y9024D3*
X9525Y12117D3*
X9676Y10137D3*
X12906Y6163D3*
X19555Y5626D3*
X18015Y6908D3*
X16105Y7873D3*
X7927Y12213D3*
X6973Y7963D3*
X10066Y10106D3*
X9944Y11910D3*
X13749Y7931D3*
X12176Y9189D3*
X14508Y8830D3*
X9176Y10137D3*
X7928Y8230D3*
X6819Y10160D3*
X4984D3*
X12176Y10044D3*
X7484Y10160D3*
Y9211D3*
X5984Y11337D3*
X5476Y11847D3*
X5436Y9211D3*
X11630Y11193D3*
X16404Y8001D3*
X9663Y7988D3*
X11676Y9189D3*
X9176Y8280D3*
X11025Y8062D3*
X6214Y13174D3*
X6912Y13109D3*
X15874Y12038D3*
X21281Y9175D3*
X14041Y12080D3*
X15191Y5935D3*
X14826Y6818D3*
X10767Y7222D3*
X17749Y7410D3*
X19780Y6258D3*
X17098Y5000D3*
X15599Y4748D3*
X6412Y8034D3*
X18707Y6549D3*
X19191Y4691D3*
X17903Y11671D3*
X15617Y7643D3*
X4287Y15453D2*
D19*
X4418D1*
X5957D2*
X6342D1*
X15337D2*
X20416D1*
X21958D2*
X22087D1*
X6083Y15305D2*
X6206D1*
X15409D2*
X20292D1*
X11418Y15156D2*
X12583D1*
X12993D2*
X13371D1*
X16457D2*
X20203D1*
X10044Y15007D2*
X10530D1*
X11619D2*
X12382D1*
X17078D2*
X18091D1*
X18784D2*
X20144D1*
X7082Y14859D2*
X7572D1*
X8554D2*
X9103D1*
X10129D2*
X10678D1*
X11704D2*
X12297D1*
X17078D2*
X17449D1*
X19075D2*
X20109D1*
X7082Y14710D2*
X7542D1*
X8584D2*
X9117D1*
X10159D2*
X10692D1*
X11734D2*
X12267D1*
X19223D2*
X20095D1*
X7082Y14561D2*
X7558D1*
X8568D2*
X9133D1*
X10143D2*
X10708D1*
X11718D2*
X12283D1*
X19719D2*
X20104D1*
X7082Y14413D2*
X7624D1*
X8502D2*
X9199D1*
X10077D2*
X10771D1*
X11652D2*
X12346D1*
X19719D2*
X20132D1*
X7642Y14264D2*
X7771D1*
X8355D2*
X8484D1*
X9217D2*
X9344D1*
X9930D2*
X10059D1*
X10792D2*
X10919D1*
X11505D2*
X11634D1*
X12367D2*
X12494D1*
X13080D2*
X13209D1*
X18634D2*
X18874D1*
X19719D2*
X20182D1*
X6114Y14115D2*
X6174D1*
X7748D2*
X8378D1*
X9323D2*
X9951D1*
X10898D2*
X11526D1*
X12473D2*
X13101D1*
X14228D2*
X14503D1*
X15623D2*
X16232D1*
X18294D2*
X18874D1*
X19719D2*
X20261D1*
X4287Y13966D2*
X4373D1*
X6001D2*
X6175D1*
X7792D2*
X8334D1*
X9367D2*
X9909D1*
X10942D2*
X11484D1*
X12517D2*
X13059D1*
X14198D2*
X14503D1*
X15667D2*
X16232D1*
X18294D2*
X18874D1*
X19719D2*
X20374D1*
X22002D2*
X22088D1*
X4287Y13818D2*
X4537D1*
X5837D2*
X6175D1*
X7790D2*
X8336D1*
X9365D2*
X9911D1*
X10940D2*
X11486D1*
X12515D2*
X13061D1*
X14198D2*
X14503D1*
X15665D2*
X16232D1*
X18294D2*
X18874D1*
X19719D2*
X20538D1*
X21836D2*
X22087D1*
X4287Y13669D2*
X4823D1*
X7741D2*
X8386D1*
X9316D2*
X9961D1*
X10891D2*
X11536D1*
X12466D2*
X13108D1*
X14198D2*
X14503D1*
X15616D2*
X16232D1*
X18294D2*
X18874D1*
X19719D2*
X20824D1*
X21552D2*
X22087D1*
X4287Y13520D2*
X5158D1*
X7626D2*
X8390D1*
X9948D2*
X10016D1*
X10860D2*
X11639D1*
X12484D2*
X13139D1*
X15564D2*
X16853D1*
X18294D2*
X18874D1*
X19834D2*
X22087D1*
X4287Y13372D2*
X5008D1*
X7136D2*
X8390D1*
X9948D2*
X10016D1*
X10860D2*
X11639D1*
X12484D2*
X13139D1*
X18285D2*
X18874D1*
X19984D2*
X22087D1*
X4287Y13223D2*
X4861D1*
X7244D2*
X8390D1*
X9948D2*
X10016D1*
X10860D2*
X11639D1*
X12484D2*
X13139D1*
X14610D2*
X14668D1*
X18290D2*
X18874D1*
X20132D2*
X22087D1*
X4287Y13074D2*
X4713D1*
X5437D2*
X5564D1*
X7949D2*
X8390D1*
X9948D2*
X10016D1*
X10860D2*
X11639D1*
X12484D2*
X13064D1*
X14610D2*
X14718D1*
X18217D2*
X19373D1*
X20282D2*
X22087D1*
X4287Y12926D2*
X4563D1*
X5289D2*
X5564D1*
X6454D2*
X6616D1*
X7949D2*
X8390D1*
X9948D2*
X10016D1*
X10860D2*
X11639D1*
X12484D2*
X12869D1*
X14610D2*
X14718D1*
X17812D2*
X19521D1*
X20430D2*
X22087D1*
X4287Y12777D2*
X4415D1*
X5139D2*
X5564D1*
X6409D2*
X6850D1*
X6975D2*
X7103D1*
X7949D2*
X8390D1*
X9948D2*
X10016D1*
X10860D2*
X11639D1*
X12484D2*
X12822D1*
X14610D2*
X14718D1*
X17959D2*
X19671D1*
X20580D2*
X22087D1*
X4991Y12628D2*
X5564D1*
X6409D2*
X7043D1*
X7961D2*
X8390D1*
X9948D2*
X10016D1*
X10860D2*
X11639D1*
X12484D2*
X12843D1*
X14610D2*
X14718D1*
X18109D2*
X19818D1*
X20727D2*
X22087D1*
X4841Y12480D2*
X5564D1*
X6409D2*
X6958D1*
X8146D2*
X8390D1*
X9948D2*
X10016D1*
X10860D2*
X11639D1*
X12484D2*
X12958D1*
X14610D2*
X14718D1*
X17460D2*
X17530D1*
X18257D2*
X19966D1*
X20877D2*
X22087D1*
X4764Y12331D2*
X5564D1*
X6409D2*
X6956D1*
X8256D2*
X8390D1*
X9948D2*
X10016D1*
X10860D2*
X11639D1*
X12484D2*
X13139D1*
X14610D2*
X14718D1*
X17413D2*
X17681D1*
X18405D2*
X20116D1*
X21025D2*
X22087D1*
X4764Y12182D2*
X5446D1*
X5507D2*
X5564D1*
X6409D2*
X6956D1*
X8277D2*
X8390D1*
X10860D2*
X11639D1*
X12484D2*
X13139D1*
X14610D2*
X14709D1*
X18555D2*
X20264D1*
X21173D2*
X22087D1*
X4764Y12034D2*
X5182D1*
X6409D2*
X6956D1*
X8226D2*
X8390D1*
X10860D2*
X11639D1*
X12484D2*
X13139D1*
X14610D2*
X14709D1*
X17816D2*
X17978D1*
X18702D2*
X20414D1*
X21323D2*
X22087D1*
X4764Y11885D2*
X5128D1*
X6409D2*
X6956D1*
X8188D2*
X8906D1*
X10698D2*
X11189D1*
X12742D2*
X14709D1*
X17816D2*
X18126D1*
X18852D2*
X20561D1*
X21470D2*
X22087D1*
X8188Y11736D2*
X8906D1*
X10698D2*
X11189D1*
X12742D2*
X14709D1*
X19000D2*
X20711D1*
X21585D2*
X22087D1*
X8303Y11587D2*
X8906D1*
X10698D2*
X11189D1*
X12742D2*
X14709D1*
X18292D2*
X18424D1*
X19150D2*
X20859D1*
X21606D2*
X22087D1*
X8390Y11439D2*
X8470D1*
X10698D2*
X11189D1*
X12742D2*
X14709D1*
X15555D2*
X16066D1*
X18292D2*
X18574D1*
X19298D2*
X20955D1*
X21606D2*
X22087D1*
X10696Y11290D2*
X11189D1*
X12770D2*
X14709D1*
X15555D2*
X16216D1*
X18292D2*
X18721D1*
X19448D2*
X20955D1*
X21606D2*
X22087D1*
X10628Y11141D2*
X11217D1*
X12770D2*
X14709D1*
X15555D2*
X16364D1*
X18292D2*
X18869D1*
X19595D2*
X20955D1*
X21606D2*
X22087D1*
X5994Y10993D2*
X7021D1*
X10452D2*
X11217D1*
X12770D2*
X14709D1*
X15555D2*
X16514D1*
X18292D2*
X19019D1*
X19743D2*
X20955D1*
X21606D2*
X22087D1*
X5994Y10844D2*
X7021D1*
X10185D2*
X11217D1*
X12770D2*
X14709D1*
X15555D2*
X16661D1*
X18683D2*
X19167D1*
X19893D2*
X20955D1*
X21606D2*
X22087D1*
X5994Y10695D2*
X7021D1*
X10185D2*
X11217D1*
X12770D2*
X16809D1*
X18831D2*
X19317D1*
X20041D2*
X20955D1*
X21606D2*
X22087D1*
X5994Y10547D2*
X7021D1*
X10185D2*
X11217D1*
X12770D2*
X16959D1*
X18981D2*
X19464D1*
X20191D2*
X20955D1*
X21606D2*
X22087D1*
X8716Y10398D2*
X8825D1*
X10246D2*
X11948D1*
X12587D2*
X15904D1*
X16333D2*
X17107D1*
X19129D2*
X19614D1*
X20338D2*
X20955D1*
X21606D2*
X22087D1*
X7823Y10249D2*
X8193D1*
X8716D2*
X8845D1*
X12512D2*
X15789D1*
X16448D2*
X17257D1*
X17980D2*
X18370D1*
X19279D2*
X19762D1*
X20488D2*
X20955D1*
X21606D2*
X22087D1*
X8716Y10101D2*
X8825D1*
X12522D2*
X15768D1*
X16469D2*
X17404D1*
X18130D2*
X18518D1*
X19426D2*
X19910D1*
X20570D2*
X20955D1*
X21606D2*
X22087D1*
X8685Y9952D2*
X8880D1*
X12515D2*
X15818D1*
X16419D2*
X17554D1*
X18374D2*
X18665D1*
X19574D2*
X20050D1*
X20573D2*
X20955D1*
X21606D2*
X22087D1*
X8551Y9803D2*
X9128D1*
X12423D2*
X15857D1*
X16380D2*
X17702D1*
X18533D2*
X18815D1*
X19724D2*
X20050D1*
X20573D2*
X20955D1*
X21606D2*
X22087D1*
X4595Y9655D2*
X4800D1*
X7012D2*
X9297D1*
X14045D2*
X15857D1*
X16380D2*
X17852D1*
X18573D2*
X18963D1*
X19872D2*
X20050D1*
X20573D2*
X20955D1*
X21606D2*
X22087D1*
X4537Y9506D2*
X4659D1*
X7162D2*
X7307D1*
X7661D2*
X8625D1*
X14195D2*
X15857D1*
X16380D2*
X17903D1*
X18545D2*
X19113D1*
X20573D2*
X20955D1*
X21606D2*
X22087D1*
X7801Y9357D2*
X8625D1*
X14343D2*
X15857D1*
X16380D2*
X18035D1*
X18412D2*
X19261D1*
X20617D2*
X20955D1*
X21606D2*
X22087D1*
X7834Y9208D2*
X8625D1*
X10267D2*
X11325D1*
X12526D2*
X13767D1*
X14493D2*
X15857D1*
X16380D2*
X19411D1*
X20662D2*
X20861D1*
X21630D2*
X22087D1*
X5992Y9060D2*
X6712D1*
X8509D2*
X8625D1*
X10405D2*
X11336D1*
X12529D2*
X13917D1*
X14767D2*
X15857D1*
X16380D2*
X19558D1*
X21611D2*
X22087D1*
X5992Y8911D2*
X6712D1*
X8509D2*
X8625D1*
X10958D2*
X11156D1*
X12709D2*
X14064D1*
X14849D2*
X15857D1*
X16380D2*
X19706D1*
X21505D2*
X22087D1*
X5992Y8762D2*
X6712D1*
X8509D2*
X8807D1*
X12709D2*
X14165D1*
X14851D2*
X15857D1*
X16380D2*
X19856D1*
X21325D2*
X22087D1*
X5992Y8614D2*
X6712D1*
X8509D2*
X8861D1*
X12709D2*
X14236D1*
X14781D2*
X15857D1*
X16380D2*
X20003D1*
X21175D2*
X22087D1*
X5992Y8465D2*
X6712D1*
X8509D2*
X8880D1*
X12709D2*
X15857D1*
X16380D2*
X22087D1*
X5992Y8316D2*
X6712D1*
X8322D2*
X8826D1*
X12803D2*
X15857D1*
X16534D2*
X22087D1*
X4537Y8168D2*
X5292D1*
X5814D2*
X6691D1*
X8273D2*
X8845D1*
X11962D2*
X12227D1*
X14003D2*
X15857D1*
X16710D2*
X18011D1*
X20437D2*
X22087D1*
X5997Y8019D2*
X6628D1*
X14087D2*
X15126D1*
X16755D2*
X17864D1*
X20563D2*
X22087D1*
X14094Y7870D2*
X14978D1*
X16729D2*
X17763D1*
X20584D2*
X22087D1*
X14026Y7722D2*
X14828D1*
X16666D2*
X17756D1*
X18292D2*
X20064D1*
X20584D2*
X22087D1*
X12812Y7573D2*
X14681D1*
X16666D2*
X17756D1*
X18276D2*
X20064D1*
X20584D2*
X22087D1*
X12812Y7424D2*
X14533D1*
X15257D2*
X15347D1*
X16666D2*
X17756D1*
X18276D2*
X20064D1*
X20584D2*
X22087D1*
X10042Y7276D2*
X14383D1*
X15109D2*
X15356D1*
X16666D2*
X17756D1*
X18276D2*
X20064D1*
X20584D2*
X22087D1*
X7033Y7127D2*
X14236D1*
X14959D2*
X15356D1*
X15878D2*
X16143D1*
X16666D2*
X17746D1*
X18285D2*
X20064D1*
X20584D2*
X22087D1*
X4287Y6978D2*
X4389D1*
X7178D2*
X14086D1*
X14812D2*
X15356D1*
X15878D2*
X16143D1*
X16666D2*
X17671D1*
X18360D2*
X20064D1*
X20584D2*
X22087D1*
X4287Y6829D2*
X4537D1*
X7234D2*
X9440D1*
X14662D2*
X15356D1*
X15878D2*
X16143D1*
X16666D2*
X17674D1*
X18358D2*
X20064D1*
X20584D2*
X22087D1*
X4287Y6681D2*
X6712D1*
X7234D2*
X9278D1*
X14514D2*
X15356D1*
X15878D2*
X16143D1*
X16666D2*
X17753D1*
X18278D2*
X20064D1*
X20584D2*
X22087D1*
X4287Y6532D2*
X6712D1*
X7234D2*
X9182D1*
X14366D2*
X15356D1*
X15878D2*
X16143D1*
X16666D2*
X20064D1*
X20584D2*
X22087D1*
X4287Y6383D2*
X6712D1*
X7234D2*
X9175D1*
X14181D2*
X15356D1*
X15878D2*
X16143D1*
X16666D2*
X20064D1*
X20584D2*
X20911D1*
X21965D2*
X22087D1*
X4287Y6235D2*
X4926D1*
X5448D2*
X6712D1*
X7234D2*
X9175D1*
X13248D2*
X15356D1*
X15878D2*
X16143D1*
X16666D2*
X20064D1*
X20584D2*
X20700D1*
X4287Y6086D2*
X4579D1*
X5793D2*
X6712D1*
X7234D2*
X9175D1*
X13248D2*
X15356D1*
X15878D2*
X16143D1*
X16666D2*
X20064D1*
X4287Y5937D2*
X4401D1*
X5973D2*
X6712D1*
X7234D2*
X9175D1*
X13169D2*
X15356D1*
X15878D2*
X16143D1*
X16666D2*
X19413D1*
X19696D2*
X20064D1*
X6095Y5789D2*
X6712D1*
X7234D2*
X9175D1*
X10138D2*
X15356D1*
X15878D2*
X16143D1*
X16666D2*
X19246D1*
X6177Y5640D2*
X6712D1*
X7998D2*
X9119D1*
X10757D2*
X11118D1*
X11755D2*
X15356D1*
X15878D2*
X16143D1*
X16666D2*
X19204D1*
X6233Y5491D2*
X6712D1*
X7998D2*
X8969D1*
X10905D2*
X10968D1*
X11905D2*
X15356D1*
X15878D2*
X16143D1*
X16666D2*
X19232D1*
X6266Y5343D2*
X6712D1*
X7998D2*
X8899D1*
X15878D2*
X16143D1*
X16666D2*
X19361D1*
X19750D2*
X20350D1*
X6278Y5194D2*
X6712D1*
X7998D2*
X8878D1*
X16666D2*
X20374D1*
X6269Y5045D2*
X6712D1*
X7998D2*
X8896D1*
X16658D2*
X20421D1*
X6238Y4896D2*
X6712D1*
X7998D2*
X8960D1*
X16567D2*
X20491D1*
X6184Y4748D2*
X6712D1*
X7998D2*
X9098D1*
X16387D2*
X20596D1*
X6105Y4599D2*
X6712D1*
X10138D2*
X10661D1*
X12346D2*
X20746D1*
X4287Y4450D2*
X4387D1*
X5987D2*
X6747D1*
X10138D2*
X20993D1*
X21883D2*
X22087D1*
X4287Y4302D2*
X4561D1*
X5814D2*
X6888D1*
X10124D2*
X22087D1*
X16038Y13495D2*
X16869D1*
X16867Y13525D1*
X16247D1*
Y14181D1*
X15569D1*
X15593Y14144D1*
X15624Y14076D1*
X15645Y14004D1*
X15656Y13900D1*
X15650Y13825D1*
X15634Y13752D1*
X15607Y13682D1*
X15569Y13617D1*
X15523Y13558D1*
X15491Y13527D1*
X15548D1*
Y13496D1*
X16208Y13495D1*
Y13493D1*
X17800Y11775D2*
X18251D1*
X17801Y12225D1*
Y11775D1*
X18277Y11749D2*
Y10992D1*
X18392D1*
X18466Y10983D1*
X18536Y10956D1*
X18611Y10901D1*
X20065Y9447D1*
X20066Y9958D1*
X19290Y10737D1*
X18229Y11797D1*
X17398Y12330D2*
X17697D1*
X17432Y12594D1*
X17445Y12500D1*
X17437Y12426D1*
X17412Y12355D1*
X17396Y12329D1*
X13970Y12010D2*
X13154D1*
Y12416D1*
X13099Y12423D1*
X13028Y12447D1*
X12965Y12486D1*
X12911Y12539D1*
X12870Y12602D1*
X12845Y12672D1*
X12835Y12746D1*
X12842Y12821D1*
X12866Y12892D1*
X12904Y12956D1*
X12956Y13010D1*
X13019Y13051D1*
X13089Y13077D1*
X13156Y13086D1*
X13154Y13534D1*
X13227D1*
X13164Y13604D1*
X13125Y13668D1*
X13095Y13737D1*
X13077Y13810D1*
X13069Y13884D1*
X13072Y13959D1*
X13086Y14033D1*
X13111Y14103D1*
X13147Y14170D1*
X13191Y14230D1*
X13257Y14293D1*
X13183Y14368D1*
X13106Y14294D1*
X13045Y14251D1*
X12978Y14218D1*
X12906Y14195D1*
X12832Y14183D1*
X12758Y14182D1*
X12683Y14192D1*
X12611Y14212D1*
X12543Y14244D1*
X12480Y14285D1*
X12424Y14334D1*
X12376Y14392D1*
X12337Y14456D1*
X12308Y14525D1*
X12289Y14597D1*
X12281Y14672D1*
X12285Y14747D1*
X12299Y14820D1*
X12324Y14891D1*
X12359Y14957D1*
X12404Y15017D1*
X12457Y15070D1*
X12517Y15115D1*
X12583Y15150D1*
X12654Y15175D1*
X12727Y15190D1*
X12802Y15193D1*
X12877Y15185D1*
X12949Y15167D1*
X13018Y15138D1*
X13082Y15099D1*
X13140Y15051D1*
X13182Y15003D1*
X13244Y15070D1*
X13304Y15115D1*
X13370Y15150D1*
X13441Y15175D1*
X13515Y15190D1*
X13589Y15193D1*
X13657Y15186D1*
X13760Y15284D1*
X13762Y15295D1*
X10952D1*
X11072Y15175D1*
X11152Y15190D1*
X11227Y15193D1*
X11302Y15185D1*
X11374Y15167D1*
X11443Y15138D1*
X11507Y15099D1*
X11565Y15051D1*
X11615Y14995D1*
X11656Y14932D1*
X11687Y14864D1*
X11708Y14792D1*
X11719Y14687D1*
X11713Y14612D1*
X11697Y14539D1*
X11670Y14469D1*
X11632Y14404D1*
X11586Y14345D1*
X11532Y14294D1*
X11470Y14251D1*
X11403Y14218D1*
X11332Y14195D1*
X11258Y14183D1*
X11183Y14182D1*
X11108Y14192D1*
X11036Y14212D1*
X10968Y14244D1*
X10906Y14285D1*
X10850Y14334D1*
X10801Y14392D1*
X10762Y14456D1*
X10733Y14525D1*
X10714Y14597D1*
X10707Y14672D1*
X10710Y14747D1*
X10727Y14827D1*
X10430Y15121D1*
X9897D1*
X9990Y15051D1*
X10040Y14995D1*
X10081Y14932D1*
X10112Y14864D1*
X10133Y14792D1*
X10144Y14687D1*
X10138Y14612D1*
X10122Y14539D1*
X10095Y14469D1*
X10058Y14404D1*
X10011Y14345D1*
X9957Y14294D1*
X9895Y14251D1*
X9828Y14218D1*
X9757Y14195D1*
X9683Y14183D1*
X9608Y14182D1*
X9534Y14192D1*
X9462Y14212D1*
X9394Y14244D1*
X9331Y14285D1*
X9275Y14334D1*
X9227Y14392D1*
X9188Y14456D1*
X9158Y14525D1*
X9140Y14597D1*
X9132Y14672D1*
X9135Y14747D1*
X9152Y14827D1*
X8995Y14982D1*
X8476Y14981D1*
X8537Y14864D1*
X8558Y14792D1*
X8569Y14687D1*
X8564Y14612D1*
X8547Y14539D1*
X8520Y14469D1*
X8483Y14404D1*
X8437Y14345D1*
X8382Y14294D1*
X8320Y14251D1*
X8253Y14218D1*
X8182Y14195D1*
X8108Y14183D1*
X8033Y14182D1*
X7959Y14192D1*
X7887Y14212D1*
X7819Y14244D1*
X7756Y14285D1*
X7700Y14334D1*
X7652Y14392D1*
X7613Y14456D1*
X7584Y14525D1*
X7565Y14597D1*
X7557Y14672D1*
X7560Y14747D1*
X7575Y14820D1*
X7600Y14891D1*
X7653Y14981D1*
X7065D1*
X7068Y14637D1*
X7071Y14363D1*
X7142Y14388D1*
X7215Y14402D1*
X7290Y14406D1*
X7365Y14398D1*
X7437Y14379D1*
X7506Y14350D1*
X7570Y14311D1*
X7628Y14263D1*
X7678Y14207D1*
X7719Y14144D1*
X7750Y14076D1*
X7771Y14004D1*
X7782Y13900D1*
X7776Y13825D1*
X7760Y13752D1*
X7733Y13682D1*
X7695Y13617D1*
X7649Y13558D1*
X7595Y13507D1*
X7533Y13464D1*
X7466Y13431D1*
X7395Y13408D1*
X7321Y13395D1*
X7246Y13394D1*
X7171Y13404D1*
X7068Y13440D1*
Y13407D1*
X7114Y13378D1*
X7169Y13326D1*
X7210Y13264D1*
X7230Y13214D1*
X7298Y13216D1*
X7933D1*
Y12639D1*
X8049Y12527D1*
X8130Y12482D1*
X8184Y12430D1*
X8226Y12368D1*
X8252Y12298D1*
X8263Y12213D1*
X8255Y12139D1*
X8230Y12068D1*
X8191Y12005D1*
X8173Y11987D1*
Y11705D1*
X8307Y11569D1*
X8351Y11509D1*
X8378Y11418D1*
X8379Y11351D1*
X8421Y11393D1*
X8481Y11437D1*
X8572Y11464D1*
X8920Y11467D1*
Y11952D1*
X9233D1*
X9209Y12009D1*
X8404Y12010D1*
Y13534D1*
X8500D1*
X8439Y13604D1*
X8400Y13668D1*
X8371Y13737D1*
X8352Y13810D1*
X8344Y13884D1*
X8348Y13959D1*
X8362Y14033D1*
X8387Y14103D1*
X8422Y14170D1*
X8467Y14230D1*
X8520Y14283D1*
X8580Y14327D1*
X8646Y14363D1*
X8717Y14388D1*
X8790Y14402D1*
X8865Y14406D1*
X8940Y14398D1*
X9012Y14379D1*
X9081Y14350D1*
X9145Y14311D1*
X9203Y14263D1*
X9252Y14207D1*
X9293Y14144D1*
X9325Y14076D1*
X9346Y14004D1*
X9357Y13900D1*
X9351Y13825D1*
X9335Y13752D1*
X9307Y13682D1*
X9270Y13617D1*
X9209Y13544D1*
X9933Y13543D1*
Y12243D1*
X10011Y12239D1*
X10029Y12235D1*
X10032Y12864D1*
X10029Y12829D1*
Y13534D1*
X10074D1*
X10014Y13604D1*
X9975Y13668D1*
X9946Y13737D1*
X9927Y13810D1*
X9919Y13884D1*
X9923Y13959D1*
X9937Y14033D1*
X9962Y14103D1*
X9997Y14170D1*
X10042Y14230D1*
X10094Y14283D1*
X10155Y14327D1*
X10221Y14363D1*
X10291Y14388D1*
X10365Y14402D1*
X10440Y14406D1*
X10514Y14398D1*
X10587Y14379D1*
X10656Y14350D1*
X10720Y14311D1*
X10777Y14263D1*
X10827Y14207D1*
X10868Y14144D1*
X10900Y14076D1*
X10920Y14004D1*
X10931Y13900D1*
X10926Y13825D1*
X10909Y13752D1*
X10882Y13682D1*
X10845Y13617D1*
X10773Y13534D1*
X10845D1*
X10842Y12679D1*
X10845Y12714D1*
Y12010D1*
X10683D1*
Y11313D1*
X10672Y11239D1*
X10626Y11156D1*
X10517Y11045D1*
X10457Y11001D1*
X10366Y10974D1*
X10172Y10973D1*
X10171Y10510D1*
X9920D1*
X9922Y10409D1*
X9984Y10431D1*
X10058Y10441D1*
X10133Y10435D1*
X10204Y10412D1*
X10269Y10374D1*
X10318Y10327D1*
X10947Y10325D1*
X10912Y10327D1*
X11617D1*
Y10255D1*
X11699Y10287D1*
X11817Y10290D1*
X11932D1*
X11948Y10368D1*
X12002Y10448D1*
X12033Y10480D1*
X11232Y10481D1*
Y11150D1*
X11202D1*
Y11966D1*
X12057Y11964D1*
X12067Y11966D1*
X12727D1*
Y11296D1*
X12756D1*
Y10481D1*
X12576D1*
X12575Y10428D1*
X12564Y10354D1*
X12518Y10270D1*
X12465Y10216D1*
X12501Y10129D1*
X12512Y10044D1*
X12503Y9970D1*
X12479Y9899D1*
X12439Y9836D1*
X12377Y9777D1*
X13807D1*
X13881Y9766D1*
X13964Y9720D1*
X14519Y9167D1*
X14575Y9159D1*
X14646Y9136D1*
X14711Y9098D1*
X14765Y9047D1*
X14807Y8984D1*
X14833Y8915D1*
X14844Y8830D1*
X14836Y8755D1*
X14811Y8685D1*
X14772Y8621D1*
X14719Y8568D1*
X14656Y8528D1*
X14585Y8503D1*
X14511Y8494D1*
X14437Y8502D1*
X14366Y8526D1*
X14302Y8565D1*
X14248Y8617D1*
X14208Y8680D1*
X14182Y8750D1*
X14173Y8818D1*
X13706Y9284D1*
X12497Y9285D1*
X12512Y9189D1*
X12509Y9138D1*
X12513Y9039D1*
X12695Y9038D1*
Y8412D1*
X12930Y8175D1*
X13523Y8177D1*
X13597Y8231D1*
X13667Y8257D1*
X13741Y8267D1*
X13816Y8260D1*
X13887Y8237D1*
X13952Y8199D1*
X14006Y8148D1*
X14048Y8086D1*
X14074Y8016D1*
X14085Y7931D1*
X14077Y7857D1*
X14052Y7786D1*
X14013Y7723D1*
X13960Y7669D1*
X13897Y7629D1*
X13826Y7604D1*
X13752Y7595D1*
X13678Y7603D1*
X13607Y7627D1*
X13543Y7666D1*
X13524Y7684D1*
X12804Y7687D1*
X12797Y7660D1*
Y7279D1*
X11273D1*
Y7291D1*
X10853Y7289D1*
X10598Y7291D1*
X10588Y7289D1*
X10026D1*
Y7270D1*
X9171Y7273D1*
X9162Y7270D1*
X7328D1*
X7327Y7190D1*
X6953D1*
X7148Y6996D1*
X7192Y6936D1*
X7219Y6845D1*
X7220Y5732D1*
X7983Y5733D1*
Y4641D1*
X7258D1*
X7323Y4624D1*
X9632D1*
X9616Y4672D1*
X9543Y4652D1*
X9469Y4642D1*
X9394Y4643D1*
X9320Y4654D1*
X9248Y4675D1*
X9180Y4706D1*
X9116Y4746D1*
X9059Y4794D1*
X9008Y4849D1*
X8966Y4911D1*
X8933Y4979D1*
X8909Y5050D1*
X8895Y5123D1*
X8892Y5198D1*
X8898Y5273D1*
X8915Y5346D1*
X8942Y5416D1*
X8978Y5481D1*
X9022Y5542D1*
X9075Y5595D1*
X9134Y5641D1*
X9193Y5675D1*
X9191Y6012D1*
Y6476D1*
X9202Y6550D1*
X9248Y6634D1*
X9403Y6790D1*
X9463Y6834D1*
X9554Y6861D1*
X11827Y6862D1*
X13986D1*
X15169Y8046D1*
X15230Y8091D1*
X15321Y8117D1*
X15871Y8119D1*
X15873Y8787D1*
Y9900D1*
X15818Y9978D1*
X15792Y10048D1*
X15783Y10122D1*
X15790Y10197D1*
X15813Y10268D1*
X15852Y10332D1*
X15904Y10386D1*
X15966Y10427D1*
X16036Y10453D1*
X16110Y10463D1*
X16185Y10457D1*
X16256Y10434D1*
X16321Y10396D1*
X16375Y10344D1*
X16417Y10282D1*
X16444Y10212D1*
X16454Y10128D1*
X16446Y10053D1*
X16421Y9983D1*
X16382Y9919D1*
X16364Y9901D1*
Y8335D1*
X16471Y8330D1*
X16542Y8307D1*
X16607Y8269D1*
X16661Y8218D1*
X16703Y8156D1*
X16729Y8086D1*
X16740Y8001D1*
X16732Y7927D1*
X16707Y7856D1*
X16668Y7792D1*
X16650Y7774D1*
Y5097D1*
X16639Y5024D1*
X16594Y4940D1*
X16458Y4804D1*
X16398Y4759D1*
X16307Y4733D1*
X14035Y4732D1*
X12462D1*
X12305Y4573D1*
X12245Y4529D1*
X12154Y4502D1*
X10877Y4501D1*
X10803Y4513D1*
X10719Y4558D1*
X10608Y4668D1*
X10543Y4652D1*
X10469Y4642D1*
X10394Y4643D1*
X10320Y4654D1*
X10248Y4675D1*
X10180Y4706D1*
X10122Y4742D1*
X10123Y4378D1*
X10114Y4315D1*
X10122Y4272D1*
X22102D1*
X22101Y4590D1*
X21977Y4506D1*
X21842Y4440D1*
X21700Y4393D1*
X21552Y4367D1*
X21403Y4361D1*
X21254Y4376D1*
X21108Y4412D1*
X20969Y4468D1*
X20839Y4542D1*
X20720Y4634D1*
X20616Y4741D1*
X20527Y4862D1*
X20456Y4994D1*
X20404Y5135D1*
X20372Y5281D1*
X20361Y5431D1*
X20359Y5452D1*
X20298Y5408D1*
X20207Y5381D1*
X19784Y5380D1*
X19703Y5324D1*
X19632Y5299D1*
X19558Y5290D1*
X19483Y5298D1*
X19413Y5322D1*
X19349Y5361D1*
X19295Y5414D1*
X19255Y5476D1*
X19229Y5547D1*
X19219Y5621D1*
X19227Y5695D1*
X19250Y5767D1*
X19289Y5831D1*
X19340Y5885D1*
X19403Y5926D1*
X19473Y5952D1*
X19547Y5962D1*
X19622Y5956D1*
X19693Y5933D1*
X19757Y5895D1*
X19780Y5874D1*
X20078Y5872D1*
X20079Y7812D1*
X18685Y7811D1*
X18364D1*
X18260Y7706D1*
X18261Y7136D1*
X18314Y7063D1*
X18341Y6993D1*
X18351Y6908D1*
X18343Y6834D1*
X18318Y6763D1*
X18279Y6700D1*
X18226Y6647D1*
X18163Y6606D1*
X18092Y6581D1*
X18018Y6572D1*
X17944Y6580D1*
X17873Y6604D1*
X17809Y6643D1*
X17755Y6696D1*
X17715Y6758D1*
X17689Y6829D1*
X17680Y6903D1*
X17687Y6977D1*
X17710Y7048D1*
X17749Y7113D1*
X17770Y7134D1*
Y7809D1*
X17781Y7883D1*
X17826Y7966D1*
X18090Y8231D1*
X18150Y8275D1*
X18241Y8302D1*
X20185Y8303D1*
X20258Y8292D1*
X20342Y8246D1*
X20499Y8091D1*
X20543Y8031D1*
X20569Y7940D1*
X20571Y6077D1*
X20657Y6179D1*
X20768Y6280D1*
X20892Y6365D1*
X21026Y6432D1*
X21168Y6479D1*
X21315Y6506D1*
X21465Y6513D1*
X21614Y6499D1*
X21760Y6464D1*
X21899Y6409D1*
X22030Y6335D1*
X22104Y6281D1*
X22102Y6672D1*
X22100Y14118D1*
X22012Y13996D1*
X21908Y13888D1*
X21791Y13796D1*
X21661Y13721D1*
X21522Y13664D1*
X21377Y13628D1*
X21228Y13611D1*
X21078Y13616D1*
X20930Y13642D1*
X20787Y13688D1*
X20653Y13753D1*
X20528Y13836D1*
X20416Y13936D1*
X20319Y14050D1*
X20239Y14177D1*
X20178Y14314D1*
X20135Y14457D1*
X20114Y14606D1*
X20113Y14756D1*
X20133Y14904D1*
X20173Y15049D1*
X20233Y15186D1*
X20312Y15313D1*
X20407Y15429D1*
X20518Y15530D1*
X20620Y15601D1*
X17827Y15602D1*
X15172D1*
X15324Y15452D1*
X15368Y15392D1*
X15394Y15301D1*
X15396Y15131D1*
X15431Y15156D1*
Y15193D1*
X16443D1*
Y15050D1*
X17062D1*
Y14817D1*
X17464Y14816D1*
X17465Y14997D1*
X18095D1*
X18160Y15055D1*
X18223Y15095D1*
X18292Y15125D1*
X18365Y15142D1*
X18440Y15148D1*
X18515Y15141D1*
X18587Y15123D1*
X18656Y15093D1*
X18719Y15052D1*
X18774Y15001D1*
X18826Y14932D1*
X18883Y14933D1*
X18957Y14922D1*
X19041Y14876D1*
X19215Y14703D1*
X19704Y14702D1*
X19701Y13847D1*
X19704Y13883D1*
Y13637D1*
X21501Y11840D1*
X21547Y11781D1*
X21578Y11713D1*
X21592Y11620D1*
Y9302D1*
X21606Y9259D1*
X21617Y9175D1*
X21609Y9100D1*
X21584Y9029D1*
X21545Y8966D1*
X21492Y8913D1*
X21413Y8867D1*
X21131Y8585D1*
X21072Y8539D1*
X21004Y8508D1*
X20911Y8494D1*
X20268D1*
X20194Y8503D1*
X20124Y8529D1*
X20048Y8585D1*
X18263Y10370D1*
X17845D1*
X18235Y9981D1*
X18290Y9974D1*
X18361Y9951D1*
X18426Y9913D1*
X18480Y9861D1*
X18522Y9799D1*
X18548Y9729D1*
X18559Y9645D1*
X18551Y9570D1*
X18526Y9500D1*
X18487Y9436D1*
X18434Y9383D1*
X18371Y9343D1*
X18300Y9318D1*
X18226Y9309D1*
X18152Y9317D1*
X18081Y9341D1*
X18017Y9380D1*
X17963Y9432D1*
X17923Y9495D1*
X17897Y9565D1*
X17888Y9632D1*
X15966Y11554D1*
X15540Y11553D1*
X15538Y11374D1*
X15540Y11364D1*
Y10704D1*
X14725D1*
Y12228D1*
X14732D1*
X14733Y12858D1*
Y13176D1*
X14595Y13312D1*
X14592Y12679D1*
X14595Y12669D1*
Y12010D1*
X13779D1*
X18280Y14254D2*
Y13473D1*
X18225D1*
X18243Y13443D1*
X18270Y13373D1*
X18281Y13289D1*
X18272Y13214D1*
X18248Y13144D1*
X18208Y13080D1*
X18155Y13027D1*
X18092Y12987D1*
X18022Y12962D1*
X17947Y12953D1*
X17873Y12960D1*
X17802Y12985D1*
X17738Y13024D1*
X17716Y13045D1*
X17677Y13055D1*
X17678Y13044D1*
X20486Y10236D1*
X20530Y10176D1*
X20557Y10085D1*
X20558Y9417D1*
X20610Y9342D1*
X20637Y9272D1*
X20648Y9187D1*
X20643Y9115D1*
X20781D1*
X20972Y9304D1*
X20971Y10900D1*
Y11493D1*
X19683Y12779D1*
X19283Y13178D1*
X18888D1*
X18890Y14033D1*
X18888Y13997D1*
Y14337D1*
X18809Y14414D1*
X18754Y14352D1*
X18695Y14305D1*
X18630Y14268D1*
X18560Y14243D1*
X18486Y14229D1*
X18411Y14227D1*
X18337Y14237D1*
X18281Y14254D1*
X18278Y14142D1*
X14185Y13534D2*
X14518D1*
X14517Y14207D1*
X14481Y14195D1*
X14407Y14183D1*
X14332Y14182D1*
X14284Y14188D1*
X14183Y14085D1*
Y13533D1*
X12470Y12864D2*
Y12010D1*
X11654D1*
Y13531D1*
X11589Y13604D1*
X11550Y13668D1*
X11521Y13737D1*
X11502Y13810D1*
X11494Y13884D1*
X11497Y13959D1*
X11512Y14033D1*
X11537Y14103D1*
X11572Y14170D1*
X11616Y14230D1*
X11669Y14283D1*
X11729Y14327D1*
X11796Y14363D1*
X11866Y14388D1*
X11940Y14402D1*
X12015Y14406D1*
X12089Y14398D1*
X12162Y14379D1*
X12231Y14350D1*
X12295Y14311D1*
X12352Y14263D1*
X12402Y14207D1*
X12443Y14144D1*
X12474Y14076D1*
X12495Y14004D1*
X12506Y13900D1*
X12501Y13825D1*
X12484Y13752D1*
X12457Y13682D1*
X12420Y13617D1*
X12348Y13534D1*
X12470D1*
X12467Y12679D1*
X7118Y12666D2*
Y12843D1*
X7059Y12808D1*
X6989Y12782D1*
X6915Y12773D1*
X6840Y12781D1*
X6769Y12805D1*
X6706Y12844D1*
X6652Y12897D1*
X6611Y12960D1*
X6586Y13030D1*
X6576Y13104D1*
X6581Y13153D1*
X6577Y13180D1*
X6517Y13029D1*
X6477Y12965D1*
X6424Y12912D1*
X6394Y12890D1*
Y11871D1*
X6970D1*
X6971Y12441D1*
X6982Y12515D1*
X7015Y12582D1*
X7058Y12629D1*
X7060Y12630D1*
X8231Y8086D2*
X8902D1*
X8875Y8130D1*
X8850Y8200D1*
X8840Y8275D1*
X8847Y8349D1*
X8871Y8420D1*
X8909Y8484D1*
X8930Y8506D1*
X8927Y8560D1*
X8893Y8594D1*
X8849Y8655D1*
X8822Y8746D1*
X8820Y8822D1*
X8640D1*
Y9637D1*
X9330D1*
X9162Y9803D1*
X9104Y9809D1*
X9033Y9833D1*
X8969Y9872D1*
X8916Y9925D1*
X8875Y9988D1*
X8850Y10058D1*
X8840Y10132D1*
X8847Y10207D1*
X8871Y10278D1*
X8886Y10311D1*
X8847Y10374D1*
X8828Y10469D1*
X8832Y10429D1*
X8826Y10510D1*
X8702D1*
X8701Y10070D1*
X8689Y9996D1*
X8644Y9913D1*
X8483Y9751D1*
X8423Y9707D1*
X8332Y9680D1*
X6971Y9679D1*
X7147Y9505D1*
X7200Y9426D1*
X7217Y9416D1*
X7269Y9469D1*
X7332Y9511D1*
X7402Y9537D1*
X7476Y9547D1*
X7550Y9540D1*
X7622Y9518D1*
X7686Y9479D1*
X7740Y9428D1*
X7782Y9366D1*
X7809Y9296D1*
X7820Y9211D1*
X7812Y9139D1*
X7865Y9141D1*
X8495D1*
Y8325D1*
X8310D1*
X8302Y8295D1*
X8267Y8226D1*
X8256Y8156D1*
X8232Y8087D1*
X10121Y5631D2*
X10199Y5678D1*
X10269Y5706D1*
X10342Y5724D1*
X10416Y5732D1*
X10491Y5730D1*
X10565Y5717D1*
X10636Y5695D1*
X10704Y5663D1*
X10767Y5622D1*
X10823Y5572D1*
X10872Y5516D1*
X10913Y5453D1*
X10936Y5404D1*
X10978Y5481D1*
X11022Y5542D1*
X11075Y5595D1*
X11134Y5641D1*
X11199Y5678D1*
X11269Y5706D1*
X11342Y5724D1*
X11416Y5732D1*
X11491Y5730D1*
X11565Y5717D1*
X11636Y5695D1*
X11704Y5663D1*
X11767Y5622D1*
X11823Y5572D1*
X11872Y5516D1*
X11922Y5434D1*
X14662Y5433D1*
X15372D1*
X15371Y6377D1*
Y7415D1*
X15315Y7495D1*
X14563Y6744D1*
X14261Y6442D1*
X14201Y6398D1*
X14110Y6371D1*
X13171Y6370D1*
X13204Y6317D1*
X13231Y6247D1*
X13242Y6163D1*
X13233Y6088D1*
X13209Y6018D1*
X13169Y5954D1*
X13116Y5901D1*
X13053Y5861D1*
X12983Y5836D1*
X12908Y5827D1*
X12834Y5834D1*
X12763Y5859D1*
X12699Y5898D1*
X12681Y5916D1*
X10124Y5917D1*
X10123Y5631D1*
X7891Y10374D2*
X7744Y10372D1*
X7782Y10314D1*
X7809Y10244D1*
X7820Y10170D1*
X8208Y10171D1*
X8209Y10372D1*
X7810D1*
X7036Y10417D2*
Y11054D1*
X6166Y11056D1*
X6131Y11035D1*
X6061Y11010D1*
X5978Y11001D1*
Y10404D1*
X6484Y10406D1*
X6589D1*
X6667Y10459D1*
X6737Y10485D1*
X6811Y10496D1*
X6886Y10489D1*
X6957Y10466D1*
X7037Y10414D1*
X5578Y12335D2*
Y13178D1*
X5492Y13144D1*
X4748Y12400D1*
Y11881D1*
X4977Y11882D1*
X5143D1*
X5147Y11916D1*
X5171Y11987D1*
X5209Y12051D1*
X5261Y12105D1*
X5324Y12146D1*
X5394Y12172D1*
X5468Y12183D1*
X5543Y12176D1*
X5580Y12164D1*
X5578Y12416D1*
X5580Y12521D1*
X4521Y8066D2*
X5309D1*
X5307Y8301D1*
X5153Y8299D1*
X5123Y8301D1*
X5159Y8299D1*
X4519D1*
X4521Y8064D1*
X5801Y8066D2*
X5983D1*
Y8005D1*
X6639D1*
X6668Y8103D1*
X6706Y8167D1*
X6727Y8189D1*
Y9104D1*
X6089Y9105D1*
X5977D1*
X5978Y8299D1*
X5798D1*
X5800Y8063D1*
X12025Y8224D2*
X11948Y8222D1*
Y8095D1*
X12128Y8092D1*
X12137Y8095D1*
X12315D1*
X12187Y8223D1*
X11947Y8222D1*
X11171Y8689D2*
Y9038D1*
X11351D1*
X11350Y9109D1*
X11340Y9184D1*
X11347Y9258D1*
X11357Y9287D1*
X10657Y9285D1*
X10176D1*
X10351Y9110D1*
X10396Y9047D1*
X10366Y9093D1*
X10400Y9036D1*
X10944D1*
Y8865D1*
X10959Y8863D1*
X11042Y8817D1*
X11170Y8691D1*
X6191Y14300D2*
X6138Y14183D1*
X6059Y14055D1*
X5962Y13940D1*
X5851Y13840D1*
X5727Y13756D1*
X5592Y13690D1*
X5537Y13670D1*
X6078D1*
X6190Y13782D1*
X6191Y14298D1*
X5267Y13614D2*
X5153Y13611D1*
X5004Y13626D1*
X4858Y13662D1*
X4719Y13718D1*
X4589Y13792D1*
X4470Y13884D1*
X4366Y13991D1*
X4271Y14122D1*
X4272Y12590D1*
X4313Y12659D1*
X5252Y13599D1*
X5267Y13613D1*
X4272Y15253D2*
X4358Y15373D1*
X4461Y15481D1*
X4578Y15575D1*
X4620Y15601D1*
X4272Y15602D1*
Y15253D1*
X5754Y15601D2*
X5841Y15542D1*
X5953Y15443D1*
X6051Y15329D1*
X6132Y15203D1*
X6192Y15073D1*
X6191Y15187D1*
X6202Y15261D1*
X6248Y15344D1*
X6502Y15602D1*
X5754D1*
X21754Y15601D2*
X21841Y15542D1*
X21953Y15443D1*
X22051Y15329D1*
X22102Y15253D1*
Y15602D1*
X21753D1*
X6261Y5112D2*
X6240Y4964D1*
X6199Y4820D1*
X6138Y4683D1*
X6059Y4555D1*
X5962Y4440D1*
X5851Y4340D1*
X5753Y4272D1*
X6932D1*
X6800Y4404D1*
X6756Y4464D1*
X6729Y4555D1*
X6728Y6722D1*
X6692Y6756D1*
X5670Y6755D1*
X4729D1*
X4655Y6766D1*
X4572Y6811D1*
X4272Y7110D1*
Y5751D1*
X4358Y5873D1*
X4461Y5981D1*
X4578Y6075D1*
X4707Y6151D1*
X4846Y6208D1*
X4991Y6245D1*
X5140Y6262D1*
X5290Y6258D1*
X5438Y6234D1*
X5581Y6189D1*
X5716Y6124D1*
X5841Y6042D1*
X5953Y5943D1*
X6051Y5829D1*
X6132Y5703D1*
X6194Y5566D1*
X6237Y5423D1*
X6260Y5275D1*
X6261Y5112D1*
X4623Y4271D2*
X4528Y4336D1*
X4416Y4436D1*
X4319Y4550D1*
X4271Y4622D1*
X4272Y4272D1*
X4621D1*
X4521Y9360D2*
X4593Y9354D1*
X4635Y9340D1*
X4647Y9447D1*
X4692Y9530D1*
X4840Y9680D1*
X4604Y9679D1*
X4522Y9597D1*
X4521Y9358D1*
X21592Y9296D2*
X21606Y9259D1*
X21617Y9175D1*
X21609Y9100D1*
X21584Y9029D1*
X21545Y8966D1*
X21492Y8913D1*
X21413Y8867D1*
X16160Y7213D2*
X16125Y7209D1*
X16050Y7216D1*
X15979Y7241D1*
X15916Y7280D1*
X15894Y7301D1*
X15862Y7268D1*
Y5327D1*
X15844Y5234D1*
X15887Y5223D1*
X16161D1*
X16158Y5472D1*
Y7209D1*
X16450Y13495D2*
D20*
Y13087D1*
X17849Y11775D2*
Y11367D1*
X18276D1*
X17373Y12329D2*
Y11922D1*
X17800D1*
X13562Y12437D2*
Y12010D1*
X13155Y12437D2*
X13562D1*
X17872Y13901D2*
X18280D1*
X14187Y12437D2*
Y12010D1*
Y12437D2*
X14594D1*
X12062D2*
Y12010D1*
X11655Y12437D2*
X12469D1*
X8812D2*
Y12010D1*
X8405Y12437D2*
X8812D1*
X16655Y13953D2*
Y13526D1*
X16247Y13953D2*
X16655D1*
X7525Y13216D2*
Y12789D1*
X7118D2*
X7933D1*
X8177Y8086D2*
Y7271D1*
X15133Y11132D2*
Y10705D1*
X14725Y11132D2*
X15540D1*
X5578Y12762D2*
X6393D1*
X4880Y11882D2*
Y11475D1*
X4886Y8065D2*
Y7658D1*
X6231Y8005D2*
Y7598D1*
X12299Y11966D2*
Y11558D1*
X12726D1*
X9525Y13542D2*
Y13115D1*
X9933D1*
X8929Y8086D2*
Y7271D1*
X12370Y8095D2*
Y7280D1*
Y7687D2*
X12797D1*
X8921Y11545D2*
X9348D1*
X10356Y7697D2*
Y7289D1*
D21*
X16479Y12516D3*
X15810D3*
X16450Y13087D3*
X15781D3*
X17849Y11367D3*
X17180D3*
X17373Y11922D3*
X16704D3*
D22*
X5986Y12762D3*
Y12093D3*
D21*
X6231Y7598D3*
X6900D3*
X9348Y11545D3*
X10017D3*
X10356Y7697D3*
X11025D3*
D22*
X13562Y12437D3*
Y13106D3*
X17872Y13901D3*
Y14570D3*
X14187Y12437D3*
Y13106D3*
X12062Y12437D3*
Y13106D3*
X8812Y12437D3*
Y13106D3*
X16655Y13953D3*
Y14622D3*
D25*
X18437Y14687D3*
D26*
Y13687D3*
D30*
X15937Y14687D3*
D31*
X15150D3*
X14362D3*
X13575D3*
X12787D3*
X12000D3*
X11213D3*
X10425D3*
X9638D3*
X8850D3*
X8063D3*
X7276D3*
Y13900D3*
X8063D3*
X8850D3*
X9638D3*
X10425D3*
X11213D3*
X12000D3*
X12787D3*
X13575D3*
X14362D3*
X15150D3*
X15937D3*
D32*
X7437Y5187D3*
D33*
X8437D3*
X9437D3*
X10437D3*
X11437D3*
D22*
X19296Y14275D3*
Y13605D3*
X10437Y12437D3*
Y13106D3*
X7525Y12789D3*
Y12119D3*
D21*
X9743Y10917D3*
X9074D3*
X11660Y10889D3*
X12329D3*
X8177Y7678D3*
X7508D3*
X7464Y10780D3*
X8133D3*
X7217Y11463D3*
X6547D3*
X4880Y11475D3*
X5549D3*
X5551Y10668D3*
X4882D3*
X4886Y7658D3*
X5556D3*
X5551Y8707D3*
X4882D3*
X5847Y9513D3*
X6516D3*
X7398Y8733D3*
X8067D3*
X9736Y9229D3*
X9067D3*
X11598Y8630D3*
X12267D3*
X12299Y11558D3*
X11630D3*
D22*
X9525Y13115D3*
Y12446D3*
D21*
X8929Y7678D3*
X9599D3*
X12370Y7687D3*
X11700D3*
X11189Y9919D3*
X10520D3*
X9847Y8628D3*
X10516D3*
D22*
X15141Y12430D3*
Y13099D3*
X15133Y11132D3*
Y11801D3*
M02*
