M48
INCH
T01C0.015
T02C0.028
T03C0.0354
T04C0.0433
T05C0.116
%
T01
X+020315Y+009190
X+021284Y+009178
X+018226Y+009648
X+017833Y+012003
X+015877Y+012041
X+014190Y+012229
X+011633Y+011561
X+012179Y+010047
X+012179Y+009192
X+011679Y+009192
X+011028Y+007700
X+010679Y+007134
X+009179Y+008283
X+009739Y+009232
X+009679Y+010140
X+009179Y+010140
X+010179Y+010729
X+010020Y+011548
X+009528Y+012449
X+007930Y+011871
X+006915Y+013112
X+006217Y+013177
X+005987Y+011340
X+005552Y+011375
X+004987Y+010163
X+005439Y+009214
X+004530Y+009027
X+006415Y+008037
X+006903Y+007601
X+007931Y+008233
X+007487Y+009214
X+007487Y+010163
X+006822Y+010163
X+012909Y+006166
X+015194Y+005938
X+015194Y+007186
X+015620Y+007646
X+016108Y+007876
X+016407Y+008004
X+017836Y+006875
X+018482Y+007267
X+018710Y+006552
X+019558Y+005629
X+020002Y+005859
X+019194Y+004694
X+017101Y+005003
X+015602Y+004750
X+014081Y+008299
X+014511Y+008833
T02
X+018440Y+014690
X+018440Y+013690
T03
X+015940Y+014690
X+015153Y+014690
X+014365Y+014690
X+013578Y+014690
X+012790Y+014690
X+012003Y+014690
X+011216Y+014690
X+010428Y+014690
X+009641Y+014690
X+008853Y+014690
X+008066Y+014690
X+007279Y+014690
X+007279Y+013903
X+008066Y+013903
X+008853Y+013903
X+009641Y+013903
X+010428Y+013903
X+011216Y+013903
X+012003Y+013903
X+012790Y+013903
X+013578Y+013903
X+014365Y+013903
X+015153Y+013903
X+015940Y+013903
T04
X+007440Y+005190
X+008440Y+005190
X+009440Y+005190
X+010440Y+005190
X+011440Y+005190
T05
X+005190Y+014690
X+005190Y+005190
X+021440Y+005440
X+021190Y+014690
T00
M30
