G04 DipTrace 2.4.0.2*
%INTop.gbr*%
%MOIN*%
%ADD14C,0.007*%
%ADD16C,0.02*%
%ADD17C,0.014*%
%ADD18C,0.01*%
%ADD19C,0.015*%
%ADD20C,0.013*%
%ADD21R,0.0433X0.0394*%
%ADD22R,0.0394X0.0433*%
%ADD23R,0.063X0.0709*%
%ADD24R,0.0709X0.063*%
%ADD25C,0.05*%
%ADD26R,0.05X0.05*%
%ADD27R,0.0591X0.0591*%
%ADD28C,0.0591*%
%ADD29R,0.0669X0.0669*%
%ADD30C,0.0669*%
%ADD32R,0.0413X0.0256*%
%ADD33C,0.0472*%
%ADD35R,0.0394X0.1083*%
%ADD36R,0.2185X0.2421*%
%ADD38O,0.0118X0.0335*%
%ADD39O,0.0335X0.0118*%
%ADD40R,0.0965X0.0965*%
%ADD41R,0.0236X0.0787*%
%ADD42C,0.025*%
%FSLAX44Y44*%
G04*
G70*
G90*
G75*
G01*
%LNTop*%
%LPD*%
X17393Y12562D2*
D14*
X17437D1*
Y12875D1*
X16937Y13375D1*
X15675D1*
X15150Y13900D1*
X18937Y10937D2*
Y11687D1*
X18625Y12000D1*
X18062Y12562D1*
X18365Y10356D2*
Y10365D1*
X18937Y10937D1*
X18500Y12000D2*
X18625D1*
X14187Y5187D2*
X14768D1*
X14893Y5312D1*
X17697Y5341D2*
X17427D1*
X17098Y5669D1*
X4527Y9024D2*
X4984D1*
Y8622D1*
X4982Y7675D1*
X9676Y10137D2*
Y10726D1*
Y12295D1*
X9525Y12446D1*
X16361Y12361D2*
Y12870D1*
X16231Y13000D1*
X18479Y7934D2*
Y7960D1*
X17920Y8519D1*
X12906Y6163D2*
Y5561D1*
X13281D1*
X12906Y6163D2*
D3*
X15562Y5312D2*
Y6687D1*
X15875Y7000D1*
Y8311D1*
X18142Y10579D1*
Y10580D1*
X18500Y10937D1*
Y11312D1*
X18562Y11375D1*
X19193Y5144D2*
X19881D1*
X19962Y5225D1*
X18142Y8742D2*
Y8720D1*
X18452Y8410D1*
X18663D1*
X18849Y8224D1*
Y7002D1*
X18719Y6872D1*
X17708D1*
X17644Y6935D1*
X19555Y5626D2*
X19538D1*
X19430Y5734D1*
X19193D1*
X17644Y6935D2*
X17833Y6872D1*
X19455Y6642D2*
Y6193D1*
X19193Y5931D1*
X19455Y6642D2*
Y6806D1*
X19075Y7186D1*
Y8255D1*
X18365Y8964D1*
X18223Y9645D2*
Y9551D1*
X18588Y9187D1*
Y9338D1*
X18937Y9687D1*
X16105Y7873D2*
Y7713D1*
X16432Y7385D1*
X16285D1*
Y7533D1*
X16635Y7183D1*
X16583D1*
X16285Y7533D2*
Y7543D1*
X7927Y11868D2*
Y11304D1*
X7984Y11247D1*
Y10748D1*
X7927Y11868D2*
D3*
X6900Y7598D2*
X6984Y7682D1*
Y8622D1*
X10017Y11545D2*
X10176Y11386D1*
Y10726D1*
X12176Y9189D2*
Y8600D1*
X12105D1*
Y7502D1*
X14078Y8296D2*
D3*
X9176Y10137D2*
Y10726D1*
X14508Y8830D2*
Y8776D1*
X14086D1*
X13855Y8545D1*
Y8519D1*
X9176Y10726D2*
X9119D1*
Y11635D1*
X7928Y7745D2*
Y8230D1*
Y8622D1*
X7984D1*
X7928Y8230D1*
X13632Y8742D2*
X13492D1*
X12687Y7937D1*
Y6687D1*
X12437Y6437D1*
X8187D1*
X7937Y6687D1*
Y7736D1*
X7928Y7745D1*
X6819Y10160D2*
X7349Y9631D1*
X8130D1*
X8270Y9491D1*
Y6901D1*
X8410Y6761D1*
X12307D1*
X12447Y6901D1*
Y8509D1*
X12587Y8649D1*
X13064D1*
X13410Y8994D1*
Y8964D1*
X4984Y10748D2*
X4987Y11794D1*
X4984Y10160D2*
Y10748D1*
X12176Y11707D2*
Y10726D1*
Y10044D1*
X7484Y10748D2*
Y10160D1*
Y9211D2*
Y8849D1*
Y8622D1*
X5984Y10748D2*
Y11337D1*
X5549Y11372D2*
X5484Y11307D1*
Y10748D1*
X5436Y9211D2*
Y8897D1*
X5484Y8849D1*
Y8622D1*
X11630Y11558D2*
X11676Y11512D1*
Y10726D1*
X16404Y8001D2*
Y7816D1*
X16806Y7414D1*
Y7405D1*
X9736Y9229D2*
X9676Y9169D1*
Y8600D1*
X11676Y9189D2*
Y8600D1*
X9176D2*
Y9099D1*
X9406D1*
Y8405D1*
X9281Y8280D1*
X9176Y8600D1*
Y8280D1*
Y8184D1*
X9205Y8155D1*
Y7593D1*
X11025Y7697D2*
X11176Y7847D1*
Y8600D1*
X6984Y10748D2*
Y10975D1*
X6973Y10985D1*
Y11878D1*
X6542Y12310D1*
Y15087D1*
X6682Y15227D1*
X12247D1*
X12787Y14687D1*
X6214Y13174D2*
Y10275D1*
X5984Y10045D1*
Y8622D1*
Y8074D1*
X5868Y7958D1*
Y7616D1*
X6912Y13109D2*
X9750D1*
X11151Y11709D1*
Y10978D1*
X11176Y10952D1*
Y10726D1*
X10184Y7584D2*
X10176Y8600D1*
Y9441D1*
X10036Y9581D1*
X8679D1*
X8539Y9721D1*
Y12343D1*
X8399Y12483D1*
X6822D1*
X6682Y12623D1*
Y14947D1*
X6822Y15087D1*
X7663D1*
X8063Y14687D1*
X21687Y8039D2*
D16*
Y9175D1*
X21681Y9181D1*
X20125Y6642D2*
X20521D1*
D17*
X21474Y7596D1*
D16*
Y7827D1*
X21687Y8039D1*
X21681Y9181D2*
X21288D1*
X21281Y9175D1*
X17697Y5734D2*
D14*
X17517D1*
X17417Y5835D1*
Y6216D1*
X17171Y6462D1*
X17953Y4691D2*
D18*
Y4448D1*
D16*
X18055Y4346D1*
X19928D1*
X20330Y4748D1*
Y6437D1*
X20125Y6642D1*
X17171Y6462D2*
X17100D1*
X16688Y6051D1*
D18*
Y5051D1*
D16*
X16520Y4883D1*
X16664D1*
Y4576D1*
X16894Y4346D1*
X18055D1*
X7437Y5187D2*
Y4971D1*
X8061Y4346D1*
X16894D1*
X15191Y12138D2*
X15414Y12361D1*
X15552D1*
X15874Y12038D1*
X16268Y4748D2*
X16385D1*
X16520Y4883D1*
X16306Y6225D2*
X16419D1*
X16714Y6520D1*
X17114D1*
X17171Y6462D1*
X15874Y12038D2*
X14456Y10621D1*
Y10383D1*
X13762Y9688D1*
D18*
X10740D1*
D16*
X10676Y9752D1*
Y10726D1*
X7437Y5187D2*
Y5288D1*
X7254Y5472D1*
Y6741D1*
D18*
X7225D1*
Y9122D1*
D19*
X6484Y9863D1*
D16*
Y10748D1*
D14*
X6448D1*
Y9905D1*
X6738Y9616D1*
D18*
Y7932D1*
D16*
X6529Y7723D1*
Y7410D1*
X7258Y6680D1*
D14*
Y5187D1*
X7437D1*
X19585Y7687D2*
Y8880D1*
X19886Y9181D1*
X15937Y14687D2*
Y14937D1*
X15625Y15250D1*
X14925D1*
X14362Y14687D1*
X13575Y13900D1*
Y13825D1*
X13125Y13375D1*
X12525D1*
X12000Y13900D1*
Y13750D1*
X11625Y13375D1*
X10950D1*
X10425Y13900D1*
X10400D1*
X9875Y13375D1*
X9250D1*
X8724Y13900D1*
X8850D1*
X19886Y9181D2*
X20306D1*
X20312Y9187D1*
X10676Y7131D2*
Y8600D1*
X16306Y5556D2*
X15921D1*
Y4748D1*
X15599D1*
X20000Y5856D2*
Y6178D1*
X19777Y6401D1*
Y7062D1*
X19917Y7202D1*
X20687D1*
Y7687D1*
X14362Y13900D2*
Y13140D1*
X14502Y13000D1*
X14861D1*
X15562D1*
X8850Y14687D2*
X9251Y15087D1*
X10025D1*
X10425Y14687D1*
X7276D2*
X6822Y14233D1*
Y13639D1*
X6962Y13499D1*
X7663D1*
X8063Y13900D1*
X18437Y13687D2*
X16996D1*
X16784Y13900D1*
X15937D1*
X17098Y5000D2*
D3*
X20687Y7687D2*
X20188D1*
Y8290D1*
X20328Y8430D1*
X20783D1*
Y8290D1*
X21013D1*
Y9827D1*
X21153Y9967D1*
X22150D1*
Y6937D1*
X21687D1*
X6412Y8034D2*
Y8325D1*
X6484Y8396D1*
Y8622D1*
X19191Y4691D2*
X18937D1*
X14187Y12226D2*
X14466D1*
X14636D1*
X14969Y11893D1*
Y11915D1*
X10676Y8600D2*
Y9283D1*
X10816Y9423D1*
X13187D1*
Y9187D1*
X15191Y5935D2*
X14187D1*
X15599Y4748D2*
X15214D1*
Y5912D1*
X15191Y5935D1*
X20783Y8430D2*
Y11819D1*
X10425Y14687D2*
X10825Y15087D1*
X11600D1*
X12000Y14687D1*
X17098Y5000D2*
Y5144D1*
X17697D1*
X18707Y6549D2*
X18812D1*
X18937Y6424D1*
Y6187D1*
X18479Y7264D2*
D3*
X19962Y5894D2*
X20000D1*
Y5856D1*
X15599Y4748D2*
D3*
X17830Y12000D2*
D3*
X15191Y7183D2*
D3*
X14466Y12226D2*
Y12604D1*
X14861Y13000D1*
X15617Y7643D2*
Y10475D1*
X16104Y10963D1*
Y11705D1*
X16252Y11853D1*
X16262D1*
X16583Y12174D1*
Y12138D1*
D42*
X20312Y9187D3*
X18223Y9645D3*
X21281Y9175D3*
X15874Y12038D3*
X4527Y9024D3*
X9525Y12446D3*
X9676Y10137D3*
X12906Y6163D3*
X19555Y5626D3*
X17833Y6872D3*
X16105Y7873D3*
X7927Y11868D3*
X6900Y7598D3*
X10176Y10726D3*
X10017Y11545D3*
X14078Y8296D3*
X12176Y9189D3*
X14508Y8830D3*
X9176Y10137D3*
X7928Y8230D3*
X6819Y10160D3*
X4984D3*
X12176Y10044D3*
X7484Y10160D3*
Y9211D3*
X5984Y11337D3*
X5549Y11372D3*
X5436Y9211D3*
X11630Y11558D3*
X16404Y8001D3*
X9736Y9229D3*
X11676Y9189D3*
X9176Y8280D3*
X11025Y7697D3*
X6214Y13174D3*
X6912Y13109D3*
X15874Y12038D3*
X21281Y9175D3*
X14187Y12226D3*
X15191Y5935D3*
Y7183D3*
X10676Y7131D3*
X18479Y7264D3*
X20000Y5856D3*
X17098Y5000D3*
X15599Y4748D3*
X6412Y8034D3*
X18707Y6549D3*
X19191Y4691D3*
X17830Y12000D3*
X15617Y7643D3*
X4287Y15453D2*
D19*
X4418D1*
X5957D2*
X6571D1*
X12358D2*
X14772D1*
X15777D2*
X20416D1*
X21958D2*
X22087D1*
X6083Y15305D2*
X6396D1*
X12533D2*
X14618D1*
X15932D2*
X20292D1*
X6170Y15156D2*
X6290D1*
X12993D2*
X13371D1*
X13780D2*
X14156D1*
X16457D2*
X20203D1*
X6229Y15007D2*
X6281D1*
X16457D2*
X18091D1*
X18784D2*
X20144D1*
X8554Y14859D2*
X9147D1*
X10129D2*
X10722D1*
X11704D2*
X12253D1*
X16457D2*
X17995D1*
X18880D2*
X20109D1*
X6944Y14710D2*
X7542D1*
X8584D2*
X9117D1*
X10159D2*
X10692D1*
X11734D2*
X12267D1*
X16457D2*
X17962D1*
X18913D2*
X20095D1*
X6944Y14561D2*
X7558D1*
X8568D2*
X9133D1*
X10143D2*
X10708D1*
X11718D2*
X12283D1*
X16457D2*
X17978D1*
X18894D2*
X20104D1*
X6944Y14413D2*
X7624D1*
X8502D2*
X9199D1*
X10077D2*
X10771D1*
X11652D2*
X12346D1*
X16457D2*
X18051D1*
X18822D2*
X20132D1*
X6191Y14264D2*
X6280D1*
X7642D2*
X7771D1*
X8355D2*
X8484D1*
X9217D2*
X9344D1*
X9930D2*
X10059D1*
X10792D2*
X10919D1*
X11505D2*
X11634D1*
X12367D2*
X12494D1*
X13080D2*
X13209D1*
X14655D2*
X14784D1*
X16457D2*
X18239D1*
X18634D2*
X20182D1*
X6114Y14115D2*
X6281D1*
X7748D2*
X8378D1*
X9323D2*
X9953D1*
X10898D2*
X11526D1*
X12473D2*
X13101D1*
X14153D2*
X14676D1*
X15623D2*
X20261D1*
X4287Y13966D2*
X4373D1*
X6001D2*
X6281D1*
X7792D2*
X8334D1*
X9367D2*
X9909D1*
X10942D2*
X11484D1*
X12517D2*
X13059D1*
X14092D2*
X14634D1*
X15667D2*
X20374D1*
X22002D2*
X22088D1*
X4287Y13818D2*
X4537D1*
X5837D2*
X6281D1*
X7790D2*
X8336D1*
X9365D2*
X9911D1*
X10940D2*
X11486D1*
X12515D2*
X13061D1*
X14090D2*
X14636D1*
X15665D2*
X20538D1*
X21836D2*
X22087D1*
X4287Y13669D2*
X4823D1*
X5551D2*
X6281D1*
X7741D2*
X8386D1*
X9318D2*
X9806D1*
X11019D2*
X11536D1*
X12592D2*
X13057D1*
X14041D2*
X14683D1*
X15742D2*
X20824D1*
X21552D2*
X22087D1*
X4287Y13520D2*
X6281D1*
X7626D2*
X8500D1*
X13926D2*
X14800D1*
X17153D2*
X22087D1*
X4287Y13372D2*
X5927D1*
X7136D2*
X8889D1*
X10234D2*
X10591D1*
X11985D2*
X12166D1*
X13485D2*
X15119D1*
X17303D2*
X22087D1*
X4287Y13223D2*
X5866D1*
X10087D2*
X10739D1*
X11835D2*
X12314D1*
X13335D2*
X15119D1*
X17451D2*
X19464D1*
X4287Y13074D2*
X5878D1*
X10148D2*
X15119D1*
X16673D2*
X16875D1*
X17601D2*
X19464D1*
X4287Y12926D2*
X5953D1*
X10298D2*
X15119D1*
X16673D2*
X16950D1*
X18505D2*
X19464D1*
X4287Y12777D2*
X5953D1*
X6974D2*
X9454D1*
X9598D2*
X9719D1*
X10445D2*
X15016D1*
X16759D2*
X16950D1*
X18505D2*
X19464D1*
X4287Y12628D2*
X5953D1*
X8617D2*
X9229D1*
X9822D2*
X9869D1*
X10593D2*
X14871D1*
X16905D2*
X16951D1*
X18505D2*
X19464D1*
X4287Y12480D2*
X5953D1*
X8758D2*
X9175D1*
X9873D2*
X10017D1*
X10743D2*
X14718D1*
X15887D2*
X16026D1*
X18508D2*
X19464D1*
X4287Y12331D2*
X5953D1*
X8800D2*
X9194D1*
X9934D2*
X10167D1*
X10891D2*
X14571D1*
X18941D2*
X19464D1*
X4287Y12182D2*
X4750D1*
X5223D2*
X5953D1*
X7316D2*
X7593D1*
X8800D2*
X9302D1*
X9937D2*
X10314D1*
X11041D2*
X14425D1*
X18941D2*
X19464D1*
X4287Y12034D2*
X4596D1*
X5380D2*
X5953D1*
X7408D2*
X7497D1*
X8800D2*
X8901D1*
X9337D2*
X9414D1*
X9937D2*
X10464D1*
X11472D2*
X11857D1*
X12496D2*
X14273D1*
X18953D2*
X19464D1*
X4287Y11885D2*
X4535D1*
X5439D2*
X5953D1*
X9937D2*
X10612D1*
X12601D2*
X14123D1*
X19101D2*
X19464D1*
X4287Y11736D2*
X4530D1*
X5446D2*
X5953D1*
X6475D2*
X6533D1*
X7412D2*
X7486D1*
X10307D2*
X10689D1*
X12637D2*
X13978D1*
X19192D2*
X19464D1*
X4287Y11587D2*
X4575D1*
X6475D2*
X6618D1*
X7328D2*
X7565D1*
X10366D2*
X10706D1*
X12623D2*
X13828D1*
X19197D2*
X19464D1*
X4287Y11439D2*
X4701D1*
X6475D2*
X6712D1*
X7234D2*
X7666D1*
X10431D2*
X10778D1*
X12550D2*
X13678D1*
X15728D2*
X15843D1*
X16366D2*
X16471D1*
X19197D2*
X19464D1*
X4287Y11290D2*
X4640D1*
X12519D2*
X13532D1*
X15580D2*
X15843D1*
X16366D2*
X16617D1*
X19227D2*
X19464D1*
X4287Y11141D2*
X4640D1*
X12519D2*
X13380D1*
X15433D2*
X15843D1*
X16366D2*
X16767D1*
X19349D2*
X19464D1*
X4287Y10993D2*
X4640D1*
X12519D2*
X13232D1*
X15283D2*
X15771D1*
X16366D2*
X16914D1*
X19396D2*
X19466D1*
X4287Y10844D2*
X4640D1*
X12519D2*
X13087D1*
X15135D2*
X15623D1*
X16335D2*
X17062D1*
X19389D2*
X19465D1*
X4287Y10695D2*
X4640D1*
X12519D2*
X12935D1*
X14985D2*
X15473D1*
X16199D2*
X17212D1*
X19328D2*
X19464D1*
X4287Y10547D2*
X4640D1*
X12519D2*
X12785D1*
X14837D2*
X15365D1*
X16051D2*
X17362D1*
X19169D2*
X19464D1*
X4287Y10398D2*
X4640D1*
X12519D2*
X12658D1*
X14781D2*
X15356D1*
X15901D2*
X17510D1*
X19117D2*
X19464D1*
X4287Y10249D2*
X4640D1*
X12519D2*
X12651D1*
X14753D2*
X15356D1*
X15878D2*
X17451D1*
X19124D2*
X22087D1*
X4287Y10101D2*
X4638D1*
X5329D2*
X5730D1*
X7830D2*
X8278D1*
X10026D2*
X10350D1*
X11001D2*
X11831D1*
X12522D2*
X12768D1*
X14629D2*
X15356D1*
X15878D2*
X17301D1*
X19122D2*
X22087D1*
X4287Y9952D2*
X4706D1*
X5263D2*
X5723D1*
X7762D2*
X8278D1*
X8800D2*
X8879D1*
X9972D2*
X10350D1*
X11001D2*
X11838D1*
X12515D2*
X12916D1*
X14481D2*
X15356D1*
X15878D2*
X17153D1*
X17877D2*
X17955D1*
X19312D2*
X22087D1*
X4287Y9803D2*
X5723D1*
X10157D2*
X10350D1*
X14331D2*
X15356D1*
X15878D2*
X17003D1*
X17730D2*
X17913D1*
X19384D2*
X19464D1*
X20308D2*
X21257D1*
X4287Y9655D2*
X5723D1*
X14183D2*
X15356D1*
X15878D2*
X16856D1*
X17580D2*
X17873D1*
X19398D2*
X19462D1*
X20308D2*
X21257D1*
X4287Y9506D2*
X5259D1*
X5612D2*
X5723D1*
X6245D2*
X6421D1*
X14033D2*
X15356D1*
X15878D2*
X16706D1*
X17432D2*
X17903D1*
X19361D2*
X19462D1*
X20432D2*
X21211D1*
X4287Y9357D2*
X4467D1*
X4586D2*
X5118D1*
X6245D2*
X6461D1*
X10436D2*
X11369D1*
X12482D2*
X12904D1*
X13832D2*
X15356D1*
X15878D2*
X16558D1*
X17284D2*
X17943D1*
X19253D2*
X19462D1*
X20617D2*
X20986D1*
X8530Y9208D2*
X8941D1*
X10436D2*
X11325D1*
X12526D2*
X12757D1*
X13980D2*
X15356D1*
X15878D2*
X16408D1*
X17134D2*
X17796D1*
X19019D2*
X19462D1*
X20662D2*
X20932D1*
X8530Y9060D2*
X8831D1*
X12519D2*
X12649D1*
X14127D2*
X14250D1*
X14767D2*
X15356D1*
X15878D2*
X16261D1*
X16987D2*
X17648D1*
X19126D2*
X19401D1*
X20638D2*
X20950D1*
X8530Y8911D2*
X8831D1*
X12519D2*
X12663D1*
X14849D2*
X15356D1*
X15878D2*
X16113D1*
X16837D2*
X17498D1*
X19110D2*
X19326D1*
X20519D2*
X21058D1*
X8530Y8762D2*
X8831D1*
X14851D2*
X15356D1*
X15878D2*
X15963D1*
X16689D2*
X17348D1*
X18976D2*
X19324D1*
X20308D2*
X21257D1*
X4287Y8614D2*
X4640D1*
X8530D2*
X8831D1*
X14781D2*
X15356D1*
X16539D2*
X17200D1*
X19077D2*
X19324D1*
X20308D2*
X21257D1*
X4287Y8465D2*
X4640D1*
X8530D2*
X8831D1*
X14723D2*
X15356D1*
X16391D2*
X17053D1*
X19227D2*
X19326D1*
X20308D2*
X21107D1*
X4287Y8316D2*
X4640D1*
X8530D2*
X8826D1*
X14873D2*
X15356D1*
X16534D2*
X16903D1*
X19846D2*
X21107D1*
X4287Y8168D2*
X4640D1*
X8530D2*
X8831D1*
X13281D2*
X13392D1*
X15020D2*
X15356D1*
X4287Y8019D2*
X4640D1*
X8530D2*
X8831D1*
X13131D2*
X13549D1*
X15170D2*
X15356D1*
X4287Y7870D2*
X4565D1*
X5399D2*
X5484D1*
X8530D2*
X8840D1*
X9571D2*
X9825D1*
X10541D2*
X10722D1*
X11437D2*
X11838D1*
X12983D2*
X13689D1*
X4287Y7722D2*
X4523D1*
X8530D2*
X8763D1*
X9648D2*
X9743D1*
X10623D2*
X10677D1*
X11401D2*
X11702D1*
X12948D2*
X13837D1*
X17936D2*
X18056D1*
X4287Y7573D2*
X4532D1*
X8530D2*
X8744D1*
X9667D2*
X9722D1*
X10644D2*
X10697D1*
X11352D2*
X11648D1*
X12948D2*
X13996D1*
X17779D2*
X18056D1*
X4287Y7424D2*
X4596D1*
X5366D2*
X5448D1*
X7501D2*
X7603D1*
X8530D2*
X8777D1*
X9634D2*
X9752D1*
X10616D2*
X10814D1*
X11237D2*
X11650D1*
X12948D2*
X14135D1*
X17748D2*
X18056D1*
X4287Y7276D2*
X4767D1*
X5198D2*
X5564D1*
X6173D2*
X6232D1*
X7501D2*
X7675D1*
X8530D2*
X8875D1*
X9536D2*
X9846D1*
X10523D2*
X11704D1*
X12948D2*
X14285D1*
X17924D2*
X18056D1*
X4287Y7127D2*
X6356D1*
X7501D2*
X7675D1*
X8530D2*
X11847D1*
X12948D2*
X14442D1*
X4287Y6978D2*
X6506D1*
X7501D2*
X7675D1*
X12948D2*
X14582D1*
X4287Y6829D2*
X6653D1*
X7567D2*
X7675D1*
X12948D2*
X14730D1*
X4287Y6681D2*
X6803D1*
X7583D2*
X7675D1*
X12948D2*
X14889D1*
X15918D2*
X16188D1*
X18887D2*
X19012D1*
X20971D2*
X21107D1*
X4287Y6532D2*
X6928D1*
X7579D2*
X7732D1*
X13173D2*
X15028D1*
X15822D2*
X15883D1*
X20826D2*
X21107D1*
X4287Y6383D2*
X6928D1*
X7579D2*
X7877D1*
X13309D2*
X15302D1*
X15822D2*
X15883D1*
X20708D2*
X20911D1*
X4287Y6235D2*
X4926D1*
X5448D2*
X6928D1*
X7579D2*
X8032D1*
X13361D2*
X13755D1*
X14619D2*
X15302D1*
X15822D2*
X15883D1*
X20655D2*
X20701D1*
X4287Y6086D2*
X4579D1*
X5793D2*
X6928D1*
X7579D2*
X12450D1*
X13361D2*
X13755D1*
X14619D2*
X15302D1*
X15822D2*
X15883D1*
X4287Y5937D2*
X4401D1*
X5973D2*
X6928D1*
X7579D2*
X12503D1*
X13307D2*
X13755D1*
X14619D2*
X15302D1*
X15822D2*
X15883D1*
X6095Y5789D2*
X6928D1*
X7579D2*
X12644D1*
X14619D2*
X15302D1*
X15822D2*
X15883D1*
X6177Y5640D2*
X6876D1*
X7998D2*
X9119D1*
X9756D2*
X10118D1*
X10757D2*
X11118D1*
X11755D2*
X12644D1*
X6233Y5491D2*
X6876D1*
X7998D2*
X8969D1*
X9904D2*
X9970D1*
X10905D2*
X10968D1*
X11905D2*
X12656D1*
X6266Y5343D2*
X6876D1*
X7998D2*
X8899D1*
X11976D2*
X12778D1*
X6278Y5194D2*
X6876D1*
X7998D2*
X8878D1*
X11997D2*
X13755D1*
X6269Y5045D2*
X6876D1*
X7998D2*
X8896D1*
X11978D2*
X13755D1*
X6238Y4896D2*
X6876D1*
X7998D2*
X8960D1*
X9913D2*
X9960D1*
X11915D2*
X13755D1*
X14619D2*
X15157D1*
X6184Y4748D2*
X6876D1*
X8113D2*
X9098D1*
X9775D2*
X10099D1*
X10776D2*
X11100D1*
X11776D2*
X15157D1*
X19499D2*
X19875D1*
X6105Y4599D2*
X7354D1*
X20617D2*
X20746D1*
X4287Y4450D2*
X4387D1*
X5987D2*
X7502D1*
X20488D2*
X20993D1*
X21883D2*
X22087D1*
X4287Y4302D2*
X4561D1*
X5814D2*
X7652D1*
X20338D2*
X22087D1*
X15989Y12592D2*
X15759D1*
X15959Y12393D1*
X16115Y12553D1*
Y12593D1*
X15804Y12594D1*
X15135Y12867D2*
Y13394D1*
X15045Y13404D1*
X14974Y13425D1*
X14905Y13456D1*
X14843Y13497D1*
X14787Y13547D1*
X14738Y13604D1*
X14699Y13668D1*
X14670Y13737D1*
X14651Y13810D1*
X14644Y13884D1*
X14647Y13959D1*
X14661Y14033D1*
X14686Y14103D1*
X14721Y14170D1*
X14766Y14230D1*
X14832Y14293D1*
X14758Y14368D1*
X14681Y14294D1*
X14620Y14251D1*
X14553Y14218D1*
X14481Y14195D1*
X14407Y14183D1*
X14332Y14182D1*
X14224Y14201D1*
X14060Y14037D1*
X14080Y13930D1*
X14075Y13825D1*
X14059Y13752D1*
X14032Y13682D1*
X13995Y13617D1*
X13948Y13558D1*
X13894Y13507D1*
X13832Y13464D1*
X13765Y13431D1*
X13694Y13408D1*
X13620Y13395D1*
X13545Y13394D1*
X13496Y13401D1*
X13298Y13201D1*
X13238Y13156D1*
X13147Y13130D1*
X12525Y13129D1*
X12451Y13140D1*
X12368Y13185D1*
X12137Y13414D1*
X12045Y13395D1*
X11991D1*
X11798Y13201D1*
X11738Y13156D1*
X11647Y13130D1*
X10950Y13129D1*
X10876Y13140D1*
X10793Y13185D1*
X10563Y13414D1*
X10470Y13395D1*
X10395Y13394D1*
X10321Y13404D1*
X10269Y13419D1*
X10033Y13187D1*
X10030Y13177D1*
X11059Y12148D1*
X11143Y12156D1*
X11218Y12151D1*
X11291Y12133D1*
X11360Y12104D1*
X11423Y12063D1*
X11478Y12013D1*
X11525Y11954D1*
X11561Y11886D1*
X11622Y11894D1*
X11696Y11887D1*
X11761Y11867D1*
X11795Y11940D1*
X11839Y12001D1*
X11893Y12053D1*
X11955Y12096D1*
X12023Y12127D1*
X12095Y12147D1*
X12169Y12154D1*
X12244Y12149D1*
X12317Y12132D1*
X12386Y12102D1*
X12449Y12062D1*
X12504Y12011D1*
X12550Y11952D1*
X12586Y11887D1*
X12610Y11816D1*
X12624Y11707D1*
X12617Y11633D1*
X12599Y11560D1*
X12568Y11492D1*
X12527Y11429D1*
X12475Y11375D1*
X12422Y11330D1*
X12505Y11331D1*
X12503Y10122D1*
X12512Y10044D1*
X12497Y9950D1*
X12936Y9949D1*
X12718Y10165D1*
X12675Y10227D1*
X12657Y10299D1*
X12664Y10373D1*
X12699Y10442D1*
X12859Y10604D1*
X12893Y10631D1*
X12993Y10739D1*
X13113Y10853D1*
X13163Y10909D1*
X13336Y11076D1*
X13386Y11132D1*
X13559Y11298D1*
X13609Y11354D1*
X13782Y11521D1*
X13831Y11577D1*
X14004Y11744D1*
X14054Y11800D1*
X14227Y11967D1*
X14277Y12023D1*
X14450Y12189D1*
X14487Y12232D1*
X14661Y12404D1*
X14687Y12420D1*
X14722Y12468D1*
X14895Y12635D1*
X14945Y12691D1*
X15118Y12857D1*
X15120Y12858D1*
X16659Y13128D2*
Y12857D1*
X16744Y12777D1*
X16857Y12657D1*
X16913Y12607D1*
X16965Y12556D1*
Y12970D1*
X16996D1*
X16834Y13130D1*
X16658Y13129D1*
X18071Y7118D2*
Y7869D1*
X17993Y7799D1*
X17943Y7743D1*
X17770Y7577D1*
X17721Y7521D1*
X17643Y7438D1*
X17717Y7430D1*
X17785Y7396D1*
X17966Y7218D1*
X18068Y7117D1*
X19941Y4797D2*
X19554D1*
Y4851D1*
X19531Y4804D1*
X19483Y4747D1*
X19421Y4705D1*
X19350Y4681D1*
X19301Y4677D1*
X19205D1*
X19207Y4657D1*
X19801D1*
X19939Y4797D1*
X15172Y4657D2*
X15170Y4904D1*
X14605D1*
Y4848D1*
X13769D1*
Y5526D1*
X14465D1*
Y5596D1*
X13769D1*
Y6274D1*
X14605D1*
Y5719D1*
X15315Y5720D1*
X15316Y6444D1*
X15280Y6434D1*
X15205Y6431D1*
X15134Y6453D1*
X15084Y6491D1*
X14917Y6664D1*
X14874Y6701D1*
X14702Y6875D1*
X14686Y6900D1*
X14639Y6936D1*
X14472Y7109D1*
X14416Y7159D1*
X14249Y7332D1*
X14193Y7381D1*
X14026Y7555D1*
X13970Y7604D1*
X13804Y7777D1*
X13748Y7827D1*
X13581Y8000D1*
X13525Y8050D1*
X13358Y8223D1*
X13294Y8196D1*
X12931Y7834D1*
X12933Y7037D1*
Y6687D1*
X12921Y6611D1*
X13046Y6587D1*
X13115Y6558D1*
X13178Y6517D1*
X13233Y6467D1*
X13280Y6408D1*
X13315Y6342D1*
X13339Y6271D1*
X13353Y6163D1*
X13347Y6088D1*
X13328Y6015D1*
X13297Y5947D1*
X13265Y5898D1*
X13699Y5900D1*
Y5222D1*
X12864D1*
Y5318D1*
X12774Y5353D1*
X12718Y5402D1*
X12679Y5466D1*
X12660Y5561D1*
Y5788D1*
X12592Y5844D1*
X12543Y5901D1*
X12505Y5965D1*
X12477Y6035D1*
X12462Y6108D1*
X12460Y6192D1*
X10187Y6191D1*
X8187D1*
X8113Y6202D1*
X8030Y6248D1*
X7763Y6513D1*
X7719Y6573D1*
X7692Y6664D1*
X7691Y7364D1*
X7615Y7426D1*
X7566Y7483D1*
X7527Y7547D1*
X7500Y7617D1*
X7486Y7683D1*
Y6949D1*
X7528Y6887D1*
X7555Y6817D1*
X7569Y6699D1*
X7565Y6516D1*
X7566Y5733D1*
X7983D1*
Y4863D1*
X8189Y4658D1*
X9306Y4657D1*
X9248Y4675D1*
X9180Y4706D1*
X9116Y4746D1*
X9059Y4794D1*
X9008Y4849D1*
X8966Y4911D1*
X8933Y4979D1*
X8909Y5050D1*
X8895Y5123D1*
X8892Y5198D1*
X8898Y5273D1*
X8915Y5346D1*
X8942Y5416D1*
X8978Y5481D1*
X9022Y5542D1*
X9075Y5595D1*
X9134Y5641D1*
X9199Y5678D1*
X9269Y5706D1*
X9342Y5724D1*
X9416Y5732D1*
X9491Y5730D1*
X9565Y5717D1*
X9636Y5695D1*
X9704Y5663D1*
X9767Y5622D1*
X9823Y5572D1*
X9872Y5516D1*
X9913Y5453D1*
X9936Y5404D1*
X9978Y5481D1*
X10022Y5542D1*
X10075Y5595D1*
X10134Y5641D1*
X10199Y5678D1*
X10269Y5706D1*
X10342Y5724D1*
X10416Y5732D1*
X10491Y5730D1*
X10565Y5717D1*
X10636Y5695D1*
X10704Y5663D1*
X10767Y5622D1*
X10823Y5572D1*
X10872Y5516D1*
X10913Y5453D1*
X10936Y5404D1*
X10978Y5481D1*
X11022Y5542D1*
X11075Y5595D1*
X11134Y5641D1*
X11199Y5678D1*
X11269Y5706D1*
X11342Y5724D1*
X11416Y5732D1*
X11491Y5730D1*
X11565Y5717D1*
X11636Y5695D1*
X11704Y5663D1*
X11767Y5622D1*
X11823Y5572D1*
X11872Y5516D1*
X11913Y5453D1*
X11945Y5385D1*
X11968Y5314D1*
X11983Y5187D1*
X11977Y5112D1*
X11962Y5039D1*
X11937Y4968D1*
X11902Y4902D1*
X11859Y4841D1*
X11807Y4786D1*
X11749Y4739D1*
X11685Y4701D1*
X11616Y4672D1*
X11564Y4657D1*
X15170D1*
X15898Y5720D2*
Y6652D1*
X16229D1*
X16053Y6830D1*
X15808Y6585D1*
X15810Y5720D1*
X15896D1*
X15898Y5947D1*
X20176Y8252D2*
X21122D1*
Y8565D1*
X21274D1*
X21273Y8839D1*
X21210Y8846D1*
X21139Y8870D1*
X21075Y8910D1*
X21021Y8962D1*
X20981Y9025D1*
X20955Y9095D1*
X20946Y9169D1*
X20953Y9244D1*
X20976Y9315D1*
X21015Y9379D1*
X21067Y9433D1*
X21129Y9474D1*
X21199Y9500D1*
X21276Y9510D1*
X21273Y9854D1*
Y9933D1*
X22089D1*
Y8567D1*
X22104Y8565D1*
X22102Y9297D1*
X22100Y14118D1*
X22012Y13996D1*
X21908Y13888D1*
X21791Y13796D1*
X21661Y13721D1*
X21522Y13664D1*
X21377Y13628D1*
X21228Y13611D1*
X21078Y13616D1*
X20930Y13642D1*
X20787Y13688D1*
X20653Y13753D1*
X20528Y13836D1*
X20416Y13936D1*
X20319Y14050D1*
X20239Y14177D1*
X20178Y14314D1*
X20135Y14457D1*
X20114Y14606D1*
X20113Y14756D1*
X20133Y14904D1*
X20173Y15049D1*
X20233Y15186D1*
X20312Y15313D1*
X20407Y15429D1*
X20518Y15530D1*
X20620Y15601D1*
X17827Y15602D1*
X5754D1*
X5841Y15542D1*
X5953Y15443D1*
X6051Y15329D1*
X6132Y15203D1*
X6194Y15066D1*
X6237Y14923D1*
X6260Y14775D1*
X6261Y14612D1*
X6240Y14464D1*
X6199Y14320D1*
X6138Y14183D1*
X6059Y14055D1*
X5962Y13940D1*
X5851Y13840D1*
X5727Y13756D1*
X5592Y13690D1*
X5450Y13643D1*
X5302Y13617D1*
X5153Y13611D1*
X5004Y13626D1*
X4858Y13662D1*
X4719Y13718D1*
X4589Y13792D1*
X4470Y13884D1*
X4366Y13991D1*
X4271Y14122D1*
X4272Y10277D1*
Y9243D1*
X4312Y9283D1*
X4374Y9324D1*
X4444Y9350D1*
X4519Y9360D1*
X4593Y9354D1*
X4664Y9331D1*
X4729Y9293D1*
X4751Y9272D1*
X4984Y9270D1*
X5047Y9262D1*
X5107Y9280D1*
X5130Y9351D1*
X5169Y9416D1*
X5221Y9469D1*
X5283Y9511D1*
X5353Y9537D1*
X5428Y9547D1*
X5502Y9540D1*
X5573Y9518D1*
X5638Y9479D1*
X5692Y9428D1*
X5738Y9355D1*
Y10045D1*
X5756Y10138D1*
X5738Y10144D1*
X5318D1*
X5311Y10085D1*
X5287Y10015D1*
X5247Y9951D1*
X5194Y9898D1*
X5131Y9858D1*
X5061Y9833D1*
X4987Y9824D1*
X4912Y9832D1*
X4841Y9856D1*
X4777Y9895D1*
X4724Y9947D1*
X4683Y10010D1*
X4657Y10080D1*
X4648Y10154D1*
X4655Y10294D1*
Y11353D1*
X4742D1*
X4731Y11427D1*
X4674Y11475D1*
X4625Y11532D1*
X4586Y11596D1*
X4559Y11666D1*
X4543Y11739D1*
X4541Y11814D1*
X4550Y11888D1*
X4572Y11960D1*
X4606Y12027D1*
X4650Y12087D1*
X4704Y12139D1*
X4765Y12182D1*
X4833Y12213D1*
X4906Y12233D1*
X4980Y12241D1*
X5055Y12236D1*
X5128Y12218D1*
X5197Y12189D1*
X5260Y12148D1*
X5315Y12098D1*
X5361Y12039D1*
X5397Y11973D1*
X5421Y11902D1*
X5434Y11794D1*
X5428Y11719D1*
X5418Y11680D1*
X5467Y11698D1*
X5541Y11708D1*
X5616Y11701D1*
X5687Y11679D1*
X5751Y11640D1*
X5787Y11607D1*
X5832Y11637D1*
X5902Y11663D1*
X5969Y11672D1*
X5968Y12944D1*
X5913Y13024D1*
X5887Y13094D1*
X5878Y13169D1*
X5885Y13243D1*
X5909Y13314D1*
X5947Y13378D1*
X5999Y13432D1*
X6062Y13473D1*
X6132Y13500D1*
X6206Y13510D1*
X6296Y13498D1*
Y15087D1*
X6307Y15161D1*
X6353Y15245D1*
X6508Y15401D1*
X6568Y15445D1*
X6659Y15472D1*
X8932Y15473D1*
X12247D1*
X12321Y15462D1*
X12404Y15416D1*
X12648Y15174D1*
X12727Y15190D1*
X12802Y15193D1*
X12877Y15185D1*
X12949Y15167D1*
X13018Y15138D1*
X13082Y15099D1*
X13140Y15051D1*
X13182Y15003D1*
X13244Y15070D1*
X13304Y15115D1*
X13370Y15150D1*
X13441Y15175D1*
X13515Y15190D1*
X13589Y15193D1*
X13664Y15185D1*
X13737Y15167D1*
X13806Y15138D1*
X13870Y15099D1*
X13927Y15051D1*
X13969Y15003D1*
X14031Y15070D1*
X14092Y15115D1*
X14158Y15150D1*
X14228Y15175D1*
X14302Y15190D1*
X14377Y15193D1*
X14451Y15185D1*
X14499Y15173D1*
X14751Y15423D1*
X14811Y15468D1*
X14902Y15494D1*
X15625Y15495D1*
X15698Y15484D1*
X15782Y15439D1*
X16031Y15193D1*
X16443D1*
Y14181D1*
X15569D1*
X15593Y14144D1*
X15624Y14076D1*
X15645Y14004D1*
X15656Y13900D1*
X15650Y13825D1*
X15636Y13763D1*
X15776Y13621D1*
X16937Y13620D1*
X17011Y13609D1*
X17094Y13564D1*
X17611Y13048D1*
X17656Y12986D1*
X17710Y12970D1*
X18489D1*
Y12480D1*
X18566Y12406D1*
X18927Y12407D1*
Y12044D1*
X19111Y11861D1*
X19155Y11801D1*
X19182Y11710D1*
X19183Y11310D1*
X19265Y11241D1*
X19311Y11182D1*
X19347Y11116D1*
X19371Y11045D1*
X19384Y10937D1*
X19378Y10862D1*
X19359Y10790D1*
X19329Y10721D1*
X19287Y10659D1*
X19236Y10604D1*
X19176Y10559D1*
X19110Y10525D1*
X19022Y10499D1*
X19057Y10464D1*
X19100Y10402D1*
X19118Y10330D1*
X19111Y10256D1*
X19076Y10187D1*
X19019Y10127D1*
X19077Y10112D1*
X19146Y10082D1*
X19209Y10042D1*
X19265Y9991D1*
X19311Y9932D1*
X19347Y9866D1*
X19371Y9795D1*
X19384Y9687D1*
X19378Y9612D1*
X19359Y9540D1*
X19329Y9471D1*
X19287Y9409D1*
X19236Y9354D1*
X19176Y9309D1*
X19110Y9275D1*
X19038Y9252D1*
X18971Y9242D1*
X19057Y9155D1*
X19100Y9094D1*
X19118Y9022D1*
X19111Y8947D1*
X19076Y8879D1*
X18938Y8737D1*
X19249Y8428D1*
X19293Y8368D1*
X19320Y8277D1*
X19321Y8252D1*
X19339Y8287D1*
Y8880D1*
X19350Y8954D1*
X19396Y9037D1*
X19479Y9122D1*
X19478Y9933D1*
X20294D1*
Y9523D1*
X20379Y9516D1*
X20450Y9493D1*
X20514Y9455D1*
X20569Y9404D1*
X20610Y9342D1*
X20637Y9272D1*
X20648Y9187D1*
X20640Y9113D1*
X20615Y9042D1*
X20575Y8978D1*
X20523Y8925D1*
X20459Y8885D1*
X20389Y8860D1*
X20294Y8853D1*
Y8429D1*
X19832D1*
X19831Y8254D1*
X20111Y8252D1*
Y7122D1*
X19489D1*
X19559Y7050D1*
X19883Y7048D1*
X19847Y7050D1*
X20535Y7053D1*
X20603Y7121D1*
X20161Y7122D1*
Y8252D1*
X20176D1*
X21122Y6466D2*
Y6846D1*
X20812Y6533D1*
X20778Y6467D1*
X20728Y6411D1*
X20667Y6368D1*
X20639Y6357D1*
X20641Y6163D1*
X20768Y6280D1*
X20892Y6365D1*
X21026Y6432D1*
X21121Y6465D1*
X18892Y14612D2*
X18874Y14540D1*
X18844Y14471D1*
X18804Y14408D1*
X18754Y14352D1*
X18695Y14305D1*
X18630Y14268D1*
X18560Y14243D1*
X18486Y14229D1*
X18411Y14227D1*
X18337Y14237D1*
X18265Y14259D1*
X18198Y14293D1*
X18138Y14337D1*
X18085Y14390D1*
X18041Y14451D1*
X18008Y14518D1*
X17986Y14590D1*
X17977Y14664D1*
X17979Y14739D1*
X17993Y14812D1*
X18020Y14883D1*
X18057Y14948D1*
X18104Y15006D1*
X18160Y15055D1*
X18223Y15095D1*
X18292Y15125D1*
X18365Y15142D1*
X18440Y15148D1*
X18515Y15141D1*
X18587Y15123D1*
X18656Y15093D1*
X18719Y15052D1*
X18774Y15001D1*
X18821Y14943D1*
X18857Y14877D1*
X18882Y14807D1*
X18898Y14687D1*
X18892Y14612D1*
X13259Y14292D2*
X13212Y14334D1*
X13183Y14368D1*
X13106Y14294D1*
X13045Y14251D1*
X12978Y14218D1*
X12906Y14195D1*
X12832Y14183D1*
X12758Y14182D1*
X12683Y14192D1*
X12611Y14212D1*
X12543Y14244D1*
X12480Y14285D1*
X12424Y14334D1*
X12376Y14392D1*
X12337Y14456D1*
X12308Y14525D1*
X12289Y14597D1*
X12281Y14672D1*
X12285Y14747D1*
X12301Y14827D1*
X12145Y14982D1*
X11626Y14981D1*
X11687Y14864D1*
X11708Y14792D1*
X11719Y14687D1*
X11713Y14612D1*
X11697Y14539D1*
X11670Y14469D1*
X11632Y14404D1*
X11586Y14345D1*
X11532Y14294D1*
X11470Y14251D1*
X11403Y14218D1*
X11332Y14195D1*
X11258Y14183D1*
X11183Y14182D1*
X11108Y14192D1*
X11036Y14212D1*
X10968Y14244D1*
X10906Y14285D1*
X10850Y14334D1*
X10801Y14392D1*
X10762Y14456D1*
X10733Y14525D1*
X10714Y14597D1*
X10707Y14672D1*
X10710Y14747D1*
X10724Y14820D1*
X10749Y14891D1*
X10802Y14981D1*
X10051D1*
X10112Y14864D1*
X10133Y14792D1*
X10144Y14687D1*
X10138Y14612D1*
X10122Y14539D1*
X10095Y14469D1*
X10058Y14404D1*
X10011Y14345D1*
X9957Y14294D1*
X9895Y14251D1*
X9828Y14218D1*
X9757Y14195D1*
X9683Y14183D1*
X9608Y14182D1*
X9534Y14192D1*
X9462Y14212D1*
X9394Y14244D1*
X9331Y14285D1*
X9275Y14334D1*
X9227Y14392D1*
X9188Y14456D1*
X9158Y14525D1*
X9140Y14597D1*
X9132Y14672D1*
X9135Y14747D1*
X9149Y14820D1*
X9174Y14891D1*
X9228Y14981D1*
X8476D1*
X8537Y14864D1*
X8558Y14792D1*
X8569Y14687D1*
X8564Y14612D1*
X8547Y14539D1*
X8520Y14469D1*
X8483Y14404D1*
X8437Y14345D1*
X8382Y14294D1*
X8320Y14251D1*
X8253Y14218D1*
X8182Y14195D1*
X8108Y14183D1*
X8033Y14182D1*
X7959Y14192D1*
X7887Y14212D1*
X7819Y14244D1*
X7756Y14285D1*
X7700Y14334D1*
X7652Y14392D1*
X7613Y14456D1*
X7584Y14525D1*
X7565Y14597D1*
X7557Y14672D1*
X7560Y14747D1*
X7577Y14827D1*
X7559Y14843D1*
X6929Y14841D1*
X6928Y14265D1*
X7005Y14327D1*
X7071Y14363D1*
X7142Y14388D1*
X7215Y14402D1*
X7290Y14406D1*
X7365Y14398D1*
X7437Y14379D1*
X7506Y14350D1*
X7570Y14311D1*
X7628Y14263D1*
X7678Y14207D1*
X7719Y14144D1*
X7750Y14076D1*
X7771Y14004D1*
X7782Y13900D1*
X7776Y13825D1*
X7760Y13752D1*
X7733Y13682D1*
X7695Y13617D1*
X7649Y13558D1*
X7595Y13507D1*
X7533Y13464D1*
X7466Y13431D1*
X7395Y13408D1*
X7321Y13395D1*
X7246Y13394D1*
X7171Y13404D1*
X7099Y13425D1*
X7031Y13456D1*
X6969Y13497D1*
X6928Y13533D1*
Y13445D1*
X6979Y13439D1*
X7050Y13416D1*
X7114Y13378D1*
X7136Y13357D1*
X8712Y13355D1*
X8921D1*
X8882Y13395D1*
X8821Y13394D1*
X8746Y13404D1*
X8674Y13425D1*
X8606Y13456D1*
X8543Y13497D1*
X8487Y13547D1*
X8439Y13604D1*
X8400Y13668D1*
X8371Y13737D1*
X8352Y13810D1*
X8344Y13884D1*
X8348Y13959D1*
X8362Y14033D1*
X8387Y14103D1*
X8422Y14170D1*
X8467Y14230D1*
X8520Y14283D1*
X8580Y14327D1*
X8646Y14363D1*
X8717Y14388D1*
X8790Y14402D1*
X8865Y14406D1*
X8940Y14398D1*
X9012Y14379D1*
X9081Y14350D1*
X9145Y14311D1*
X9203Y14263D1*
X9252Y14207D1*
X9293Y14144D1*
X9325Y14076D1*
X9346Y14004D1*
X9357Y13900D1*
X9351Y13825D1*
X9335Y13752D1*
X9302Y13672D1*
X9351Y13621D1*
X9772Y13620D1*
X9934Y13782D1*
X9919Y13884D1*
X9923Y13959D1*
X9937Y14033D1*
X9962Y14103D1*
X9997Y14170D1*
X10042Y14230D1*
X10094Y14283D1*
X10155Y14327D1*
X10221Y14363D1*
X10291Y14388D1*
X10365Y14402D1*
X10440Y14406D1*
X10514Y14398D1*
X10587Y14379D1*
X10656Y14350D1*
X10720Y14311D1*
X10777Y14263D1*
X10827Y14207D1*
X10868Y14144D1*
X10900Y14076D1*
X10920Y14004D1*
X10931Y13900D1*
X10926Y13825D1*
X10912Y13763D1*
X11052Y13621D1*
X11525Y13620D1*
X11558Y13656D1*
X11521Y13737D1*
X11502Y13810D1*
X11494Y13884D1*
X11497Y13959D1*
X11512Y14033D1*
X11537Y14103D1*
X11572Y14170D1*
X11616Y14230D1*
X11669Y14283D1*
X11729Y14327D1*
X11796Y14363D1*
X11866Y14388D1*
X11940Y14402D1*
X12015Y14406D1*
X12089Y14398D1*
X12162Y14379D1*
X12231Y14350D1*
X12295Y14311D1*
X12352Y14263D1*
X12402Y14207D1*
X12443Y14144D1*
X12474Y14076D1*
X12495Y14004D1*
X12506Y13900D1*
X12501Y13825D1*
X12487Y13763D1*
X12626Y13621D1*
X13024Y13620D1*
X13108Y13706D1*
X13077Y13810D1*
X13069Y13884D1*
X13072Y13959D1*
X13086Y14033D1*
X13111Y14103D1*
X13147Y14170D1*
X13191Y14230D1*
X13257Y14293D1*
X7329Y4641D2*
X6891D1*
Y5733D1*
X6945D1*
X6943Y5997D1*
Y6557D1*
X6309Y7190D1*
X6263Y7249D1*
X6227Y7336D1*
X6218Y7338D1*
X6167Y7284D1*
X6107Y7239D1*
X6040Y7204D1*
X5969Y7181D1*
X5895Y7170D1*
X5820Y7172D1*
X5747Y7186D1*
X5676Y7212D1*
X5612Y7250D1*
X5554Y7298D1*
X5505Y7355D1*
X5467Y7419D1*
X5439Y7489D1*
X5424Y7562D1*
X5422Y7602D1*
X5404Y7528D1*
X5373Y7459D1*
X5332Y7397D1*
X5281Y7343D1*
X5221Y7297D1*
X5154Y7263D1*
X5083Y7240D1*
X5009Y7229D1*
X4934Y7230D1*
X4861Y7245D1*
X4790Y7271D1*
X4726Y7309D1*
X4668Y7356D1*
X4619Y7413D1*
X4581Y7477D1*
X4553Y7547D1*
X4538Y7621D1*
X4535Y7695D1*
X4545Y7770D1*
X4567Y7841D1*
X4600Y7908D1*
X4644Y7969D1*
X4696Y8019D1*
X4655Y8018D1*
Y8714D1*
X4603Y8697D1*
X4529Y8688D1*
X4455Y8696D1*
X4384Y8720D1*
X4320Y8759D1*
X4272Y8807D1*
Y5751D1*
X4358Y5873D1*
X4461Y5981D1*
X4578Y6075D1*
X4707Y6151D1*
X4846Y6208D1*
X4991Y6245D1*
X5140Y6262D1*
X5290Y6258D1*
X5438Y6234D1*
X5581Y6189D1*
X5716Y6124D1*
X5841Y6042D1*
X5953Y5943D1*
X6051Y5829D1*
X6132Y5703D1*
X6194Y5566D1*
X6237Y5423D1*
X6260Y5275D1*
X6261Y5112D1*
X6240Y4964D1*
X6199Y4820D1*
X6138Y4683D1*
X6059Y4555D1*
X5962Y4440D1*
X5851Y4340D1*
X5753Y4272D1*
X7696D1*
X7326Y4642D1*
X9938Y4971D2*
X9902Y4902D1*
X9859Y4841D1*
X9807Y4786D1*
X9749Y4739D1*
X9685Y4701D1*
X9616Y4672D1*
X9564Y4657D1*
X10309D1*
X10248Y4675D1*
X10180Y4706D1*
X10116Y4746D1*
X10059Y4794D1*
X10008Y4849D1*
X9966Y4911D1*
X9938Y4968D1*
X10938Y4971D2*
X10902Y4902D1*
X10859Y4841D1*
X10807Y4786D1*
X10749Y4739D1*
X10685Y4701D1*
X10616Y4672D1*
X10564Y4657D1*
X11307D1*
X11248Y4675D1*
X11180Y4706D1*
X11116Y4746D1*
X11059Y4794D1*
X11008Y4849D1*
X10966Y4911D1*
X10938Y4968D1*
X19028Y6551D2*
Y6832D1*
X18892Y6698D1*
X18832Y6654D1*
X18741Y6627D1*
X18060Y6626D1*
X17980Y6570D1*
X17965Y6564D1*
X18029Y6554D1*
X18049Y6545D1*
X18078Y6556D1*
X18152Y6565D1*
X18226Y6554D1*
X18245Y6545D1*
X18275Y6556D1*
X18349Y6565D1*
X18423Y6554D1*
X18442Y6545D1*
X18472Y6556D1*
X18546Y6565D1*
X18620Y6554D1*
X18639Y6545D1*
X18669Y6556D1*
X18743Y6565D1*
X18817Y6554D1*
X18836Y6545D1*
X18895Y6562D1*
X18955Y6565D1*
X19014Y6554D1*
X19028Y6550D1*
X12728Y9166D2*
X12984Y9422D1*
X12862Y9427D1*
X12410D1*
X12432Y9406D1*
X12474Y9343D1*
X12501Y9274D1*
X12512Y9189D1*
X12505Y9126D1*
Y8879D1*
X12564Y8894D1*
X12688Y8895D1*
X12665Y8945D1*
X12656Y9004D1*
X12664Y9063D1*
X12688Y9118D1*
X12728Y9166D1*
X13795Y9379D2*
X13906Y9261D1*
X13963Y9211D1*
X14129Y9038D1*
X14161Y9022D1*
X14234D1*
X14294Y9088D1*
X14356Y9129D1*
X14426Y9156D1*
X14500Y9166D1*
X14575Y9159D1*
X14646Y9136D1*
X14711Y9098D1*
X14765Y9047D1*
X14807Y8984D1*
X14833Y8915D1*
X14844Y8830D1*
X14836Y8755D1*
X14811Y8685D1*
X14772Y8621D1*
X14719Y8568D1*
X14649Y8526D1*
X14771Y8402D1*
X14798Y8368D1*
X14906Y8267D1*
X15020Y8147D1*
X15076Y8097D1*
X15243Y7924D1*
X15299Y7875D1*
X15340Y7833D1*
X15371Y7869D1*
Y10475D1*
X15382Y10549D1*
X15427Y10632D1*
X15859Y11065D1*
X15858Y11584D1*
X14766Y10491D1*
X14767Y10383D1*
X14758Y10308D1*
X14732Y10238D1*
X14676Y10163D1*
X13982Y9469D1*
X13923Y9422D1*
X13855Y9392D1*
X13793Y9380D1*
X16835Y8234D2*
X16955Y8348D1*
X17005Y8404D1*
X17178Y8570D1*
X17228Y8626D1*
X17401Y8793D1*
X17450Y8849D1*
X17623Y9016D1*
X17673Y9072D1*
X17846Y9238D1*
X17896Y9294D1*
X17997Y9395D1*
X17963Y9432D1*
X17923Y9495D1*
X17897Y9565D1*
X17887Y9639D1*
X17895Y9714D1*
X17918Y9785D1*
X17957Y9849D1*
X18014Y9907D1*
X17915Y10006D1*
X17415Y9503D1*
X16120Y8209D1*
X16252Y8300D1*
X16322Y8327D1*
X16396Y8337D1*
X16471Y8330D1*
X16542Y8307D1*
X16607Y8269D1*
X16661Y8218D1*
X16703Y8156D1*
X16719Y8114D1*
X16763Y8159D1*
X16835Y8234D1*
X17483Y10438D2*
X17422Y10508D1*
X17314Y10608D1*
X17200Y10728D1*
X17144Y10778D1*
X16977Y10951D1*
X16921Y11001D1*
X16755Y11174D1*
X16699Y11223D1*
X16532Y11396D1*
X16476Y11446D1*
X16350Y11572D1*
Y10963D1*
X16339Y10889D1*
X16293Y10806D1*
X15862Y10373D1*
Y8645D1*
X16761Y9546D1*
X17568Y10353D1*
X17483Y10438D1*
X19495Y13240D2*
X22087D1*
Y10397D1*
X19480D1*
Y13240D1*
X19495D1*
X8292Y10144D2*
X7818D1*
X7811Y10085D1*
X7787Y10015D1*
X7747Y9951D1*
X7694Y9898D1*
X7661Y9877D1*
X8130Y9876D1*
X8203Y9865D1*
X8287Y9820D1*
X8293Y9871D1*
Y10145D1*
X7655Y11353D2*
X7682D1*
X7681Y11493D1*
X7614Y11549D1*
X7565Y11606D1*
X7526Y11670D1*
X7499Y11740D1*
X7484Y11813D1*
X7481Y11888D1*
X7490Y11963D1*
X7512Y12034D1*
X7546Y12101D1*
X7590Y12162D1*
X7644Y12214D1*
X7677Y12236D1*
X7239Y12237D1*
X7301Y12182D1*
X7347Y12123D1*
X7383Y12058D1*
X7407Y11987D1*
X7421Y11878D1*
X7414Y11804D1*
X7396Y11731D1*
X7365Y11663D1*
X7324Y11600D1*
X7272Y11546D1*
X7219Y11503D1*
Y11351D1*
X7455Y11353D1*
X7680D1*
X6655D2*
X6727D1*
Y11503D1*
X6660Y11560D1*
X6611Y11616D1*
X6572Y11681D1*
X6545Y11750D1*
X6530Y11824D1*
X6527Y11899D1*
X6534Y11970D1*
X6460Y12044D1*
Y11353D1*
X6729D1*
X5313Y8018D2*
X5267D1*
X5309Y7979D1*
X5356Y7920D1*
X5391Y7854D1*
X5415Y7783D1*
X5428Y7698D1*
X5453Y7783D1*
X5486Y7850D1*
X5530Y7910D1*
X5584Y7962D1*
X5625Y7990D1*
X5588Y8018D1*
X5288D1*
X6229Y9227D2*
X6313Y9225D1*
X6380Y9227D1*
X6477D1*
Y9467D1*
X6369Y9574D1*
X6308Y9607D1*
X6252Y9656D1*
X6229Y9689D1*
X6230Y9227D1*
X6320D1*
X11849Y10122D2*
X11847Y10114D1*
X11849Y10120D1*
X11347Y10122D1*
X10988D1*
X10987Y9950D1*
X11853Y9949D1*
X11840Y10039D1*
X11847Y10114D1*
X10847Y11330D2*
X10905Y11331D1*
X10837Y11390D1*
X10788Y11447D1*
X10749Y11511D1*
X10722Y11581D1*
X10707Y11654D1*
X10704Y11729D1*
X10711Y11800D1*
X9649Y12862D1*
X7141Y12863D1*
X7059Y12808D1*
X6989Y12782D1*
X6928Y12772D1*
Y12728D1*
X8399Y12729D1*
X8473Y12718D1*
X8556Y12672D1*
X8713Y12517D1*
X8757Y12457D1*
X8784Y12366D1*
X8785Y11933D1*
X8835Y11981D1*
X8897Y12024D1*
X8965Y12055D1*
X9037Y12075D1*
X9112Y12082D1*
X9186Y12077D1*
X9259Y12060D1*
X9328Y12030D1*
X9391Y11990D1*
X9431Y11954D1*
X9430Y12125D1*
X9383Y12142D1*
X9319Y12181D1*
X9265Y12233D1*
X9225Y12296D1*
X9199Y12366D1*
X9189Y12441D1*
X9196Y12515D1*
X9220Y12586D1*
X9259Y12650D1*
X9310Y12704D1*
X9373Y12745D1*
X9443Y12772D1*
X9517Y12782D1*
X9592Y12775D1*
X9663Y12752D1*
X9727Y12714D1*
X9782Y12663D1*
X9823Y12601D1*
X9850Y12531D1*
X9864Y12454D1*
X9903Y12390D1*
X9922Y12295D1*
Y11866D1*
X10009Y11880D1*
X10084Y11874D1*
X10155Y11851D1*
X10219Y11813D1*
X10274Y11761D1*
X10315Y11699D1*
X10342Y11629D1*
X10352Y11558D1*
X10403Y11481D1*
X10422Y11386D1*
Y11331D1*
X10907D1*
X10367Y10122D2*
X10347Y10124D1*
X10280Y10122D1*
X10010D1*
X10003Y10063D1*
X9979Y9992D1*
X9939Y9929D1*
X9886Y9876D1*
X9823Y9836D1*
X9804Y9827D1*
X10036D1*
X10110Y9816D1*
X10193Y9770D1*
X10350Y9615D1*
X10394Y9555D1*
X10421Y9464D1*
X10422Y9205D1*
X11341D1*
X11347Y9258D1*
X11371Y9329D1*
X11409Y9393D1*
X11443Y9429D1*
X10910Y9427D1*
X10867Y9405D1*
X10810Y9386D1*
X10751Y9378D1*
X10691Y9381D1*
X10633Y9396D1*
X10579Y9422D1*
X10520Y9469D1*
X10418Y9579D1*
X10389Y9631D1*
X10371Y9689D1*
X10365Y9752D1*
Y10120D1*
X8847Y10204D2*
Y11282D1*
X8785Y11340D1*
Y9828D1*
X9047Y9827D1*
X8969Y9872D1*
X8916Y9925D1*
X8875Y9988D1*
X8850Y10058D1*
X8840Y10132D1*
X8847Y10204D1*
X8922Y9205D2*
X8952D1*
X9017Y9287D1*
X9094Y9330D1*
X8986Y9335D1*
X8679D1*
X8605Y9347D1*
X8522Y9392D1*
X8515Y9341D1*
Y7008D1*
X9610Y7007D1*
X12199D1*
X12201Y7068D1*
X12133Y7056D1*
X12058Y7057D1*
X11984Y7072D1*
X11914Y7098D1*
X11849Y7135D1*
X11792Y7183D1*
X11743Y7240D1*
X11704Y7304D1*
X11677Y7374D1*
X11662Y7447D1*
X11659Y7522D1*
X11668Y7597D1*
X11690Y7668D1*
X11724Y7735D1*
X11768Y7796D1*
X11822Y7848D1*
X11860Y7877D1*
Y7996D1*
X11423D1*
X11422Y7847D1*
X11410Y7773D1*
X11365Y7690D1*
X11353Y7622D1*
X11328Y7552D1*
X11288Y7488D1*
X11236Y7435D1*
X11173Y7395D1*
X11102Y7370D1*
X11028Y7361D1*
X10953Y7368D1*
X10882Y7392D1*
X10819Y7432D1*
X10765Y7484D1*
X10724Y7547D1*
X10699Y7617D1*
X10689Y7691D1*
X10696Y7766D1*
X10720Y7837D1*
X10759Y7901D1*
X10810Y7955D1*
X10870Y7996D1*
X10428D1*
X10456Y7938D1*
X10511Y7888D1*
X10557Y7829D1*
X10593Y7763D1*
X10617Y7692D1*
X10631Y7584D1*
X10624Y7509D1*
X10606Y7437D1*
X10575Y7368D1*
X10534Y7306D1*
X10482Y7251D1*
X10423Y7206D1*
X10356Y7171D1*
X10285Y7148D1*
X10211Y7138D1*
X10136Y7139D1*
X10062Y7153D1*
X9992Y7180D1*
X9927Y7217D1*
X9870Y7265D1*
X9821Y7322D1*
X9782Y7386D1*
X9755Y7456D1*
X9740Y7529D1*
X9737Y7604D1*
X9746Y7678D1*
X9768Y7750D1*
X9802Y7817D1*
X9846Y7877D1*
X9900Y7930D1*
X9935Y7957D1*
X9934Y7997D1*
X9451Y7996D1*
X9478Y7948D1*
X9533Y7897D1*
X9579Y7838D1*
X9615Y7772D1*
X9639Y7702D1*
X9652Y7593D1*
X9646Y7519D1*
X9628Y7446D1*
X9597Y7378D1*
X9556Y7315D1*
X9504Y7261D1*
X9445Y7215D1*
X9378Y7181D1*
X9307Y7158D1*
X9233Y7147D1*
X9158Y7149D1*
X9084Y7163D1*
X9014Y7189D1*
X8949Y7227D1*
X8892Y7275D1*
X8843Y7331D1*
X8804Y7396D1*
X8777Y7465D1*
X8762Y7539D1*
X8759Y7613D1*
X8768Y7688D1*
X8790Y7759D1*
X8824Y7826D1*
X8868Y7887D1*
X8922Y7939D1*
X8959Y7968D1*
Y7994D1*
X8847Y7996D1*
Y8213D1*
X8840Y8275D1*
X8847Y8371D1*
Y9205D1*
X8922D1*
X4272Y15253D2*
X4358Y15373D1*
X4461Y15481D1*
X4578Y15575D1*
X4620Y15601D1*
X4272Y15602D1*
Y15253D1*
X21754Y15601D2*
X21841Y15542D1*
X21953Y15443D1*
X22051Y15329D1*
X22102Y15253D1*
Y15602D1*
X21753D1*
X22103Y4591D2*
X21977Y4506D1*
X21842Y4440D1*
X21700Y4393D1*
X21552Y4367D1*
X21403Y4361D1*
X21254Y4376D1*
X21108Y4412D1*
X20969Y4468D1*
X20839Y4542D1*
X20720Y4634D1*
X20639Y4715D1*
X20632Y4674D1*
X20605Y4604D1*
X20550Y4528D1*
X20293Y4271D1*
X22102Y4272D1*
Y4593D1*
X4623Y4271D2*
X4528Y4336D1*
X4416Y4436D1*
X4319Y4550D1*
X4271Y4622D1*
X4272Y4272D1*
X4621D1*
X21272Y8840D2*
X21210Y8846D1*
X21139Y8870D1*
X21075Y8910D1*
X21021Y8962D1*
X20981Y9025D1*
X20955Y9095D1*
X20946Y9169D1*
X20953Y9244D1*
X20976Y9315D1*
X21015Y9379D1*
X21067Y9433D1*
X21129Y9474D1*
X21199Y9500D1*
X21276Y9510D1*
X15135Y13000D2*
D20*
X15562D1*
X18071Y7264D2*
X18479D1*
X15172Y4748D2*
X15599D1*
X20687Y8252D2*
Y7687D1*
X20161D2*
X20687D1*
X14187Y6274D2*
Y5596D1*
X13770Y5935D2*
X14604D1*
X12750Y9187D2*
X13187D1*
X20783Y13240D2*
Y10398D1*
X19480Y11819D2*
X22087D1*
X18937Y6565D2*
Y6187D1*
Y4691D2*
X19207D1*
X6484Y9227D2*
Y8622D1*
X10676Y9204D2*
Y7996D1*
D21*
X15562Y13000D3*
X16231D3*
D22*
X18479Y7264D3*
Y7934D3*
X19962Y5225D3*
Y5894D3*
D21*
X15599Y4748D3*
X16268D3*
D22*
X17098Y5000D3*
Y5669D3*
X16306Y5556D3*
Y6225D3*
D23*
X20687Y7687D3*
X19585D3*
D24*
X21687Y6937D3*
Y8039D3*
D25*
X18437Y14687D3*
D26*
Y13687D3*
D27*
X15937Y14687D3*
D28*
X15150D3*
X14362D3*
X13575D3*
X12787D3*
X12000D3*
X11213D3*
X10425D3*
X9638D3*
X8850D3*
X8063D3*
X7276D3*
Y13900D3*
X8063D3*
X8850D3*
X9638D3*
X10425D3*
X11213D3*
X12000D3*
X12787D3*
X13575D3*
X14362D3*
X15150D3*
X15937D3*
D29*
X7437Y5187D3*
D30*
X8437D3*
X9437D3*
X10437D3*
X11437D3*
D32*
X14187D3*
Y5935D3*
X13281Y5561D3*
D21*
X18500Y12000D3*
X17830D3*
X17393Y12562D3*
X18062D3*
X15562Y5312D3*
X14893D3*
G36*
X17630Y6643D2*
X17352Y6921D1*
X17658Y7228D1*
X17937Y6949D1*
X17630Y6643D1*
G37*
G36*
X17157Y6170D2*
X16879Y6448D1*
X17185Y6754D1*
X17463Y6476D1*
X17157Y6170D1*
G37*
D21*
X19455Y6642D3*
X20125D3*
D33*
X18562Y11375D3*
X18937Y10937D3*
X12906Y6163D3*
X18937Y9687D3*
G36*
X13006Y8867D2*
X12867Y9006D1*
X13368Y9507D1*
X13507Y9368D1*
X13006Y8867D1*
G37*
G36*
X13229Y8644D2*
X13090Y8783D1*
X13591Y9284D1*
X13730Y9145D1*
X13229Y8644D1*
G37*
G36*
X13451Y8421D2*
X13312Y8561D1*
X13813Y9062D1*
X13953Y8923D1*
X13451Y8421D1*
G37*
G36*
X13674Y8199D2*
X13535Y8338D1*
X14036Y8839D1*
X14175Y8700D1*
X13674Y8199D1*
G37*
G36*
X13897Y7976D2*
X13758Y8115D1*
X14259Y8616D1*
X14398Y8477D1*
X13897Y7976D1*
G37*
G36*
X14120Y7753D2*
X13980Y7892D1*
X14482Y8394D1*
X14621Y8254D1*
X14120Y7753D1*
G37*
G36*
X14342Y7531D2*
X14203Y7670D1*
X14704Y8171D1*
X14843Y8032D1*
X14342Y7531D1*
G37*
G36*
X14565Y7308D2*
X14426Y7447D1*
X14927Y7948D1*
X15066Y7809D1*
X14565Y7308D1*
G37*
G36*
X14788Y7085D2*
X14649Y7224D1*
X15150Y7725D1*
X15289Y7586D1*
X14788Y7085D1*
G37*
G36*
X15010Y6862D2*
X14871Y7002D1*
X15372Y7503D1*
X15512Y7364D1*
X15010Y6862D1*
G37*
G36*
X15233Y6640D2*
X15094Y6779D1*
X15595Y7280D1*
X15734Y7141D1*
X15233Y6640D1*
G37*
G36*
X16040Y7141D2*
X16180Y7280D1*
X16681Y6779D1*
X16542Y6640D1*
X16040Y7141D1*
G37*
G36*
X16263Y7364D2*
X16402Y7503D1*
X16903Y7002D1*
X16764Y6862D1*
X16263Y7364D1*
G37*
G36*
X16486Y7586D2*
X16625Y7725D1*
X17126Y7224D1*
X16987Y7085D1*
X16486Y7586D1*
G37*
G36*
X16709Y7809D2*
X16848Y7948D1*
X17349Y7447D1*
X17210Y7308D1*
X16709Y7809D1*
G37*
G36*
X16931Y8032D2*
X17071Y8171D1*
X17572Y7670D1*
X17432Y7531D1*
X16931Y8032D1*
G37*
G36*
X17154Y8254D2*
X17293Y8394D1*
X17794Y7892D1*
X17655Y7753D1*
X17154Y8254D1*
G37*
G36*
X17377Y8477D2*
X17516Y8616D1*
X18017Y8115D1*
X17878Y7976D1*
X17377Y8477D1*
G37*
G36*
X17599Y8700D2*
X17739Y8839D1*
X18240Y8338D1*
X18101Y8199D1*
X17599Y8700D1*
G37*
G36*
X17822Y8923D2*
X17961Y9062D1*
X18462Y8561D1*
X18323Y8421D1*
X17822Y8923D1*
G37*
G36*
X18045Y9145D2*
X18184Y9284D1*
X18685Y8783D1*
X18546Y8644D1*
X18045Y9145D1*
G37*
G36*
X18268Y9368D2*
X18407Y9507D1*
X18908Y9006D1*
X18769Y8867D1*
X18268Y9368D1*
G37*
G36*
X18407Y9813D2*
X18268Y9953D1*
X18769Y10454D1*
X18908Y10314D1*
X18407Y9813D1*
G37*
G36*
X18184Y10036D2*
X18045Y10175D1*
X18546Y10676D1*
X18685Y10537D1*
X18184Y10036D1*
G37*
G36*
X17961Y10259D2*
X17822Y10398D1*
X18323Y10899D1*
X18462Y10760D1*
X17961Y10259D1*
G37*
G36*
X17739Y10482D2*
X17599Y10621D1*
X18101Y11122D1*
X18240Y10983D1*
X17739Y10482D1*
G37*
G36*
X17516Y10704D2*
X17377Y10843D1*
X17878Y11345D1*
X18017Y11205D1*
X17516Y10704D1*
G37*
G36*
X17293Y10927D2*
X17154Y11066D1*
X17655Y11567D1*
X17794Y11428D1*
X17293Y10927D1*
G37*
G36*
X17071Y11150D2*
X16931Y11289D1*
X17432Y11790D1*
X17572Y11651D1*
X17071Y11150D1*
G37*
G36*
X16848Y11372D2*
X16709Y11512D1*
X17210Y12013D1*
X17349Y11873D1*
X16848Y11372D1*
G37*
G36*
X16625Y11595D2*
X16486Y11734D1*
X16987Y12235D1*
X17126Y12096D1*
X16625Y11595D1*
G37*
G36*
X16402Y11818D2*
X16263Y11957D1*
X16764Y12458D1*
X16903Y12319D1*
X16402Y11818D1*
G37*
G36*
X16180Y12040D2*
X16040Y12180D1*
X16542Y12681D1*
X16681Y12542D1*
X16180Y12040D1*
G37*
G36*
X15094Y12542D2*
X15233Y12681D1*
X15734Y12180D1*
X15595Y12040D1*
X15094Y12542D1*
G37*
G36*
X14871Y12319D2*
X15010Y12458D1*
X15512Y11957D1*
X15372Y11818D1*
X14871Y12319D1*
G37*
G36*
X14649Y12096D2*
X14788Y12235D1*
X15289Y11734D1*
X15150Y11595D1*
X14649Y12096D1*
G37*
G36*
X14426Y11873D2*
X14565Y12013D1*
X15066Y11512D1*
X14927Y11372D1*
X14426Y11873D1*
G37*
G36*
X14203Y11651D2*
X14342Y11790D1*
X14843Y11289D1*
X14704Y11150D1*
X14203Y11651D1*
G37*
G36*
X13980Y11428D2*
X14120Y11567D1*
X14621Y11066D1*
X14482Y10927D1*
X13980Y11428D1*
G37*
G36*
X13758Y11205D2*
X13897Y11345D1*
X14398Y10843D1*
X14259Y10704D1*
X13758Y11205D1*
G37*
G36*
X13535Y10983D2*
X13674Y11122D1*
X14175Y10621D1*
X14036Y10482D1*
X13535Y10983D1*
G37*
G36*
X13312Y10760D2*
X13451Y10899D1*
X13953Y10398D1*
X13813Y10259D1*
X13312Y10760D1*
G37*
G36*
X13090Y10537D2*
X13229Y10676D1*
X13730Y10175D1*
X13591Y10036D1*
X13090Y10537D1*
G37*
G36*
X12867Y10314D2*
X13006Y10454D1*
X13507Y9953D1*
X13368Y9813D1*
X12867Y10314D1*
G37*
D35*
X19886Y9181D3*
X21681D3*
D36*
X20783Y11819D3*
D38*
X18937Y6187D3*
X18740D3*
X18543D3*
X18346D3*
X18150D3*
X17953D3*
D39*
X17697Y5931D3*
Y5734D3*
Y5537D3*
Y5341D3*
Y5144D3*
Y4947D3*
D38*
X17953Y4691D3*
X18150D3*
X18346D3*
X18543D3*
X18740D3*
X18937D3*
D39*
X19193Y4947D3*
Y5144D3*
Y5341D3*
Y5537D3*
Y5734D3*
Y5931D3*
D40*
X18445Y5439D3*
D41*
X7984Y10748D3*
X7484D3*
X6984D3*
X6484D3*
X5984D3*
X5484D3*
X4984D3*
Y8622D3*
X5484D3*
X5984D3*
X6484D3*
X6984D3*
X7484D3*
X7984D3*
X12176Y10726D3*
X11676D3*
X11176D3*
X10676D3*
X10176D3*
X9676D3*
X9176D3*
Y8600D3*
X9676D3*
X10176D3*
X10676D3*
X11176D3*
X11676D3*
X12176D3*
D33*
X4987Y11794D3*
X7928Y7745D3*
X9119Y11635D3*
X12105Y7502D3*
X10184Y7584D3*
X11151Y11709D3*
X5868Y7616D3*
X6973Y11878D3*
X7927Y11868D3*
X4982Y7675D3*
X12176Y11707D3*
X9205Y7593D3*
M02*
