G04 DipTrace 2.4.0.2*
%INTopDimension.gbr*%
%MOIN*%
%ADD13C,0.0014*%
%ADD83C,0.0062*%
%FSLAX44Y44*%
G04*
G70*
G90*
G75*
G01*
%LNTopDimension*%
%LPD*%
X3937Y15937D2*
D13*
Y19134D1*
X22437Y15937D2*
Y19134D1*
X13187Y18937D2*
X4331D1*
G36*
X3937D2*
X4331Y19016D1*
Y18858D1*
X3937Y18937D1*
G37*
X13187D2*
D13*
X22043D1*
G36*
X22437D2*
X22043Y18858D1*
Y19016D1*
X22437Y18937D1*
G37*
X3937Y15937D2*
D13*
X2240D1*
X3937Y3937D2*
X2240D1*
X2437Y9937D2*
Y15543D1*
G36*
Y15937D2*
X2516Y15543D1*
X2358D1*
X2437Y15937D1*
G37*
Y9937D2*
D13*
Y4331D1*
G36*
Y3937D2*
X2358Y4331D1*
X2516D1*
X2437Y3937D1*
G37*
X4607Y14687D2*
D13*
Y16384D1*
X5767Y14687D2*
Y16384D1*
X4607Y16187D2*
X5767D1*
X4016D2*
X4213D1*
G36*
X4607D2*
X4213Y16108D1*
Y16266D1*
X4607Y16187D1*
G37*
X6358D2*
D13*
X6161D1*
G36*
X5767D2*
X6161Y16266D1*
Y16108D1*
X5767Y16187D1*
G37*
X4187Y14687D2*
D13*
Y17134D1*
X6187Y14687D2*
Y17134D1*
X4187Y16937D2*
X6187D1*
X3596D2*
X3793D1*
G36*
X4187D2*
X3793Y16858D1*
Y17016D1*
X4187Y16937D1*
G37*
X6778D2*
D13*
X6581D1*
G36*
X6187D2*
X6581Y17016D1*
Y16858D1*
X6187Y16937D1*
G37*
X5187Y5187D2*
D13*
Y2011D1*
X21437Y5437D2*
Y2011D1*
X13312Y2208D2*
X5581D1*
G36*
X5187D2*
X5581Y2286D1*
Y2129D1*
X5187Y2208D1*
G37*
X13312D2*
D13*
X21043D1*
G36*
X21437D2*
X21043Y2129D1*
Y2286D1*
X21437Y2208D1*
G37*
X21187Y14687D2*
D13*
X23634D1*
X21437Y5437D2*
X23634D1*
X23437Y10062D2*
Y14293D1*
G36*
Y14687D2*
X23516Y14293D1*
X23358D1*
X23437Y14687D1*
G37*
Y10062D2*
D13*
Y5831D1*
G36*
Y5437D2*
X23358Y5831D1*
X23516D1*
X23437Y5437D1*
G37*
X5187Y14687D2*
D13*
X3240D1*
X5187Y5187D2*
X3240D1*
X3437Y9937D2*
Y14293D1*
G36*
Y14687D2*
X3516Y14293D1*
X3358D1*
X3437Y14687D1*
G37*
Y9937D2*
D13*
Y5581D1*
G36*
Y5187D2*
X3358Y5581D1*
X3516D1*
X3437Y5187D1*
G37*
X5187Y14687D2*
D13*
Y18134D1*
X21187Y14687D2*
Y18134D1*
X13187Y17937D2*
X5581D1*
G36*
X5187D2*
X5581Y18016D1*
Y17858D1*
X5187Y17937D1*
G37*
X13187D2*
D13*
X20793D1*
G36*
X21187D2*
X20793Y17858D1*
Y18016D1*
X21187Y17937D1*
G37*
X12583Y19384D2*
D83*
X12621Y19404D1*
X12679Y19461D1*
Y19059D1*
X12898Y19461D2*
X12841Y19442D1*
X12821Y19404D1*
Y19365D1*
X12841Y19327D1*
X12879Y19308D1*
X12955Y19289D1*
X13013Y19270D1*
X13051Y19231D1*
X13070Y19193D1*
Y19136D1*
X13051Y19098D1*
X13032Y19078D1*
X12974Y19059D1*
X12898D1*
X12841Y19078D1*
X12821Y19098D1*
X12802Y19136D1*
Y19193D1*
X12821Y19231D1*
X12860Y19270D1*
X12917Y19289D1*
X12993Y19308D1*
X13032Y19327D1*
X13051Y19365D1*
Y19404D1*
X13032Y19442D1*
X12974Y19461D1*
X12898D1*
X13423D2*
X13232D1*
X13213Y19289D1*
X13232Y19308D1*
X13289Y19327D1*
X13346D1*
X13404Y19308D1*
X13442Y19270D1*
X13461Y19212D1*
Y19174D1*
X13442Y19117D1*
X13404Y19078D1*
X13346Y19059D1*
X13289D1*
X13232Y19078D1*
X13213Y19098D1*
X13193Y19136D1*
X13700Y19461D2*
X13642Y19442D1*
X13604Y19384D1*
X13585Y19289D1*
Y19231D1*
X13604Y19136D1*
X13642Y19078D1*
X13700Y19059D1*
X13738D1*
X13795Y19078D1*
X13833Y19136D1*
X13853Y19231D1*
Y19289D1*
X13833Y19384D1*
X13795Y19442D1*
X13738Y19461D1*
X13700D1*
X13833Y19384D2*
X13604Y19136D1*
X1990Y9333D2*
X1970Y9371D1*
X1913Y9429D1*
X2315D1*
X2009Y9572D2*
X1990D1*
X1951Y9591D1*
X1932Y9610D1*
X1913Y9648D1*
Y9725D1*
X1932Y9763D1*
X1951Y9782D1*
X1990Y9801D1*
X2028D1*
X2066Y9782D1*
X2123Y9744D1*
X2315Y9552D1*
Y9820D1*
X1913Y10059D2*
X1932Y10001D1*
X1990Y9963D1*
X2085Y9944D1*
X2143D1*
X2238Y9963D1*
X2296Y10001D1*
X2315Y10059D1*
Y10097D1*
X2296Y10154D1*
X2238Y10192D1*
X2143Y10212D1*
X2085D1*
X1990Y10192D1*
X1932Y10154D1*
X1913Y10097D1*
Y10059D1*
X1990Y10192D2*
X2238Y9963D1*
X1913Y10450D2*
X1932Y10393D1*
X1990Y10354D1*
X2085Y10335D1*
X2143D1*
X2238Y10354D1*
X2296Y10393D1*
X2315Y10450D1*
Y10488D1*
X2296Y10546D1*
X2238Y10584D1*
X2143Y10603D1*
X2085D1*
X1990Y10584D1*
X1932Y10546D1*
X1913Y10488D1*
Y10450D1*
X1990Y10584D2*
X2238Y10354D1*
X4874Y16634D2*
X4913Y16654D1*
X4970Y16711D1*
Y16309D1*
X5094Y16634D2*
X5132Y16654D1*
X5190Y16711D1*
Y16309D1*
X5543Y16654D2*
X5524Y16692D1*
X5466Y16711D1*
X5428D1*
X5371Y16692D1*
X5332Y16634D1*
X5313Y16539D1*
Y16443D1*
X5332Y16367D1*
X5371Y16328D1*
X5428Y16309D1*
X5447D1*
X5504Y16328D1*
X5543Y16367D1*
X5562Y16424D1*
Y16443D1*
X5543Y16501D1*
X5504Y16539D1*
X5447Y16558D1*
X5428D1*
X5371Y16539D1*
X5332Y16501D1*
X5313Y16443D1*
X4712Y17365D2*
Y17384D1*
X4731Y17423D1*
X4750Y17442D1*
X4788Y17461D1*
X4865D1*
X4903Y17442D1*
X4922Y17423D1*
X4941Y17384D1*
Y17346D1*
X4922Y17308D1*
X4884Y17251D1*
X4692Y17059D1*
X4960D1*
X5199Y17461D2*
X5141Y17442D1*
X5103Y17384D1*
X5084Y17289D1*
Y17231D1*
X5103Y17136D1*
X5141Y17078D1*
X5199Y17059D1*
X5237D1*
X5294Y17078D1*
X5332Y17136D1*
X5352Y17231D1*
Y17289D1*
X5332Y17384D1*
X5294Y17442D1*
X5237Y17461D1*
X5199D1*
X5332Y17384D2*
X5103Y17136D1*
X5590Y17461D2*
X5533Y17442D1*
X5494Y17384D1*
X5475Y17289D1*
Y17231D1*
X5494Y17136D1*
X5533Y17078D1*
X5590Y17059D1*
X5628D1*
X5686Y17078D1*
X5724Y17136D1*
X5743Y17231D1*
Y17289D1*
X5724Y17384D1*
X5686Y17442D1*
X5628Y17461D1*
X5590D1*
X5724Y17384D2*
X5494Y17136D1*
X12717Y2655D2*
X12756Y2674D1*
X12813Y2731D1*
Y2330D1*
X13166Y2674D2*
X13147Y2712D1*
X13090Y2731D1*
X13052D1*
X12994Y2712D1*
X12956Y2655D1*
X12937Y2559D1*
Y2464D1*
X12956Y2387D1*
X12994Y2349D1*
X13052Y2330D1*
X13071D1*
X13128Y2349D1*
X13166Y2387D1*
X13185Y2445D1*
Y2464D1*
X13166Y2521D1*
X13128Y2559D1*
X13071Y2578D1*
X13052D1*
X12994Y2559D1*
X12956Y2521D1*
X12937Y2464D1*
X13328Y2636D2*
Y2655D1*
X13347Y2693D1*
X13366Y2712D1*
X13405Y2731D1*
X13481D1*
X13519Y2712D1*
X13538Y2693D1*
X13558Y2655D1*
Y2617D1*
X13538Y2578D1*
X13500Y2521D1*
X13309Y2330D1*
X13577D1*
X13930Y2731D2*
X13739D1*
X13720Y2559D1*
X13739Y2578D1*
X13796Y2598D1*
X13853D1*
X13911Y2578D1*
X13949Y2540D1*
X13968Y2483D1*
Y2445D1*
X13949Y2387D1*
X13911Y2349D1*
X13853Y2330D1*
X13796D1*
X13739Y2349D1*
X13720Y2368D1*
X13700Y2406D1*
X23827Y10298D2*
X23770Y10318D1*
X23731Y10356D1*
X23712Y10413D1*
Y10432D1*
X23731Y10490D1*
X23770Y10528D1*
X23827Y10547D1*
X23846D1*
X23904Y10528D1*
X23942Y10490D1*
X23961Y10432D1*
Y10413D1*
X23942Y10356D1*
X23904Y10318D1*
X23827Y10298D1*
X23731D1*
X23636Y10318D1*
X23578Y10356D1*
X23559Y10413D1*
Y10451D1*
X23578Y10509D1*
X23617Y10528D1*
X23865Y10155D2*
X23884D1*
X23923Y10136D1*
X23942Y10117D1*
X23961Y10079D1*
Y10002D1*
X23942Y9964D1*
X23923Y9945D1*
X23884Y9926D1*
X23846D1*
X23808Y9945D1*
X23751Y9983D1*
X23559Y10175D1*
Y9907D1*
X23961Y9554D2*
Y9745D1*
X23789Y9764D1*
X23808Y9745D1*
X23827Y9687D1*
Y9630D1*
X23808Y9573D1*
X23770Y9534D1*
X23712Y9515D1*
X23674D1*
X23617Y9534D1*
X23578Y9573D1*
X23559Y9630D1*
Y9687D1*
X23578Y9745D1*
X23598Y9764D1*
X23636Y9783D1*
X3047Y9701D2*
X3104Y9681D1*
X3143Y9643D1*
X3162Y9586D1*
Y9567D1*
X3143Y9509D1*
X3104Y9471D1*
X3047Y9452D1*
X3028D1*
X2970Y9471D1*
X2932Y9509D1*
X2913Y9567D1*
Y9586D1*
X2932Y9643D1*
X2970Y9681D1*
X3047Y9701D1*
X3143D1*
X3238Y9681D1*
X3296Y9643D1*
X3315Y9586D1*
Y9548D1*
X3296Y9490D1*
X3257Y9471D1*
X2913Y10054D2*
Y9863D1*
X3085Y9844D1*
X3066Y9863D1*
X3047Y9920D1*
Y9977D1*
X3066Y10035D1*
X3104Y10073D1*
X3162Y10092D1*
X3200D1*
X3257Y10073D1*
X3296Y10035D1*
X3315Y9977D1*
Y9920D1*
X3296Y9863D1*
X3276Y9844D1*
X3238Y9824D1*
X2913Y10331D2*
X2932Y10273D1*
X2990Y10235D1*
X3085Y10216D1*
X3143D1*
X3238Y10235D1*
X3296Y10273D1*
X3315Y10331D1*
Y10369D1*
X3296Y10426D1*
X3238Y10464D1*
X3143Y10484D1*
X3085D1*
X2990Y10464D1*
X2932Y10426D1*
X2913Y10369D1*
Y10331D1*
X2990Y10464D2*
X3238Y10235D1*
X12592Y18384D2*
X12631Y18404D1*
X12688Y18461D1*
Y18059D1*
X13041Y18404D2*
X13022Y18442D1*
X12965Y18461D1*
X12927D1*
X12869Y18442D1*
X12831Y18384D1*
X12812Y18289D1*
Y18193D1*
X12831Y18117D1*
X12869Y18078D1*
X12927Y18059D1*
X12946D1*
X13003Y18078D1*
X13041Y18117D1*
X13060Y18174D1*
Y18193D1*
X13041Y18251D1*
X13003Y18289D1*
X12946Y18308D1*
X12927D1*
X12869Y18289D1*
X12831Y18251D1*
X12812Y18193D1*
X13299Y18461D2*
X13241Y18442D1*
X13203Y18384D1*
X13184Y18289D1*
Y18231D1*
X13203Y18136D1*
X13241Y18078D1*
X13299Y18059D1*
X13337D1*
X13394Y18078D1*
X13432Y18136D1*
X13452Y18231D1*
Y18289D1*
X13432Y18384D1*
X13394Y18442D1*
X13337Y18461D1*
X13299D1*
X13432Y18384D2*
X13203Y18136D1*
X13690Y18461D2*
X13633Y18442D1*
X13594Y18384D1*
X13575Y18289D1*
Y18231D1*
X13594Y18136D1*
X13633Y18078D1*
X13690Y18059D1*
X13728D1*
X13786Y18078D1*
X13824Y18136D1*
X13843Y18231D1*
Y18289D1*
X13824Y18384D1*
X13786Y18442D1*
X13728Y18461D1*
X13690D1*
X13824Y18384D2*
X13594Y18136D1*
M02*
