G04 DipTrace 2.4.0.2*
%INTopPaste.gbr*%
%MOIN*%
%ADD36C,0.0472*%
%ADD53R,0.0216X0.0767*%
%ADD55R,0.0945X0.0945*%
%ADD57O,0.0315X0.0098*%
%ADD59O,0.0098X0.0315*%
%ADD61R,0.2165X0.2401*%
%ADD63R,0.0374X0.1063*%
%ADD67R,0.0393X0.0236*%
%ADD75R,0.0295X0.0216*%
%ADD81R,0.0689X0.061*%
%ADD83R,0.061X0.0689*%
%ADD85R,0.0374X0.0413*%
%ADD87R,0.0413X0.0374*%
%FSLAX44Y44*%
G04*
G70*
G90*
G75*
G01*
%LNTopPaste*%
%LPD*%
D87*
X15578Y12905D3*
X16247D3*
D85*
X18479Y7264D3*
Y7934D3*
X19962Y5225D3*
Y5894D3*
D87*
X15599Y4748D3*
X16268D3*
D85*
X17098Y5000D3*
Y5669D3*
X16306Y5556D3*
Y6225D3*
D83*
X20687Y7687D3*
X19585D3*
D81*
X21687Y6937D3*
Y8039D3*
D75*
X19096Y12738D3*
X18663D3*
D67*
X14187Y5187D3*
Y5935D3*
X13281Y5561D3*
D87*
X17842Y12041D3*
X18511D3*
X8883Y6255D3*
X8214D3*
X15562Y5312D3*
X14893D3*
G36*
X17630Y6657D2*
X17366Y6921D1*
X17658Y7213D1*
X17922Y6949D1*
X17630Y6657D1*
G37*
G36*
X17157Y6184D2*
X16893Y6448D1*
X17185Y6740D1*
X17449Y6476D1*
X17157Y6184D1*
G37*
D87*
X19455Y6642D3*
X20125D3*
D36*
X18562Y11375D3*
X18937Y10937D3*
X12906Y6163D3*
X4987Y11794D3*
X7928Y7745D3*
X9119Y11635D3*
X12105Y7502D3*
X18937Y9687D3*
X10184Y7584D3*
X11151Y11709D3*
X5868Y7616D3*
X6973Y11878D3*
X7927Y11868D3*
X4982Y7675D3*
X12176Y11707D3*
X9205Y7593D3*
G36*
X13006Y8881D2*
X12881Y9006D1*
X13368Y9493D1*
X13493Y9368D1*
X13006Y8881D1*
G37*
G36*
X13229Y8658D2*
X13104Y8783D1*
X13591Y9270D1*
X13716Y9145D1*
X13229Y8658D1*
G37*
G36*
X13451Y8436D2*
X13326Y8561D1*
X13813Y9048D1*
X13938Y8923D1*
X13451Y8436D1*
G37*
G36*
X13674Y8213D2*
X13549Y8338D1*
X14036Y8825D1*
X14161Y8700D1*
X13674Y8213D1*
G37*
G36*
X13897Y7990D2*
X13772Y8115D1*
X14259Y8602D1*
X14384Y8477D1*
X13897Y7990D1*
G37*
G36*
X14120Y7767D2*
X13995Y7892D1*
X14482Y8379D1*
X14607Y8254D1*
X14120Y7767D1*
G37*
G36*
X14342Y7545D2*
X14217Y7670D1*
X14704Y8157D1*
X14829Y8032D1*
X14342Y7545D1*
G37*
G36*
X14565Y7322D2*
X14440Y7447D1*
X14927Y7934D1*
X15052Y7809D1*
X14565Y7322D1*
G37*
G36*
X14788Y7099D2*
X14663Y7224D1*
X15150Y7711D1*
X15275Y7586D1*
X14788Y7099D1*
G37*
G36*
X15010Y6877D2*
X14885Y7002D1*
X15372Y7489D1*
X15497Y7364D1*
X15010Y6877D1*
G37*
G36*
X15233Y6654D2*
X15108Y6779D1*
X15595Y7266D1*
X15720Y7141D1*
X15233Y6654D1*
G37*
G36*
X16055Y7141D2*
X16180Y7266D1*
X16667Y6779D1*
X16542Y6654D1*
X16055Y7141D1*
G37*
G36*
X16277Y7364D2*
X16402Y7489D1*
X16889Y7002D1*
X16764Y6877D1*
X16277Y7364D1*
G37*
G36*
X16500Y7586D2*
X16625Y7711D1*
X17112Y7224D1*
X16987Y7099D1*
X16500Y7586D1*
G37*
G36*
X16723Y7809D2*
X16848Y7934D1*
X17335Y7447D1*
X17210Y7322D1*
X16723Y7809D1*
G37*
G36*
X16945Y8032D2*
X17071Y8157D1*
X17557Y7670D1*
X17432Y7545D1*
X16945Y8032D1*
G37*
G36*
X17168Y8254D2*
X17293Y8379D1*
X17780Y7892D1*
X17655Y7767D1*
X17168Y8254D1*
G37*
G36*
X17391Y8477D2*
X17516Y8602D1*
X18003Y8115D1*
X17878Y7990D1*
X17391Y8477D1*
G37*
G36*
X17614Y8700D2*
X17739Y8825D1*
X18226Y8338D1*
X18101Y8213D1*
X17614Y8700D1*
G37*
G36*
X17836Y8923D2*
X17961Y9048D1*
X18448Y8561D1*
X18323Y8436D1*
X17836Y8923D1*
G37*
G36*
X18059Y9145D2*
X18184Y9270D1*
X18671Y8783D1*
X18546Y8658D1*
X18059Y9145D1*
G37*
G36*
X18282Y9368D2*
X18407Y9493D1*
X18894Y9006D1*
X18769Y8881D1*
X18282Y9368D1*
G37*
G36*
X18407Y9828D2*
X18282Y9953D1*
X18769Y10440D1*
X18894Y10314D1*
X18407Y9828D1*
G37*
G36*
X18184Y10050D2*
X18059Y10175D1*
X18546Y10662D1*
X18671Y10537D1*
X18184Y10050D1*
G37*
G36*
X17961Y10273D2*
X17836Y10398D1*
X18323Y10885D1*
X18448Y10760D1*
X17961Y10273D1*
G37*
G36*
X17739Y10496D2*
X17614Y10621D1*
X18101Y11108D1*
X18226Y10983D1*
X17739Y10496D1*
G37*
G36*
X17516Y10718D2*
X17391Y10843D1*
X17878Y11330D1*
X18003Y11205D1*
X17516Y10718D1*
G37*
G36*
X17293Y10941D2*
X17168Y11066D1*
X17655Y11553D1*
X17780Y11428D1*
X17293Y10941D1*
G37*
G36*
X17071Y11164D2*
X16945Y11289D1*
X17432Y11776D1*
X17557Y11651D1*
X17071Y11164D1*
G37*
G36*
X16848Y11386D2*
X16723Y11512D1*
X17210Y11998D1*
X17335Y11873D1*
X16848Y11386D1*
G37*
G36*
X16625Y11609D2*
X16500Y11734D1*
X16987Y12221D1*
X17112Y12096D1*
X16625Y11609D1*
G37*
G36*
X16402Y11832D2*
X16277Y11957D1*
X16764Y12444D1*
X16889Y12319D1*
X16402Y11832D1*
G37*
G36*
X16180Y12055D2*
X16055Y12180D1*
X16542Y12667D1*
X16667Y12542D1*
X16180Y12055D1*
G37*
G36*
X15108Y12542D2*
X15233Y12667D1*
X15720Y12180D1*
X15595Y12055D1*
X15108Y12542D1*
G37*
G36*
X14885Y12319D2*
X15010Y12444D1*
X15497Y11957D1*
X15372Y11832D1*
X14885Y12319D1*
G37*
G36*
X14663Y12096D2*
X14788Y12221D1*
X15275Y11734D1*
X15150Y11609D1*
X14663Y12096D1*
G37*
G36*
X14440Y11873D2*
X14565Y11998D1*
X15052Y11512D1*
X14927Y11386D1*
X14440Y11873D1*
G37*
G36*
X14217Y11651D2*
X14342Y11776D1*
X14829Y11289D1*
X14704Y11164D1*
X14217Y11651D1*
G37*
G36*
X13995Y11428D2*
X14120Y11553D1*
X14607Y11066D1*
X14482Y10941D1*
X13995Y11428D1*
G37*
G36*
X13772Y11205D2*
X13897Y11330D1*
X14384Y10843D1*
X14259Y10718D1*
X13772Y11205D1*
G37*
G36*
X13549Y10983D2*
X13674Y11108D1*
X14161Y10621D1*
X14036Y10496D1*
X13549Y10983D1*
G37*
G36*
X13326Y10760D2*
X13451Y10885D1*
X13938Y10398D1*
X13813Y10273D1*
X13326Y10760D1*
G37*
G36*
X13104Y10537D2*
X13229Y10662D1*
X13716Y10175D1*
X13591Y10050D1*
X13104Y10537D1*
G37*
G36*
X12881Y10314D2*
X13006Y10440D1*
X13493Y9953D1*
X13368Y9828D1*
X12881Y10314D1*
G37*
D63*
X19886Y9181D3*
X21681D3*
D61*
X20783Y11819D3*
D59*
X18937Y6187D3*
X18740D3*
X18543D3*
X18346D3*
X18150D3*
X17953D3*
D57*
X17697Y5931D3*
Y5734D3*
Y5537D3*
Y5341D3*
Y5144D3*
Y4947D3*
D59*
X17953Y4691D3*
X18150D3*
X18346D3*
X18543D3*
X18740D3*
X18937D3*
D57*
X19193Y4947D3*
Y5144D3*
Y5341D3*
Y5537D3*
Y5734D3*
Y5931D3*
D55*
X18445Y5439D3*
D53*
X7984Y10748D3*
X7484D3*
X6984D3*
X6484D3*
X5984D3*
X5484D3*
X4984D3*
Y8622D3*
X5484D3*
X5984D3*
X6484D3*
X6984D3*
X7484D3*
X7984D3*
X12176Y10726D3*
X11676D3*
X11176D3*
X10676D3*
X10176D3*
X9676D3*
X9176D3*
Y8600D3*
X9676D3*
X10176D3*
X10676D3*
X11176D3*
X11676D3*
X12176D3*
M02*
